<?xml version="1.0" encoding="utf-8"?>
<!-- Generator: Adobe Illustrator 19.0.0, SVG Export Plug-In . SVG Version: 6.00 Build 0)  -->
<svg version="1.1" id="Layer_1" xmlns="http://www.w3.org/2000/svg" xmlns:xlink="http://www.w3.org/1999/xlink" x="0px" y="0px"
	 viewBox="-110 350.2 374.2 141.7" style="enable-background:new -110 350.2 374.2 141.7;" xml:space="preserve">
<path id="XMLID_13784_" style="fill:#252626;" d="M-36.5,384.5c-0.5,0-1,0-1.3,0.4c-0.4-0.4-0.9-0.8-1.3-1.2c0-0.5,0-0.9,0.1-1.4
	C-38,382.9-37.1,383.5-36.5,384.5z"/>
<path style="fill:none;stroke:#606161;stroke-width:3;stroke-miterlimit:10;" d="M256.2,399.4c-21.6,1.8-52,4.3-66.3,6.3
	s-24.1,0.7-29-0.1c-4.8-0.8-17.2-2.3-20.7-2.7s-26.4-1.3-37.3-1.2c-10.8,0.1-52,2.5-62.6,3.5s-19.1,0-23.1,0c-4,0-9.8,0.3-12.7-0.9
	c-2.9-1.2-16.3-10.1-19.2-12.9c-2.9-2.8-14.3-7.8-18.7-8.7c-4.3-0.9-11.5-5.4-14.9-6.1c-3.4-0.7-11.4-2.3-14.1-2.6
	c-2.7-0.3-4.5,1.9-4.2,4c0.3,2.2,0.7,5.1,6.5,8.3c5.8,3.2,7.5,3.6,9.9,5.3c2.4,1.6,8.3,4,7.6,5.2c-0.7,1.2-2.6,3.5-7.9,3.8
	c-5.3,0.2-26.5,1.8-33,2.4s-16,2.2-17.1,4.2c-1,2-2.1,7.2,3.2,7.5c5.3,0.3,19.9-1,25.1-0.8c5.2,0.2,10.2-0.3,10.9,0.4
	c0.6,0.7,0.2,1-0.4,1.1c-0.5,0.2-12.8,0.9-16.1,1.2c-3.3,0.3-15.6,2.7-19.9,3.4c-4.2,0.8-9.9,1.8-10.9,4.3c-1.1,2.5-1.3,6.8,2.2,7.1
	c3.5,0.2,14.9-1,20-1.4s22.8-0.9,23.3-0.8c0.5,0.1,0.4,0.4-0.9,0.9c-1.3,0.4-19.2,4.2-25,5.8c-5.8,1.6-10.8,3.2-12.1,4.5
	c-1.2,1.3-2.7,4.1-1.5,5.8c1.3,1.7,1.3,3.3,9.5,1.8s21.3-3.8,26.2-4.4s10.6-1.9,11.1-1s-0.7,1.5-2.4,1.9s-8.4,2.4-13.6,4.5
	c-5.2,2.1-11.8,4.2-12.9,6c-1.1,1.8-1.7,3.2,0.4,4.5c2.1,1.3,4.5,2.1,9.2,0.7c4.7-1.4,14.1-4.2,17.8-5.1c3.6-0.9,17.9-2.6,22.7-2.2
	c4.8,0.4,19.5-1.2,28-4.2c8.4-3,13.4-7.2,17.8-6.6s6,0.7,10.8,1.2s30.4,7.4,37.3,9.5c7,2.1,46.7,11.1,67.3,9.7s38.7-3.4,49.2-1.6
	c10.5,1.9,28.6,3.2,42.4,1.2s44.8-9,44.8-9L256.2,399.4z"/>
<g id="bones" style="opacity:0.5;">
	<path style="fill:#D3E3CC;" d="M162.2,414.7c0.7,1.9-0.6,9.3-1.8,10.9c-1.2,1.5-0.6,4,1.4,4.9c2.1,0.9,5-0.1,4.9,2.4
		c-0.1,2.6-5.7,13.8-1,13.8c4.6,0,6.7,0.6,8.6-7.9c0.4-5.5-2.8-7.5-3.4-10s-0.3-4.6,0.4-5.6c-0.7-1.3-1.4-3.8,0-6.1s1-3.9-2-4.7
		C166.3,411.7,161.5,412.9,162.2,414.7z"/>
	<path style="fill:#8F8F77;" d="M20.3,430.6c1.3,3.2-2.4,8.5-3,9.5c-1.2,0-5.2,1.7-7.1-4.9c-2-6.6-6.2-16.6-4.3-20.9
		c1.9-4.3,2.5-1.9,4,2.6s1.1,7.2,1.7,11.1s0.5,3.9,1.5,4S19.1,427.4,20.3,430.6z"/>
	<path style="fill:#DDB885;stroke:#606161;stroke-width:2;stroke-miterlimit:10;" d="M250.7,428.6c-10.4,2.8-23.8,5.5-29.1,6.3
		c-5.2,0.8-11.4,2.1-16.4,4.1s-11.9,7.3-14.7,11.2c-2.7,3.9-4.6,7.4-7.2,6.2c-2.7-1.4-4.2,0.3-6.3-0.9c-2.1-1.2-1.8-3.8-2-7.4
		c-3-0.7-4.1-1.7-4.9-2.4c-1.5-1.4,1.1-4.5,1.8-5.9s0.8-2,0.7-4.1c-0.1-2.1-2-5.5-2.3-8.4c-0.3-2.3-0.2-3.1,1.7-3.8
		c-2.7-0.9-2.5-5.9-0.9-8.7c2.4-3.4,10.8,1.1,21.4,3.1c10.4,1.8,19.7,0.3,25.5-0.7c5.7-1.1,20.7-4.3,30.5-6.4"/>
	<path style="fill:none;stroke:#606161;stroke-width:2;stroke-miterlimit:10;" d="M180.1,440.4c0.3,2.5,1,8.4-5.1,7.8"/>
	<path style="fill:none;stroke:#606161;stroke-width:2;stroke-miterlimit:10;" d="M179.5,427.4c1.3-1.5,1.7-3.9-0.3-4.7
		c-1.7-0.7-5.9,0.4-7.5,0.9"/>
	<path style="fill:#DDB885;stroke:#606161;stroke-width:2;stroke-miterlimit:10;" d="M162.1,413.7c1.2,2.1-1.5,17.3-3.5,17.3
		s-4.1-2.3-8.1-2.9c-3.9-0.6-30,0.9-62.1-2.9c-32.1-3.7-61.5-0.8-70.1,4.6c-6.5,3.4-6.3,1.8-6.5-0.9c-0.3-2.7-0.6-11.3-2.6-13.1
		c-1.9-1.8-2.8-5.4,2.3-5.3c3.5,0.1,21.6,1.5,39.1,0.8c17.5-0.7,37.1-2.4,65.4,1.3C153.3,419.8,160.9,411.6,162.1,413.7z"/>
	<path style="fill:#DDB885;stroke:#606161;stroke-width:2;stroke-miterlimit:10;" d="M167.8,428c-3.8-0.5-8.1,0.9-15.2,0.5
		c-7-0.3-18.2-3.4-35-1.5s-40.9,5-53.6,6.1c-12.7,1-23-0.8-31.2-2.4c-8.2-1.5-11.1-2.2-13-0.8c-1,1.9,0.9,3-0.4,5.2
		c-1.3,2.2-4.3,5.2,0,5.4c4.6-0.5,12.8,0.8,28,1c15.2,0.2,64.8-4.1,79.9-4.2c15.1-0.2,32.8,5.5,35.3,8.7c2.5,3.3,4.6-0.7,5.6-4.5
		C169.3,437.6,171.7,434.7,167.8,428z"/>
</g>
<g id="Wrinkles">
	<g>
		<path style="fill:#606161;" d="M-34.4,409.3c0,0,0.2,0.4,0.6,1.2s0.9,1.9,1.5,3.2c0.2,0.3,0.3,0.7,0.5,1c0.2,0.4,0.4,0.7,0.6,1.1
			c0.4,0.7,0.8,1.5,1.3,2.3c0.3,0.4,0.5,0.7,0.8,1.1c0.3,0.4,0.6,0.7,0.9,1.1c0.6,0.7,1.3,1.4,2.1,2l0.5,0.5l0.6,0.4
			c0.4,0.3,0.8,0.6,1.2,0.8c0.4,0.2,0.8,0.5,1.2,0.7c0.4,0.3,0.8,0.4,1.2,0.6c0.4,0.2,0.8,0.4,1.2,0.6c0.4,0.2,0.8,0.3,1.2,0.5
			c0.4,0.2,0.8,0.3,1.1,0.5c0.4,0.1,0.7,0.3,1.1,0.4c0.7,0.2,1.3,0.5,1.9,0.7c0.6,0.2,1.1,0.4,1.5,0.5c0.8,0.3,1.3,0.4,1.3,0.4
			s-0.5-0.1-1.3-0.2c-0.4-0.1-0.9-0.2-1.5-0.3s-1.2-0.3-2-0.5c-0.4-0.1-0.7-0.2-1.1-0.3s-0.8-0.3-1.2-0.4c-0.4-0.1-0.8-0.3-1.2-0.4
			c-0.4-0.2-0.8-0.4-1.3-0.6c-0.9-0.4-1.7-0.8-2.6-1.3c-0.4-0.2-0.8-0.5-1.2-0.8l-0.6-0.4l-0.6-0.5c-0.8-0.6-1.5-1.4-2.2-2.1
			c-0.3-0.4-0.6-0.8-0.9-1.2s-0.5-0.8-0.8-1.2c-0.5-0.8-0.9-1.6-1.2-2.4c-0.4-0.8-0.6-1.5-0.9-2.2c-0.5-1.4-0.9-2.6-1.2-3.4
			C-34.3,409.8-34.4,409.3-34.4,409.3z"/>
	</g>
	<g>
		<path style="fill:#606161;" d="M-45.1,407.5c0,0,0.4,0.5,1,1.3c0.3,0.4,0.6,0.8,0.9,1.4c0.3,0.5,0.6,1.1,0.9,1.7
			c0.2,0.6,0.4,1.2,0.6,1.8c0.1,0.3,0.1,0.6,0.2,0.8c0.1,0.3,0.1,0.5,0.1,0.8c0.1,0.9,0.1,1.6,0.1,1.6s-0.3-0.6-0.7-1.4
			c-0.1-0.2-0.2-0.4-0.3-0.7c-0.1-0.2-0.2-0.5-0.3-0.8c-0.2-0.5-0.5-1.1-0.7-1.7c-0.1-0.3-0.3-0.6-0.4-0.8c-0.1-0.3-0.2-0.6-0.3-0.8
			c-0.2-0.5-0.4-1.1-0.6-1.5C-45,408.2-45.1,407.5-45.1,407.5z"/>
	</g>
	<g>
		<path style="fill:#606161;" d="M-42.9,416.1c0,0,0.2,0.4,0.5,1c0.2,0.3,0.4,0.7,0.6,1.2s0.4,1,0.7,1.5c0.5,1.1,1,2.5,1.5,3.9
			c0.3,0.7,0.6,1.4,0.9,2.2c0.3,0.7,0.7,1.4,1,2.2c0.2,0.4,0.4,0.7,0.6,1.1c0.2,0.4,0.4,0.7,0.6,1c0.4,0.7,0.9,1.3,1.3,1.9
			c0.5,0.6,0.9,1.2,1.3,1.7c0.5,0.5,0.8,1.1,1.3,1.5c0.4,0.5,0.8,0.9,1.1,1.2c0.3,0.4,0.6,0.7,0.9,0.9c0.5,0.5,0.8,0.8,0.8,0.8
			s-0.3-0.2-0.9-0.7c-0.3-0.2-0.6-0.5-1-0.8c-0.4-0.3-0.8-0.7-1.3-1.1c-0.5-0.4-0.9-0.9-1.4-1.4s-1-1.1-1.5-1.7
			c-0.2-0.3-0.5-0.6-0.7-0.9c-0.1-0.2-0.2-0.3-0.4-0.5l-0.3-0.5c-0.5-0.7-0.9-1.4-1.3-2.1c-0.4-0.7-0.7-1.5-1-2.2
			c-0.2-0.4-0.3-0.8-0.4-1.1c-0.1-0.4-0.3-0.7-0.4-1.1c-0.5-1.5-0.9-2.8-1.2-4c-0.3-1.2-0.6-2.1-0.9-2.8
			C-42.8,416.5-42.9,416.1-42.9,416.1z"/>
	</g>
	<g>
		<path style="fill:#606161;" d="M-38.4,439.5c0,0,0.1,0.2,0.3,0.6c0.1,0.2,0.2,0.4,0.3,0.7c0.1,0.3,0.2,0.6,0.3,0.9
			c0.1,0.3,0.2,0.7,0.3,1.1c0.1,0.4,0.2,0.8,0.2,1.2c0.1,0.4,0.1,0.9,0.2,1.3c0,0.4,0.1,0.9,0.2,1.3c0,0.2,0.1,0.4,0.1,0.6
			c0,0.2,0.1,0.4,0.1,0.6c0.1,0.4,0.2,0.8,0.4,1.2c0.1,0.2,0.2,0.3,0.3,0.5c0.1,0.2,0.2,0.3,0.3,0.5c0.2,0.3,0.4,0.6,0.6,0.8
			c0.2,0.2,0.5,0.4,0.6,0.6c0.2,0.2,0.4,0.3,0.5,0.5c0.3,0.2,0.5,0.4,0.5,0.4s-0.2-0.1-0.6-0.2c-0.2-0.1-0.4-0.1-0.7-0.3
			c-0.2-0.1-0.5-0.3-0.8-0.5c-0.3-0.2-0.6-0.4-0.8-0.8c-0.1-0.2-0.3-0.3-0.4-0.5c-0.1-0.2-0.2-0.4-0.4-0.6c-0.2-0.4-0.4-0.8-0.5-1.3
			c-0.1-0.2-0.1-0.5-0.2-0.7c0-0.2-0.1-0.5-0.1-0.7c-0.1-0.5-0.1-0.9-0.1-1.4c0-0.4,0-0.9-0.1-1.3c0-0.4,0-0.8-0.1-1.2
			c0-0.4-0.1-0.7-0.1-1.1c0-0.3-0.1-0.6-0.1-0.9c0-0.3-0.1-0.5-0.1-0.7C-38.4,439.7-38.4,439.5-38.4,439.5z"/>
	</g>
	<g>
		<path style="fill:#606161;" d="M-87.2,405.7c0,0,0,0.4,0,1c0,0.3,0,0.6,0,1c0,0.2,0,0.4,0,0.5c0,0.2,0,0.4,0,0.6
			c0,0.2,0,0.4,0,0.6c0,0.2,0,0.4,0,0.5c0,0.3,0.1,0.7,0.1,1s0.1,0.5,0.1,0.7c0,0.2,0,0.3,0,0.3s0-0.1-0.1-0.2
			c-0.1-0.2-0.2-0.4-0.3-0.7c-0.1-0.3-0.2-0.6-0.3-1c0-0.2-0.1-0.4-0.1-0.6s0-0.4,0-0.6c0-0.8,0.1-1.6,0.2-2.1
			C-87.3,406.1-87.2,405.7-87.2,405.7z"/>
	</g>
	<g>
		<path style="fill:#606161;" d="M-75.7,404.9c0,0,0,0.5-0.2,1.2c0,0.2-0.1,0.4-0.1,0.6c0,0.2,0,0.4-0.1,0.6c0,0.2-0.1,0.4-0.1,0.7
			c0,0.2,0,0.5-0.1,0.7c0,0.2,0,0.5,0,0.7c0,0.2,0,0.4,0,0.7c0,0.2,0,0.4,0.1,0.6c0,0.2,0.1,0.4,0.1,0.6c0,0.2,0.1,0.3,0.1,0.5
			c0,0.1,0.1,0.3,0.1,0.4c0,0.2,0.1,0.3,0.1,0.3s-0.1-0.1-0.2-0.3c0-0.1-0.1-0.2-0.2-0.3s-0.2-0.3-0.2-0.4c-0.1-0.2-0.1-0.4-0.2-0.6
			c-0.1-0.2-0.1-0.4-0.1-0.6c0-0.2-0.1-0.5-0.1-0.7c0-0.2,0-0.5,0-0.7c0-0.2,0-0.5,0.1-0.7c0-0.2,0.1-0.5,0.1-0.7
			c0.1-0.4,0.2-0.8,0.3-1.2c0.1-0.3,0.2-0.6,0.3-0.8C-75.8,405-75.7,404.9-75.7,404.9z"/>
	</g>
	<g>
		<path style="fill:#606161;" d="M-73.8,405.2c0,0,0,0.4-0.1,1.1c-0.1,0.3-0.1,0.7-0.2,1.1c0,0.2-0.1,0.4-0.1,0.6
			c0,0.2-0.1,0.4-0.1,0.6c0,0.2,0,0.4,0,0.6c0,0.2,0,0.4,0,0.6c0,0.4,0.1,0.8,0.1,1.1c0,0.2,0,0.3,0.1,0.4c0,0.1,0,0.2,0,0.3
			c0,0.2,0,0.3,0,0.3s0-0.1-0.1-0.3c0-0.1-0.1-0.2-0.1-0.3s-0.1-0.3-0.2-0.4c0-0.2-0.1-0.3-0.1-0.5c0-0.2-0.1-0.4-0.1-0.6
			s0-0.4,0-0.6c0-0.2,0-0.4,0-0.7c0-0.2,0.1-0.4,0.1-0.7c0-0.2,0.1-0.4,0.1-0.6c0.1-0.4,0.2-0.8,0.3-1.1
			C-74,405.6-73.8,405.2-73.8,405.2z"/>
	</g>
	<g>
		<path style="fill:#606161;" d="M-62.4,404.5c0,0,0,0.5,0,1.2c0,0.4,0,0.8,0,1.2c0,0.2,0,0.4,0,0.7c0,0.2,0,0.5,0,0.7
			c0,0.2,0,0.5,0,0.7s0,0.4,0.1,0.7c0,0.2,0,0.4,0.1,0.6c0,0.2,0.1,0.4,0.1,0.5c0,0.2,0.1,0.3,0.1,0.5c0,0.1,0.1,0.3,0.1,0.4
			c0.1,0.2,0.1,0.3,0.1,0.3s-0.1-0.1-0.2-0.3c-0.1-0.1-0.1-0.2-0.2-0.3c-0.1-0.1-0.2-0.3-0.2-0.4c-0.1-0.2-0.1-0.4-0.2-0.6
			c-0.1-0.2-0.1-0.4-0.2-0.6c0-0.2-0.1-0.5-0.1-0.7s0-0.5,0-0.7c0-0.2,0-0.5,0-0.7c0-0.2,0-0.5,0.1-0.7c0.1-0.4,0.1-0.8,0.2-1.2
			C-62.5,405-62.4,404.5-62.4,404.5z"/>
	</g>
	<g>
		<path style="fill:#606161;" d="M-92.9,420.8c0,0,0,0.1,0,0.3c0,0.1,0,0.2,0,0.4c0,0.1,0,0.3,0,0.5c0,0.2,0,0.4,0,0.6
			c0,0.2,0,0.4,0,0.6c0,0.4,0,0.9,0,1.4s0,0.9,0,1.4c0,0.4,0,0.9,0,1.2c0,0.4,0,0.7,0,0.9c0,0.2,0,0.3,0,0.3s-0.2-0.5-0.3-1.2
			c-0.1-0.4-0.1-0.8-0.2-1.2s-0.1-0.9-0.1-1.4s0-1,0-1.4c0-0.5,0.1-0.9,0.2-1.2c0-0.2,0.1-0.3,0.1-0.5c0-0.1,0.1-0.3,0.1-0.4
			C-93,420.9-92.9,420.8-92.9,420.8z"/>
	</g>
	<g>
		<path style="fill:#606161;" d="M-80.9,420.3c0,0,0.1,0.3,0.2,0.8c0.1,0.5,0.1,1.1,0.1,1.8c0,0.3,0,0.7,0,1c0,0.3,0,0.6,0,0.8
			c0,0.5-0.1,0.8-0.1,0.8s-0.1-0.3-0.2-0.8c0-0.2-0.1-0.5-0.1-0.8c0-0.3,0-0.6-0.1-1c0-0.7,0-1.3,0.1-1.8
			C-81,420.6-80.9,420.3-80.9,420.3z"/>
	</g>
	<g>
		<path style="fill:#606161;" d="M-79.5,420.2c0,0,0.1,0.4,0.1,1.1c0.1,0.6,0.1,1.5,0.1,2.3c0,0.4,0,0.8,0,1.2c0,0.2,0,0.4,0,0.6
			c0,0.2,0,0.4,0,0.5c0,0.6,0,1.1,0,1.1s-0.1-0.4-0.2-1s-0.2-1.5-0.2-2.3c0-0.9,0-1.7,0.1-2.3C-79.6,420.7-79.5,420.2-79.5,420.2z"
			/>
	</g>
	<g>
		<path style="fill:#606161;" d="M-61.2,418.3c0,0,0.1,0.3,0.2,0.9c0.1,0.5,0.2,1.2,0.2,1.9c0,0.7,0.1,1.4,0.1,1.9s-0.1,0.9-0.1,0.9
			s-0.1-0.3-0.2-0.9c-0.1-0.3-0.1-0.6-0.2-0.9c0-0.2-0.1-0.3-0.1-0.5c0-0.2,0-0.3,0-0.5c0-0.7,0-1.4,0-1.9
			C-61.2,418.7-61.2,418.3-61.2,418.3z"/>
	</g>
	<g>
		<path style="fill:#606161;" d="M-60,418.9c0,0,0.1,0.5,0.2,1.1c0.1,0.7,0.2,1.6,0.3,2.5c0,0.5,0,0.9,0,1.4c0,0.2,0,0.4,0,0.6
			c0,0.2-0.1,0.4-0.1,0.6c-0.1,0.7-0.2,1.1-0.2,1.1s0-0.5,0-1.2c0-0.2,0-0.4,0-0.6c0-0.2,0-0.4,0-0.6c0-0.4,0-0.9,0-1.3
			c-0.1-0.9,0-1.8,0-2.5C-60,419.3-60,418.9-60,418.9z"/>
	</g>
	<g>
		<path style="fill:#606161;" d="M-92,439c0,0,0.1,0.3,0.1,0.9c0.1,0.5,0.1,1.2,0.1,1.9c0,0.7,0,1.3-0.1,1.9c0,0.2,0,0.5,0,0.6
			c0,0.2,0,0.2,0,0.2s0-0.1-0.1-0.2c-0.1-0.1-0.1-0.4-0.2-0.6c0-0.3-0.1-0.6-0.1-0.9c0-0.3,0-0.7,0-1c0-0.7,0.1-1.4,0.1-1.9
			C-92.1,439.4-92,439-92,439z"/>
	</g>
	<g>
		<path style="fill:#606161;" d="M-90.2,439.7c0,0,0.1,0.3,0.2,0.8s0.2,1.2,0.2,1.8c0,0.2,0,0.3,0,0.5c0,0.2,0,0.3,0,0.5
			c0,0.3,0,0.6,0,0.8c0,0.5,0,0.8,0,0.8s-0.1-0.2-0.2-0.7c-0.1-0.2-0.1-0.5-0.2-0.8c-0.1-0.3-0.1-0.7-0.1-1c0-0.7,0-1.3,0-1.8
			C-90.2,440.1-90.2,439.7-90.2,439.7z"/>
	</g>
	<g>
		<path style="fill:#606161;" d="M-76.8,435.8c0,0,0.1,0.4,0.2,1c0,0.3,0.1,0.6,0.1,1c0,0.4,0.1,0.7,0.1,1.1s0.1,0.8,0.1,1.1
			c0,0.4,0.1,0.7,0.1,1c0,0.6,0,1,0,1s-0.2-0.4-0.3-0.9c0-0.1-0.1-0.3-0.1-0.5c0-0.2-0.1-0.3-0.1-0.5c-0.1-0.4-0.1-0.8-0.2-1.1
			c0-0.4-0.1-0.8-0.1-1.2s0-0.7,0-1C-76.9,436.2-76.8,435.8-76.8,435.8z"/>
	</g>
	<g>
		<path style="fill:#606161;" d="M-75.2,436c0,0,0.1,0.4,0.2,0.9c0.1,0.3,0.1,0.6,0.1,0.9c0,0.3,0,0.7,0,1.1c0,0.4,0,0.7-0.1,1.1
			c0,0.3-0.1,0.7-0.1,0.9c-0.1,0.5-0.2,0.9-0.2,0.9s-0.1-0.4-0.1-0.9c0-0.3,0-0.6,0-0.9c0-0.3,0-0.7,0-1c0-0.4,0-0.7,0-1
			c0-0.3,0-0.6,0.1-0.9C-75.3,436.4-75.2,436-75.2,436z"/>
	</g>
	<g>
		<path style="fill:#606161;" d="M-78,438.2c0,0,0.1,0.2,0.2,0.6c0,0.2,0.1,0.4,0.1,0.6c0,0.2,0.1,0.5,0.1,0.7
			c0,0.2,0.1,0.5,0.1,0.7c0,0.2,0,0.5,0,0.6c0,0.4,0,0.6,0,0.6s-0.1-0.2-0.3-0.6c-0.1-0.2-0.1-0.4-0.2-0.6c0-0.1,0-0.4-0.1-0.6
			c0-0.3-0.1-0.5-0.1-0.7c0-0.2,0-0.5,0-0.6C-78.1,438.4-78,438.2-78,438.2z"/>
	</g>
	<g>
		<path style="fill:#606161;" d="M-57.5,433.8c0,0,0.1,0.3,0.3,0.8c0.1,0.3,0.1,0.6,0.2,0.9c0,0.3,0.1,0.7,0.1,1c0,0.4,0,0.7,0,1
			c0,0.3,0,0.6-0.1,0.9c-0.1,0.5-0.1,0.9-0.1,0.9s-0.1-0.4-0.2-0.9c0-0.3-0.1-0.6-0.1-0.9c0-0.3,0-0.7-0.1-1c0-0.3,0-0.7,0-1
			c0-0.3,0-0.6,0-0.9C-57.5,434.2-57.5,433.8-57.5,433.8z"/>
	</g>
	<g>
		<path style="fill:#606161;" d="M-50.8,451.7c0,0-0.2-0.3-0.5-0.8s-0.5-1.1-0.8-1.7c-0.1-0.2-0.1-0.3-0.2-0.5
			c-0.1-0.2-0.1-0.3-0.2-0.5c-0.1-0.3-0.2-0.6-0.3-0.8c-0.1-0.1-0.1-0.2-0.1-0.3s-0.1-0.2-0.1-0.2c-0.1-0.1-0.1-0.2-0.1-0.2
			s0.1,0.1,0.2,0.2c0.1,0.1,0.3,0.3,0.4,0.5c0.3,0.4,0.7,1.1,0.9,1.7c0.3,0.7,0.5,1.3,0.6,1.8C-50.8,451.4-50.8,451.7-50.8,451.7z"
			/>
	</g>
	<g>
		<path style="fill:#606161;" d="M-62.4,454.4c0,0-0.2-0.3-0.5-0.9c-0.1-0.3-0.3-0.6-0.4-0.9c-0.1-0.2-0.1-0.3-0.2-0.5
			c-0.1-0.2-0.1-0.4-0.2-0.6c-0.2-0.8-0.4-1.5-0.4-2.1c-0.1-0.6-0.1-1-0.1-1s0.2,0.4,0.4,0.9c0.2,0.6,0.5,1.3,0.6,2
			c0,0.2,0.1,0.4,0.2,0.6c0.1,0.2,0.1,0.4,0.2,0.5c0.1,0.4,0.2,0.7,0.2,1C-62.4,454-62.4,454.4-62.4,454.4z"/>
	</g>
	<g>
		<path style="fill:#606161;" d="M-72.4,457.4c0,0-0.1-0.4-0.3-0.9c-0.2-0.5-0.4-1.3-0.5-2c-0.1-0.4-0.2-0.7-0.2-1.1
			c-0.1-0.4-0.1-0.7-0.1-1c0-0.3,0-0.5,0-0.7c0-0.2,0-0.3,0-0.3s0,0.1,0.1,0.3c0,0.2,0.1,0.4,0.2,0.7c0.2,0.5,0.4,1.3,0.5,2
			c0.2,0.7,0.3,1.5,0.3,2.1C-72.4,457-72.4,457.4-72.4,457.4z"/>
	</g>
</g>
<g id="label">
	<line style="fill:none;stroke:#000000;stroke-miterlimit:10;" x1="175.6" y1="445.5" x2="175.6" y2="471"/>
	<line style="fill:none;stroke:#000000;stroke-miterlimit:10;" x1="11.1" y1="435.5" x2="11.1" y2="471.1"/>
	<g>
		<g>
			<line style="fill:none;stroke:#000000;stroke-width:3;stroke-miterlimit:10;" x1="172.2" y1="471" x2="14.6" y2="471"/>
			<g>
				<polygon points="171.5,468.5 175.9,471 171.5,473.6 				"/>
			</g>
			<g>
				<polygon points="15.3,468.5 10.9,471 15.3,473.6 				"/>
			</g>
		</g>
	</g>
	
		<text transform="matrix(1 0 0 1 90.1467 491.8899)" style="fill:#0A0000; font-family:'Roboto Condensed'; font-size:24px;">d</text>
	<g>
		<g>
			<line style="fill:none;stroke:#000000;stroke-width:2;stroke-miterlimit:10;" x1="175.4" y1="397.6" x2="8.6" y2="397.6"/>
			<g>
				<polygon points="174.6,395 179.1,397.6 174.6,400.1 				"/>
			</g>
			<g>
				<polygon points="9.4,395 4.9,397.6 9.4,400.1 				"/>
			</g>
		</g>
	</g>
	
		<text transform="matrix(1 0 0 1 90.5566 393.2747)" style="fill:#0A0000; font-family:'Roboto Condensed'; font-size:24px;">c</text>
	<g>
		<g>
			<line style="fill:none;stroke:#000000;stroke-width:2;stroke-miterlimit:10;" x1="4.9" y1="410.4" x2="4.9" y2="437.7"/>
			<g>
				<polygon points="2.3,411.2 4.9,406.7 7.5,411.2 				"/>
			</g>
			<g>
				<polygon points="2.3,436.9 4.9,441.3 7.5,436.9 				"/>
			</g>
		</g>
	</g>
	
		<text transform="matrix(1 0 0 1 -8.7336 434.5715)" style="fill:#0A0000; font-family:'Roboto Condensed'; font-size:24px;">b</text>
	<g>
		<g>
			<line style="fill:none;stroke:#000000;stroke-width:2;stroke-miterlimit:10;" x1="182.5" y1="404.2" x2="182.5" y2="462"/>
			<g>
				<polygon points="180,404.9 182.5,400.5 185.1,404.9 				"/>
			</g>
			<g>
				<polygon points="180,461.3 182.5,465.7 185.1,461.3 				"/>
			</g>
		</g>
	</g>
	
		<text transform="matrix(1 0 0 1 187.1719 434.5715)" style="fill:#0A0000; font-family:'Roboto Condensed'; font-size:24px;">a</text>
</g>
<g id="selection_1_">
	<line style="fill:none;stroke:#EE224E;stroke-width:2;stroke-miterlimit:10;" x1="175.7" y1="406.6" x2="11.2" y2="405.2"/>
	<line style="fill:none;stroke:#EE224E;stroke-width:2;stroke-miterlimit:10;" x1="11" y1="442.3" x2="175.9" y2="460.4"/>
	<line style="fill:none;stroke:#EE224E;stroke-width:2;stroke-miterlimit:10;" x1="175.7" y1="460.7" x2="175.7" y2="406.3"/>
	<line style="fill:none;stroke:#EE224E;stroke-width:2;stroke-miterlimit:10;" x1="11.1" y1="404.9" x2="11.1" y2="442.5"/>
</g>
</svg>
