<?xml version="1.0" encoding="utf-8"?>
<!-- Generator: Adobe Illustrator 16.0.0, SVG Export Plug-In . SVG Version: 6.00 Build 0)  -->
<!DOCTYPE svg PUBLIC "-//W3C//DTD SVG 1.1//EN" "http://www.w3.org/Graphics/SVG/1.1/DTD/svg11.dtd">
<svg version="1.1" id="New" xmlns="http://www.w3.org/2000/svg" xmlns:xlink="http://www.w3.org/1999/xlink" x="0px" y="0px"
	 width="1000px" height="1000px" viewBox="0 0 1000 1000" enable-background="new 0 0 1000 1000" xml:space="preserve">
<path fill="none" stroke="#606161" stroke-width="3" stroke-miterlimit="10" d="M822.066,447.521
	c-41.855,3.535-101.005,8.254-128.802,12.164c-27.798,3.908-46.845,1.454-56.227-0.158c-9.383-1.613-33.385-4.479-40.204-5.266
	c-6.82-0.786-51.292-2.5-72.326-2.313c-21.037,0.188-100.911,4.906-121.578,6.823c-20.668,1.917-37.084,0.035-44.851,0.065
	s-19.007,0.549-24.682-1.818c-5.675-2.368-31.667-19.632-37.297-25.01c-5.63-5.377-27.849-15.132-36.233-16.813
	c-8.384-1.682-22.27-10.503-28.875-11.805c-6.604-1.302-22.108-4.5-27.415-5.139c-5.306-0.638-8.774,3.609-8.234,7.832
	c0.54,4.223,1.432,9.925,12.634,16.174c11.203,6.25,14.514,7.025,19.243,10.209c4.729,3.185,16.062,7.67,14.719,10.018
	s-5.042,6.861-15.286,7.312c-10.243,0.451-51.379,3.519-64.083,4.64s-31.273,4.397-33.261,8.292
	c-1.989,3.896-4.048,14.06,6.263,14.606c10.312,0.547,38.71-1.9,48.755-1.585c10.046,0.314,19.838-0.607,21.099,0.727
	c1.261,1.334,0.381,1.896-0.683,2.219c-1.064,0.324-24.859,1.702-31.249,2.307c-6.39,0.605-30.384,5.171-38.552,6.65
	c-8.168,1.478-19.146,3.399-21.232,8.303c-2.086,4.904-2.515,13.286,4.282,13.74c6.796,0.454,28.937-1.899,38.825-2.659
	c9.888-0.762,44.233-1.777,45.248-1.596c1.014,0.181,0.728,0.869-1.721,1.705s-37.363,8.156-48.588,11.346
	c-11.225,3.191-21.037,6.286-23.455,8.791c-2.417,2.499-5.301,7.959-2.824,11.218c2.478,3.255,2.607,6.337,18.45,3.498
	c15.843-2.84,41.421-7.436,50.955-8.507c9.533-1.069,20.541-3.746,21.581-1.979c1.041,1.769-1.302,2.932-4.587,3.74
	c-3.286,0.813-16.3,4.711-26.464,8.749c-10.165,4.035-22.912,8.168-25.007,11.737c-2.094,3.567-3.247,6.235,0.848,8.711
	c4.096,2.478,8.799,4.074,17.885,1.363c9.086-2.708,27.417-8.225,34.483-9.961c7.065-1.736,34.659-4.965,44.066-4.188
	c9.409,0.773,37.929-2.35,54.315-8.231c16.387-5.885,26.111-13.899,34.627-12.73c8.518,1.168,11.622,1.373,20.964,2.403
	c9.342,1.036,58.951,14.342,72.511,18.424c13.561,4.085,90.694,21.522,130.599,18.786c39.905-2.732,75.22-6.653,95.515-3.032
	c20.296,3.622,55.558,6.218,82.355,2.378c26.801-3.84,87.008-17.487,87.008-17.487L822.066,447.521z"/>
<g id="bones" opacity="0.5">
	<path fill="#D3E3CC" d="M639.5,477.333c1.334,3.667-1.25,18.083-3.5,21.083s-1.25,7.833,2.75,9.583s9.75-0.25,9.5,4.75
		s-11,26.75-2,26.75s13,1.25,16.75-15.25c0.75-10.75-5.375-14.5-6.625-19.375S655.75,496,657.125,494
		c-1.375-2.5-2.625-7.375,0-11.875s1.875-7.5-3.875-9.125S638.166,473.667,639.5,477.333z"/>
	<path fill="#8F8F77" d="M364.063,508.063c2.438,6.188-4.625,16.5-5.813,18.375c-2.313-0.063-10.043,3.27-13.834-9.521
		s-12.021-32.207-8.312-40.624s4.917-3.75,7.833,5.083s2.229,14.042,3.396,21.625s0.917,7.5,2.917,7.75
		S361.625,501.875,364.063,508.063z"/>
	<path fill="#DDB885" stroke="#606161" stroke-width="2" stroke-miterlimit="10" d="M811.25,504.25
		c-20.276,5.348-46.256,10.683-56.44,12.239c-10.184,1.557-22.226,3.993-31.893,7.939s-23.18,14.149-28.504,21.696
		c-5.326,7.545-8.974,14.287-13.913,12c-5.199-2.762-8.083,0.56-12.25-1.699s-3.5-7.426-3.829-14.314
		c-5.796-1.361-7.993-3.319-9.421-4.611c-2.816-2.799,2.125-8.688,3.529-11.529s1.596-3.846,1.403-7.903s-3.933-10.755-4.558-16.302
		c-0.496-4.398-0.406-6.109,3.328-7.391c-5.199-1.666-4.794-11.397-1.766-16.813c4.671-6.518,20.968,2.21,41.607,6.108
		c20.126,3.57,38.334,0.661,49.49-1.443c11.155-2.104,40.219-8.41,59.178-12.479"/>
	<path fill="none" stroke="#606161" stroke-width="2" stroke-miterlimit="10" d="M674.313,527.197
		c0.588,4.941,1.938,16.303-9.979,15.053"/>
	<path fill="none" stroke="#606161" stroke-width="2" stroke-miterlimit="10" d="M673.125,501.934
		c2.584-2.986,3.251-7.559-0.657-9.168c-3.285-1.353-11.508,0.791-14.515,1.782"/>
	<path fill="#DDB885" stroke="#606161" stroke-width="2" stroke-miterlimit="10" d="M639.334,475.333
		c2.416,4.167-2.834,33.5-6.834,33.667s-7.999-4.499-15.666-5.666S558.5,505,496.25,497.75s-119.5-1.583-136.083,8.917
		c-12.667,6.667-12.167,3.5-12.667-1.75s-1.25-21.917-5-25.417S337,469,347,469.25c6.75,0.25,42,2.917,76,1.5s72-4.75,127,2.5
		C622.25,487.25,636.918,471.167,639.334,475.333z"/>
	<path fill="#DDB885" stroke="#606161" stroke-width="2" stroke-miterlimit="10" d="M650.334,503c-7.334-1-15.752,1.667-29.418,1
		s-35.249-6.667-67.916-3s-79.333,9.75-104,11.75s-44.667-1.583-60.667-4.583s-21.604-4.208-25.271-1.542
		c-2,3.625,1.791,5.771-0.823,10.073s-8.364,10.114,0.011,10.427c9-1,24.834,1.625,54.417,1.875s125.75-7.917,155.083-8.25
		s63.668,10.584,68.584,16.917s8.916-1.334,10.916-8.667S658,516,650.334,503z"/>
</g>
<g id="Wrinkles">
	<g>
		<path fill="#606161" d="M257.75,466.75c0,0,0.435,0.853,1.196,2.346c0.747,1.497,1.772,3.667,2.99,6.249
			c0.316,0.639,0.646,1.304,0.986,1.992c0.333,0.692,0.688,1.398,1.082,2.107c0.739,1.447,1.642,2.891,2.568,4.376
			c0.503,0.714,1.015,1.441,1.533,2.176c0.573,0.689,1.153,1.386,1.738,2.089c1.244,1.335,2.538,2.668,4.01,3.808l1.063,0.9
			l1.143,0.799c0.773,0.515,1.49,1.104,2.297,1.551c0.8,0.457,1.589,0.919,2.364,1.385c0.76,0.493,1.6,0.828,2.38,1.235
			c0.792,0.39,1.571,0.774,2.334,1.15c0.785,0.333,1.553,0.659,2.301,0.976c0.749,0.319,1.478,0.629,2.182,0.929
			c0.72,0.266,1.416,0.522,2.083,0.77c1.343,0.475,2.553,0.983,3.656,1.345c1.104,0.367,2.065,0.688,2.857,0.951
			c1.583,0.553,2.487,0.868,2.487,0.868s-0.941-0.176-2.588-0.483c-0.823-0.166-1.822-0.368-2.967-0.601
			c-1.146-0.238-2.411-0.613-3.803-0.989c-0.696-0.191-1.42-0.392-2.17-0.598c-0.735-0.259-1.495-0.525-2.276-0.799
			c-0.782-0.277-1.585-0.561-2.407-0.852c-0.809-0.327-1.615-0.712-2.446-1.077c-1.68-0.693-3.328-1.616-4.995-2.563
			c-0.844-0.456-1.61-1.063-2.425-1.594l-1.208-0.825l-1.134-0.937c-1.537-1.222-2.896-2.651-4.192-4.082
			c-0.607-0.751-1.201-1.504-1.778-2.253c-0.515-0.791-1.023-1.572-1.523-2.34c-0.927-1.575-1.751-3.136-2.417-4.656
			c-0.729-1.496-1.248-2.972-1.786-4.308c-1.01-2.696-1.76-4.958-2.303-6.544C258.052,467.659,257.75,466.75,257.75,466.75z"/>
	</g>
	<g>
		<path fill="#606161" d="M237,463.333c0,0,0.852,0.936,1.892,2.458c0.526,0.762,1.118,1.646,1.682,2.658
			c0.566,1.01,1.157,2.096,1.675,3.218c0.444,1.166,0.847,2.349,1.186,3.464c0.205,0.549,0.258,1.111,0.368,1.631
			c0.104,0.521,0.178,1.019,0.244,1.479c0.278,1.837,0.286,3.092,0.286,3.092c0.001,0-0.661-1.088-1.388-2.767
			c-0.186-0.418-0.384-0.872-0.567-1.359c-0.202-0.479-0.369-1.006-0.611-1.511c-0.47-1.021-0.931-2.118-1.351-3.231
			c-0.249-0.547-0.498-1.094-0.743-1.632c-0.246-0.538-0.454-1.085-0.674-1.606c-0.423-1.049-0.834-2.048-1.127-2.921
			C237.254,464.57,237,463.333,237,463.333z"/>
	</g>
	<g>
		<path fill="#606161" d="M241.333,480c0,0,0.365,0.707,1.004,1.944c0.319,0.618,0.682,1.381,1.075,2.271
			c0.408,0.885,0.845,1.89,1.289,2.997c0.92,2.203,1.882,4.813,2.965,7.556c0.529,1.379,1.126,2.775,1.743,4.184
			c0.601,1.417,1.307,2.806,2.017,4.19c0.375,0.681,0.751,1.361,1.125,2.04c0.37,0.681,0.811,1.317,1.208,1.972
			c0.79,1.313,1.696,2.525,2.521,3.735c0.921,1.139,1.715,2.32,2.6,3.34c0.887,1.016,1.647,2.049,2.458,2.91
			c0.795,0.874,1.51,1.692,2.145,2.42c0.661,0.703,1.237,1.316,1.712,1.821c0.937,1.03,1.473,1.619,1.473,1.619
			s-0.633-0.482-1.741-1.325c-0.548-0.431-1.223-0.945-1.973-1.563c-0.73-0.639-1.555-1.363-2.44-2.172
			c-0.911-0.783-1.786-1.746-2.755-2.725c-0.977-0.972-1.889-2.11-2.873-3.252c-0.458-0.6-0.922-1.21-1.393-1.828
			c-0.235-0.311-0.47-0.622-0.708-0.937l-0.646-0.994c-0.894-1.315-1.69-2.72-2.48-4.129c-0.716-1.446-1.425-2.896-2.022-4.363
			c-0.327-0.723-0.592-1.459-0.856-2.186c-0.271-0.726-0.531-1.442-0.763-2.153c-0.965-2.837-1.72-5.504-2.394-7.781
			c-0.673-2.281-1.229-4.167-1.652-5.498C241.565,480.761,241.333,480,241.333,480z"/>
	</g>
	<g>
		<path fill="#606161" d="M250,525.333c0,0,0.216,0.39,0.564,1.08c0.167,0.35,0.4,0.756,0.573,1.274
			c0.184,0.51,0.433,1.092,0.607,1.738c0.168,0.645,0.404,1.346,0.529,2.099c0.153,0.751,0.315,1.545,0.411,2.367
			c0.114,0.825,0.23,1.663,0.313,2.52c0.087,0.849,0.182,1.707,0.31,2.543c0.04,0.427,0.12,0.833,0.188,1.244
			c0.061,0.415,0.142,0.818,0.255,1.203c0.183,0.793,0.436,1.53,0.713,2.239c0.168,0.338,0.344,0.665,0.494,1.002
			c0.154,0.334,0.386,0.611,0.568,0.912c0.353,0.615,0.853,1.077,1.238,1.578c0.42,0.47,0.878,0.839,1.246,1.215
			c0.366,0.382,0.76,0.625,1.05,0.877C259.659,549.704,260,550,260,550s-0.415-0.144-1.142-0.434
			c-0.353-0.163-0.828-0.288-1.285-0.591c-0.465-0.287-1.037-0.561-1.574-0.986c-0.517-0.449-1.161-0.868-1.647-1.513
			c-0.253-0.311-0.559-0.602-0.788-0.958c-0.235-0.353-0.452-0.73-0.684-1.108c-0.375-0.791-0.786-1.622-0.995-2.511
			c-0.14-0.439-0.241-0.884-0.32-1.33c-0.086-0.446-0.189-0.897-0.238-1.341c-0.113-0.898-0.186-1.781-0.252-2.648
			c-0.076-0.858-0.08-1.712-0.14-2.518c-0.047-0.809-0.093-1.59-0.136-2.33c-0.038-0.743-0.134-1.43-0.177-2.08
			c-0.063-0.644-0.16-1.217-0.216-1.746c-0.054-0.524-0.156-0.989-0.219-1.369C250.058,525.774,250,525.333,250,525.333z"/>
	</g>
	<g>
		<path fill="#606161" d="M155.333,459.833c0,0,0.069,0.764,0.042,1.892c-0.002,0.564-0.002,1.213-0.037,1.905
			c-0.009,0.346,0.005,0.704-0.012,1.066c-0.02,0.363-0.02,0.729-0.003,1.094c0.008,0.364-0.022,0.733,0.016,1.088
			c0.032,0.356,0.025,0.711,0.051,1.052c0.072,0.679,0.12,1.32,0.206,1.87c0.06,0.554,0.143,1.016,0.182,1.345
			c0.035,0.332,0.056,0.521,0.056,0.521s-0.095-0.165-0.246-0.462c-0.146-0.299-0.372-0.723-0.55-1.267
			c-0.214-0.534-0.375-1.186-0.521-1.894c-0.053-0.356-0.107-0.726-0.141-1.103c-0.05-0.377-0.034-0.759-0.051-1.143
			c-0.013-1.533,0.233-3.04,0.484-4.145C155.071,460.554,155.333,459.833,155.333,459.833z"/>
	</g>
	<g>
		<path fill="#606161" d="M177.5,458.167c0,0-0.089,0.929-0.301,2.289c-0.048,0.34-0.099,0.707-0.167,1.091
			c-0.072,0.384-0.093,0.796-0.162,1.213c-0.063,0.419-0.118,0.853-0.145,1.292c-0.031,0.439-0.091,0.885-0.101,1.33
			c-0.006,0.445-0.012,0.89-0.018,1.328c-0.005,0.438,0.055,0.865,0.077,1.282c0.027,0.417,0.048,0.823,0.133,1.198
			c0.07,0.378,0.124,0.74,0.173,1.077c0.034,0.341,0.153,0.63,0.208,0.903c0.065,0.271,0.123,0.508,0.17,0.703
			c0.084,0.399,0.132,0.627,0.132,0.627s-0.115-0.201-0.317-0.552c-0.096-0.18-0.212-0.399-0.346-0.65
			c-0.119-0.257-0.308-0.532-0.399-0.871c-0.114-0.332-0.236-0.694-0.352-1.082c-0.139-0.384-0.222-0.803-0.277-1.243
			c-0.051-0.438-0.172-0.891-0.168-1.356c-0.005-0.465-0.01-0.938-0.016-1.41c0.022-0.471,0.096-0.936,0.141-1.396
			c0.035-0.463,0.146-0.903,0.238-1.331c0.171-0.859,0.417-1.636,0.64-2.295c0.209-0.663,0.445-1.189,0.597-1.565
			C177.406,458.379,177.5,458.167,177.5,458.167z"/>
	</g>
	<g>
		<path fill="#606161" d="M181.333,458.833c0,0-0.077,0.863-0.284,2.12c-0.104,0.628-0.228,1.355-0.345,2.13
			c-0.08,0.385-0.108,0.788-0.163,1.192c-0.048,0.405-0.127,0.814-0.129,1.228c-0.03,0.412-0.061,0.823-0.09,1.229
			c0.016,0.405,0.002,0.804,0.004,1.192c-0.021,0.778,0.103,1.496,0.107,2.13c0.025,0.313,0.081,0.597,0.107,0.854
			c0.03,0.257,0.056,0.482,0.077,0.667c0.032,0.376,0.05,0.592,0.05,0.592s-0.088-0.196-0.241-0.539
			c-0.071-0.175-0.158-0.387-0.257-0.63c-0.091-0.247-0.218-0.521-0.299-0.834c-0.078-0.314-0.162-0.657-0.237-1.023
			c-0.081-0.365-0.174-0.751-0.186-1.161c-0.029-0.407-0.075-0.83-0.091-1.259c0.02-0.429,0.04-0.865,0.06-1.3
			c0.017-0.438,0.109-0.863,0.171-1.286c0.062-0.423,0.149-0.835,0.256-1.224c0.193-0.787,0.423-1.502,0.654-2.103
			C180.936,459.601,181.333,458.833,181.333,458.833z"/>
	</g>
	<g>
		<path fill="#606161" d="M203.5,457.5c0,0,0.088,0.925,0.052,2.302c-0.018,0.691-0.05,1.493-0.093,2.34
			c-0.036,0.425-0.032,0.863-0.049,1.304c-0.006,0.441-0.057,0.894-0.027,1.338c0.006,0.446,0.012,0.892,0.018,1.331
			c0.023,0.437,0.077,0.861,0.111,1.277c0.035,0.417,0.063,0.82,0.161,1.189c0.081,0.373,0.145,0.731,0.203,1.064
			c0.04,0.34,0.176,0.618,0.247,0.885c0.081,0.266,0.151,0.497,0.209,0.688c0.107,0.393,0.168,0.617,0.168,0.617
			s-0.126-0.192-0.348-0.529c-0.106-0.174-0.235-0.385-0.383-0.628c-0.133-0.25-0.342-0.514-0.438-0.851
			c-0.123-0.328-0.256-0.686-0.383-1.07c-0.152-0.38-0.244-0.795-0.306-1.232c-0.063-0.435-0.18-0.884-0.204-1.345
			c-0.018-0.46-0.036-0.929-0.054-1.396c-0.018-0.47,0.045-0.93,0.063-1.387c0.022-0.458,0.075-0.904,0.138-1.331
			c0.115-0.86,0.254-1.648,0.399-2.319C203.255,458.397,203.5,457.5,203.5,457.5z"/>
	</g>
	<g>
		<path fill="#606161" d="M144.167,489.167c0,0-0.007,0.234-0.02,0.645c-0.012,0.204-0.027,0.451-0.044,0.735
			c-0.027,0.284,0.001,0.602-0.011,0.944c-0.004,0.341-0.009,0.71-0.014,1.101c0.009,0.395,0.024,0.811,0.02,1.24
			c0.001,0.857,0.04,1.777,0.055,2.694c0.024,0.919,0.048,1.838,0.071,2.7c0.016,0.865,0.03,1.672,0.042,2.365
			c0.002,0.696,0.003,1.276,0.004,1.683c-0.012,0.41-0.019,0.645-0.019,0.645s-0.301-0.893-0.557-2.27
			c-0.136-0.688-0.264-1.495-0.35-2.364c-0.115-0.868-0.14-1.801-0.191-2.733c0.006-0.935-0.018-1.868,0.066-2.745
			c0.06-0.874,0.155-1.693,0.306-2.393c0.068-0.347,0.115-0.669,0.204-0.938c0.086-0.271,0.162-0.507,0.224-0.701
			C144.089,489.388,144.167,489.167,144.167,489.167z"/>
	</g>
	<g>
		<path fill="#606161" d="M167.5,488.167c0,0,0.177,0.633,0.311,1.584c0.142,0.952,0.246,2.222,0.27,3.493
			c-0.003,0.634-0.006,1.269-0.009,1.864c0.002,0.59-0.017,1.143-0.052,1.621c-0.059,0.953-0.187,1.605-0.187,1.605
			s-0.208-0.617-0.386-1.568c-0.095-0.475-0.184-1.032-0.256-1.632c-0.093-0.602-0.08-1.233-0.11-1.87
			c-0.017-1.272,0.047-2.545,0.158-3.501C167.343,488.806,167.5,488.167,167.5,488.167z"/>
	</g>
	<g>
		<path fill="#606161" d="M170.167,488c0,0,0.169,0.823,0.291,2.059c0.12,1.238,0.243,2.877,0.269,4.52
			c0.016,0.82,0.052,1.638,0.04,2.409c0.005,0.385-0.009,0.758-0.019,1.111c0.002,0.352,0.004,0.685,0.006,0.992
			c0,1.23-0.086,2.076-0.086,2.076s-0.247-0.795-0.485-2.025c-0.278-1.23-0.368-2.882-0.455-4.538
			c-0.019-1.653,0.026-3.309,0.159-4.543C170.001,488.825,170.167,488,170.167,488z"/>
	</g>
	<g>
		<path fill="#606161" d="M205.833,484.333c0,0,0.209,0.667,0.392,1.676c0.19,1.009,0.359,2.359,0.448,3.715
			c0.061,1.357,0.15,2.711,0.113,3.734c-0.019,1.021-0.12,1.708-0.12,1.708s-0.234-0.665-0.453-1.671
			c-0.114-0.503-0.226-1.091-0.323-1.723c-0.042-0.316-0.112-0.641-0.133-0.975c-0.027-0.333-0.054-0.671-0.081-1.01
			c-0.082-1.356-0.084-2.717-0.021-3.742C205.709,485.022,205.833,484.333,205.833,484.333z"/>
	</g>
	<g>
		<path fill="#606161" d="M208.167,485.333c0,0,0.232,0.883,0.449,2.218c0.239,1.329,0.401,3.13,0.509,4.931
			c-0.007,0.906-0.011,1.813-0.051,2.661c-0.021,0.424-0.02,0.833-0.084,1.221c-0.054,0.388-0.119,0.753-0.179,1.089
			c-0.234,1.345-0.477,2.214-0.477,2.214s-0.09-0.919-0.096-2.257c-0.003-0.335-0.005-0.696,0.005-1.077
			c0.015-0.38-0.046-0.787-0.05-1.204c-0.045-0.835-0.054-1.724-0.066-2.612c-0.1-1.784-0.094-3.571-0.081-4.925
			C208.065,486.24,208.167,485.333,208.167,485.333z"/>
	</g>
	<g>
		<path fill="#606161" d="M146,524.5c0,0,0.143,0.663,0.229,1.652c0.102,0.985,0.158,2.295,0.164,3.604
			c-0.009,1.311-0.054,2.613-0.132,3.597c-0.015,0.485-0.073,0.904-0.074,1.187c-0.012,0.293-0.02,0.461-0.02,0.461
			s-0.069-0.148-0.177-0.429c-0.112-0.283-0.199-0.688-0.303-1.185c-0.083-0.491-0.174-1.071-0.214-1.689
			c-0.059-0.62-0.07-1.28-0.08-1.94c0.001-1.32,0.113-2.64,0.265-3.624C145.809,525.15,146,524.5,146,524.5z"/>
	</g>
	<g>
		<path fill="#606161" d="M149.5,525.834c0,0,0.193,0.641,0.352,1.608c0.166,0.967,0.303,2.259,0.359,3.555
			c-0.002,0.327,0.03,0.645,0.069,0.956c0.04,0.312,0.05,0.621,0.075,0.92c0.042,0.598,0.06,1.159,0.057,1.646
			c0.004,0.973-0.079,1.647-0.079,1.647s-0.248-0.611-0.49-1.569c-0.126-0.478-0.252-1.041-0.365-1.649
			c-0.104-0.606-0.246-1.264-0.266-1.91c-0.049-1.296-0.019-2.596,0.068-3.572C149.359,526.489,149.5,525.834,149.5,525.834z"/>
	</g>
	<g>
		<path fill="#606161" d="M175.5,518.167c0,0,0.179,0.752,0.315,1.882c0.07,0.561,0.15,1.215,0.237,1.916
			c0.094,0.696,0.112,1.439,0.229,2.182c0.076,0.744,0.155,1.488,0.193,2.191c0.062,0.7,0.134,1.354,0.16,1.922
			c0.071,1.131,0.032,1.907,0.032,1.907s-0.292-0.712-0.599-1.813c-0.079-0.274-0.163-0.573-0.239-0.892
			c-0.074-0.318-0.177-0.65-0.227-1.003c-0.125-0.703-0.218-1.459-0.316-2.214c-0.096-0.755-0.101-1.523-0.111-2.238
			c-0.011-0.717,0.002-1.383,0.069-1.948C175.345,518.925,175.5,518.167,175.5,518.167z"/>
	</g>
	<g>
		<path fill="#606161" d="M178.5,518.667c0,0,0.201,0.69,0.37,1.731c0.098,0.519,0.157,1.132,0.205,1.791
			c0.047,0.659,0.091,1.364,0.082,2.068c-0.027,0.705-0.05,1.409-0.109,2.067c-0.032,0.658-0.168,1.272-0.273,1.793
			c-0.212,1.044-0.441,1.716-0.441,1.716s-0.104-0.72-0.131-1.765c-0.024-0.524,0.003-1.126-0.034-1.78
			c-0.027-0.651-0.017-1.345-0.011-2.037c0.03-0.693,0.002-1.386,0.04-2.037c0.023-0.651,0.071-1.261,0.102-1.789
			C178.367,519.373,178.5,518.667,178.5,518.667z"/>
	</g>
	<g>
		<path fill="#606161" d="M173.167,522.834c0,0,0.192,0.476,0.348,1.195c0.093,0.355,0.135,0.788,0.24,1.222
			c0.097,0.438,0.163,0.906,0.231,1.374c0.037,0.469,0.129,0.945,0.157,1.396c0.044,0.448,0.048,0.875,0.063,1.239
			c0.027,0.729-0.04,1.24-0.04,1.24s-0.261-0.438-0.523-1.131c-0.143-0.344-0.253-0.758-0.369-1.202
			c-0.113-0.446-0.219-0.919-0.28-1.413c-0.05-0.493-0.103-0.985-0.116-1.448c-0.036-0.464,0.03-0.883,0.065-1.25
			C173.024,523.325,173.167,522.834,173.167,522.834z"/>
	</g>
	<g>
		<path fill="#606161" d="M213,514.334c0,0,0.252,0.652,0.5,1.647c0.118,0.5,0.28,1.071,0.35,1.713
			c0.086,0.639,0.141,1.326,0.198,2.013c0.05,0.689,0.033,1.368,0.017,2.011c-0.018,0.641-0.05,1.238-0.118,1.749
			c-0.114,1.021-0.279,1.7-0.279,1.7s-0.171-0.68-0.295-1.695c-0.062-0.508-0.137-1.099-0.188-1.73
			c-0.069-0.63-0.065-1.312-0.134-1.975c-0.035-0.669-0.072-1.337-0.072-1.969c0.004-0.631-0.055-1.23-0.044-1.743
			C212.92,515.029,213,514.334,213,514.334z"/>
	</g>
	<g>
		<path fill="#606161" d="M226,549.167c0,0-0.408-0.566-0.89-1.471c-0.489-0.903-1.039-2.149-1.55-3.391
			c-0.118-0.316-0.247-0.624-0.373-0.929c-0.135-0.3-0.224-0.617-0.355-0.899c-0.238-0.578-0.447-1.126-0.65-1.584
			c-0.105-0.227-0.172-0.456-0.268-0.635c-0.087-0.188-0.164-0.351-0.227-0.484c-0.118-0.28-0.186-0.44-0.186-0.44
			s0.13,0.112,0.348,0.324c0.216,0.212,0.536,0.52,0.83,0.947c0.649,0.826,1.284,2.061,1.808,3.323
			c0.515,1.269,0.905,2.567,1.157,3.558C225.902,548.476,226,549.167,226,549.167z"/>
	</g>
	<g>
		<path fill="#606161" d="M203.479,554.354c0,0-0.402-0.67-0.88-1.716c-0.244-0.521-0.508-1.137-0.77-1.803
			c-0.127-0.335-0.271-0.676-0.393-1.031c-0.12-0.356-0.267-0.708-0.367-1.078c-0.387-1.487-0.697-2.997-0.865-4.141
			c-0.176-1.143-0.206-1.919-0.206-1.919s0.357,0.699,0.76,1.771c0.411,1.069,0.874,2.51,1.259,3.975
			c0.087,0.368,0.225,0.728,0.333,1.086c0.118,0.356,0.209,0.716,0.311,1.059c0.195,0.688,0.357,1.338,0.479,1.9
			C203.395,553.579,203.479,554.354,203.479,554.354z"/>
	</g>
	<g>
		<path fill="#606161" d="M184,560.167c0,0-0.284-0.706-0.578-1.785c-0.321-1.067-0.686-2.491-1.008-3.939
			c-0.148-0.726-0.299-1.452-0.404-2.145c-0.112-0.688-0.184-1.345-0.217-1.908c-0.026-0.568-0.033-1.039,0.017-1.374
			c0.036-0.332,0.065-0.516,0.065-0.516s0.048,0.183,0.133,0.502c0.062,0.316,0.211,0.76,0.351,1.292
			c0.313,1.063,0.71,2.483,1.031,3.937c0.315,1.45,0.522,2.938,0.596,4.061C184.047,559.408,184,560.167,184,560.167z"/>
	</g>
</g>
<g id="label">
	<line fill="none" stroke="#000000" stroke-miterlimit="10" x1="665.595" y1="537.139" x2="665.595" y2="586.651"/>
	<line fill="none" stroke="#000000" stroke-miterlimit="10" x1="346.118" y1="517.655" x2="346.118" y2="586.776"/>
	<g>
		<g>
			<line fill="none" stroke="#000000" stroke-miterlimit="10" x1="658.916" y1="586.651" x2="352.874" y2="586.651"/>
			<g>
				<polygon points="657.457,581.665 666.093,586.651 657.457,591.638 				"/>
			</g>
			<g>
				<polygon points="354.333,581.665 345.698,586.651 354.333,591.638 				"/>
			</g>
		</g>
	</g>
	<text transform="matrix(1 0 0 1 493.4805 616.3203)" fill="#010101" font-family="'Roboto-Light'" font-size="30">d</text>
	<g>
		<g>
			<line fill="none" stroke="#000000" stroke-miterlimit="10" x1="665.041" y1="443.998" x2="341.271" y2="443.998"/>
			<g>
				<polygon points="663.582,439.011 672.217,443.998 663.582,448.984 				"/>
			</g>
			<g>
				<polygon points="342.73,439.011 334.095,443.998 342.73,448.984 				"/>
			</g>
		</g>
	</g>
	<text transform="matrix(1 0 0 1 494.0762 435.6753)" fill="#010101" font-family="'Roboto-Light'" font-size="30">c</text>
	<g>
		<g>
			<line fill="none" stroke="#000000" stroke-miterlimit="10" x1="334.094" y1="468.926" x2="334.094" y2="521.824"/>
			<g>
				<polygon points="329.108,470.385 334.094,461.75 339.081,470.385 				"/>
			</g>
			<g>
				<polygon points="329.108,520.365 334.094,529 339.081,520.365 				"/>
			</g>
		</g>
	</g>
	<text transform="matrix(1 0 0 1 310.8491 504.8955)" fill="#010101" font-family="'Roboto-Light'" font-size="30">b</text>
	<g>
		<g>
			<line fill="none" stroke="#000000" stroke-miterlimit="10" x1="678.991" y1="456.812" x2="678.991" y2="569.133"/>
			<g>
				<polygon points="674.005,458.271 678.991,449.636 683.978,458.271 				"/>
			</g>
			<g>
				<polygon points="674.005,567.674 678.991,576.309 683.978,567.674 				"/>
			</g>
		</g>
	</g>
	<text transform="matrix(1 0 0 1 687.9795 521.3965)" fill="#010101" font-family="'Roboto-Light'" font-size="30">a</text>
</g>
<g id="selection_1_">
	
		<line fill="none" stroke="#EE224E" stroke-width="2" stroke-miterlimit="10" x1="665.656" y1="461.594" x2="346.292" y2="458.875"/>
	<line fill="none" stroke="#EE224E" stroke-width="2" stroke-miterlimit="10" x1="346" y1="530.917" x2="666" y2="566"/>
	<line fill="none" stroke="#EE224E" stroke-width="2" stroke-miterlimit="10" x1="665.666" y1="566.513" x2="665.666" y2="461"/>
	<line fill="none" stroke="#EE224E" stroke-width="2" stroke-miterlimit="10" x1="346.209" y1="458.249" x2="346.209" y2="531.25"/>
</g>
</svg>
