<?xml version="1.0" encoding="utf-8"?>
<!-- Generator: Adobe Illustrator 22.0.0, SVG Export Plug-In . SVG Version: 6.00 Build 0)  -->
<svg version="1.0" id="Layer_1" xmlns="http://www.w3.org/2000/svg" xmlns:xlink="http://www.w3.org/1999/xlink" x="0px" y="0px"
	 viewBox="0 0 374.2 141.7" style="enable-background:new 0 0 374.2 141.7;" xml:space="preserve">
<style type="text/css">
	.st0{fill:#252626;}
	.st1{fill:#252626;stroke:#000000;stroke-width:0.25;stroke-miterlimit:10;}
	.st2{fill:#202121;}
	.st3{fill:none;stroke:#2E3192;stroke-width:0.5;stroke-miterlimit:10;}
	.st4{fill:none;stroke:#FF0045;stroke-width:2;stroke-miterlimit:10;}
	.st5{fill:#3E4EC2;}
	.st6{fill:#FEFEFE;}
	.st7{font-family:'RobotoCondensed-Regular';}
	.st8{font-size:14px;}
	.st9{fill:none;stroke:#606161;stroke-width:3;stroke-miterlimit:10;}
	.st10{opacity:0.5;}
	.st11{fill:#D3E3CC;}
	.st12{fill:#8F8F77;}
	.st13{fill:#DDB885;stroke:#606161;stroke-width:2;stroke-miterlimit:10;}
	.st14{fill:none;stroke:#606161;stroke-width:2;stroke-miterlimit:10;}
	.st15{fill:#606161;}
	.st16{fill:none;stroke:#000000;stroke-miterlimit:10;}
	.st17{fill:#010101;}
	.st18{font-family:'Roboto-Light';}
	.st19{font-size:15.4513px;}
	.st20{fill:none;stroke:#EE224E;stroke-width:2;stroke-miterlimit:10;}
</style>
<path id="XMLID_13784_" style="fill:#252626;" d="M73.5,34.3c-0.5,0-1,0-1.3,0.4c-0.4-0.4-0.9-0.8-1.3-1.2c0-0.5,0-0.9,0.1-1.4
	C72,32.7,72.9,33.3,73.5,34.3z"/>
<text id="XMLID_10_" transform="matrix(1 0 0 1 536.9234 -113.3999)" style="fill:#0A0000; font-family:'Roboto Condensed';font-size:14px;">c</text>
<g>
	<path id="XMLID_13807_" style="fill:#252626;stroke:#000000;stroke-width:0.25;stroke-miterlimit:10;" d="M614.3-58.5c0.1-0.6,0.3-1.3-0.9-1.3c-1.5,0.1-3.1,0-4.6,0c2.6-0.4,5.1-0.3,7.5-0.1
		c6,0.3,12,0.4,18,0.1c2.6-0.1,5.1,0,7.7,0.1c8.2,0.4,16.2-0.9,24.3-1.2c5-0.1,10.1-0.9,15.1-1.2c5.6-0.3,11.1-0.9,16.6-2.2
		c2.9-0.6,5.8-1.5,8.8-1.7c1.5-0.1,2.7-0.9,4-1.4c1.5-0.6,2.2-1.8,1.7-3.5c-0.3-0.5-0.4-1.2,0.4-1.3c0.6-0.1,0.9,0.5,0.9,1.2
		c0,3.2-0.4,6.1-2,8.9c-0.4,0.6-0.8,1-1.4,1.2c-0.5,0.1-1.2,0.4-1.3-0.5c-0.1-0.6,0.1-0.6,0.8-0.9c1.3-0.4,1.5-1.5,1.7-2.7
		c0.1-0.9-0.5-0.8-1-0.5c-5,1.7-10.2,2.4-15.5,3.2c-2.7,0.4-5.4,1-8.1,1.3c-2.8,0.4-5.6-0.1-8.4,0.9c-1.2,0.4-2.4,0.8-3.3,1.4
		c-2.3,1.8-5.1,2.2-7.7,3.3c-4.2,1.8-8.2,4-11.4,7.5c-3.1,3.6-4.2,7.5-5.2,11.8c-0.6,2.9-1.5,5.8-2.3,8.6c-0.1,0.5-0.3,1.2-1,0.9
		c-0.9-0.3-0.4-0.8-0.3-1.3c1.4-5.1,2.6-10.4,4.2-15.3c0.6-2,1.9-3.6,3.3-5.2c2.2-2.8,4.9-5.2,7.9-6.6c2-0.9,4-2.2,6.3-2.4
		c1.8-0.3,3.3-1.2,5.2-2.3c-3.2-0.5-5.8,0.3-8.4,0.3c-1.9,0-3.8,0.5-5.9,0.6c-3.1,0.1-6.3,1-9.2,0.5c-4.2-0.5-7.4,2-11.4,1.9
		c-3.7-0.1-7.4,0.8-11.1,1.5c-2.3,0.5-4.5,1.5-6.4,2.7c-3.5,2-7,3.6-10.2,6.1c-0.4-0.8-0.5-1.4,0.3-1.9c5.8-3.6,11.5-7.3,18.3-8.8
		c2.4-0.6,5-0.6,7.5-1.4C629.8-58.1,622-58.1,614.3-58.5z"/>
	<g id="XMLID_55_">
		<path id="XMLID_15_" style="fill:#202121;" d="M576.1-52.2c5.1,0.1,10.1-0.6,15.1-1.8c1.3-0.3,2.8-0.5,3.8,0c0.4,0.3,0.6,0.5,0.6,0.8
			c0.4,0,0.9,0,1.3,0c0.4-0.8,1.3-1.3,2.9-1.4c3.3-0.1,5.9-2.4,8.7-3.8c0.1-0.1,0.3-0.1,0.4-0.3c1.8,0,3.6,0,5.4,0
			c0.1-0.6,0.3-1.3-0.9-1.3c-1.5,0.1-3.1,0-4.6,0s-2.7,0.9-3.8,1.8c-1.9,1.4-4.2,1.9-6.5,2.3c-0.5,0.1-1.3,0.3-1.7-0.4
			c-0.4-0.7-0.4-1.3,0.1-1.7c0.8-0.6,1.4-1.8,2.6-1.8c1.7,0,2.7-0.9,3.6-1.9c2.9-4,6.6-7.2,11-9.5c6.4-3.5,12.9-6.1,20.3-6.3
			c-0.4-0.4-0.4-1-1.2-1c-1.5,0.3-3.1,0-4.7,0.3c-4.3,0.8-8.3,2.8-12.4,4.6c-5.4,2.4-10,5.8-13.8,10.4c-0.9,1.2-2.6,2.3-3.7,1.7
			c-1.4-0.8-2.6-1-4-0.6c-0.8,0.1-1-0.1-1.2-0.6c-0.1-0.5,0-1,0.8-1.2c2.4-0.4,6-5.5,5.6-7.8c-0.1-0.4-0.1-0.9-0.8-0.9
			c-0.5,0-0.8,0.4-0.8,0.8c0,1.4-0.6,2.4-1.3,3.6c-1.4,2.7-3.6,3.2-6.1,1.5c-1.3-0.9-1.4-1.9-0.4-2.9c0.9-0.9,1.5-2,2-3.2
			c1.7-4.1,0.3-8.3,0.1-12.4c-0.1-2.9-0.1-3.6,2.7-3.6c0.5,0,1.2-0.1,1.7-0.1c1.2,0.1,2.6-0.4,3.3,0.9c0.6,1,0.3,1.9-0.6,2.7
			c-0.3,0.3-0.4,0.6-0.1,0.9c0.3,0.4,0.6,0.1,0.9-0.1c0.4-0.3,0.6-0.5,0.9-1c1.2-2.7,0-4.7-3.1-5.1c-0.6-0.1-1.7,0.3-1.9-0.6
			c-0.3-1,0.3-1.7,1.2-2.3c1.9-1.4,4.2-1.4,6.1-0.6c4.1,1.7,8.3,2.6,12.5,3.6c5.9,1.4,11.8,2.2,17.8,1.9c3.2-0.1,6.5-0.6,9.7-1
			c8.3-0.9,16.6-1.5,24.9-2.3c0.4,0,1.2,0.3,1.3-0.4c0.1-0.8-0.5-0.8-1-0.9s-0.9-0.3-1.5-0.1c-1.7,0.4-3.3,0.5-5,0.6
			c-4,0.4-7.9,0.6-11.8,1c-3.5,0.4-7,1-10.5,1.2c-4.7,0.1-9.6,0.8-14.3,0.1c-3.3-0.5-6.6-0.5-9.8-1.5c-4.5-1.4-9.1-2.4-13.4-4.1
			c-1.9-0.8-6.4,1.2-7.2,3.1c-0.5,1.5-0.9,2.9-2.8,3.5c-0.8,0.1-1,1.4-1,2.2c-0.1,1.9,0,3.8,0.1,5.6c0.1,2.4,1.2,4.9,0.3,7.4
			c-0.6,1.7-1.2,3.3-2.7,4.6c-1.7,1.4-0.9,3.7,1.4,4.7c1.4,0.6,1.5,1.5,1.2,2.8c-0.3,1.4-1.3,0.6-1.9,0.8c0,0.3,0,0.5,0,0.9
			c0,0.3,0,0.4,0,0.6c1.3,0.1,2.7,0.3,4,0.6c0.9,0.3,1.9,0.8,1.8,2.2c-0.1,0.8,0.3,1.9-1.2,1.9c-3.3,0.1-6.4,0.8-9.6,1.5
			c-3.8,0.9-7.9,0.1-11.8,0.5c-0.6,0-1.7-0.1-1.7-0.9l0,0c-0.4,0-0.6,0-1-0.1c-0.3,1-1.3,0.8-2.3,0.8c-3.8,0-7.5-1.2-11.4-1.2
			c-2.2,0-4.5-0.1-6.6-0.5c-4.3-0.8-8.6-1.8-12.9-1.9c-4.1-0.1-8.1-0.8-12.1-1.4s-8.1-1.4-12.1-1.5c-4.1-0.3-8.2-0.5-12.3-0.8
			c-0.9,0-1.8-0.4-2.2-1l-0.1-0.1c-0.6,0.1-1.3,0.1-1.8,0c0,0.1,0,0.3,0.1,0.4c-1,0-1.9,0.3-2.6,0c-2.6-0.9-5.1-1-7.8-1.3
			c-1.9-0.1-3.7-0.4-5.6-0.4c-2.7-0.1-5.5-0.8-8.2-1c-3.7-0.4-4.1-1-2.2-4.1c0.3-0.5,0.6-0.9,1-1c0-0.4-0.1-0.8-0.1-1.2
			c0-0.5,0-0.9,0.1-1.3c-0.8-0.6-1.4-1.4-2.3-1.8c-1.3-0.6-0.8-2.8-0.5-4.2c0.5-3.6,1.8-7,1.8-10.7c0-0.9,0.4-1.5,1.2-1.7
			c0.1-0.6,0.5-1.3,0.9-1.8c-0.6-0.4-1.3-0.9-1.9-1.4c-0.9-0.6-1-1.7-1-2.6c0.1-1,1.3-0.5,1.9-0.5c1.9,0,4,0.3,5.9,0.3
			c4.3,0.1,8.7-0.5,13.2-0.4c5.6,0.3,11.3,0.3,16.9-0.3c4.6-0.4,9.2-0.4,13.8-0.6c2.8-0.1,5.8,0.3,8.4-0.3c4.2-0.9,8.4-1.2,12.5-1.8
			c5.6-0.8,11.3-1.4,16.7-2.3c0.1-0.1,0.4-0.1,0.5-0.3l0.8-0.1c-0.8-1.5-2.2-0.4-3.3-0.8c-0.1,0-0.3,0.1-0.4,0.1l-0.8,0.3
			c-5.4,0.3-10.5,1.4-15.7,1.9c-7,0.8-14.2,1.7-21.2,1.8c-1.9,0-3.8,0-5.9,0.1c-6.5,0.5-13,1.3-19.7,0.9c-2.3-0.1-4.6-0.5-6.9-0.4
			c-4.7,0.4-9.5,0.3-14.2,0.1c-4.1-0.3-7.2-1.7-9.1-5.2c-2.7-5-6.4-9.2-10.5-13c-4.2-4-8.8-7.4-13.2-11c-0.5,0-1,0-1.3,0.4
			c2.6,2.9,5.9,5,8.8,7.4c4.9,4.1,9.5,8.4,13,13.7c1.5,2.2,2.3,4.7,4.3,6.5c0.6,0.6,1.4,1.2,1.9,1.8c1,1.2,3.8,1.9,1.4,4.3
			c-1,1-0.5,2.6,0.6,3.3c1.5,1,1.4,2.3,1,3.7c-0.8,3.5-1.5,6.9-1.7,10.4c0,0.8,0.4,1.7,0.4,2.3c0,1.8-0.8,3.5,0.4,5.5
			c0.5,1-2.2,1.9-3.5,2.6c-5.5,2.9-11.6,4.1-17.6,5.4c-2.2,0.5-4.5,0.5-6.6,0.6c-5.4,0.4-10.7,1-16,1.4c-2.4,0.3-4.5,1.4-6.9,1.8
			c-7,0.9-13.9,2.7-21.2,2.2c-1.7-0.1-3.3-0.4-5.1-0.6c-0.9-0.1-1.5-0.5-1.8-1.4c-0.1-0.9,0.6-1,1.2-1.4c2.4-1.7,5.2-2,8.1-2.7
			c3.1-0.8,5.9-2.3,8.9-2.8c1.4-0.3,2.9-0.4,4.2-1.2c0.6-0.4,1.2-0.8,1.2-1.5c0-0.9-1-0.9-1.5-0.9c-4.7-0.4-9.5-0.8-14.2-0.4
			c-6,0.5-11.9,0.9-17.9,1.4c-0.1,0-0.3,0-0.4,0c-1.3-0.3-3.1,0-3.6-1.4c-0.6-1.7,0-3.3,0.8-4.9c0.3-0.5,0.8-0.5,1.2-0.6
			c4.2-1.6,8.7-1.6,12.7-2.7c5.2-1.3,10.6-1.4,16-2.3c1.3-0.3,2.6-1,2.6-2.2c0-1.3-1.3-1.9-2.6-2c-2.4-0.3-4.9,0.1-7.3,0.4
			c-2.3,0.3-4.7,0.4-6.9,0c-4.5-0.6-8.8,0-13.3,0.3c-3.8,0.3-7.8,0.1-11.1-2.4c-1.3-1-1.2-2,0-3.2c2.6-2.6,5.8-3.5,9.1-3.5
			c5.6,0,11-1.2,16.6-1c4.2,0.1,8.6,0.3,12.8,0.1c1.5,0,3.3,0.1,3.3-2.3c0-0.6-0.1-0.9-0.8-1.3c-2.4-1.3-5-1.2-7.5-1.4
			c-6.9-0.6-13.9-1.2-20.8-1.9c-2-0.3-4.2-0.8-6.1-1.8c-1.9-1.2-2.6-3.5-1.3-4.9c0.9-1,2.3-0.8,3.5-0.8c3.3-0.3,6.6-0.4,9.8,0.3
			c0.3,0,0.5,0,0.5,0.1c1.2,2,2.8,0.9,4.3,0.6c4-0.8,7.9-0.3,11.9-0.4c0.5,0,1.3,0,1.2,0.9c-0.1,0.9,0.5,1.3,1.2,0.8
			c2.8-2.2,5.9-1.5,8.9-1.3c6.3,0.5,12.4-0.1,18.5-1.7c0.3-0.1,0.5-0.3,0.8-0.4c4.7-1.7,4.1-3.7,1.7-6.6c-2.2-2.6-5-4.7-6.1-7.9
			c-1.4-3.6-1.7-7.3,0.4-10.9c0.5-0.9,0.6-0.8,1.4-0.3c1.9,1.5,4,2.7,6.1,3.6c0-0.5,0-0.9,0.1-1.4c-1.9-1.4-4.1-2.3-5.8-4
			c-1.2-1-2.7-0.5-3.2,1c-0.1,0.5-0.3,1-0.4,1.5c-2,3.8-1.3,10.2,1.5,13.4c1.9,2.3,3.8,4.6,5.8,6.8c1,1.3,0.6,2-0.6,2.7
			c-4.5,2-9.2,2.6-14.1,2.6c-5,0.1-10-0.1-14.8-0.3c-3.3-0.1-6.8-0.3-10.1-0.1c-2.3,0.1-4.6,0.6-6.8,0c-3.6-1.2-7.3-1.3-11-1
			c-1.9,0.1-4.3,0-5.6,2c-1.8,2.7-0.4,6.1,2.9,7.3c5.6,2,11.5,1.9,17.4,2.6c4.2,0.5,8.6,0.8,12.8,1.3c0.9,0.1,2.3-0.1,3.2,1.3
			c-1.3,0.3-2.3,0.3-3.3,0.3c-6.3,0-12.4-0.4-18.7,0.3c-1.6,0.2-3,1-4.6,0.7c-2.9-0.5-5.9,0-8.8,0.8c-2.2,0.5-4.2,1.4-5.8,3.2
			c-0.5,0.6-1.4,1.2-1.4,2.3c0,1.9,1.9,4,3.7,4.6c3.2,1.2,6.5,1.3,9.8,1.3c5.5-0.1,11-0.3,16.6,0.1c3.2,0.1,6.4-0.4,9.7-0.5
			c0.6,0,1.4-0.4,2,0.6c-1.2,0.3-2.2,0.6-3.2,0.8c-5.2,0.5-10.5,0.9-15.5,2.3c-3.2,0.9-6.5,0.4-9.7,1.5c-3.3,1.2-4.6,2.4-4.7,6
			c0,2.4,0.9,3.5,3.3,4.1c4.9,1,9.6-0.3,14.3-0.5c5.2-0.3,10.5-0.6,15.7-0.6c0.6,0,1.4-0.1,2,0.9c-2.6-0.1-4.7,1-6.9,1.7
			c-3.7,1.3-7.7,1.8-11.1,3.5c-1.4,0.6-3.3,1.4-3.2,3.3c0.1,1.5,1.4,2.7,2.9,3.1c1,0.3,2.2,0.5,3.2,0.5c5.5,0,11.1,0.4,16.6-1
			c2.8-0.6,5.9-0.6,8.8-1.3c6.8-1.7,13.7-2.6,20.6-2.7c0.6,0,1.2-0.1,1.8-0.3c3.7-0.4,7.3-1.3,10.9-2c4.2-0.9,8.6-1.8,12.3-4.2
			c1.2-0.6,2.3-1.2,3.5-0.3l0.8,0.9c4.9,0.9,9.7,1.3,14.6,1.5c4.7,0.3,9.3,1.2,13.9,1.9c0.5,0.1,1,0.1,1.3,0.4c0.5,0,0.9,0,1.4,0
			c0-0.1,0-0.1,0.1-0.3c0.4-0.5,1-0.3,1.5-0.1c2.3,0.4,4.6,0.5,6.9,0.8c2.7,0.4,5.5-0.1,8.2,0.4c5.6,1.2,11.3,2.3,16.9,2.6
			c5.6,0.4,11.3,1.3,16.9,2c5.9,0.8,11.9,0.9,17.8,1.7c1.3,0.1,1.8,0.5,1.8,1.3c0.4,0,0.8,0,1,0.1C571.8-52.1,573-52.2,576.1-52.2z"
			/>
		<path id="XMLID_13806_" style="fill:#252626;" d="M560-102.6c-0.8-1.5-2.2-0.4-3.3-0.8c3.2-0.5,6.5-0.3,9.7-0.3c5.2,0.1,10.4-0.5,15.6-0.3
			c7.5,0.4,15.1,1.7,22.6,2.4c4.2,0.5,8.3,1.3,12.7,1.4c2.9,0.1,5.6-0.8,8.3-1.5c4.7-1.3,9.6-2,14.4-2.6c6.5-0.6,13-1.9,19.6-1.7
			c6.3,0.3,12.7-0.8,18.9,0c2,0.3,4.1,0,6.3,0c0.9,0,1.5-0.3,2.3-0.8c1.8-1.4,3.6-2.8,5.5-4c5-2.9,9.8-6,15.6-7.2
			c2.7-0.5,5.4-1.8,8.2-1.9c4.7-0.3,9.6-1.4,14.4-0.6c1.9,0.3,3.8,0.1,5.8,0.1c0.8,0,1.5,0,1.7,1.3c-4.7,0-9.3-0.1-14.1,0
			c-6,0.1-11.8,1.4-17.5,2.9c-5.6,1.5-10.4,4.7-15.3,7.5c-1.4,0.8-3.1,1.8-3.7,3.6c-0.4,1-1.4,0.6-1.9,0.5c-1.9-0.5-3.8-0.3-5.6-0.3
			c-2.6,0-5-0.4-7.5-0.4c-6.8,0.1-13.7,0.3-20.5,0.8c-5.5,0.4-11,0.9-16.4,1.8c-5.1,0.9-10.1,2-15,3.5c-2.4,0.8-5.1,0-7.7-0.1
			c-4.1-0.3-8.1-1.3-12.1-1.5c-4.6-0.4-9.2-1.3-13.8-1.9c-0.8-0.1-1.7,0-2.4,0c-5.2-0.3-10.6,0.1-15.9-0.1
			C565.7-102.7,562.9-102.4,560-102.6z"/>
		<path id="XMLID_13804_" style="fill:#252626;" d="M634.4-77.2c-0.4-0.4-0.4-1-1.2-1c4.6-0.8,9.3-1,13.9-1.2c6.9-0.3,13.8-1.2,20.7-1.9
			c0.6-0.1,1-0.1,1.2,0.4c0.1,0.6-0.4,1-0.9,1c-2.4,0.3-4.9,0.5-7.3,0.8c-5.8,0.5-11.5,1-17.3,1.4C640.5-77.6,637.4-77.4,634.4-77.2
			z"/>
	</g>
	<path id="XMLID_13783_" style="fill:#252626;" d="M556.1-103.1c-0.3,0.1-0.5,0.1-0.8,0.3C555.6-103.3,555.9-103.3,556.1-103.1z"/>
	<path id="XMLID_13782_" style="fill:#252626;" d="M608.5-58.3c0.1-0.1,0.3-0.1,0.4-0.3C608.8-58.4,608.7-58.4,608.5-58.3z"/>
	<path id="XMLID_13781_" style="fill:#252626;" d="M558.7-102.2c0.1-0.1,0.4-0.1,0.5-0.3C559.1-102.5,558.8-102.4,558.7-102.2z"/>
	<path id="XMLID_13769_" style="fill:#252626;" d="M423.9-101.5c2.3,2.8,2.9,6.4,4,9.7c1.3,3.6,3.7,4.2,6.6,4.6c5,0.8,10.1,1.3,15.1,1.9
		c2.3,0.3,4.6,0.4,7,0.5c0.5,0,1.2,0,1.7,0.1s0.9,0.4,0.8,1s-0.6,0.4-1,0.4c-3.2-0.3-6.4-0.5-9.5-0.9c-3.6-0.4-7.2-0.9-10.6-1.4
		c-2.3-0.3-4.5-0.6-7.2-1.2c5.2,6.9,12.4,11,18.8,16.4c-2.4,0.3-3.8-1.4-5.2-2.6c-3.3-2.6-6.6-5.1-10-7.7c-1.7-1.3-3.3-3.1-4.2-5.1
		c-0.6-1.5-1.8-1.7-2.8-1.7c-3.2-0.1-6.3-1.5-9.5-1.8c-0.1,0-0.4-0.3-0.5-0.3c-0.9,0-1.4-0.6-1.3-1.2c0.3-0.9,1.2-0.5,1.8-0.3
		c2.4,1,5,1.3,7.5,1.8c0.8,0.1,1.5,0.3,2.6,0.4C426.4-92.9,424.6-97,423.9-101.5z"/>
	<path id="XMLID_13768_" style="fill:#252626;" d="M427.1-61.3c-0.1,0.6,0.1,1.5-0.6,1.5c-0.6,0-0.8-0.6-0.8-1.2c-0.6-4.5-1.4-9.1-3.2-12.9
		c-2.4-5.4-4.6-11.1-9.5-15.2c-0.4-0.4-1.5-0.8-0.8-1.5c0.5-0.5,1,0.4,1.5,0.6c3.3,2.4,5,6.1,7,9.5c2.2,3.7,3.5,7.8,4.6,11.9
		C426.2-66.2,426.6-63.6,427.1-61.3z"/>
	<path id="XMLID_13767_" style="fill:#202121;" d="M458.3-86.5c-1.4-0.3-2.8-0.5-4.1-0.9c-4.5-1.5-8.9-3.1-13.3-5c-2-0.9-3.6-2.8-5.6-4
		c-1-0.5-1.9-1.4-2.9-2c-0.5-0.3-0.9-0.6-0.5-1.2c0.3-0.5,0.9-0.3,1.3,0c1.4,0.9,3.1,1.7,4.2,2.8c2.9,2.9,6.8,4,10.5,5.4
		c2.9,1.2,6,2.3,9.2,2.8c0.6,0.1,1.2,0.4,1.7,0.6c0.5,0.1,1,0.4,0.8,1C459.3-86.3,458.7-86.6,458.3-86.5z"/>
	<line id="XMLID_1_" style="fill:none;stroke:#2E3192;stroke-width:0.5;stroke-miterlimit:10;" x1="596.3" y1="-60.9" x2="596.3" y2="-35.1"/>
	<line id="XMLID_3_" style="fill:none;stroke:#2E3192;stroke-width:0.5;stroke-miterlimit:10;" x1="469.2" y1="-71.2" x2="469.2" y2="-35.1"/>
	<text id="XMLID_4_" transform="matrix(1 0 0 1 533.1129 -38.7464)" class="st7 st8" style="fill:#0A0000;">d</text>
	<g>
		<line id="XMLID_2_" style="fill:none;stroke:#2E3192;stroke-width:0.5;stroke-miterlimit:10;" x1="596.3" y1="-35.1" x2="469.2" y2="-35.1"/>
		<polygon id="XMLID_6_" points="590,-38.7 596.3,-35.1 590,-31.5 		"/>
		<polygon id="XMLID_7_" points="475.5,-31.5 469.2,-35.1 475.5,-38.7 		"/>
	</g>
	<line style="fill:none;stroke:#FF0045;stroke-width:2;stroke-miterlimit:10;" x1="596.3" y1="-103.3" x2="469.4" y2="-96.1"/>
	<g>
		<line id="XMLID_9_" style="fill:none;stroke:#2E3192;stroke-width:0.5;stroke-miterlimit:10;" x1="598.7" y1="-109.5" x2="464.6" y2="-109.5"/>
		<polygon id="XMLID_8_" points="592,-113.4 598.7,-109.5 592,-105.8 		"/>
		<polygon id="XMLID_5_" points="471.1,-105.8 464.6,-109.5 471.1,-113.4 		"/>
	</g>
	<text id="XMLID_12_" transform="matrix(1 0 0 1 606.3951 -77.177)" class="st7 st8" style="fill:#0A0000;">a</text>
	<text id="XMLID_13_" transform="matrix(1 0 0 1 471.4098 -74.4768)" class="st7 st8" style="fill:#0A0000;">b</text>
	<g>
		<line id="XMLID_18_" style="fill:none;stroke:#2E3192;stroke-width:0.5;stroke-miterlimit:10;" x1="604.6" y1="-106.6" x2="604.6" y2="-52.2"/>
		<polygon id="XMLID_17_" points="600.9,-105 604.6,-111.7 608.4,-105 		"/>
		<polygon id="XMLID_14_" points="608.4,-53.1 604.6,-46.5 600.9,-53.1 		"/>
	</g>
	<g>
		<g>
			<line id="XMLID_21_" style="fill:none;stroke:#2E3192;stroke-width:0.5;stroke-miterlimit:10;" x1="464.6" y1="-97.4" x2="464.6" y2="-65.4"/>
			<polygon id="XMLID_20_" points="461.3,-94.9 464.6,-100.8 467.9,-94.9 			"/>
		</g>
		<polygon id="XMLID_19_" points="467.9,-66.7 464.6,-60.9 461.3,-66.7 		"/>
	</g>
	<line style="fill:none;stroke:#FF0045;stroke-width:2;stroke-miterlimit:10;" x1="469.7" y1="-63.5" x2="595.6" y2="-53.3"/>
	<line style="fill:none;stroke:#FF0045;stroke-width:2;stroke-miterlimit:10;" x1="595.6" y1="-53.3" x2="595.6" y2="-104"/>
	<line style="fill:none;stroke:#FF0045;stroke-width:2;stroke-miterlimit:10;" x1="469.4" y1="-96.1" x2="469.4" y2="-63.5"/>
</g>
<rect y="0" style="fill:#3E4EC2;" width="374.2" height="21.3"/>
<text transform="matrix(1.071 0 0 1 143.1528 15.4299)" style="fill:#FEFEFE; font-family:'Roboto Condensed';font-size:14px; ">Measurements</text>
<path style="fill:none;stroke:#606161;stroke-width:3;stroke-miterlimit:10; " d="M366.2,49.2c-21.6,1.8-52,4.3-66.3,6.3c-14.3,2-24.1,0.7-29-0.1c-4.8-0.8-17.2-2.3-20.7-2.7
	c-3.5-0.4-26.4-1.3-37.3-1.2c-10.8,0.1-52,2.5-62.6,3.5c-10.6,1-19.1,0-23.1,0c-4,0-9.8,0.3-12.7-0.9c-2.9-1.2-16.3-10.1-19.2-12.9
	c-2.9-2.8-14.3-7.8-18.7-8.7c-4.3-0.9-11.5-5.4-14.9-6.1c-3.4-0.7-11.4-2.3-14.1-2.6c-2.7-0.3-4.5,1.9-4.2,4
	c0.3,2.2,0.7,5.1,6.5,8.3c5.8,3.2,7.5,3.6,9.9,5.3c2.4,1.6,8.3,4,7.6,5.2c-0.7,1.2-2.6,3.5-7.9,3.8c-5.3,0.2-26.5,1.8-33,2.4
	S10.5,55,9.4,57c-1,2-2.1,7.2,3.2,7.5c5.3,0.3,19.9-1,25.1-0.8c5.2,0.2,10.2-0.3,10.9,0.4c0.6,0.7,0.2,1-0.4,1.1
	c-0.5,0.2-12.8,0.9-16.1,1.2c-3.3,0.3-15.6,2.7-19.9,3.4c-4.2,0.8-9.9,1.8-10.9,4.3c-1.1,2.5-1.3,6.8,2.2,7.1c3.5,0.2,14.9-1,20-1.4
	c5.1-0.4,22.8-0.9,23.3-0.8c0.5,0.1,0.4,0.4-0.9,0.9c-1.3,0.4-19.2,4.2-25,5.8c-5.8,1.6-10.8,3.2-12.1,4.5c-1.2,1.3-2.7,4.1-1.5,5.8
	c1.3,1.7,1.3,3.3,9.5,1.8c8.2-1.5,21.3-3.8,26.2-4.4c4.9-0.6,10.6-1.9,11.1-1c0.5,0.9-0.7,1.5-2.4,1.9c-1.7,0.4-8.4,2.4-13.6,4.5
	c-5.2,2.1-11.8,4.2-12.9,6c-1.1,1.8-1.7,3.2,0.4,4.5c2.1,1.3,4.5,2.1,9.2,0.7c4.7-1.4,14.1-4.2,17.8-5.1c3.6-0.9,17.9-2.6,22.7-2.2
	c4.8,0.4,19.5-1.2,28-4.2c8.4-3,13.4-7.2,17.8-6.6c4.4,0.6,6,0.7,10.8,1.2c4.8,0.5,30.4,7.4,37.3,9.5c7,2.1,46.7,11.1,67.3,9.7
	c20.6-1.4,38.7-3.4,49.2-1.6c10.5,1.9,28.6,3.2,42.4,1.2c13.8-2,44.8-9,44.8-9L366.2,49.2z"/>
<g id="bones" style="opacity:0.5; ">
	<path style="fill:#D3E3CC; " d="M272.2,64.5c0.7,1.9-0.6,9.3-1.8,10.9c-1.2,1.5-0.6,4,1.4,4.9c2.1,0.9,5-0.1,4.9,2.4
		c-0.1,2.6-5.7,13.8-1,13.8c4.6,0,6.7,0.6,8.6-7.9c0.4-5.5-2.8-7.5-3.4-10c-0.6-2.5-0.3-4.6,0.4-5.6c-0.7-1.3-1.4-3.8,0-6.1
		s1-3.9-2-4.7C276.3,61.5,271.5,62.7,272.2,64.5z"/>
	<path style="fill:#8F8F77; " d="M130.3,80.4c1.3,3.2-2.4,8.5-3,9.5c-1.2,0-5.2,1.7-7.1-4.9c-2-6.6-6.2-16.6-4.3-20.9c1.9-4.3,2.5-1.9,4,2.6
		s1.1,7.2,1.7,11.1s0.5,3.9,1.5,4S129.1,77.2,130.3,80.4z"/>
	<path style="fill:#DDB885;stroke:#606161;stroke-width:2;stroke-miterlimit:10;" d="M360.7,78.4c-10.4,2.8-23.8,5.5-29.1,6.3c-5.2,0.8-11.4,2.1-16.4,4.1c-5,2-11.9,7.3-14.7,11.2
		c-2.7,3.9-4.6,7.4-7.2,6.2c-2.7-1.4-4.2,0.3-6.3-0.9c-2.1-1.2-1.8-3.8-2-7.4c-3-0.7-4.1-1.7-4.9-2.4c-1.5-1.4,1.1-4.5,1.8-5.9
		s0.8-2,0.7-4.1c-0.1-2.1-2-5.5-2.3-8.4c-0.3-2.3-0.2-3.1,1.7-3.8c-2.7-0.9-2.5-5.9-0.9-8.7c2.4-3.4,10.8,1.1,21.4,3.1
		c10.4,1.8,19.7,0.3,25.5-0.7c5.7-1.1,20.7-4.3,30.5-6.4"/>
	<path style="fill:none;stroke:#606161;stroke-width:2;stroke-miterlimit:10;" d="M290.1,90.2c0.3,2.5,1,8.4-5.1,7.8"/>
	<path style="fill:none;stroke:#606161;stroke-width:2;stroke-miterlimit:10;" d="M289.5,77.2c1.3-1.5,1.7-3.9-0.3-4.7c-1.7-0.7-5.9,0.4-7.5,0.9"/>
	<path style="fill:#DDB885;stroke:#606161;stroke-width:2;stroke-miterlimit:10;" d="M272.1,63.5c1.2,2.1-1.5,17.3-3.5,17.3s-4.1-2.3-8.1-2.9c-3.9-0.6-30,0.9-62.1-2.9
		c-32.1-3.7-61.5-0.8-70.1,4.6c-6.5,3.4-6.3,1.8-6.5-0.9c-0.3-2.7-0.6-11.3-2.6-13.1c-1.9-1.8-2.8-5.4,2.3-5.3
		c3.5,0.1,21.6,1.5,39.1,0.8s37.1-2.4,65.4,1.3C263.3,69.6,270.9,61.4,272.1,63.5z"/>
	<path style="fill:#DDB885;stroke:#606161;stroke-width:2;stroke-miterlimit:10;" d="M277.8,77.8c-3.8-0.5-8.1,0.9-15.2,0.5c-7-0.3-18.2-3.4-35-1.5c-16.8,1.9-40.9,5-53.6,6.1
		c-12.7,1-23-0.8-31.2-2.4c-8.2-1.5-11.1-2.2-13-0.8c-1,1.9,0.9,3-0.4,5.2c-1.3,2.2-4.3,5.2,0,5.4c4.6-0.5,12.8,0.8,28,1
		s64.8-4.1,79.9-4.2c15.1-0.2,32.8,5.5,35.3,8.7c2.5,3.3,4.6-0.7,5.6-4.5C279.3,87.4,281.7,84.5,277.8,77.8z"/>
</g>
<g id="Wrinkles">
	<g>
		<path style="fill:#606161;" d="M75.6,59.1c0,0,0.2,0.4,0.6,1.2c0.4,0.8,0.9,1.9,1.5,3.2c0.2,0.3,0.3,0.7,0.5,1c0.2,0.4,0.4,0.7,0.6,1.1
			c0.4,0.7,0.8,1.5,1.3,2.3c0.3,0.4,0.5,0.7,0.8,1.1c0.3,0.4,0.6,0.7,0.9,1.1c0.6,0.7,1.3,1.4,2.1,2l0.5,0.5l0.6,0.4
			c0.4,0.3,0.8,0.6,1.2,0.8c0.4,0.2,0.8,0.5,1.2,0.7c0.4,0.3,0.8,0.4,1.2,0.6c0.4,0.2,0.8,0.4,1.2,0.6c0.4,0.2,0.8,0.3,1.2,0.5
			c0.4,0.2,0.8,0.3,1.1,0.5c0.4,0.1,0.7,0.3,1.1,0.4c0.7,0.2,1.3,0.5,1.9,0.7c0.6,0.2,1.1,0.4,1.5,0.5c0.8,0.3,1.3,0.4,1.3,0.4
			s-0.5-0.1-1.3-0.2c-0.4-0.1-0.9-0.2-1.5-0.3c-0.6-0.1-1.2-0.3-2-0.5c-0.4-0.1-0.7-0.2-1.1-0.3c-0.4-0.1-0.8-0.3-1.2-0.4
			c-0.4-0.1-0.8-0.3-1.2-0.4c-0.4-0.2-0.8-0.4-1.3-0.6c-0.9-0.4-1.7-0.8-2.6-1.3c-0.4-0.2-0.8-0.5-1.2-0.8l-0.6-0.4l-0.6-0.5
			c-0.8-0.6-1.5-1.4-2.2-2.1c-0.3-0.4-0.6-0.8-0.9-1.2c-0.3-0.4-0.5-0.8-0.8-1.2c-0.5-0.8-0.9-1.6-1.2-2.4c-0.4-0.8-0.6-1.5-0.9-2.2
			c-0.5-1.4-0.9-2.6-1.2-3.4C75.7,59.6,75.6,59.1,75.6,59.1z"/>
	</g>
	<g>
		<path style="fill:#606161;" d="M64.9,57.3c0,0,0.4,0.5,1,1.3c0.3,0.4,0.6,0.8,0.9,1.4c0.3,0.5,0.6,1.1,0.9,1.7c0.2,0.6,0.4,1.2,0.6,1.8
			c0.1,0.3,0.1,0.6,0.2,0.8c0.1,0.3,0.1,0.5,0.1,0.8c0.1,0.9,0.1,1.6,0.1,1.6c0,0-0.3-0.6-0.7-1.4c-0.1-0.2-0.2-0.4-0.3-0.7
			c-0.1-0.2-0.2-0.5-0.3-0.8c-0.2-0.5-0.5-1.1-0.7-1.7c-0.1-0.3-0.3-0.6-0.4-0.8c-0.1-0.3-0.2-0.6-0.3-0.8c-0.2-0.5-0.4-1.1-0.6-1.5
			C65,58,64.9,57.3,64.9,57.3z"/>
	</g>
	<g>
		<path style="fill:#606161;" d="M67.1,65.9c0,0,0.2,0.4,0.5,1c0.2,0.3,0.4,0.7,0.6,1.2c0.2,0.5,0.4,1,0.7,1.5c0.5,1.1,1,2.5,1.5,3.9
			c0.3,0.7,0.6,1.4,0.9,2.2c0.3,0.7,0.7,1.4,1,2.2c0.2,0.4,0.4,0.7,0.6,1.1c0.2,0.4,0.4,0.7,0.6,1c0.4,0.7,0.9,1.3,1.3,1.9
			c0.5,0.6,0.9,1.2,1.3,1.7c0.5,0.5,0.8,1.1,1.3,1.5c0.4,0.5,0.8,0.9,1.1,1.2c0.3,0.4,0.6,0.7,0.9,0.9c0.5,0.5,0.8,0.8,0.8,0.8
			s-0.3-0.2-0.9-0.7c-0.3-0.2-0.6-0.5-1-0.8c-0.4-0.3-0.8-0.7-1.3-1.1c-0.5-0.4-0.9-0.9-1.4-1.4c-0.5-0.5-1-1.1-1.5-1.7
			c-0.2-0.3-0.5-0.6-0.7-0.9c-0.1-0.2-0.2-0.3-0.4-0.5l-0.3-0.5c-0.5-0.7-0.9-1.4-1.3-2.1c-0.4-0.7-0.7-1.5-1-2.2
			c-0.2-0.4-0.3-0.8-0.4-1.1c-0.1-0.4-0.3-0.7-0.4-1.1c-0.5-1.5-0.9-2.8-1.2-4c-0.3-1.2-0.6-2.1-0.9-2.8
			C67.2,66.3,67.1,65.9,67.1,65.9z"/>
	</g>
	<g>
		<path style="fill:#606161;" d="M71.6,89.3c0,0,0.1,0.2,0.3,0.6c0.1,0.2,0.2,0.4,0.3,0.7c0.1,0.3,0.2,0.6,0.3,0.9c0.1,0.3,0.2,0.7,0.3,1.1
			c0.1,0.4,0.2,0.8,0.2,1.2c0.1,0.4,0.1,0.9,0.2,1.3c0,0.4,0.1,0.9,0.2,1.3c0,0.2,0.1,0.4,0.1,0.6c0,0.2,0.1,0.4,0.1,0.6
			c0.1,0.4,0.2,0.8,0.4,1.2c0.1,0.2,0.2,0.3,0.3,0.5c0.1,0.2,0.2,0.3,0.3,0.5c0.2,0.3,0.4,0.6,0.6,0.8c0.2,0.2,0.5,0.4,0.6,0.6
			c0.2,0.2,0.4,0.3,0.5,0.5c0.3,0.2,0.5,0.4,0.5,0.4s-0.2-0.1-0.6-0.2c-0.2-0.1-0.4-0.1-0.7-0.3c-0.2-0.1-0.5-0.3-0.8-0.5
			c-0.3-0.2-0.6-0.4-0.8-0.8c-0.1-0.2-0.3-0.3-0.4-0.5c-0.1-0.2-0.2-0.4-0.4-0.6c-0.2-0.4-0.4-0.8-0.5-1.3c-0.1-0.2-0.1-0.5-0.2-0.7
			c0-0.2-0.1-0.5-0.1-0.7c-0.1-0.5-0.1-0.9-0.1-1.4c0-0.4,0-0.9-0.1-1.3c0-0.4,0-0.8-0.1-1.2c0-0.4-0.1-0.7-0.1-1.1
			c0-0.3-0.1-0.6-0.1-0.9c0-0.3-0.1-0.5-0.1-0.7C71.6,89.5,71.6,89.3,71.6,89.3z"/>
	</g>
	<g>
		<path style="fill:#606161;" d="M22.8,55.5c0,0,0,0.4,0,1c0,0.3,0,0.6,0,1c0,0.2,0,0.4,0,0.5c0,0.2,0,0.4,0,0.6c0,0.2,0,0.4,0,0.6
			c0,0.2,0,0.4,0,0.5c0,0.3,0.1,0.7,0.1,1c0,0.3,0.1,0.5,0.1,0.7c0,0.2,0,0.3,0,0.3s0-0.1-0.1-0.2c-0.1-0.2-0.2-0.4-0.3-0.7
			c-0.1-0.3-0.2-0.6-0.3-1c0-0.2-0.1-0.4-0.1-0.6c0-0.2,0-0.4,0-0.6c0-0.8,0.1-1.6,0.2-2.1C22.7,55.9,22.8,55.5,22.8,55.5z"/>
	</g>
	<g>
		<path style="fill:#606161;" d="M34.3,54.7c0,0,0,0.5-0.2,1.2c0,0.2-0.1,0.4-0.1,0.6c0,0.2,0,0.4-0.1,0.6c0,0.2-0.1,0.4-0.1,0.7
			c0,0.2,0,0.5-0.1,0.7c0,0.2,0,0.5,0,0.7c0,0.2,0,0.4,0,0.7c0,0.2,0,0.4,0.1,0.6c0,0.2,0.1,0.4,0.1,0.6c0,0.2,0.1,0.3,0.1,0.5
			c0,0.1,0.1,0.3,0.1,0.4c0,0.2,0.1,0.3,0.1,0.3s-0.1-0.1-0.2-0.3c0-0.1-0.1-0.2-0.2-0.3c-0.1-0.1-0.2-0.3-0.2-0.4
			c-0.1-0.2-0.1-0.4-0.2-0.6c-0.1-0.2-0.1-0.4-0.1-0.6c0-0.2-0.1-0.5-0.1-0.7c0-0.2,0-0.5,0-0.7c0-0.2,0-0.5,0.1-0.7
			c0-0.2,0.1-0.5,0.1-0.7c0.1-0.4,0.2-0.8,0.3-1.2c0.1-0.3,0.2-0.6,0.3-0.8C34.2,54.8,34.3,54.7,34.3,54.7z"/>
	</g>
	<g>
		<path style="fill:#606161;" d="M36.2,55c0,0,0,0.4-0.1,1.1c-0.1,0.3-0.1,0.7-0.2,1.1c0,0.2-0.1,0.4-0.1,0.6c0,0.2-0.1,0.4-0.1,0.6
			c0,0.2,0,0.4,0,0.6c0,0.2,0,0.4,0,0.6c0,0.4,0.1,0.8,0.1,1.1c0,0.2,0,0.3,0.1,0.4c0,0.1,0,0.2,0,0.3c0,0.2,0,0.3,0,0.3
			s0-0.1-0.1-0.3c0-0.1-0.1-0.2-0.1-0.3c0-0.1-0.1-0.3-0.2-0.4c0-0.2-0.1-0.3-0.1-0.5c0-0.2-0.1-0.4-0.1-0.6c0-0.2,0-0.4,0-0.6
			c0-0.2,0-0.4,0-0.7c0-0.2,0.1-0.4,0.1-0.7c0-0.2,0.1-0.4,0.1-0.6c0.1-0.4,0.2-0.8,0.3-1.1C36,55.4,36.2,55,36.2,55z"/>
	</g>
	<g>
		<path style="fill:#606161;" d="M47.6,54.3c0,0,0,0.5,0,1.2c0,0.4,0,0.8,0,1.2c0,0.2,0,0.4,0,0.7c0,0.2,0,0.5,0,0.7c0,0.2,0,0.5,0,0.7
			c0,0.2,0,0.4,0.1,0.7c0,0.2,0,0.4,0.1,0.6c0,0.2,0.1,0.4,0.1,0.5c0,0.2,0.1,0.3,0.1,0.5c0,0.1,0.1,0.3,0.1,0.4
			c0.1,0.2,0.1,0.3,0.1,0.3s-0.1-0.1-0.2-0.3c-0.1-0.1-0.1-0.2-0.2-0.3c-0.1-0.1-0.2-0.3-0.2-0.4c-0.1-0.2-0.1-0.4-0.2-0.6
			c-0.1-0.2-0.1-0.4-0.2-0.6c0-0.2-0.1-0.5-0.1-0.7c0-0.2,0-0.5,0-0.7c0-0.2,0-0.5,0-0.7c0-0.2,0-0.5,0.1-0.7
			c0.1-0.4,0.1-0.8,0.2-1.2C47.5,54.8,47.6,54.3,47.6,54.3z"/>
	</g>
	<g>
		<path style="fill:#606161;" d="M17.1,70.6c0,0,0,0.1,0,0.3c0,0.1,0,0.2,0,0.4c0,0.1,0,0.3,0,0.5c0,0.2,0,0.4,0,0.6c0,0.2,0,0.4,0,0.6
			c0,0.4,0,0.9,0,1.4c0,0.5,0,0.9,0,1.4c0,0.4,0,0.9,0,1.2c0,0.4,0,0.7,0,0.9c0,0.2,0,0.3,0,0.3s-0.2-0.5-0.3-1.2
			c-0.1-0.4-0.1-0.8-0.2-1.2c-0.1-0.4-0.1-0.9-0.1-1.4c0-0.5,0-1,0-1.4c0-0.5,0.1-0.9,0.2-1.2c0-0.2,0.1-0.3,0.1-0.5
			c0-0.1,0.1-0.3,0.1-0.4C17,70.7,17.1,70.6,17.1,70.6z"/>
	</g>
	<g>
		<path style="fill:#606161;" d="M29.1,70.1c0,0,0.1,0.3,0.2,0.8c0.1,0.5,0.1,1.1,0.1,1.8c0,0.3,0,0.7,0,1c0,0.3,0,0.6,0,0.8
			c0,0.5-0.1,0.8-0.1,0.8s-0.1-0.3-0.2-0.8c0-0.2-0.1-0.5-0.1-0.8c0-0.3,0-0.6-0.1-1c0-0.7,0-1.3,0.1-1.8
			C29,70.4,29.1,70.1,29.1,70.1z"/>
	</g>
	<g>
		<path style="fill:#606161;" d="M30.5,70c0,0,0.1,0.4,0.1,1.1c0.1,0.6,0.1,1.5,0.1,2.3c0,0.4,0,0.8,0,1.2c0,0.2,0,0.4,0,0.6
			c0,0.2,0,0.4,0,0.5c0,0.6,0,1.1,0,1.1s-0.1-0.4-0.2-1c-0.1-0.6-0.2-1.5-0.2-2.3c0-0.9,0-1.7,0.1-2.3C30.4,70.5,30.5,70,30.5,70z"
			/>
	</g>
	<g>
		<path style="fill:#606161;" d="M48.8,68.1c0,0,0.1,0.3,0.2,0.9c0.1,0.5,0.2,1.2,0.2,1.9c0,0.7,0.1,1.4,0.1,1.9c0,0.5-0.1,0.9-0.1,0.9
			s-0.1-0.3-0.2-0.9c-0.1-0.3-0.1-0.6-0.2-0.9c0-0.2-0.1-0.3-0.1-0.5c0-0.2,0-0.3,0-0.5c0-0.7,0-1.4,0-1.9
			C48.8,68.5,48.8,68.1,48.8,68.1z"/>
	</g>
	<g>
		<path style="fill:#606161;" d="M50,68.7c0,0,0.1,0.5,0.2,1.1c0.1,0.7,0.2,1.6,0.3,2.5c0,0.5,0,0.9,0,1.4c0,0.2,0,0.4,0,0.6
			c0,0.2-0.1,0.4-0.1,0.6c-0.1,0.7-0.2,1.1-0.2,1.1s0-0.5,0-1.2c0-0.2,0-0.4,0-0.6c0-0.2,0-0.4,0-0.6c0-0.4,0-0.9,0-1.3
			c-0.1-0.9,0-1.8,0-2.5C50,69.1,50,68.7,50,68.7z"/>
	</g>
	<g>
		<path style="fill:#606161;" d="M18,88.8c0,0,0.1,0.3,0.1,0.9c0.1,0.5,0.1,1.2,0.1,1.9c0,0.7,0,1.3-0.1,1.9c0,0.2,0,0.5,0,0.6
			c0,0.2,0,0.2,0,0.2s0-0.1-0.1-0.2c-0.1-0.1-0.1-0.4-0.2-0.6c0-0.3-0.1-0.6-0.1-0.9c0-0.3,0-0.7,0-1c0-0.7,0.1-1.4,0.1-1.9
			C17.9,89.2,18,88.8,18,88.8z"/>
	</g>
	<g>
		<path style="fill:#606161;" d="M19.8,89.5c0,0,0.1,0.3,0.2,0.8c0.1,0.5,0.2,1.2,0.2,1.8c0,0.2,0,0.3,0,0.5c0,0.2,0,0.3,0,0.5
			c0,0.3,0,0.6,0,0.8c0,0.5,0,0.8,0,0.8S20.1,94.5,20,94c-0.1-0.2-0.1-0.5-0.2-0.8c-0.1-0.3-0.1-0.7-0.1-1c0-0.7,0-1.3,0-1.8
			C19.8,89.9,19.8,89.5,19.8,89.5z"/>
	</g>
	<g>
		<path style="fill:#606161;" d="M33.2,85.6c0,0,0.1,0.4,0.2,1c0,0.3,0.1,0.6,0.1,1c0,0.4,0.1,0.7,0.1,1.1c0,0.4,0.1,0.8,0.1,1.1
			c0,0.4,0.1,0.7,0.1,1c0,0.6,0,1,0,1s-0.2-0.4-0.3-0.9c0-0.1-0.1-0.3-0.1-0.5c0-0.2-0.1-0.3-0.1-0.5c-0.1-0.4-0.1-0.8-0.2-1.1
			c0-0.4-0.1-0.8-0.1-1.2c0-0.4,0-0.7,0-1C33.1,86,33.2,85.6,33.2,85.6z"/>
	</g>
	<g>
		<path style="fill:#606161;" d="M34.8,85.8c0,0,0.1,0.4,0.2,0.9c0.1,0.3,0.1,0.6,0.1,0.9c0,0.3,0,0.7,0,1.1c0,0.4,0,0.7-0.1,1.1
			c0,0.3-0.1,0.7-0.1,0.9c-0.1,0.5-0.2,0.9-0.2,0.9s-0.1-0.4-0.1-0.9c0-0.3,0-0.6,0-0.9c0-0.3,0-0.7,0-1c0-0.4,0-0.7,0-1
			c0-0.3,0-0.6,0.1-0.9C34.7,86.2,34.8,85.8,34.8,85.8z"/>
	</g>
	<g>
		<path style="fill:#606161;" d="M32,88c0,0,0.1,0.2,0.2,0.6c0,0.2,0.1,0.4,0.1,0.6c0,0.2,0.1,0.5,0.1,0.7c0,0.2,0.1,0.5,0.1,0.7
			c0,0.2,0,0.5,0,0.6c0,0.4,0,0.6,0,0.6s-0.1-0.2-0.3-0.6c-0.1-0.2-0.1-0.4-0.2-0.6C32,90.5,32,90.2,31.9,90c0-0.3-0.1-0.5-0.1-0.7
			c0-0.2,0-0.5,0-0.6C31.9,88.2,32,88,32,88z"/>
	</g>
	<g>
		<path style="fill:#606161;" d="M52.5,83.6c0,0,0.1,0.3,0.3,0.8c0.1,0.3,0.1,0.6,0.2,0.9c0,0.3,0.1,0.7,0.1,1c0,0.4,0,0.7,0,1
			c0,0.3,0,0.6-0.1,0.9c-0.1,0.5-0.1,0.9-0.1,0.9s-0.1-0.4-0.2-0.9c0-0.3-0.1-0.6-0.1-0.9c0-0.3,0-0.7-0.1-1c0-0.3,0-0.7,0-1
			c0-0.3,0-0.6,0-0.9C52.5,84,52.5,83.6,52.5,83.6z"/>
	</g>
	<g>
		<path style="fill:#606161;" d="M59.2,101.5c0,0-0.2-0.3-0.5-0.8c-0.3-0.5-0.5-1.1-0.8-1.7c-0.1-0.2-0.1-0.3-0.2-0.5
			c-0.1-0.2-0.1-0.3-0.2-0.5c-0.1-0.3-0.2-0.6-0.3-0.8c-0.1-0.1-0.1-0.2-0.1-0.3c0-0.1-0.1-0.2-0.1-0.2c-0.1-0.1-0.1-0.2-0.1-0.2
			s0.1,0.1,0.2,0.2c0.1,0.1,0.3,0.3,0.4,0.5c0.3,0.4,0.7,1.1,0.9,1.7c0.3,0.7,0.5,1.3,0.6,1.8C59.2,101.2,59.2,101.5,59.2,101.5z"/>
	</g>
	<g>
		<path style="fill:#606161;" d="M47.6,104.2c0,0-0.2-0.3-0.5-0.9c-0.1-0.3-0.3-0.6-0.4-0.9c-0.1-0.2-0.1-0.3-0.2-0.5
			c-0.1-0.2-0.1-0.4-0.2-0.6c-0.2-0.8-0.4-1.5-0.4-2.1c-0.1-0.6-0.1-1-0.1-1s0.2,0.4,0.4,0.9c0.2,0.6,0.5,1.3,0.6,2
			c0,0.2,0.1,0.4,0.2,0.6c0.1,0.2,0.1,0.4,0.2,0.5c0.1,0.4,0.2,0.7,0.2,1C47.6,103.8,47.6,104.2,47.6,104.2z"/>
	</g>
	<g>
		<path style="fill:#606161;" d="M37.6,107.2c0,0-0.1-0.4-0.3-0.9c-0.2-0.5-0.4-1.3-0.5-2c-0.1-0.4-0.2-0.7-0.2-1.1c-0.1-0.4-0.1-0.7-0.1-1
			c0-0.3,0-0.5,0-0.7c0-0.2,0-0.3,0-0.3s0,0.1,0.1,0.3c0,0.2,0.1,0.4,0.2,0.7c0.2,0.5,0.4,1.3,0.5,2c0.2,0.7,0.3,1.5,0.3,2.1
			C37.6,106.8,37.6,107.2,37.6,107.2z"/>
	</g>
</g>
<g id="label">
	<line style="fill:none;stroke:#000000;stroke-miterlimit:10;" x1="285.6" y1="95.3" x2="285.6" y2="120.8"/>
	<line style="fill:none;stroke:#000000;stroke-miterlimit:10;" x1="121.1" y1="85.3" x2="121.1" y2="120.9"/>
	<g>
		<g>
			<line style="fill:none;stroke:#000000;stroke-miterlimit:10;" x1="282.2" y1="120.8" x2="124.6" y2="120.8"/>
			<g>
				<polygon points="281.5,118.3 285.9,120.8 281.5,123.4 				"/>
			</g>
			<g>
				<polygon points="125.3,118.3 120.9,120.8 125.3,123.4 				"/>
			</g>
		</g>
	</g>
	<text transform="matrix(1 0 0 1 196.9971 136.1252)" style="fill:#0A0000; font-family:'Roboto Condensed';font-size:14px;">d</text>
	<g>
		<g>
			<line style="fill:none;stroke:#000000;stroke-miterlimit:10;" x1="285.4" y1="47.4" x2="118.6" y2="47.4"/>
			<g>
				<polygon points="284.6,44.8 289.1,47.4 284.6,49.9 				"/>
			</g>
			<g>
				<polygon points="119.4,44.8 114.9,47.4 119.4,49.9 				"/>
			</g>
		</g>
	</g>
	<text transform="matrix(1 0 0 1 197.3037 43.0847)" style="fill:#0A0000; font-family:'Roboto Condensed';font-size:14px;">c</text>
	<g>
		<g>
			<line style="fill:none;stroke:#000000;stroke-miterlimit:10;" x1="114.9" y1="60.2" x2="114.9" y2="87.5"/>
			<g>
				<polygon points="112.3,61 114.9,56.5 117.5,61 				"/>
			</g>
			<g>
				<polygon points="112.3,86.7 114.9,91.1 117.5,86.7 				"/>
			</g>
		</g>
	</g>
	<text transform="matrix(1 0 0 1 102.9331 78.7346)" style="fill:#0A0000; font-family:'Roboto Condensed';font-size:14px;">b</text>
	<g>
		<g>
			<line style="fill:none;stroke:#000000;stroke-miterlimit:10;" x1="292.5" y1="54" x2="292.5" y2="111.8"/>
			<g>
				<polygon points="290,54.7 292.5,50.3 295.1,54.7 				"/>
			</g>
			<g>
				<polygon points="290,111.1 292.5,115.5 295.1,111.1 				"/>
			</g>
		</g>
	</g>
	<text transform="matrix(1 0 0 1 297.1719 87.2336)" style="fill:#0A0000; font-family:'Roboto Condensed';font-size:14px;">a</text>
</g>
<g id="selection_1_">
	<line class="st20" x1="285.7" y1="56.4" x2="121.2" y2="55"/>
	<line class="st20" x1="121" y1="92.1" x2="285.9" y2="110.2"/>
	<line class="st20" x1="285.7" y1="110.5" x2="285.7" y2="56.1"/>
	<line class="st20" x1="121.1" y1="54.7" x2="121.1" y2="92.3"/>
</g>
</svg>
