<?xml version="1.0" encoding="utf-8"?>
<!-- Generator: Adobe Illustrator 22.0.0, SVG Export Plug-In . SVG Version: 6.00 Build 0)  -->
<svg version="1.1" id="Layer_1" xmlns="http://www.w3.org/2000/svg" xmlns:xlink="http://www.w3.org/1999/xlink" x="0px" y="0px"
	 viewBox="0 0 374.2 141.7" style="enable-background:new 0 0 374.2 141.7;" xml:space="preserve">
<style type="text/css">
	.st0{fill:#252626;stroke:#000000;stroke-width:0.25;stroke-miterlimit:10;}
	.st1{fill:#202121;}
	.st2{fill:#252626;}
	.st3{fill:none;stroke:#2E3192;stroke-width:0.5;stroke-miterlimit:10;}
	.st4{font-family:'Roboto-Light';}
	.st5{font-size:15.3419px;}
	.st6{fill:none;stroke:#FF0045;stroke-width:2;stroke-miterlimit:10;}
	.st7{fill:#3E4EC2;}
	.st8{fill:#FEFEFE;}
	.st9{font-family:'RobotoCondensed-Regular';}
	.st10{font-size:14px;}
</style>
<path id="XMLID_13807_" class="st0" d="M248.8,103.5c0.1-0.6,0.3-1.3-0.9-1.3c-1.5,0.1-3.1,0-4.6,0c2.6-0.4,5.1-0.3,7.5-0.1
	c6,0.3,12,0.4,18,0.1c2.6-0.1,5.1,0,7.7,0.1c8.2,0.4,16.2-0.9,24.3-1.2c5-0.1,10.1-0.9,15.1-1.2c5.6-0.3,11.1-0.9,16.6-2.2
	c2.9-0.6,5.8-1.5,8.8-1.7c1.5-0.1,2.7-0.9,4-1.4c1.5-0.6,2.2-1.8,1.7-3.5c-0.3-0.5-0.4-1.2,0.4-1.3c0.6-0.1,0.9,0.5,0.9,1.2
	c0,3.2-0.4,6.1-2,8.9c-0.4,0.6-0.8,1-1.4,1.2c-0.5,0.1-1.2,0.4-1.3-0.5c-0.1-0.6,0.1-0.6,0.8-0.9c1.3-0.4,1.5-1.5,1.7-2.7
	c0.1-0.9-0.5-0.8-1-0.5c-5,1.7-10.2,2.4-15.5,3.2c-2.7,0.4-5.4,1-8.1,1.3c-2.8,0.4-5.6-0.1-8.4,0.9c-1.2,0.4-2.4,0.8-3.3,1.4
	c-2.3,1.8-5.1,2.2-7.7,3.3c-4.2,1.8-8.2,4-11.4,7.5c-3.1,3.6-4.2,7.5-5.2,11.8c-0.6,2.9-1.5,5.8-2.3,8.6c-0.1,0.5-0.3,1.2-1,0.9
	c-0.9-0.3-0.4-0.8-0.3-1.3c1.4-5.1,2.6-10.4,4.2-15.3c0.6-2,1.9-3.6,3.3-5.2c2.2-2.8,4.9-5.2,7.9-6.6c2-0.9,4-2.2,6.3-2.4
	c1.8-0.3,3.3-1.2,5.2-2.3c-3.2-0.5-5.8,0.3-8.4,0.3c-1.9,0-3.8,0.5-5.9,0.6c-3.1,0.1-6.3,1-9.2,0.5c-4.2-0.5-7.4,2-11.4,1.9
	c-3.7-0.1-7.4,0.8-11.1,1.5c-2.3,0.5-4.5,1.5-6.4,2.7c-3.5,2-7,3.6-10.2,6.1c-0.4-0.8-0.5-1.4,0.3-1.9c5.8-3.6,11.5-7.3,18.3-8.8
	c2.4-0.6,5-0.6,7.5-1.4C264.3,103.9,256.5,103.9,248.8,103.5z"/>
<g id="XMLID_55_">
	<path id="XMLID_15_" class="st1" d="M210.6,109.8c5.1,0.1,10.1-0.6,15.1-1.8c1.3-0.3,2.8-0.5,3.8,0c0.4,0.3,0.6,0.5,0.6,0.8
		c0.4,0,0.9,0,1.3,0c0.4-0.8,1.3-1.3,2.9-1.4c3.3-0.1,5.9-2.4,8.7-3.8c0.1-0.1,0.3-0.1,0.4-0.3c1.8,0,3.6,0,5.4,0
		c0.1-0.6,0.3-1.3-0.9-1.3c-1.5,0.1-3.1,0-4.6,0c-1.5,0-2.7,0.9-3.8,1.8c-1.9,1.4-4.2,1.9-6.5,2.3c-0.5,0.1-1.3,0.3-1.7-0.4
		s-0.4-1.3,0.1-1.7c0.8-0.6,1.4-1.8,2.6-1.8c1.7,0,2.7-0.9,3.6-1.9c2.9-4,6.6-7.2,11-9.5c6.4-3.5,12.9-6.1,20.3-6.3
		c-0.4-0.4-0.4-1-1.2-1c-1.5,0.3-3.1,0-4.7,0.3c-4.3,0.8-8.3,2.8-12.4,4.6c-5.4,2.4-10,5.8-13.8,10.4c-0.9,1.2-2.6,2.3-3.7,1.7
		c-1.4-0.8-2.6-1-4-0.6c-0.8,0.1-1-0.1-1.2-0.6c-0.1-0.5,0-1,0.8-1.2c2.4-0.4,6-5.5,5.6-7.8c-0.1-0.4-0.1-0.9-0.8-0.9
		c-0.5,0-0.8,0.4-0.8,0.8c0,1.4-0.6,2.4-1.3,3.6c-1.4,2.7-3.6,3.2-6.1,1.5c-1.3-0.9-1.4-1.9-0.4-2.9c0.9-0.9,1.5-2,2-3.2
		c1.7-4.1,0.3-8.3,0.1-12.4c-0.1-2.9-0.1-3.6,2.7-3.6c0.5,0,1.2-0.1,1.7-0.1c1.2,0.1,2.6-0.4,3.3,0.9c0.6,1,0.3,1.9-0.6,2.7
		c-0.3,0.3-0.4,0.6-0.1,0.9c0.3,0.4,0.6,0.1,0.9-0.1c0.4-0.3,0.6-0.5,0.9-1c1.2-2.7,0-4.7-3.1-5.1c-0.6-0.1-1.7,0.3-1.9-0.6
		c-0.3-1,0.3-1.7,1.2-2.3c1.9-1.4,4.2-1.4,6.1-0.6c4.1,1.7,8.3,2.6,12.5,3.6c5.9,1.4,11.8,2.2,17.8,1.9c3.2-0.1,6.5-0.6,9.7-1
		c8.3-0.9,16.6-1.5,24.9-2.3c0.4,0,1.2,0.3,1.3-0.4c0.1-0.8-0.5-0.8-1-0.9c-0.5-0.1-0.9-0.3-1.5-0.1c-1.7,0.4-3.3,0.5-5,0.6
		c-4,0.4-7.9,0.6-11.8,1c-3.5,0.4-7,1-10.5,1.2c-4.7,0.1-9.6,0.8-14.3,0.1c-3.3-0.5-6.6-0.5-9.8-1.5c-4.5-1.4-9.1-2.4-13.4-4.1
		c-1.9-0.8-6.4,1.2-7.2,3.1c-0.5,1.5-0.9,2.9-2.8,3.5c-0.8,0.1-1,1.4-1,2.2c-0.1,1.9,0,3.8,0.1,5.6c0.1,2.4,1.2,4.9,0.3,7.4
		c-0.6,1.7-1.2,3.3-2.7,4.6c-1.7,1.4-0.9,3.7,1.4,4.7c1.4,0.6,1.5,1.5,1.2,2.8c-0.3,1.4-1.3,0.6-1.9,0.8c0,0.3,0,0.5,0,0.9
		c0,0.3,0,0.4,0,0.6c1.3,0.1,2.7,0.3,4,0.6c0.9,0.3,1.9,0.8,1.8,2.2c-0.1,0.8,0.3,1.9-1.2,1.9c-3.3,0.1-6.4,0.8-9.6,1.5
		c-3.8,0.9-7.9,0.1-11.8,0.5c-0.6,0-1.7-0.1-1.7-0.9l0,0c-0.4,0-0.6,0-1-0.1c-0.3,1-1.3,0.8-2.3,0.8c-3.8,0-7.5-1.2-11.4-1.2
		c-2.2,0-4.5-0.1-6.6-0.5c-4.3-0.8-8.6-1.8-12.9-1.9c-4.1-0.1-8.1-0.8-12.1-1.4c-4-0.6-8.1-1.4-12.1-1.5c-4.1-0.3-8.2-0.5-12.3-0.8
		c-0.9,0-1.8-0.4-2.2-1l-0.1-0.1c-0.6,0.1-1.3,0.1-1.8,0c0,0.1,0,0.3,0.1,0.4c-1,0-1.9,0.3-2.6,0c-2.6-0.9-5.1-1-7.8-1.3
		c-1.9-0.1-3.7-0.4-5.6-0.4c-2.7-0.1-5.5-0.8-8.2-1c-3.7-0.4-4.1-1-2.2-4.1c0.3-0.5,0.6-0.9,1-1c0-0.4-0.1-0.8-0.1-1.2
		c0-0.5,0-0.9,0.1-1.3c-0.8-0.6-1.4-1.4-2.3-1.8c-1.3-0.6-0.8-2.8-0.5-4.2c0.5-3.6,1.8-7,1.8-10.7c0-0.9,0.4-1.5,1.2-1.7
		c0.1-0.6,0.5-1.3,0.9-1.8c-0.6-0.4-1.3-0.9-1.9-1.4c-0.9-0.6-1-1.7-1-2.6c0.1-1,1.3-0.5,1.9-0.5c1.9,0,4,0.3,5.9,0.3
		c4.3,0.1,8.7-0.5,13.2-0.4c5.6,0.3,11.3,0.3,16.9-0.3c4.6-0.4,9.2-0.4,13.8-0.6c2.8-0.1,5.8,0.3,8.4-0.3c4.2-0.9,8.4-1.2,12.5-1.8
		c5.6-0.8,11.3-1.4,16.7-2.3c0.1-0.1,0.4-0.1,0.5-0.3l0.8-0.1c-0.8-1.5-2.2-0.4-3.3-0.8c-0.1,0-0.3,0.1-0.4,0.1l-0.8,0.3
		c-5.4,0.3-10.5,1.4-15.7,1.9c-7,0.8-14.2,1.7-21.2,1.8c-1.9,0-3.8,0-5.9,0.1c-6.5,0.5-13,1.3-19.7,0.9c-2.3-0.1-4.6-0.5-6.9-0.4
		c-4.7,0.4-9.5,0.3-14.2,0.1c-4.1-0.3-7.2-1.7-9.1-5.2c-2.7-5-6.4-9.2-10.5-13c-4.2-4-8.8-7.4-13.2-11c-0.5,0-1,0-1.3,0.4
		c2.6,2.9,5.9,5,8.8,7.4c4.9,4.1,9.5,8.4,13,13.7c1.5,2.2,2.3,4.7,4.3,6.5c0.6,0.6,1.4,1.2,1.9,1.8c1,1.2,3.8,1.9,1.4,4.3
		c-1,1-0.5,2.6,0.6,3.3c1.5,1,1.4,2.3,1,3.7c-0.8,3.5-1.5,6.9-1.7,10.4c0,0.8,0.4,1.7,0.4,2.3c0,1.8-0.8,3.5,0.4,5.5
		c0.5,1-2.2,1.9-3.5,2.6c-5.5,2.9-11.6,4.1-17.6,5.4c-2.2,0.5-4.5,0.5-6.6,0.6c-5.4,0.4-10.7,1-16,1.4c-2.4,0.3-4.5,1.4-6.9,1.8
		c-7,0.9-13.9,2.7-21.2,2.2c-1.7-0.1-3.3-0.4-5.1-0.6c-0.9-0.1-1.5-0.5-1.8-1.4c-0.1-0.9,0.6-1,1.2-1.4c2.4-1.7,5.2-2,8.1-2.7
		c3.1-0.8,5.9-2.3,8.9-2.8c1.4-0.3,2.9-0.4,4.2-1.2c0.6-0.4,1.2-0.8,1.2-1.5c0-0.9-1-0.9-1.5-0.9c-4.7-0.4-9.5-0.8-14.2-0.4
		c-6,0.5-11.9,0.9-17.9,1.4c-0.1,0-0.3,0-0.4,0c-1.3-0.3-3.1,0-3.6-1.4c-0.6-1.7,0-3.3,0.8-4.9c0.3-0.5,0.8-0.5,1.2-0.6
		C16,88,20.5,88,24.5,86.9c5.2-1.3,10.6-1.4,16-2.3c1.3-0.3,2.6-1,2.6-2.2c0-1.3-1.3-1.9-2.6-2c-2.4-0.3-4.9,0.1-7.3,0.4
		c-2.3,0.3-4.7,0.4-6.9,0c-4.5-0.6-8.8,0-13.3,0.3c-3.8,0.3-7.8,0.1-11.1-2.4c-1.3-1-1.2-2,0-3.2C4.5,72.9,7.7,72,11,72
		c5.6,0,11-1.2,16.6-1c4.2,0.1,8.6,0.3,12.8,0.1c1.5,0,3.3,0.1,3.3-2.3c0-0.6-0.1-0.9-0.8-1.3c-2.4-1.3-5-1.2-7.5-1.4
		c-6.9-0.6-13.9-1.2-20.8-1.9c-2-0.3-4.2-0.8-6.1-1.8c-1.9-1.2-2.6-3.5-1.3-4.9c0.9-1,2.3-0.8,3.5-0.8c3.3-0.3,6.6-0.4,9.8,0.3
		c0.3,0,0.5,0,0.5,0.1c1.2,2,2.8,0.9,4.3,0.6c4-0.8,7.9-0.3,11.9-0.4c0.5,0,1.3,0,1.2,0.9c-0.1,0.9,0.5,1.3,1.2,0.8
		c2.8-2.2,5.9-1.5,8.9-1.3c6.3,0.5,12.4-0.1,18.5-1.7c0.3-0.1,0.5-0.3,0.8-0.4c4.7-1.7,4.1-3.7,1.7-6.6c-2.2-2.6-5-4.7-6.1-7.9
		c-1.4-3.6-1.7-7.3,0.4-10.9c0.5-0.9,0.6-0.8,1.4-0.3c1.9,1.5,4,2.7,6.1,3.6c0-0.5,0-0.9,0.1-1.4c-1.9-1.4-4.1-2.3-5.8-4
		c-1.2-1-2.7-0.5-3.2,1c-0.1,0.5-0.3,1-0.4,1.5c-2,3.8-1.3,10.2,1.5,13.4c1.9,2.3,3.8,4.6,5.8,6.8c1,1.3,0.6,2-0.6,2.7
		c-4.5,2-9.2,2.6-14.1,2.6c-5,0.1-10-0.1-14.8-0.3c-3.3-0.1-6.8-0.3-10.1-0.1c-2.3,0.1-4.6,0.6-6.8,0c-3.6-1.2-7.3-1.3-11-1
		c-1.9,0.1-4.3,0-5.6,2c-1.8,2.7-0.4,6.1,2.9,7.3c5.6,2,11.5,1.9,17.4,2.6c4.2,0.5,8.6,0.8,12.8,1.3c0.9,0.1,2.3-0.1,3.2,1.3
		c-1.3,0.3-2.3,0.3-3.3,0.3c-6.3,0-12.4-0.4-18.7,0.3C19,70,17.6,70.8,16,70.5c-2.9-0.5-5.9,0-8.8,0.8c-2.2,0.5-4.2,1.4-5.8,3.2
		C0.9,75.1,0,75.7,0,76.8c0,1.9,1.9,4,3.7,4.6c3.2,1.2,6.5,1.3,9.8,1.3c5.5-0.1,11-0.3,16.6,0.1c3.2,0.1,6.4-0.4,9.7-0.5
		c0.6,0,1.4-0.4,2,0.6c-1.2,0.3-2.2,0.6-3.2,0.8c-5.2,0.5-10.5,0.9-15.5,2.3c-3.2,0.9-6.5,0.4-9.7,1.5c-3.3,1.2-4.6,2.4-4.7,6
		C8.7,95.9,9.6,97,12,97.6c4.9,1,9.6-0.3,14.3-0.5c5.2-0.3,10.5-0.6,15.7-0.6c0.6,0,1.4-0.1,2,0.9c-2.6-0.1-4.7,1-6.9,1.7
		c-3.7,1.3-7.7,1.8-11.1,3.5c-1.4,0.6-3.3,1.4-3.2,3.3c0.1,1.5,1.4,2.7,2.9,3.1c1,0.3,2.2,0.5,3.2,0.5c5.5,0,11.1,0.4,16.6-1
		c2.8-0.6,5.9-0.6,8.8-1.3c6.8-1.7,13.7-2.6,20.6-2.7c0.6,0,1.2-0.1,1.8-0.3c3.7-0.4,7.3-1.3,10.9-2c4.2-0.9,8.6-1.8,12.3-4.2
		c1.2-0.6,2.3-1.2,3.5-0.3l0.8,0.9c4.9,0.9,9.7,1.3,14.6,1.5c4.7,0.3,9.3,1.2,13.9,1.9c0.5,0.1,1,0.1,1.3,0.4c0.5,0,0.9,0,1.4,0
		c0-0.1,0-0.1,0.1-0.3c0.4-0.5,1-0.3,1.5-0.1c2.3,0.4,4.6,0.5,6.9,0.8c2.7,0.4,5.5-0.1,8.2,0.4c5.6,1.2,11.3,2.3,16.9,2.6
		c5.6,0.4,11.3,1.3,16.9,2c5.9,0.8,11.9,0.9,17.8,1.7c1.3,0.1,1.8,0.5,1.8,1.3c0.4,0,0.8,0,1,0.1
		C206.3,109.9,207.5,109.8,210.6,109.8z"/>
	<path id="XMLID_13806_" class="st2" d="M194.5,59.4c-0.8-1.5-2.2-0.4-3.3-0.8c3.2-0.5,6.5-0.3,9.7-0.3c5.2,0.1,10.4-0.5,15.6-0.3
		c7.5,0.4,15.1,1.7,22.6,2.4c4.2,0.5,8.3,1.3,12.7,1.4c2.9,0.1,5.6-0.8,8.3-1.5c4.7-1.3,9.6-2,14.4-2.6c6.5-0.6,13-1.9,19.6-1.7
		c6.3,0.3,12.7-0.8,18.9,0c2,0.3,4.1,0,6.3,0c0.9,0,1.5-0.3,2.3-0.8c1.8-1.4,3.6-2.8,5.5-4c5-2.9,9.8-6,15.6-7.2
		c2.7-0.5,5.4-1.8,8.2-1.9c4.7-0.3,9.6-1.4,14.4-0.6c1.9,0.3,3.8,0.1,5.8,0.1c0.8,0,1.5,0,1.7,1.3c-4.7,0-9.3-0.1-14.1,0
		c-6,0.1-11.8,1.4-17.5,2.9c-5.6,1.5-10.4,4.7-15.3,7.5c-1.4,0.8-3.1,1.8-3.7,3.6c-0.4,1-1.4,0.6-1.9,0.5c-1.9-0.5-3.8-0.3-5.6-0.3
		c-2.6,0-5-0.4-7.5-0.4c-6.8,0.1-13.7,0.3-20.5,0.8c-5.5,0.4-11,0.9-16.4,1.8c-5.1,0.9-10.1,2-15,3.5c-2.4,0.8-5.1,0-7.7-0.1
		c-4.1-0.3-8.1-1.3-12.1-1.5c-4.6-0.4-9.2-1.3-13.8-1.9c-0.8-0.1-1.7,0-2.4,0c-5.2-0.3-10.6,0.1-15.9-0.1
		C200.2,59.3,197.4,59.6,194.5,59.4z"/>
	<path id="XMLID_13804_" class="st2" d="M268.9,84.8c-0.4-0.4-0.4-1-1.2-1c4.6-0.8,9.3-1,13.9-1.2c6.9-0.3,13.8-1.2,20.7-1.9
		c0.6-0.1,1-0.1,1.2,0.4c0.1,0.6-0.4,1-0.9,1c-2.4,0.3-4.9,0.5-7.3,0.8c-5.8,0.5-11.5,1-17.3,1.4C275,84.4,271.9,84.6,268.9,84.8z"
		/>
</g>
<path id="XMLID_13784_" class="st2" d="M73.5,34.3c-0.5,0-1,0-1.3,0.4c-0.4-0.4-0.9-0.8-1.3-1.2c0-0.5,0-0.9,0.1-1.4
	C72,32.7,72.9,33.3,73.5,34.3z"/>
<path id="XMLID_13783_" class="st2" d="M190.6,58.9c-0.3,0.1-0.5,0.1-0.8,0.3C190.1,58.7,190.4,58.7,190.6,58.9z"/>
<path id="XMLID_13782_" class="st2" d="M243,103.7c0.1-0.1,0.3-0.1,0.4-0.3C243.3,103.6,243.2,103.6,243,103.7z"/>
<path id="XMLID_13781_" class="st2" d="M193.2,59.8c0.1-0.1,0.4-0.1,0.5-0.3C193.6,59.5,193.3,59.6,193.2,59.8z"/>
<path id="XMLID_13769_" class="st2" d="M58.4,60.5c2.3,2.8,2.9,6.4,4,9.7c1.3,3.6,3.7,4.2,6.6,4.6c5,0.8,10.1,1.3,15.1,1.9
	c2.3,0.3,4.6,0.4,7,0.5c0.5,0,1.2,0,1.7,0.1s0.9,0.4,0.8,1c-0.1,0.6-0.6,0.4-1,0.4c-3.2-0.3-6.4-0.5-9.5-0.9
	c-3.6-0.4-7.2-0.9-10.6-1.4c-2.3-0.3-4.5-0.6-7.2-1.2c5.2,6.9,12.4,11,18.8,16.4c-2.4,0.3-3.8-1.4-5.2-2.6c-3.3-2.6-6.6-5.1-10-7.7
	c-1.7-1.3-3.3-3.1-4.2-5.1c-0.6-1.5-1.8-1.7-2.8-1.7c-3.2-0.1-6.3-1.5-9.5-1.8c-0.1,0-0.4-0.3-0.5-0.3c-0.9,0-1.4-0.6-1.3-1.2
	c0.3-0.9,1.2-0.5,1.8-0.3c2.4,1,5,1.3,7.5,1.8c0.8,0.1,1.5,0.3,2.6,0.4C60.9,69.1,59.1,65,58.4,60.5z"/>
<path id="XMLID_13768_" class="st2" d="M61.6,100.7c-0.1,0.6,0.1,1.5-0.6,1.5c-0.6,0-0.8-0.6-0.8-1.2c-0.6-4.5-1.4-9.1-3.2-12.9
	c-2.4-5.4-4.6-11.1-9.5-15.2c-0.4-0.4-1.5-0.8-0.8-1.5c0.5-0.5,1,0.4,1.5,0.6c3.3,2.4,5,6.1,7,9.5c2.2,3.7,3.5,7.8,4.6,11.9
	C60.7,95.8,61.1,98.4,61.6,100.7z"/>
<path id="XMLID_13767_" class="st1" d="M92.8,75.5c-1.4-0.3-2.8-0.5-4.1-0.9c-4.5-1.5-8.9-3.1-13.3-5c-2-0.9-3.6-2.8-5.6-4
	c-1-0.5-1.9-1.4-2.9-2c-0.5-0.3-0.9-0.6-0.5-1.2c0.3-0.5,0.9-0.3,1.3,0c1.4,0.9,3.1,1.7,4.2,2.8c2.9,2.9,6.8,4,10.5,5.4
	c2.9,1.2,6,2.3,9.2,2.8c0.6,0.1,1.2,0.4,1.7,0.6c0.5,0.1,1,0.4,0.8,1C93.8,75.7,93.2,75.4,92.8,75.5z"/>
<line id="XMLID_1_" class="st3" x1="230.8" y1="101.1" x2="230.8" y2="126.9"/>
<line id="XMLID_3_" class="st3" x1="103.7" y1="90.8" x2="103.7" y2="126.9"/>
<text id="XMLID_4_" transform="matrix(1 0 0 1 167.6129 123.2536)" style="fill:#0A0000; font-family:'Roboto Condensed';font-size:14px;">d</text>
<g>
	<line id="XMLID_2_" class="st3" x1="230.8" y1="126.9" x2="103.7" y2="126.9"/>
	<polygon id="XMLID_6_" points="224.5,123.3 230.8,126.9 224.5,130.5 	"/>
	<polygon id="XMLID_7_" points="110,130.5 103.7,126.9 110,123.3 	"/>
</g>
<line class="st6" x1="230.8" y1="58.7" x2="103.9" y2="65.9"/>
<g>
	<line id="XMLID_9_" class="st3" x1="233.2" y1="52.5" x2="99.1" y2="52.5"/>
	<polygon id="XMLID_8_" points="226.5,48.6 233.2,52.5 226.5,56.2 	"/>
	<polygon id="XMLID_5_" points="105.6,56.2 99.1,52.5 105.6,48.6 	"/>
</g>
<text id="XMLID_10_" transform="matrix(1 0 0 1 167.9234 49.8938)" style="fill:#0A0000; font-family:'Roboto Condensed';font-size:14px;">c</text>
<text id="XMLID_12_" transform="matrix(1 0 0 1 240.8951 84.823)" style="fill:#0A0000; font-family:'Roboto Condensed';font-size:14px;">a</text>
<text id="XMLID_13_" transform="matrix(1 0 0 1 105.9098 87.5232)" style="fill:#0A0000; font-family:'Roboto Condensed';font-size:14px;">b</text>
<g>
	<line id="XMLID_18_" class="st3" x1="239.1" y1="55.4" x2="239.1" y2="109.8"/>
	<polygon id="XMLID_17_" points="235.4,57 239.1,50.3 242.9,57 	"/>
	<polygon id="XMLID_14_" points="242.9,108.9 239.1,115.5 235.4,108.9 	"/>
</g>
<g>
	<g>
		<line id="XMLID_21_" class="st3" x1="99.1" y1="64.6" x2="99.1" y2="96.6"/>
		<polygon id="XMLID_20_" points="95.8,67.1 99.1,61.2 102.4,67.1 		"/>
	</g>
	<polygon id="XMLID_19_" points="102.4,95.3 99.1,101.1 95.8,95.3 	"/>
</g>
<line class="st6" x1="104.2" y1="98.5" x2="230.1" y2="108.7"/>
<line class="st6" x1="230.1" y1="108.7" x2="230.1" y2="58"/>
<line class="st6" x1="103.9" y1="65.9" x2="103.9" y2="98.5"/>
<rect class="st7" width="374.2" height="21.3"/>
<text transform="matrix(1.071 0 0 1 143.1525 15.4299)" style="fill:#FEFEFE; font-family:'Roboto Condensed';font-size:14px;">Measurements</text>
</svg>
