<?xml version="1.0" encoding="utf-8"?>
<!-- Generator: Adobe Illustrator 22.0.0, SVG Export Plug-In . SVG Version: 6.00 Build 0)  -->
<svg version="1.1"
	 id="svg8" shape-rendering="crispEdges" inkscape:version="0.92.2 (5c3e80d, 2017-08-06)" sodipodi:docname="mario_inkscape.svg" xmlns:cc="http://creativecommons.org/ns#" xmlns:dc="http://purl.org/dc/elements/1.1/" xmlns:inkscape="http://www.inkscape.org/namespaces/inkscape" xmlns:rdf="http://www.w3.org/1999/02/22-rdf-syntax-ns#" xmlns:sodipodi="http://sodipodi.sourceforge.net/DTD/sodipodi-0.dtd" xmlns:svg="http://www.w3.org/2000/svg"
	 xmlns="http://www.w3.org/2000/svg" xmlns:xlink="http://www.w3.org/1999/xlink" x="0px" y="0px" viewBox="0 0 283.5 283.5"
	 style="enable-background:new 0 0 100 100;" xml:space="preserve">
<style type="text/css">
	.st0{fill:#EB131B;}
	.st1{fill:#EC1C25;}
	.st2{fill:#EA1C23;}
	.st3{fill:#ED2830;}
	.st4{fill:#E30910;}
	.st5{fill:#E61C23;}
	.st6{fill:#E61B23;}
	.st7{fill:#ED2223;}
	.st8{fill:#EB2324;}
	.st9{fill:#E31A22;}
	.st10{fill:#ED191B;}
	.st11{fill:#ED1C24;}
	.st12{fill:#EB2129;}
	.st13{fill:#3A1100;}
	.st14{fill:#4A2203;}
	.st15{fill:#411A02;}
	.st16{fill:#F3B30F;}
	.st17{fill:#F4B711;}
	.st18{fill:#120B0B;}
	.st19{fill:#FBB90D;}
	.st20{fill:#4C301F;}
	.st21{fill:#F4BB0F;}
	.st22{fill:#462302;}
	.st23{fill:#FDC10F;}
	.st24{fill:#FEC20F;}
	.st25{fill:#F4BC0F;}
	.st26{fill:#00000A;}
	.st27{fill:#FFCD10;}
	.st28{fill:#FEC51B;}
	.st29{fill:#F9C520;}
	.st30{fill:#482B1D;}
	.st31{fill:#F5BC0E;}
	.st32{fill:#442202;}
	.st33{fill:#3E1E03;}
	.st34{fill:#F0B810;}
	.st35{fill:#F8BE0E;}
	.st36{fill:#00020A;}
	.st37{fill:#E3B00F;}
	.st38{fill:#F0B90E;}
	.st39{fill:#FCC31C;}
	.st40{fill:#432103;}
	.st41{fill:#FFD110;}
	.st42{fill:#FFC910;}
	.st43{fill:#FFC20F;}
	.st44{fill:#F5BD10;}
	.st45{fill:#00010A;}
	.st46{fill:#16130A;}
	.st47{fill:#0B0E15;}
	.st48{fill:#10131B;}
	.st49{fill:#FFC303;}
	.st50{fill:#FFC60A;}
	.st51{fill:#FFC60F;}
	.st52{fill:#FCC50F;}
	.st53{fill:#FEC20A;}
	.st54{fill:#FAC10B;}
	.st55{fill:#EC1E25;}
	.st56{fill:#E4242C;}
	.st57{fill:#120DF0;}
	.st58{fill:#E2242F;}
	.st59{fill:#E7272A;}
	.st60{fill:#120DEF;}
	.st61{fill:#EB2526;}
	.st62{fill:#EE1922;}
	.st63{fill:#EC2029;}
	.st64{fill:#E91B25;}
	.st65{fill:#E01C2F;}
	.st66{fill:#0102FA;}
	.st67{fill:#DB1B38;}
	.st68{fill:#E01A31;}
	.st69{fill:#0202F9;}
	.st70{fill:#E81D28;}
	.st71{fill:#EB1D26;}
	.st72{fill:#E8181F;}
	.st73{fill:#ED201F;}
	.st74{fill:#ED2522;}
	.st75{fill:#EA1D26;}
	.st76{fill:#D71939;}
	.st77{fill:#140FEC;}
	.st78{fill:#0000FF;}
	.st79{fill:#0001FF;}
	.st80{fill:#1C10E5;}
	.st81{fill:#DE1933;}
	.st82{fill:#EC1B25;}
	.st83{fill:#EC2624;}
	.st84{fill:#EE2525;}
	.st85{fill:#FFC217;}
	.st86{fill:#FFCC0F;}
	.st87{fill:#E3112E;}
	.st88{fill:#050BF9;}
	.st89{fill:#FEF103;}
	.st90{fill:#1010F0;}
	.st91{fill:#0C0BF5;}
	.st92{fill:#0403FB;}
	.st93{fill:#DF0D33;}
	.st94{fill:#FAC20E;}
	.st95{fill:#FEC31D;}
	.st96{fill:#FEC417;}
	.st97{fill:#FCC110;}
	.st98{fill:#FFBD0A;}
	.st99{fill:#1110EF;}
	.st100{fill:#0102FB;}
	.st101{fill:#0203F9;}
	.st102{fill:#FFBB0E;}
	.st103{fill:#FAC010;}
	.st104{fill:#FEC51D;}
	.st105{fill:#FAC41C;}
	.st106{fill:#FFD101;}
	.st107{fill:#0002FA;}
	.st108{fill:#0002FB;}
	.st109{fill:#0607F9;}
	.st110{fill:#0807F6;}
	.st111{fill:#FCC411;}
	.st112{fill:#FAC622;}
	.st113{fill:#0000EB;}
	.st114{fill:#0503F0;}
	.st115{fill:#0909FD;}
	.st116{fill:#0101FC;}
	.st117{fill:#0000EE;}
	.st118{fill:#502F12;}
	.st119{fill:#442102;}
	.st120{fill:#4E2C0F;}
	.st121{fill:#472506;}
	.st122{fill:#452203;}
	.st123{fill:#482709;}
	.st124{fill:#56361A;}
	.st125{fill:#452303;}
	.st126{fill:#452202;}
	.st127{fill:#4E2C0E;}
	.st128{fill:#472505;}
	.st129{fill:#442101;}
	.st130{fill:#5A3C21;}
	.st131{fill:none;stroke:#7986FC;stroke-width:0.5;stroke-miterlimit:10;}
	.st132{fill:#FA0404;}
	.st133{fill:#0A0000;}
	.st134{font-family: 'Roboto Condensed'}
	.st135{font-size:14px;}
</style>
<sodipodi:namedview  bordercolor="#666666" borderopacity="1.0" id="base" inkscape:current-layer="layer1" inkscape:cx="0.0" inkscape:cy="0.0" inkscape:document-units="mm" inkscape:pageopacity="0.0" inkscape:pageshadow="2" inkscape:window-height="100" inkscape:window-maximized="1" inkscape:window-width="100" inkscape:window-x="-11" inkscape:window-y="-11" inkscape:zoom="0.98994949" pagecolor="#ffffff" showgrid="false">
	</sodipodi:namedview>
<g id="layer1" transform="translate(0,-197)" inkscape:groupmode="layer" inkscape:label="Layer 1">
	<g id="mario" transform="matrix(0.07396834,0,0,0.07673742,25.307213,223.18529)">
		<title  id="title3443">mario</title>
		<rect id="rect3008" x="412.9" y="146.3" class="st0" width="169.9" height="169.9"/>
		<rect id="rect3010" x="582.9" y="146.3" class="st1" width="169.9" height="169.9"/>
		<rect id="rect3012" x="752.8" y="146.3" class="st1" width="169.9" height="169.9"/>
		<rect id="rect3014" x="922.7" y="146.3" class="st2" width="169.9" height="169.9"/>
		<rect id="rect3016" x="1092.6" y="146.3" class="st3" width="169.9" height="169.9"/>
		<rect id="rect3018" x="243" y="316.2" class="st4" width="169.9" height="169.9"/>
		<rect id="rect3020" x="412.9" y="316.2" class="st5" width="169.9" height="169.9"/>
		<rect id="rect3022" x="582.9" y="316.2" class="st6" width="169.9" height="169.9"/>
		<rect id="rect3024" x="752.8" y="316.2" class="st7" width="169.9" height="169.9"/>
		<rect id="rect3026" x="922.7" y="316.2" class="st8" width="169.9" height="169.9"/>
		<rect id="rect3028" x="1092.6" y="316.2" class="st9" width="169.9" height="169.9"/>
		<rect id="rect3030" x="1262.6" y="316.2" class="st10" width="169.9" height="169.9"/>
		<rect id="rect3032" x="1432.5" y="316.2" class="st11" width="169.9" height="169.9"/>
		<rect id="rect3034" x="1602.4" y="316.2" class="st12" width="169.9" height="169.9"/>
		<rect id="rect3036" x="243" y="486.2" class="st13" width="169.9" height="169.9"/>
		<rect id="rect3038" x="412.9" y="486.2" class="st14" width="169.9" height="169.9"/>
		<rect id="rect3040" x="582.9" y="486.2" class="st15" width="169.9" height="169.9"/>
		<rect id="rect3042" x="752.8" y="486.2" class="st16" width="169.9" height="169.9"/>
		<rect id="rect3044" x="922.7" y="486.2" class="st17" width="169.9" height="169.9"/>
		<rect id="rect3046" x="1092.6" y="486.2" class="st18" width="169.9" height="169.9"/>
		<rect id="rect3048" x="1262.6" y="486.2" class="st19" width="169.9" height="169.9"/>
		<rect id="rect3050" x="73.1" y="656.1" class="st20" width="169.9" height="169.9"/>
		<rect id="rect3052" x="243" y="656.1" class="st21" width="169.9" height="169.9"/>
		<rect id="rect3054" x="412.9" y="656.1" class="st22" width="169.9" height="169.9"/>
		<rect id="rect3056" x="582.9" y="656.1" class="st23" width="169.9" height="169.9"/>
		<rect id="rect3058" x="752.8" y="656.1" class="st24" width="169.9" height="169.9"/>
		<rect id="rect3060" x="922.7" y="656.1" class="st25" width="169.9" height="169.9"/>
		<rect id="rect3062" x="1092.6" y="656.1" class="st26" width="169.9" height="169.9"/>
		<rect id="rect3064" x="1262.6" y="656.1" class="st27" width="169.9" height="169.9"/>
		<rect id="rect3066" x="1432.5" y="656.1" class="st28" width="169.9" height="169.9"/>
		<rect id="rect3068" x="1602.4" y="656.1" class="st29" width="169.9" height="169.9"/>
		<rect id="rect3070" x="73.1" y="826" class="st30" width="169.9" height="169.9"/>
		<rect id="rect3072" x="243" y="826" class="st31" width="169.9" height="169.9"/>
		<rect id="rect3074" x="412.9" y="826" class="st32" width="169.9" height="169.9"/>
		<rect id="rect3076" x="582.9" y="826" class="st33" width="169.9" height="169.9"/>
		<rect id="rect3078" x="752.8" y="826" class="st34" width="169.9" height="169.9"/>
		<rect id="rect3080" x="922.7" y="826" class="st35" width="169.9" height="169.9"/>
		<rect id="rect3082" x="1092.6" y="826" class="st21" width="169.9" height="169.9"/>
		<rect id="rect3084" x="1262.6" y="826" class="st36" width="169.9" height="169.9"/>
		<rect id="rect3086" x="1432.5" y="826" class="st37" width="169.9" height="169.9"/>
		<rect id="rect3088" x="1602.4" y="826" class="st38" width="169.9" height="169.9"/>
		<rect id="rect3090" x="1772.4" y="826" class="st39" width="169.9" height="169.9"/>
		<rect id="rect3092" x="243" y="996" class="st40" width="169.9" height="169.9"/>
		<rect id="rect3094" x="412.9" y="996" class="st41" width="169.9" height="169.9"/>
		<rect id="rect3096" x="582.9" y="996" class="st42" width="169.9" height="169.9"/>
		<rect id="rect3098" x="752.8" y="996" class="st43" width="169.9" height="169.9"/>
		<rect id="rect3100" x="922.7" y="996" class="st44" width="169.9" height="169.9"/>
		<rect id="rect3102" x="1092.6" y="996" class="st45" width="169.9" height="169.9"/>
		<rect id="rect3104" x="1262.6" y="996" class="st46" width="169.9" height="169.9"/>
		<rect id="rect3106" x="1432.5" y="996" class="st47" width="169.9" height="169.9"/>
		<rect id="rect3108" x="1602.4" y="996" class="st48" width="169.9" height="169.9"/>
		<rect id="rect3110" x="412.9" y="1165.9" class="st49" width="169.9" height="169.9"/>
		<rect id="rect3112" x="582.9" y="1165.9" class="st50" width="169.9" height="169.9"/>
		<rect id="rect3114" x="752.8" y="1165.9" class="st51" width="169.9" height="169.9"/>
		<rect id="rect3116" x="922.7" y="1165.9" class="st52" width="169.9" height="169.9"/>
		<rect id="rect3118" x="1092.6" y="1165.9" class="st53" width="169.9" height="169.9"/>
		<rect id="rect3120" x="1262.6" y="1165.9" class="st54" width="169.9" height="169.9"/>
		<rect id="rect3122" x="243" y="1335.8" class="st55" width="169.9" height="169.9"/>
		<rect id="rect3124" x="412.9" y="1335.8" class="st56" width="169.9" height="169.9"/>
		<rect id="rect3126" x="582.9" y="1335.8" class="st57" width="169.9" height="169.9"/>
		<rect id="rect3128" x="752.8" y="1335.8" class="st58" width="169.9" height="169.9"/>
		<rect id="rect3130" x="922.7" y="1335.8" class="st59" width="169.9" height="169.9"/>
		<rect id="rect3132" x="1092.6" y="1335.8" class="st60" width="169.9" height="169.9"/>
		<rect id="rect3134" x="1262.6" y="1335.8" class="st61" width="169.9" height="169.9"/>
		<rect id="rect3136" x="1432.5" y="1335.8" class="st62" width="169.9" height="169.9"/>
		<rect id="rect3138" x="73.1" y="1505.8" class="st63" width="169.9" height="169.9"/>
		<rect id="rect3140" x="243" y="1505.8" class="st64" width="169.9" height="169.9"/>
		<rect id="rect3142" x="412.9" y="1505.8" class="st65" width="169.9" height="169.9"/>
		<rect id="rect3144" x="582.9" y="1505.8" class="st66" width="169.9" height="169.9"/>
		<rect id="rect3146" x="752.8" y="1505.8" class="st67" width="169.9" height="169.9"/>
		<rect id="rect3148" x="922.7" y="1505.8" class="st68" width="169.9" height="169.9"/>
		<rect id="rect3150" x="1092.6" y="1505.8" class="st69" width="169.9" height="169.9"/>
		<rect id="rect3152" x="1262.6" y="1505.8" class="st70" width="169.9" height="169.9"/>
		<rect id="rect3154" x="1432.5" y="1505.8" class="st71" width="169.9" height="169.9"/>
		<rect id="rect3156" x="1602.4" y="1505.8" class="st72" width="169.9" height="169.9"/>
		<rect id="rect3158" x="-96.9" y="1675.7" class="st73" width="169.9" height="169.9"/>
		<rect id="rect3160" x="73.1" y="1675.7" class="st74" width="169.9" height="169.9"/>
		<rect id="rect3162" x="243" y="1675.7" class="st75" width="169.9" height="169.9"/>
		<rect id="rect3164" x="412.9" y="1675.7" class="st76" width="169.9" height="169.9"/>
		<rect id="rect3166" x="582.9" y="1675.7" class="st77" width="169.9" height="169.9"/>
		<rect id="rect3168" x="752.8" y="1675.7" class="st78" width="169.9" height="169.9"/>
		<rect id="rect3170" x="922.7" y="1675.7" class="st79" width="169.9" height="169.9"/>
		<rect id="rect3172" x="1092.6" y="1675.7" class="st80" width="169.9" height="169.9"/>
		<rect id="rect3174" x="1262.6" y="1675.7" class="st81" width="169.9" height="169.9"/>
		<rect id="rect3176" x="1432.5" y="1675.7" class="st82" width="169.9" height="169.9"/>
		<rect id="rect3178" x="1602.4" y="1675.7" class="st83" width="169.9" height="169.9"/>
		<rect id="rect3180" x="1772.4" y="1675.7" class="st84" width="169.9" height="169.9"/>
		<rect id="rect3182" x="-96.9" y="1845.6" class="st85" width="169.9" height="169.9"/>
		<rect id="rect3184" x="73.1" y="1845.6" class="st86" width="169.9" height="169.9"/>
		<rect id="rect3186" x="243" y="1845.6" class="st87" width="169.9" height="169.9"/>
		<rect id="rect3188" x="412.9" y="1845.6" class="st88" width="169.9" height="169.9"/>
		<rect id="rect3190" x="582.9" y="1845.6" class="st89" width="169.9" height="169.9"/>
		<rect id="rect3192" x="752.8" y="1845.6" class="st90" width="169.9" height="169.9"/>
		<rect id="rect3194" x="922.7" y="1845.6" class="st91" width="169.9" height="169.9"/>
		<rect id="rect3196" x="1092.6" y="1845.6" class="st89" width="169.9" height="169.9"/>
		<rect id="rect3198" x="1262.6" y="1845.6" class="st92" width="169.9" height="169.9"/>
		<rect id="rect3200" x="1432.5" y="1845.6" class="st93" width="169.9" height="169.9"/>
		<rect id="rect3202" x="1602.4" y="1845.6" class="st94" width="169.9" height="169.9"/>
		<rect id="rect3204" x="1772.4" y="1845.6" class="st95" width="169.9" height="169.9"/>
		<rect id="rect3206" x="-96.9" y="2015.6" class="st96" width="169.9" height="169.9"/>
		<rect id="rect3208" x="73.1" y="2015.6" class="st97" width="169.9" height="169.9"/>
		<rect id="rect3210" x="243" y="2015.6" class="st98" width="169.9" height="169.9"/>
		<rect id="rect3212" x="412.9" y="2015.6" class="st78" width="169.9" height="169.9"/>
		<rect id="rect3214" x="582.9" y="2015.6" class="st99" width="169.9" height="169.9"/>
		<rect id="rect3216" x="752.8" y="2015.6" class="st100" width="169.9" height="169.9"/>
		<rect id="rect3218" x="922.7" y="2015.6" class="st101" width="169.9" height="169.9"/>
		<rect id="rect3220" x="1092.6" y="2015.6" class="st99" width="169.9" height="169.9"/>
		<rect id="rect3222" x="1262.6" y="2015.6" class="st78" width="169.9" height="169.9"/>
		<rect id="rect3224" x="1432.5" y="2015.6" class="st102" width="169.9" height="169.9"/>
		<rect id="rect3226" x="1602.4" y="2015.6" class="st103" width="169.9" height="169.9"/>
		<rect id="rect3228" x="1772.4" y="2015.6" class="st104" width="169.9" height="169.9"/>
		<rect id="rect3230" x="-96.9" y="2185.5" class="st105" width="169.9" height="169.9"/>
		<rect id="rect3232" x="73.1" y="2185.5" class="st106" width="169.9" height="169.9"/>
		<rect id="rect3234" x="243" y="2185.5" class="st78" width="169.9" height="169.9"/>
		<rect id="rect3236" x="412.9" y="2185.5" class="st107" width="169.9" height="169.9"/>
		<rect id="rect3238" x="582.9" y="2185.5" class="st108" width="169.9" height="169.9"/>
		<rect id="rect3240" x="752.8" y="2185.5" class="st109" width="169.9" height="169.9"/>
		<rect id="rect3242" x="922.7" y="2185.5" class="st110" width="169.9" height="169.9"/>
		<rect id="rect3244" x="1092.6" y="2185.5" class="st107" width="169.9" height="169.9"/>
		<rect id="rect3246" x="1262.6" y="2185.5" class="st108" width="169.9" height="169.9"/>
		<rect id="rect3248" x="1432.5" y="2185.5" class="st78" width="169.9" height="169.9"/>
		<rect id="rect3250" x="1602.4" y="2185.5" class="st111" width="169.9" height="169.9"/>
		<rect id="rect3252" x="1772.4" y="2185.5" class="st112" width="169.9" height="169.9"/>
		<rect id="rect3254" x="243" y="2355.4" class="st113" width="169.9" height="169.9"/>
		<rect id="rect3256" x="412.9" y="2355.4" class="st114" width="169.9" height="169.9"/>
		<rect id="rect3258" x="582.9" y="2355.4" class="st115" width="169.9" height="169.9"/>
		<rect id="rect3260" x="1092.6" y="2355.4" class="st116" width="169.9" height="169.9"/>
		<rect id="rect3262" x="1262.6" y="2355.4" class="st114" width="169.9" height="169.9"/>
		<rect id="rect3264" x="1432.5" y="2355.4" class="st117" width="169.9" height="169.9"/>
		<rect id="rect3266" x="73.1" y="2525.3" class="st118" width="169.9" height="169.9"/>
		<rect id="rect3268" x="243" y="2525.3" class="st119" width="169.9" height="169.9"/>
		<rect id="rect3270" x="412.9" y="2525.3" class="st120" width="169.9" height="169.9"/>
		<rect id="rect3272" x="1262.6" y="2525.3" class="st121" width="169.9" height="169.9"/>
		<rect id="rect3274" x="1432.5" y="2525.3" class="st122" width="169.9" height="169.9"/>
		<rect id="rect3276" x="1602.4" y="2525.3" class="st123" width="169.9" height="169.9"/>
		<rect id="rect3278" x="-96.9" y="2695.3" class="st124" width="169.9" height="169.9"/>
		<rect id="rect3280" x="73.1" y="2695.3" class="st125" width="169.9" height="169.9"/>
		<rect id="rect3282" x="243" y="2695.3" class="st126" width="169.9" height="169.9"/>
		<rect id="rect3284" x="412.9" y="2695.3" class="st127" width="169.9" height="169.9"/>
		<rect id="rect3286" x="1262.6" y="2695.3" class="st128" width="169.9" height="169.9"/>
		<rect id="rect3288" x="1432.5" y="2695.3" class="st126" width="169.9" height="169.9"/>
		<rect id="rect3290" x="1602.4" y="2695.3" class="st129" width="169.9" height="169.9"/>
		<rect id="rect3292" x="1772.4" y="2695.3" class="st130" width="169.9" height="169.9"/>
	</g>
</g>
<path class="st131" d="M248,33.1c0.7,0,1.5,0,2.2,0c0.2,0.1,0.5,0,0.7,0c3.2,0,6.2,0.6,9.2,1.5c1.7,0.5,3.4,1.2,5,2
	c2.3,1.2,4.5,2.6,6.5,4.4c2.1,1.9,3.9,4.1,5.3,6.5c1.6,2.7,2.7,5.6,3.3,8.7c0.3,1.5,0.5,2.9,0.5,4.5c0,1.4,0,2.8,0,4.2
	c0,2-0.3,4-0.7,5.9c-0.7,3.1-1.7,6.1-3,9.1c-1.3,2.8-2.7,5.5-4.3,8.2c-1.8,2.8-3.7,5.6-5.7,8.2c-1.5,2-3.1,3.9-4.8,5.8
	c-1.3,1.5-2.6,3-4,4.4c-0.7,0.7-1.4,1.4-2.1,2.2c-1.2,1.3-2.5,2.6-3.7,3.8c-1.2,1.2-2.4,2.4-3.7,3.5c-1.3,1.2-2.6,2.3-3.8,3.5
	c-1.3,1.2-2.7,2.4-4.1,3.5c-2.5,2.1-5.1,4.2-7.6,6.3c-2.2,1.7-4.3,3.4-6.6,5.1c-0.6,0.4-1.2,0.9-1.8,1.3c-0.5,0.4-0.8,0.4-1.4,0
	c-1.8-1.4-3.6-2.8-5.4-4.3c-1.7-1.4-3.5-2.9-5.2-4.3c-1.5-1.3-3.1-2.6-4.6-3.9c-1.5-1.3-3-2.6-4.4-3.9c-1.1-1-2.1-1.9-3.2-2.9
	c-1.1-1.1-2.3-2.1-3.4-3.2c-1.2-1.1-2.3-2.3-3.5-3.4c-1.2-1.1-2.4-2.4-3.5-3.6c-1.7-1.7-3.2-3.4-4.8-5.2c-2.2-2.5-4.3-5-6.2-7.7
	c-2.2-3-4.2-6.1-6-9.3c-1.6-2.9-2.9-5.8-3.9-8.9c-0.7-2.2-1.2-4.3-1.6-6.6c-0.1-0.6-0.1-1.1-0.1-1.7c0-0.8-0.1-1.6,0-2.4
	c0-0.7,0-1.3,0-2c-0.1-3,0.5-5.8,1.4-8.7c0.5-1.8,1.2-3.5,2.1-5.1c1.1-2.1,2.3-4,3.9-5.7c1.9-2.2,4.1-4.1,6.6-5.5
	c2.3-1.3,4.8-2.4,7.4-3.1c1.6-0.4,3.2-0.8,4.9-0.9c1.3-0.1,2.6-0.1,4-0.1c1.4,0,2.7,0,4.1,0.1c1.5,0.2,3.1,0.5,4.6,0.9
	c1.7,0.5,3.4,1.1,5,1.9c2,1,3.8,2.3,5.5,3.8c2.6,2.3,4.7,5,6.5,8c0.2,0.3,0.3,0.6,0.4,0.8c0.2,0.3,0.3,0.3,0.5,0c0.6-1,1.1-2,1.8-3
	c1.5-2.3,3.4-4.3,5.4-6.1c1.9-1.7,3.9-3.1,6.2-4.2c2.3-1.1,4.7-1.8,7.2-2.2c0.9-0.1,1.8-0.2,2.7-0.2C247.6,33.1,247.8,33.2,248,33.1
	z"/>
<path class="st132" d="M204.9,70.8c0.3,0.1,0.5,0.2,0.5,0.5c0.1,1.6,0.2,3.1,0.3,4.7c0.4,6.7,0.8,13.3,1.3,20
	c0.1,0.8-0.3,2.1,0.9,2.1c1.3,0,1-1.3,1.1-2.1c0.4-4,0.8-8,1.2-12c0.1-1.1,0.4-1.7,1.6-1.6c1.3,0.1,2.4-0.2,3.5-1.2
	c1.3-1.3,2.6-1.3,3.9,0c1,1,2,1.3,3.3,1.2c0.7-0.1,1.4-0.1,2.1,0c1.9,0.2,3.3-0.3,3.7-2.4c0-0.2,0.2-0.3,0.4-0.3
	c0.6,0.7,0.3,2.1,1.4,2.3c0.9,0.2,1.3,0.7,1.5,1.5c0.1,0.6,0.4,1.3,1.2,1.2c0.8-0.1,0.7-0.8,0.8-1.4c0.2-2.8,0.4-5.6,0.6-8.4
	c0.1-1.9,0.3-3.8,0.4-5.7c0.3,0.3,0.3,0.5,0.4,0.8c0.5,8.8,1.1,17.5,1.6,26.3c0,0.3,0,0.6,0.1,0.8c0.1,0.5,0.2,1,0.9,1.1
	c0.8,0,0.9-0.6,1-1.1c0-0.2,0-0.5,0.1-0.7c0.4-4.1,0.8-8.3,1.1-12.5c0.1-1.4,0.6-1.9,1.9-1.6c1.4,0.3,2.6,0.1,3.8-1.1
	c1.4-1.4,2.5-1.3,3.9,0.1c0.8,0.7,1.5,1,2.6,1c2.4-0.1,4.8,0,7.1-0.1c0.7,0,1.3,0,2,0.4c0.8,0.4,1.5,0.2,2-0.5
	c0.4-0.6,0.4-1.3-0.1-1.9c-0.6-0.7-1.4-0.8-2.1-0.2c-0.4,0.3-0.9,0.4-1.4,0.4c-2.2,0-4.4,0-6.6,0.1c-1.1,0-1.9-0.2-2.7-0.9
	c-1.8-1.5-3.7-1.6-5.4-0.2c-1.3,1.1-2.5,1.2-4,1.1c-2.2-0.2-2.2-0.2-2.8,1.9c0,0-0.2,0-0.3,0.1c0-0.1-0.1-0.2-0.1-0.3
	c0-5.4-0.6-10.7-0.9-16c-0.2-4.5-0.6-9-0.8-13.6c0-0.6-0.1-1.3-0.9-1.3c-0.9,0-1,0.6-1,1.3c-0.2,2.6-0.4,5.2-0.5,7.8
	c-0.4,6.3-0.9,12.7-1.3,19c0,0.4,0.2,0.9-0.5,0.9c-0.5,0-0.5-0.4-0.6-0.8c-0.4-1.1-0.7-2.3-1.2-3.3c-0.4-1-1.2-1-1.7,0
	c-0.3,0.6-0.7,1.3-0.9,2c-0.4,1.7-1.3,2.4-3.1,2.3c-1.4-0.1-2.7,0-3.9-1.1c-1.6-1.4-3.7-1.4-5.4,0c-1.2,1-2.4,1.2-3.8,1.2
	c-2,0-2,0.1-2.2,2.1c0,0.2,0.1,0.6-0.4,0.6c-0.5-8-1-16-1.5-24c-0.2-2.6-0.4-5.2-0.5-7.8c0-0.6-0.3-1-0.9-1c-0.6,0-0.9,0.4-0.9,1
	c0,0.3-0.1,0.5-0.1,0.8c-0.2,3.6-0.4,7.1-0.6,10.7c-0.3,5.4-0.6,10.9-1,16.3c0,0.5,0.3,1.2-0.5,1.3c-0.9,0.1-0.8-0.8-0.9-1.3
	c-0.4-1-0.7-2-1-3c-0.1-0.4-0.3-0.8-0.8-0.8c-0.5,0-0.8,0.4-1,0.8c-0.4,1.1-0.8,2.1-1.1,3.2c-0.2,0.8-0.7,1-1.5,1
	c-3.1,0-6.2,0-9.3,0c-0.6,0-1.5-0.2-1.5,0.9c0,0.9,0.8,0.8,1.4,0.9c3.2,0,6.3,0,9.5,0.1c1.6,0,2.9-0.3,3.1-2.2
	c0-0.2,0.1-0.3,0.4-0.3c0.5,0.7,0.3,2,1.2,2.2c1.2,0.2,1.7,0.9,2,2c0.1,0.5,0.5,0.6,1,0.5c0.4-0.1,0.6-0.4,0.6-0.8
	c0.1-0.9,0.2-1.8,0.3-2.7C204.5,77.8,204.7,74.3,204.9,70.8z"/>
<path class="st133" d="M204.9,70.8c-0.2,3.5-0.4,6.9-0.6,10.4c-0.1,0.9-0.1,1.8-0.3,2.7c0,0.4-0.2,0.7-0.6,0.8
	c-0.5,0.1-0.9-0.1-1-0.5c-0.3-1.1-0.8-1.7-2-2c-0.9-0.2-0.7-1.5-1.2-2.2c-0.2-0.1-0.4,0.1-0.4,0.3c-0.2,1.9-1.5,2.2-3.1,2.2
	c-3.2-0.1-6.3-0.1-9.5-0.1c-0.6,0-1.4,0.1-1.4-0.9c0-1.1,0.9-0.9,1.5-0.9c3.1,0,6.2-0.1,9.3,0c0.8,0,1.3-0.2,1.5-1
	c0.3-1.1,0.7-2.2,1.1-3.2c0.2-0.5,0.4-0.9,1-0.8c0.5,0,0.7,0.4,0.8,0.8c0.4,1,0.7,2,1,3c0.2,0.5,0.1,1.4,0.9,1.3
	c0.8-0.1,0.5-0.9,0.5-1.3c0.4-5.4,0.7-10.9,1-16.3c0.2-3.6,0.4-7.1,0.6-10.7c0-0.3,0.1-0.5,0.1-0.8c0.1-0.6,0.3-1,0.9-1
	c0.6,0,0.8,0.5,0.9,1c0.2,2.6,0.4,5.2,0.5,7.8c0.5,8,1,16,1.5,24c0.5,0,0.4-0.3,0.4-0.6c0.2-2,0.3-2.1,2.2-2.1
	c1.4,0,2.6-0.2,3.8-1.2c1.7-1.4,3.8-1.4,5.4,0c1.2,1.1,2.5,1,3.9,1.1c1.9,0.1,2.8-0.6,3.1-2.3c0.2-0.7,0.5-1.4,0.9-2
	c0.5-0.9,1.3-0.9,1.7,0c0.5,1.1,0.8,2.2,1.2,3.3c0.1,0.3,0.2,0.8,0.6,0.8c0.6,0,0.5-0.6,0.5-0.9c0.5-6.3,0.9-12.7,1.3-19
	c0.2-2.6,0.4-5.2,0.5-7.8c0-0.7,0.1-1.3,1-1.3c0.8,0,0.9,0.7,0.9,1.3c0.3,4.5,0.6,9,0.8,13.6c0.3,5.3,0.8,10.7,0.9,16
	c0,0.1,0.1,0.2,0.1,0.3c0.1,0,0.3,0,0.3-0.1c0.6-2.1,0.6-2.1,2.8-1.9c1.5,0.1,2.8,0,4-1.1c1.7-1.4,3.6-1.3,5.4,0.2
	c0.8,0.7,1.7,1,2.7,0.9c2.2-0.1,4.4-0.1,6.6-0.1c0.5,0,1-0.1,1.4-0.4c0.7-0.5,1.5-0.4,2.1,0.2c0.5,0.6,0.5,1.3,0.1,1.9
	c-0.5,0.8-1.3,1-2,0.5c-0.7-0.4-1.3-0.4-2-0.4c-2.4,0-4.8,0-7.1,0.1c-1,0-1.8-0.2-2.6-1c-1.4-1.4-2.6-1.5-3.9-0.1
	c-1.1,1.1-2.4,1.3-3.8,1.1c-1.4-0.2-1.8,0.3-1.9,1.6c-0.3,4.2-0.7,8.3-1.1,12.5c0,0.2,0,0.5-0.1,0.7c-0.1,0.5-0.2,1.1-1,1.1
	c-0.7,0-0.8-0.6-0.9-1.1c-0.1-0.3,0-0.5-0.1-0.8c-0.5-8.8-1.1-17.5-1.6-26.3c0-0.3-0.1-0.5-0.4-0.8c-0.1,1.9-0.3,3.8-0.4,5.7
	c-0.2,2.8-0.4,5.6-0.6,8.4c0,0.6,0,1.3-0.8,1.4c-0.9,0.1-1.1-0.6-1.2-1.2c-0.2-0.8-0.5-1.3-1.5-1.5c-1.1-0.3-0.8-1.6-1.4-2.3
	c-0.2,0-0.3,0.1-0.4,0.3c-0.4,2.1-1.8,2.6-3.7,2.4c-0.7-0.1-1.4-0.1-2.1,0c-1.3,0.1-2.3-0.2-3.3-1.2c-1.3-1.3-2.6-1.3-3.9,0
	c-1,1-2.2,1.3-3.5,1.2c-1.3-0.1-1.5,0.5-1.6,1.6c-0.3,4-0.7,8-1.2,12c-0.1,0.8,0.2,2.2-1.1,2.1c-1.2,0-0.9-1.4-0.9-2.1
	c-0.5-6.7-0.9-13.3-1.3-20c-0.1-1.6-0.2-3.1-0.3-4.7C205.4,71.1,205.3,70.9,204.9,70.8z"/>
<text transform="matrix(1 0 0 1 206.0604 21.8893)" class="st134 st135">ECG</text>
</svg>
