<?xml version="1.0" encoding="utf-8"?>
<!-- Generator: Adobe Illustrator 19.0.0, SVG Export Plug-In . SVG Version: 6.00 Build 0)  -->
<svg version="1.1" id="Layer_1" xmlns="http://www.w3.org/2000/svg" xmlns:xlink="http://www.w3.org/1999/xlink" x="0px" y="0px"
	 viewBox="-255 334 100 95" style="enable-background:new -255 334 100 95;" xml:space="preserve">
<style type="text/css">
	.st0{fill:#FF948A;}
	.st1{fill:#FFFFFF;stroke:#000000;stroke-miterlimit:10;}
	.st2{fill:#FF1544;}
</style>
<title>healthcare</title>
<path class="st0" d="M-242.1,405.9l-7,1.3c-0.5,0.1-0.9,0.5-0.9,1v19.7c0,0.6,0.6,1.1,1.2,1.1c0.1,0,0.1,0,0.2,0l7-1.3
	c0.5-0.1,0.9-0.5,0.9-1v-19.7c0-0.6-0.6-1.1-1.2-1.1C-242,405.9-242.1,405.9-242.1,405.9z M-245.4,425.5c-1,0.1-1.9-0.6-2-1.6
	c-0.1-1,0.6-1.9,1.6-2c0.1,0,0.2,0,0.4,0c1-0.1,1.9,0.6,2,1.6c0.1,1-0.6,1.9-1.6,2C-245.1,425.5-245.2,425.5-245.4,425.5z"/>
<path class="st0" d="M-181.5,408.6c-9.1,6.7-32.5-0.5-16.9-1.9c15.1-1.3,14-10.9,6.1-8.4c-7.1,2.2-11.8-1.2-24.2,0.7
	c-8.1,1.2-11.2,2.3-15.9,6.9c-0.1,0.1-0.1,0.1-0.2,0.1c-0.4,0.1-1.9,0.6-4,1.3c-0.2,0.1-0.4,0.3-0.4,0.5v15.2c0,0.3,0.3,0.5,0.6,0.5
	c0,0,0.1,0,0.1,0c5.4-1.6,9.1-2.5,9.5-2.3c22.1,7.2,28.8,4.2,32.4,2.9c5-1.8,12.9-4.6,17-6.7c4.5-2.3,9-8.7,15.1-12.4
	C-156,400.9-162.9,394.9-181.5,408.6z"/>
<path class="st1" d="M-196,396c0,0,30.5-13.5,30.5-41.3c0-8.7-7-15.7-15.7-15.7c-6.6,0-12.5,4.1-14.8,10.3c-3-8.1-12-12.3-20.2-9.3
	c-6.2,2.3-10.3,8.2-10.3,14.8C-226.5,382.5-196,396-196,396z"/>
<polygon class="st2" points="-208.1,363.2 -200.3,363.2 -200.3,355.4 -191.7,355.4 -191.7,363.2 -183.9,363.2 -183.9,371.8 
	-191.7,371.8 -191.7,379.6 -200.3,379.6 -200.3,371.8 -208.1,371.8 "/>
</svg>
