<?xml version="1.0" encoding="utf-8"?>
<!-- Generator: Adobe Illustrator 19.0.0, SVG Export Plug-In . SVG Version: 6.00 Build 0)  -->
<svg version="1.1" id="Layer_1" xmlns="http://www.w3.org/2000/svg" xmlns:xlink="http://www.w3.org/1999/xlink" x="0px" y="0px"
	 viewBox="0 0 109.7 301.7" style="enable-background:new 0 0 109.7 301.7;" xml:space="preserve">
<style type="text/css">
	.st0{fill:#FDFDFC;}
	.st1{fill:#252626;stroke:#000000;stroke-width:0.25;stroke-miterlimit:10;}
	.st2{fill:#202121;}
	.st3{fill:#252626;}
	.st4{fill:none;stroke:#00A651;stroke-miterlimit:10;}
	.st5{fill:none;stroke:#00A651;stroke-miterlimit:10;stroke-dasharray:6.2471,6.2471;}
	.st6{fill:none;stroke:#2E3192;stroke-width:0.5;stroke-miterlimit:10;}
	.st7{font-family:'Roboto-Light';}
	.st8{font-size:12px;}
</style>
<path id="XMLID_13828_" class="st0" d="M65.4,152.4c-0.8,0.6-1.1,1.3-1.3,2.2c-0.3,1.9-0.8,3.7-1.2,5.5c-0.3,1.4-0.9,2.7-1.2,4
	c-0.3,1.3-0.4,2.6-0.6,3.9c0,0.3-0.1,0.7,0.3,0.8c0.3,0,0.5-0.3,0.6-0.6c1-4.4,2.1-8.7,3.1-13.1C65.3,154.3,66.1,153.6,65.4,152.4z"
	/>
<path id="XMLID_13826_" class="st0" d="M56.3,192.7c0-0.4-0.1-0.6-0.4-0.6c-0.4,0-0.7,0-0.8,0.5c-0.5,2-1,3.9-1.5,5.9
	c-0.1,0.5,0.2,0.8,0.7,0.9c0.5,0.1,0.5-0.3,0.6-0.7c0.3-1.1,0.4-2.3,0.8-3.5C55.9,194.4,56,193.5,56.3,192.7z"/>
<path id="XMLID_13825_" class="st0" d="M56.6,189.4c1.1-1.7,1-3.8,1.8-5.6c0.1-0.3,0-0.7,0-1.1c0-0.4-0.1-0.7-0.4-0.8
	c-0.3,0-0.5,0.3-0.5,0.6c-0.4,1.9-0.9,3.8-1.3,5.6C55.9,188.8,56.2,189.1,56.6,189.4z"/>
<path id="XMLID_13824_" class="st0" d="M66.3,149.5c1.5-4.2,1.6-5.1,1.2-6.6C66.2,143.9,65.3,148.1,66.3,149.5z"/>
<path id="XMLID_13823_" class="st0" d="M70.9,164.8c0.3-0.2,0.5-0.3,0.6-0.4c0.8-1.6,0.3-3.3,0.5-5c0-0.3-0.2-0.5-0.5-0.4
	c-0.2,0-0.4,0.1-0.4,0.4C70.9,161.1,70.4,162.9,70.9,164.8z"/>
<path id="XMLID_13822_" class="st0" d="M69.2,190.8c1.2-1.9,0.5-4.1,1-6.1c0.1-0.3-0.4-0.4-0.7-0.5c-0.1,0-0.4,0.2-0.4,0.4
	C68.7,186.6,68.3,188.7,69.2,190.8z"/>
<path id="XMLID_13820_" class="st0" d="M58.6,177.6c0.1,0.4-0.1,0.8,0.2,0.9c0.4,0.1,0.6-0.2,0.7-0.6c0.4-1.8,0.8-3.6,1.3-5.3
	c0.1-0.3,0.2-0.6-0.2-0.8c-0.4-0.1-0.4,0.3-0.6,0.5C59.1,174,59.3,176,58.6,177.6z"/>
<path id="XMLID_13819_" class="st0" d="M69.6,178.3c0,0.6,0,1.2,0,1.8c0,0.3-0.1,0.7,0.3,0.8c0.4,0.1,0.6-0.3,0.6-0.7
	c0.1-1.2,0.2-2.4,0.3-3.6c0-0.4,0.2-0.9-0.5-0.9c-0.5,0-0.8,0.4-0.8,1C69.6,177.2,69.6,177.8,69.6,178.3z"/>
<path id="XMLID_13818_" class="st0" d="M71.2,167c-0.9,0.7-1.5,4.2-0.9,5.1c0.1,0.1,0.3,0.3,0.5,0.3c0.3,0,0.2-0.3,0.3-0.5
	C71.4,170.3,71.5,168.7,71.2,167z"/>
<path id="XMLID_13817_" class="st0" d="M71.2,124.1c0.1,0.6-0.1,1.3,0.4,1.5c0.8,0.2,0.6-0.7,0.7-1.1c0.4-1.3,0.7-2.6,1-3.9
	c0.1-0.4,0.3-0.9-0.2-1.1c-0.5-0.2-0.9,0.2-1,0.7C71.8,121.5,71.8,122.9,71.2,124.1z"/>
<path id="XMLID_11_" class="st0" d="M73.5,140.3C73.5,140.3,73.5,140.3,73.5,140.3c-0.5-0.1-0.8,0.2-1,0.6c-0.5,0.9-0.2,1.8-0.3,2.5
	c0,0.8,0,1.5,0,2.2c0,0.4,0.1,0.8,0.4,0.8c0.5,0,0.5-0.4,0.5-0.8c0.1-1.5,0.3-2.9,0.4-4.4C73.6,140.9,74.1,140.4,73.5,140.3z"/>
<path id="XMLID_16_" class="st0" d="M69.9,135.8c0-0.1-0.1-0.2-0.3-0.3c-0.7-0.3-1,0.3-1.1,0.8c-0.2,1.3-0.7,2.5-0.4,3.9
	c1.6-0.9,1-2.5,1.5-3.7c0.1-0.2,0.3-0.4,0.3-0.6C69.9,135.9,69.9,135.8,69.9,135.8z"/>
<path id="XMLID_13812_" class="st0" d="M74.7,126.5c-0.2-0.5,0.4-1.7-0.5-1.7c-0.8,0-0.8,1.2-0.6,1.9c0.1,0.3-0.1,0.5-0.2,0.7
	c-0.1,0.4,0,0.7,0.5,0.7c0.4,0,0.7-0.1,0.7-0.6C74.7,127.2,74.7,126.9,74.7,126.5z"/>
<path id="XMLID_13807_" class="st1" d="M76.7,101.3c-0.5-0.1-1-0.2-1,0.7c0.1,1.2,0,2.4,0,3.6c-0.3-2-0.2-4-0.1-5.9
	c0.2-4.7,0.3-9.4,0.1-14.1c-0.1-2,0-4,0.1-6c0.3-6.4-0.7-12.7-0.9-19c-0.1-3.9-0.7-7.9-0.9-11.8c-0.2-4.4-0.7-8.7-1.7-13
	c-0.5-2.3-1.2-4.5-1.3-6.9c-0.1-1.2-0.7-2.1-1.1-3.1c-0.5-1.2-1.4-1.7-2.7-1.3c-0.4,0.2-0.9,0.3-1-0.3c-0.1-0.5,0.4-0.7,0.9-0.7
	c2.5,0,4.8,0.3,7,1.6c0.5,0.3,0.8,0.6,0.9,1.1c0.1,0.4,0.3,0.9-0.4,1c-0.5,0.1-0.5-0.1-0.7-0.6c-0.3-1-1.2-1.2-2.1-1.3
	c-0.7-0.1-0.6,0.4-0.4,0.8c1.3,3.9,1.9,8,2.5,12.1c0.3,2.1,0.8,4.2,1,6.3c0.3,2.2-0.1,4.4,0.7,6.6c0.3,0.9,0.6,1.9,1.1,2.6
	c1.4,1.8,1.7,4,2.6,6c1.4,3.3,3.1,6.4,5.9,8.9c2.8,2.4,5.9,3.3,9.2,4.1c2.3,0.5,4.5,1.2,6.7,1.8c0.4,0.1,0.9,0.2,0.7,0.8
	c-0.2,0.7-0.6,0.3-1,0.2c-4-1.1-8.1-2-12-3.3c-1.6-0.5-2.8-1.5-4.1-2.6c-2.2-1.7-4.1-3.8-5.2-6.2c-0.7-1.6-1.7-3.1-1.9-4.9
	c-0.2-1.4-0.9-2.6-1.8-4.1c-0.4,2.5,0.2,4.5,0.2,6.6c0,1.5,0.4,3,0.5,4.6c0.1,2.4,0.8,4.9,0.4,7.2c-0.4,3.3,1.6,5.8,1.5,8.9
	c-0.1,2.9,0.6,5.8,1.2,8.7c0.4,1.8,1.2,3.5,2.1,5c1.6,2.7,2.8,5.5,4.8,8c-0.6,0.3-1.1,0.4-1.5-0.2c-2.8-4.5-5.7-9-6.9-14.3
	c-0.5-1.9-0.5-3.9-1.1-5.9C77,89.2,77,95.3,76.7,101.3z"/>
<g id="XMLID_55_">
	<path id="XMLID_15_" class="st2" d="M81.6,131.2c0.1-4-0.5-7.9-1.4-11.8c-0.2-1-0.4-2.2,0-3c0.2-0.3,0.4-0.5,0.6-0.5
		c0-0.3,0-0.7,0-1c-0.6-0.3-1-1-1.1-2.3c-0.1-2.6-1.9-4.6-3-6.8c-0.1-0.1-0.1-0.2-0.2-0.3c0-1.4,0-2.8,0-4.2c-0.5-0.1-1-0.2-1,0.7
		c0.1,1.2,0,2.4,0,3.6c0,1.2,0.7,2.1,1.4,3c1.1,1.5,1.5,3.3,1.8,5.1c0.1,0.4,0.2,1-0.3,1.3c-0.5,0.3-1,0.3-1.3-0.1
		c-0.5-0.6-1.4-1.1-1.4-2c0-1.3-0.7-2.1-1.5-2.8c-3.1-2.3-5.6-5.2-7.4-8.6c-2.7-5-4.8-10.1-4.9-15.9c-0.3,0.3-0.8,0.3-0.8,0.9
		c0.2,1.2,0,2.4,0.2,3.7c0.6,3.4,2.2,6.5,3.6,9.7c1.9,4.2,4.5,7.8,8.1,10.8c0.9,0.7,1.8,2,1.3,2.9c-0.6,1.1-0.8,2-0.5,3.1
		c0.1,0.6-0.1,0.8-0.5,0.9c-0.4,0.1-0.8,0-0.9-0.6c-0.3-1.9-4.3-4.7-6.1-4.4c-0.3,0.1-0.7,0.1-0.7,0.6c0,0.4,0.3,0.6,0.6,0.6
		c1.1,0,1.9,0.5,2.8,1c2.1,1.1,2.5,2.8,1.2,4.8c-0.7,1-1.5,1.1-2.3,0.3c-0.7-0.7-1.6-1.2-2.5-1.6c-3.2-1.3-6.5-0.2-9.7-0.1
		c-2.3,0.1-2.8,0.1-2.8-2.1c0-0.4-0.1-0.9-0.1-1.3c0.1-0.9-0.3-2,0.7-2.6c0.8-0.5,1.5-0.2,2.1,0.5c0.2,0.2,0.5,0.3,0.7,0.1
		c0.3-0.2,0.1-0.5-0.1-0.7c-0.2-0.3-0.4-0.5-0.8-0.7c-2.1-0.9-3.7,0-4,2.4c-0.1,0.5,0.2,1.3-0.5,1.5c-0.8,0.2-1.3-0.2-1.8-0.9
		c-1.1-1.5-1.1-3.3-0.5-4.8c1.3-3.2,2-6.5,2.8-9.8c1.1-4.6,1.7-9.2,1.5-13.9c-0.1-2.5-0.5-5.1-0.8-7.6c-0.7-6.5-1.2-13-1.8-19.5
		c0-0.3,0.2-0.9-0.3-1c-0.6-0.1-0.6,0.4-0.7,0.8c-0.1,0.4-0.2,0.7-0.1,1.2c0.3,1.3,0.4,2.6,0.5,3.9c0.3,3.1,0.5,6.2,0.8,9.2
		c0.3,2.7,0.8,5.5,0.9,8.2c0.1,3.7,0.6,7.5,0.1,11.2c-0.4,2.6-0.4,5.2-1.2,7.7c-1.1,3.5-1.9,7.1-3.2,10.5c-0.6,1.5,0.9,5,2.4,5.6
		c1.2,0.4,2.3,0.7,2.7,2.2c0.1,0.6,1.1,0.8,1.7,0.8c1.5,0.1,3,0,4.4-0.1c1.9-0.1,3.8-0.9,5.8-0.2c1.3,0.5,2.6,0.9,3.6,2.1
		c1.1,1.3,2.9,0.7,3.7-1.1c0.5-1.1,1.2-1.2,2.2-0.9c1.1,0.2,0.5,1,0.6,1.5c0.2,0,0.4,0,0.7,0c0.2,0,0.3,0,0.5,0
		c0.1-1,0.2-2.1,0.5-3.1c0.2-0.7,0.6-1.5,1.7-1.4c0.6,0.1,1.5-0.2,1.5,0.9c0.1,2.6,0.6,5,1.2,7.5c0.7,3,0.1,6.2,0.4,9.2
		c0,0.5-0.1,1.3-0.7,1.3c0,0,0,0,0,0c0,0.3,0,0.5-0.1,0.8c0.8,0.2,0.6,1,0.6,1.8c0,3-0.9,5.9-0.9,8.9c0,1.7-0.1,3.5-0.4,5.2
		c-0.6,3.4-1.4,6.7-1.5,10.1c-0.1,3.2-0.6,6.3-1.1,9.5c-0.5,3.1-1.1,6.3-1.2,9.5c-0.2,3.2-0.4,6.4-0.6,9.6c0,0.7-0.3,1.4-0.8,1.7
		c0,0-0.1,0.1-0.1,0.1c0.1,0.5,0.1,1,0,1.4c0.1,0,0.2,0,0.3-0.1c0,0.8,0.2,1.5,0,2c-0.7,2-0.8,4-1,6.1c-0.1,1.5-0.3,2.9-0.3,4.4
		c-0.1,2.1-0.6,4.3-0.8,6.4c-0.3,2.9-0.8,3.2-3.2,1.7c-0.4-0.2-0.7-0.5-0.8-0.8c-0.3,0-0.6,0.1-0.9,0.1c-0.4,0-0.7,0-1-0.1
		c-0.5,0.6-1.1,1.1-1.4,1.8c-0.5,1-2.2,0.6-3.3,0.4c-2.8-0.4-5.5-1.4-8.4-1.4c-0.7,0-1.2-0.3-1.3-0.9c-0.5-0.1-1-0.4-1.4-0.7
		c-0.3,0.5-0.7,1-1.1,1.5c-0.5,0.7-1.3,0.8-2,0.8c-0.8-0.1-0.4-1-0.4-1.5c0-1.5,0.2-3.1,0.2-4.6c0.1-3.4-0.4-6.8-0.3-10.3
		c0.2-4.4,0.2-8.8-0.2-13.2c-0.3-3.6-0.3-7.2-0.5-10.8c-0.1-2.2,0.2-4.5-0.2-6.6c-0.7-3.3-0.9-6.6-1.4-9.8
		c-0.6-4.4-1.1-8.8-1.8-13.1c-0.1-0.1-0.1-0.3-0.2-0.4l-0.1-0.6c-1.2,0.6-0.3,1.7-0.6,2.6c0,0.1,0.1,0.2,0.1,0.3l0.2,0.6
		c0.2,4.2,1.1,8.2,1.5,12.3c0.6,5.5,1.3,11.1,1.4,16.6c0,1.5,0,3,0.1,4.6c0.4,5.1,1,10.2,0.7,15.4c-0.1,1.8-0.4,3.6-0.3,5.4
		c0.3,3.7,0.2,7.4,0.1,11.1c-0.2,3.2-1.3,5.6-4.1,7.1c-3.9,2.1-7.2,5-10.2,8.2c-3.1,3.3-5.8,6.9-8.6,10.3c0,0.4,0,0.8,0.3,1
		c2.3-2,3.9-4.6,5.8-6.9c3.2-3.8,6.6-7.4,10.7-10.2c1.7-1.2,3.7-1.8,5.1-3.4c0.5-0.5,0.9-1.1,1.4-1.5c0.9-0.8,1.5-3,3.4-1.1
		c0.8,0.8,2,0.4,2.6-0.5c0.8-1.2,1.8-1.1,2.9-0.8c2.7,0.6,5.4,1.2,8.1,1.3c0.6,0,1.3-0.3,1.8-0.3c1.4,0,2.7,0.6,4.3-0.3
		c0.8-0.4,1.5,1.7,2,2.7c2.3,4.3,3.2,9.1,4.2,13.8c0.4,1.7,0.4,3.5,0.5,5.2c0.3,4.2,0.8,8.4,1.1,12.5c0.2,1.9,1.1,3.5,1.4,5.4
		c0.7,5.5,2.1,10.9,1.7,16.6c-0.1,1.3-0.3,2.6-0.5,4c-0.1,0.7-0.4,1.2-1.1,1.4c-0.7,0.1-0.8-0.5-1.1-0.9c-1.3-1.9-1.6-4.1-2.1-6.3
		c-0.6-2.4-1.8-4.6-2.2-7c-0.2-1.1-0.3-2.3-0.9-3.3c-0.3-0.5-0.6-0.9-1.2-0.9c-0.7,0-0.7,0.8-0.7,1.2c-0.3,3.7-0.6,7.4-0.3,11.1
		c0.4,4.7,0.7,9.3,1.1,14c0,0.1,0,0.2,0,0.3c-0.2,1,0,2.4-1.1,2.8c-1.3,0.5-2.6,0-3.8-0.6c-0.4-0.2-0.4-0.6-0.5-0.9
		c-1-3.2-1-6.7-1.9-9.9c-1-4.1-1.1-8.3-1.8-12.5c-0.2-1-0.8-2-1.7-2c-1,0-1.5,1-1.6,2c-0.2,1.9,0.1,3.8,0.3,5.7
		c0.2,1.8,0.3,3.7,0,5.4c-0.5,3.5,0,6.9,0.2,10.4c0.2,3,0.1,6.1-1.9,8.7c-0.8,1-1.6,0.9-2.5,0c-1.9-2-2.6-4.5-2.6-7.1
		c0-4.4-0.9-8.6-0.8-13c0.1-3.3,0.2-6.7,0.1-10c0-1.2,0.1-2.6-1.8-2.6c-0.5,0-0.7,0.1-1,0.6c-1,1.9-0.9,3.9-1.1,5.9
		c-0.5,5.4-0.9,10.9-1.5,16.3c-0.2,1.6-0.6,3.3-1.4,4.8c-0.9,1.5-2.7,2-3.8,1c-0.8-0.7-0.6-1.8-0.6-2.7c-0.2-2.6-0.3-5.2,0.2-7.7
		c0-0.2,0-0.4,0.1-0.4c1.6-0.9,0.7-2.2,0.5-3.4c-0.6-3.1-0.2-6.2-0.3-9.3c0-0.4,0-1,0.7-0.9c0.7,0.1,1-0.4,0.6-0.9
		c-1.7-2.2-1.2-4.6-1-7c0.4-4.9-0.1-9.7-1.3-14.5c-0.1-0.2-0.2-0.4-0.3-0.6c-1.3-3.7-2.9-3.2-5.2-1.3c-2,1.7-3.7,3.9-6.2,4.8
		c-2.8,1.1-5.7,1.3-8.5-0.3c-0.7-0.4-0.6-0.5-0.2-1.1c1.2-1.5,2.1-3.1,2.8-4.8c-0.4,0-0.7,0-1.1-0.1c-1.1,1.5-1.8,3.2-3.1,4.5
		c-0.8,0.9-0.4,2.1,0.8,2.5c0.4,0.1,0.8,0.2,1.2,0.3c3,1.6,8,1,10.5-1.2c1.8-1.5,3.6-3,5.3-4.5c1-0.8,1.6-0.5,2.1,0.5
		c1.6,3.5,2,7.2,2,11c0.1,3.9-0.1,7.8-0.2,11.6c-0.1,2.6-0.2,5.3-0.1,7.9c0.1,1.8,0.5,3.6,0,5.3c-0.9,2.8-1,5.7-0.8,8.6
		c0.1,1.5,0,3.4,1.6,4.4c2.1,1.4,4.8,0.3,5.7-2.3c1.6-4.4,1.5-9,2-13.6c0.4-3.3,0.6-6.7,1-10c0.1-0.7-0.1-1.8,1-2.5
		c0.2,1,0.2,1.8,0.2,2.6c0,4.9-0.3,9.7,0.2,14.6c0.1,1.2,0.7,2.3,0.5,3.6c-0.4,2.3,0,4.6,0.6,6.9c0.4,1.7,1.1,3.3,2.5,4.5
		c0.5,0.4,1,1.1,1.8,1.1c1.5,0,3.1-1.5,3.6-2.9c0.9-2.5,1-5.1,1-7.7c-0.1-4.3-0.2-8.6,0.1-13c0.1-2.5-0.3-5-0.4-7.6
		c0-0.5-0.3-1.1,0.5-1.6c0.2,0.9,0.5,1.7,0.6,2.5c0.4,4.1,0.7,8.2,1.8,12.1c0.7,2.5,0.3,5.1,1.2,7.6c0.9,2.6,1.9,3.6,4.7,3.7
		c1.9,0.1,2.7-0.6,3.2-2.5c0.8-3.8-0.2-7.5-0.4-11.2c-0.2-4.1-0.5-8.2-0.5-12.3c0-0.5-0.1-1.1,0.7-1.6c-0.1,2,0.8,3.7,1.3,5.4
		c1,2.9,1.4,6,2.7,8.7c0.5,1.1,1.1,2.6,2.6,2.5c1.2-0.1,2.1-1.1,2.4-2.3c0.2-0.8,0.4-1.7,0.4-2.5c0-4.3,0.3-8.7-0.8-13
		c-0.5-2.2-0.5-4.6-1-6.9c-1.3-5.3-2-10.7-2.1-16.1c0-0.5-0.1-0.9-0.2-1.4c-0.3-2.9-1-5.7-1.6-8.5c-0.7-3.3-1.4-6.7-3.3-9.6
		c-0.5-0.9-0.9-1.8-0.2-2.7l0.7-0.6c0.7-3.8,1-7.6,1.2-11.4c0.2-3.7,0.9-7.3,1.5-10.9c0.1-0.4,0.1-0.8,0.3-1c0-0.4,0-0.7,0-1.1
		c-0.1,0-0.1,0-0.2-0.1c-0.4-0.3-0.2-0.8-0.1-1.2c0.3-1.8,0.4-3.6,0.6-5.4c0.3-2.1-0.1-4.3,0.3-6.4c0.9-4.4,1.8-8.8,2-13.2
		c0.3-4.4,1-8.8,1.6-13.2c0.6-4.6,0.7-9.3,1.3-13.9c0.1-1,0.4-1.4,1-1.4c0-0.3,0-0.6,0.1-0.8C81.7,134.5,81.6,133.6,81.6,131.2z"/>
	<path id="XMLID_13806_" class="st3" d="M42.2,143.8c-1.2,0.6-0.3,1.7-0.6,2.6c-0.4-2.5-0.2-5.1-0.2-7.6c0.1-4.1-0.4-8.1-0.2-12.2
		c0.3-5.9,1.3-11.8,1.9-17.7c0.4-3.3,1-6.5,1.1-9.9c0.1-2.3-0.6-4.4-1.2-6.5C42,88.8,41.4,85,41,81.2c-0.5-5.1-1.5-10.2-1.3-15.3
		c0.2-4.9-0.6-9.9,0-14.8c0.2-1.6,0-3.2,0-4.9c0-0.7-0.2-1.2-0.6-1.8c-1.1-1.4-2.2-2.8-3.1-4.3c-2.3-3.9-4.7-7.7-5.6-12.2
		c-0.4-2.1-1.4-4.2-1.5-6.4c-0.2-3.7-1.1-7.5-0.5-11.3c0.2-1.5,0.1-3,0.1-4.5c0-0.6,0-1.2,1-1.3c0,3.7-0.1,7.3,0,11
		c0.1,4.7,1.1,9.2,2.3,13.7c1.2,4.4,3.7,8.1,5.9,12c0.6,1.1,1.4,2.4,2.8,2.9c0.8,0.3,0.5,1.1,0.4,1.5c-0.4,1.5-0.2,3-0.2,4.4
		c0,2-0.3,3.9-0.3,5.9c0.1,5.3,0.2,10.7,0.6,16c0.3,4.3,0.7,8.6,1.4,12.8c0.7,4,1.6,7.9,2.7,11.7c0.6,1.9,0,4-0.1,6
		c-0.2,3.2-1,6.3-1.2,9.5c-0.3,3.6-1,7.2-1.5,10.8c-0.1,0.6,0,1.3,0,1.9c-0.2,4.1,0.1,8.3-0.1,12.4
		C42.1,139.3,42.4,141.5,42.2,143.8z"/>
	<path id="XMLID_13804_" class="st3" d="M62.1,85.6c-0.3,0.3-0.8,0.3-0.8,0.9c-0.6-3.6-0.8-7.3-0.9-10.9c-0.2-5.4-0.9-10.8-1.5-16.2
		c-0.1-0.5-0.1-0.8,0.3-0.9c0.5-0.1,0.8,0.3,0.8,0.7c0.2,1.9,0.4,3.8,0.6,5.7c0.4,4.5,0.8,9,1.1,13.5C61.8,80.8,61.9,83.2,62.1,85.6
		z"/>
</g>
<path id="XMLID_13784_" class="st3" d="M22.6,238.4c0,0.4,0,0.8,0.3,1c-0.3,0.3-0.6,0.7-0.9,1c-0.4,0-0.7,0-1.1-0.1
	C21.3,239.6,21.8,238.9,22.6,238.4z"/>
<path id="XMLID_13783_" class="st3" d="M41.8,146.8c0.1,0.2,0.1,0.4,0.2,0.6C41.7,147.2,41.7,147,41.8,146.8z"/>
<path id="XMLID_13782_" class="st3" d="M76.9,105.8c-0.1-0.1-0.1-0.2-0.2-0.3C76.8,105.6,76.8,105.7,76.9,105.8z"/>
<path id="XMLID_13781_" class="st3" d="M42.5,144.8c-0.1-0.1-0.1-0.3-0.2-0.4C42.3,144.5,42.4,144.7,42.5,144.8z"/>
<path id="XMLID_13776_" class="st0" d="M22.1,240.4c0.3-0.3,0.6-0.7,0.9-1c2.3-2,3.9-4.6,5.8-6.9c3.2-3.8,6.6-7.4,10.7-10.2
	c1.7-1.2,3.7-1.8,5.1-3.4c0.5-0.5,0.9-1.1,1.4-1.5c0.9-0.8,1.5-3,3.4-1.1c0.8,0.8,2,0.4,2.6-0.5c0.8-1.2,1.8-1.1,2.9-0.8
	c2.7,0.6,5.4,1.2,8.1,1.3c0.6,0,1.3-0.3,1.8-0.3c1.4,0,2.7,0.6,4.3-0.3c0.8-0.4,1.5,1.7,2,2.7c2.3,4.3,3.2,9.1,4.2,13.8
	c0.4,1.7,0.4,3.5,0.5,5.2c0.3,4.2,0.8,8.4,1.1,12.5c0.2,1.9,1.1,3.5,1.4,5.4c0.7,5.5,2.1,10.9,1.7,16.6c-0.1,1.3-0.3,2.6-0.5,4
	c-0.1,0.7-0.4,1.2-1.1,1.4c-0.7,0.1-0.8-0.5-1.1-0.9c-1.3-1.9-1.6-4.1-2.1-6.3c-0.6-2.4-1.8-4.6-2.2-7c-0.2-1.1-0.3-2.3-0.9-3.3
	c-0.3-0.5-0.6-0.9-1.2-0.9c-0.7,0-0.7,0.8-0.7,1.2c-0.3,3.7-0.6,7.4-0.3,11.1c0.4,4.7,0.7,9.3,1.1,14c0,0.1,0,0.2,0,0.3
	c-0.2,1,0,2.4-1.1,2.8c-1.3,0.5-2.6,0-3.8-0.6c-0.4-0.2-0.4-0.6-0.5-0.9c-1-3.2-1-6.7-1.9-9.9c-1-4.1-1.1-8.3-1.8-12.5
	c-0.2-1-0.8-2-1.7-2c-1,0-1.5,1-1.6,2c-0.2,1.9,0.1,3.8,0.3,5.7c0.2,1.8,0.3,3.7,0,5.4c-0.5,3.5,0,6.9,0.2,10.4
	c0.2,3,0.1,6.1-1.9,8.7c-0.8,1-1.6,0.9-2.5,0c-1.9-2-2.6-4.5-2.6-7.1c0-4.4-0.9-8.6-0.8-13c0.1-3.3,0.2-6.7,0.1-10
	c0-1.2,0.1-2.6-1.8-2.6c-0.5,0-0.7,0.1-1,0.6c-1,1.9-0.9,3.9-1.1,5.9c-0.5,5.4-0.9,10.9-1.5,16.3c-0.2,1.6-0.6,3.3-1.4,4.8
	c-0.9,1.5-2.7,2-3.8,1c-0.8-0.7-0.6-1.8-0.6-2.7c-0.2-2.6-0.3-5.2,0.2-7.7c0-0.2,0-0.4,0.1-0.4c1.6-0.9,0.7-2.2,0.5-3.4
	c-0.6-3.1-0.2-6.2-0.3-9.3c0-0.4,0-1,0.7-0.9c0.7,0.1,1-0.4,0.6-0.9c-1.7-2.2-1.2-4.6-1-7c0.4-4.9-0.1-9.7-1.3-14.5
	c-0.1-0.2-0.2-0.4-0.3-0.6c-1.3-3.7-2.9-3.2-5.2-1.3c-2,1.7-3.7,3.9-6.2,4.8c-2.8,1.1-5.7,1.3-8.5-0.3c-0.7-0.4-0.6-0.5-0.2-1.1
	C20.4,243.8,21.4,242.2,22.1,240.4z M43.1,250.2c3.5-0.4,6.7-1.9,10.1-3c-0.1,0.8-0.2,1.4-0.3,2c-0.4,2-0.7,4-1.4,5.9
	c-0.2,0.5-0.4,1.2,0.2,1.4c0.4,0.1,1-0.3,0.9-1c0-0.1,0.2-0.3,0.2-0.4c0.2-2.5,1.2-4.9,1.4-7.4c0-0.7,0.1-1.6,1.3-2.2
	c1.5-0.7,2.9-2,4-3.3c2-2.6,4-5.2,6-7.8c0.9-1.2,2.3-2.2,2-4.1c-4.2,4.9-7.4,10.6-12.8,14.7c0.3-2.1,0.6-3.8,0.9-5.6
	c0.4-2.8,0.8-5.6,1.1-8.3c0.3-2.5,0.5-5,0.7-7.4c0-0.3,0.1-0.7-0.3-0.8c-0.5-0.1-0.7,0.3-0.8,0.6c-0.1,0.4-0.1,0.8-0.1,1.3
	c-0.1,1.8-0.2,3.6-0.4,5.5c-0.4,3.9-0.9,7.9-1.5,11.8c-0.3,2.2-0.8,4.2-3.6,5.2C48.2,247.9,45.4,248.3,43.1,250.2z M74.5,247.7
	c-1.8,0.4-3.8,0.7-5.7,1.3c-3.2,0.9-6.4,1.9-9.3,3.6c-2.7,1.6-5.6,2.9-7.4,5.5c-0.3,0.4-0.9,0.8-0.5,1.2c0.6,0.6,0.9-0.3,1.2-0.6
	c3.2-3.7,7.7-5.4,11.9-7.4c3.1-1.4,6.7-2,10.1-2.5c0.4-0.1,1-0.1,0.9-0.6C75.7,247.5,75.1,247.8,74.5,247.7z M54.8,223.3
	c-0.1-0.3,0.2-0.7-0.2-0.8c-0.5-0.1-0.6,0.3-0.8,0.6c-0.2,0.4-0.5,0.9-0.5,1.3c-0.4,2.5-1.3,4.9-2.2,7.2c-1.1,2.9-1.9,5.9-4.2,8.2
	c-0.9,0.9-1.5,2.2-2.2,3.3c-0.2,0.3-0.4,0.7,0,1c0.4,0.2,0.6-0.1,0.9-0.4c0.5-0.8,1.1-1.5,1.6-2.3c0.9-1.6,2.4-2.8,3.1-4.4
	c1.5-3.4,2.6-6.9,3.9-10.4C54.4,225.4,54.6,224.3,54.8,223.3z"/>
<path id="XMLID_13769_" class="st3" d="M43.1,250.2c2.2-1.8,5-2.3,7.6-3.1c2.8-1,3.3-2.9,3.6-5.2c0.6-3.9,1-7.9,1.5-11.8
	c0.2-1.8,0.3-3.6,0.4-5.5c0-0.4,0-0.9,0.1-1.3c0.1-0.4,0.3-0.7,0.8-0.6c0.5,0.1,0.3,0.5,0.3,0.8c-0.2,2.5-0.4,5-0.7,7.4
	c-0.3,2.8-0.7,5.6-1.1,8.3c-0.2,1.8-0.5,3.5-0.9,5.6c5.4-4.1,8.6-9.7,12.8-14.7c0.2,1.9-1.1,3-2,4.1c-2,2.6-4,5.2-6,7.8
	c-1,1.3-2.4,2.6-4,3.3c-1.2,0.5-1.3,1.4-1.3,2.2c-0.1,2.5-1.2,4.9-1.4,7.4c0,0.1-0.2,0.3-0.2,0.4c0,0.7-0.5,1.1-0.9,1
	c-0.7-0.2-0.4-0.9-0.2-1.4c0.8-1.9,1-3.9,1.4-5.9c0.1-0.6,0.2-1.2,0.3-2C49.8,248.3,46.6,249.7,43.1,250.2z"/>
<path id="XMLID_13768_" class="st3" d="M74.5,247.7c0.5,0.1,1.2-0.1,1.2,0.5c0,0.5-0.5,0.6-0.9,0.6c-3.5,0.5-7.1,1.1-10.1,2.5
	c-4.2,1.9-8.7,3.6-11.9,7.4c-0.3,0.3-0.6,1.2-1.2,0.6c-0.4-0.4,0.3-0.8,0.5-1.2c1.9-2.6,4.8-3.9,7.4-5.5c2.9-1.7,6.1-2.7,9.3-3.6
	C70.7,248.4,72.7,248.1,74.5,247.7z"/>
<path id="XMLID_13767_" class="st2" d="M54.8,223.3c-0.2,1.1-0.4,2.2-0.7,3.2c-1.2,3.5-2.4,7-3.9,10.4c-0.7,1.6-2.2,2.8-3.1,4.4
	c-0.4,0.8-1.1,1.5-1.6,2.3c-0.2,0.4-0.5,0.7-0.9,0.4c-0.4-0.2-0.2-0.7,0-1c0.7-1.1,1.3-2.4,2.2-3.3c2.3-2.3,3.1-5.3,4.2-8.2
	c0.9-2.3,1.8-4.7,2.2-7.2c0.1-0.5,0.3-0.9,0.5-1.3c0.1-0.4,0.3-0.8,0.8-0.6C55,222.5,54.7,223,54.8,223.3z"/>
<g id="XMLID_5_">
	<g id="XMLID_23_">
		<line id="XMLID_26_" class="st4" x1="74.8" y1="115.4" x2="74.5" y2="118.4"/>
		<line id="XMLID_25_" class="st5" x1="74" y1="124.6" x2="67.2" y2="208.7"/>
		<line id="XMLID_24_" class="st4" x1="67" y1="211.8" x2="66.8" y2="214.8"/>
	</g>
</g>
<line id="XMLID_1_" class="st6" x1="74.8" y1="115.4" x2="95" y2="115.4"/>
<line id="XMLID_2_" class="st6" x1="95" y1="115.4" x2="95" y2="214.8"/>
<line id="XMLID_3_" class="st6" x1="66.8" y1="214.8" x2="95" y2="214.8"/>
<text id="XMLID_4_" transform="matrix(1 0 0 1 85.3335 163.9998)" class="st7 st8">a</text>
<polygon id="XMLID_6_" points="92.2,120.3 95,115.4 97.8,120.3 "/>
<polygon id="XMLID_7_" points="97.8,209.9 95,214.8 92.2,209.9 "/>
</svg>
