<?xml version="1.0" encoding="utf-8"?>
<!-- Generator: Adobe Illustrator 19.0.0, SVG Export Plug-In . SVG Version: 6.00 Build 0)  -->
<svg version="1.1" id="Layer_1" xmlns="http://www.w3.org/2000/svg" xmlns:xlink="http://www.w3.org/1999/xlink" x="0px" y="0px"
	 viewBox="-106 269.3 383 375" style="enable-background:new -106 269.3 383 375;" xml:space="preserve">
<title>status_svg_v2</title>
<rect x="-106" y="270.9" style="fill:#EEEEEE;stroke:#000000;stroke-width:3;" width="383" height="373.4"/>
<rect x="-106" y="270.9" style="fill:#3E4EC2;" width="383" height="28.3"/>
<text transform="matrix(1 0 0 1 9.1 293.89)" style="fill:#FEFEFE; font-family:'Roboto Condensed'; font-size:24px;">Prediction Quality</text>
<g id="ecg_heart_status">
	<g>
		<path style="fill:none;stroke:#7986FC;stroke-width:0.5;stroke-miterlimit:10;" d="M-22.4,447.2h2.2c0.2,0.1,0.5,0,0.7,0
			c3.1,0,6.2,0.6,9.2,1.5c4.3,1.3,8.2,3.5,11.5,6.4c2.1,1.9,3.9,4.1,5.3,6.5c1.6,2.7,2.7,5.6,3.3,8.7c0.3,1.5,0.5,3,0.5,4.5v4.2
			c0,2-0.3,4-0.7,5.9c-0.7,3.1-1.7,6.2-3,9.1c-1.3,2.8-2.7,5.6-4.3,8.2c-1.8,2.8-3.7,5.6-5.7,8.2c-1.5,2-3.1,3.9-4.8,5.8
			c-1.3,1.5-2.6,3-4,4.4c-0.7,0.7-1.4,1.4-2.1,2.2c-1.2,1.3-2.5,2.6-3.7,3.8s-2.4,2.4-3.7,3.5c-1.3,1.1-2.6,2.3-3.8,3.5
			s-2.7,2.4-4.1,3.5c-2.5,2.1-5.1,4.2-7.6,6.3c-2.2,1.7-4.3,3.4-6.6,5.1c-0.6,0.4-1.2,0.9-1.8,1.3c-0.6,0.4-0.8,0.4-1.4,0
			c-1.8-1.4-3.6-2.8-5.4-4.3s-3.5-2.9-5.2-4.3c-1.5-1.3-3.1-2.6-4.6-3.9s-3-2.6-4.4-3.9l-3.2-2.9c-1.1-1.1-2.3-2.1-3.4-3.2
			s-2.3-2.3-3.5-3.4s-2.4-2.4-3.5-3.6c-1.7-1.7-3.2-3.4-4.8-5.2c-2.2-2.5-4.3-5-6.2-7.7c-2.2-3-4.2-6.1-6-9.3
			c-1.6-2.8-2.9-5.8-3.9-8.9c-0.7-2.2-1.2-4.4-1.6-6.6c-0.1-0.6-0.1-1.1-0.1-1.7c0-0.8,0-1.6,0-2.4v-2c0-3,0.4-5.9,1.4-8.7
			c0.5-1.8,1.2-3.5,2.1-5.1c1-2.1,2.3-4,3.9-5.7c1.9-2.2,4.1-4.1,6.6-5.5c2.3-1.3,4.8-2.4,7.4-3.1c1.6-0.5,3.2-0.8,4.9-0.9
			c1.3-0.1,2.6-0.1,4-0.1c1.4,0,2.7,0,4.1,0.1c1.6,0.2,3.1,0.5,4.6,0.9c1.7,0.5,3.4,1.1,5,1.9c2,1,3.9,2.3,5.5,3.8
			c2.6,2.3,4.8,5,6.5,8c0.2,0.3,0.3,0.5,0.4,0.8c0.2,0.3,0.3,0.3,0.5,0c0.6-1,1.1-2,1.8-3c1.5-2.3,3.4-4.3,5.4-6.1
			c1.9-1.7,4-3.1,6.2-4.2c2.3-1.1,4.7-1.8,7.2-2.2c0.9-0.1,1.8-0.2,2.7-0.2L-22.4,447.2z"/>
		<path style="fill:#0A0000;" d="M-62.2,486.6c-0.2,3.5-0.4,6.9-0.6,10.4c-0.1,0.9-0.2,1.8-0.3,2.7c0,0.4-0.2,0.7-0.6,0.8
			c-0.4,0.1-0.9-0.1-1-0.5c0,0,0,0,0,0c-0.2-1-1-1.8-2-2c-0.9-0.2-0.7-1.5-1.2-2.2c-0.2-0.1-0.4,0.1-0.4,0.3
			c-0.2,1.9-1.5,2.2-3.1,2.2c-3.2-0.1-6.3-0.1-9.5-0.1c-0.6,0-1.4,0.1-1.4-0.9s0.9-0.9,1.5-0.9c3.1,0,6.2-0.1,9.3,0
			c0.8,0,1.3-0.2,1.5-1c0.3-1.1,0.7-2.2,1.1-3.2c0.2-0.5,0.4-0.9,1-0.8c0.6,0.1,0.7,0.4,0.8,0.8c0.4,1,0.7,2,1,3
			c0.2,0.5,0.1,1.4,0.9,1.3c0.8-0.1,0.5-0.9,0.5-1.3c0.4-5.4,0.7-10.9,1-16.3c0.2-3.6,0.4-7.1,0.6-10.7c0-0.3,0.1-0.5,0.1-0.8
			c0.1-0.6,0.3-1,0.9-1s0.8,0.5,0.9,1c0.2,2.6,0.4,5.2,0.5,7.8l1.5,24c0.5,0,0.4-0.3,0.4-0.6c0.2-2,0.3-2.1,2.2-2.1
			c1.4,0.1,2.7-0.3,3.8-1.2c1.5-1.4,3.9-1.4,5.4,0c1.2,1.1,2.5,1,3.9,1.1c1.9,0.1,2.8-0.6,3.1-2.3c0.2-0.7,0.5-1.4,0.9-2
			c0.5-0.9,1.3-0.9,1.7,0c0.5,1.1,0.8,2.2,1.2,3.3c0.1,0.3,0.2,0.8,0.6,0.8c0.6,0,0.5-0.6,0.5-0.9c0.5-6.3,0.9-12.7,1.3-19
			c0.2-2.6,0.4-5.2,0.5-7.8c0-0.7,0.1-1.3,1-1.3s0.9,0.7,0.9,1.3c0.3,4.5,0.6,9,0.8,13.6c0.3,5.3,0.8,10.7,0.9,16
			c0,0.1,0.1,0.2,0.1,0.3s0.3,0,0.3-0.1c0.6-2.1,0.6-2.1,2.8-1.9c1.4,0.2,2.9-0.2,4-1.1c1.7-1.4,3.6-1.3,5.4,0.2
			c0.7,0.7,1.7,1,2.7,0.9c2.2-0.1,4.4-0.1,6.6-0.1c0.5,0,1-0.1,1.4-0.4c0.6-0.5,1.6-0.4,2.1,0.2c0.5,0.5,0.5,1.3,0.1,1.9
			c-0.3,0.7-1.1,1-1.8,0.6c-0.1,0-0.2-0.1-0.2-0.1c-0.6-0.3-1.3-0.5-2-0.4c-2.4,0-4.8,0-7.1,0.1c-1,0.1-1.9-0.3-2.6-1
			c-1.4-1.4-2.6-1.5-3.9-0.1c-1,1-2.4,1.4-3.8,1.1c-1.4-0.2-1.8,0.3-1.9,1.6c-0.3,4.2-0.7,8.3-1.1,12.5c0,0.2,0,0.5-0.1,0.7
			c-0.1,0.5-0.2,1.1-1,1.1s-0.8-0.6-0.9-1.1c-0.1-0.3,0-0.5-0.1-0.8c-0.5-8.8-1.1-17.5-1.6-26.4c0-0.3-0.2-0.6-0.4-0.8
			c-0.1,1.9-0.3,3.8-0.4,5.7l-0.6,8.4c0,0.6,0,1.3-0.8,1.4s-1.1-0.6-1.2-1.2c-0.1-0.8-0.7-1.4-1.5-1.5c-1.1-0.3-0.8-1.6-1.4-2.3
			c-0.2,0-0.3,0.1-0.4,0.3c-0.4,2.1-1.8,2.6-3.7,2.4c-0.7-0.1-1.4-0.1-2.1,0c-1.2,0.2-2.5-0.3-3.3-1.2c-0.8-1.1-2.4-1.3-3.4-0.5
			c-0.2,0.1-0.3,0.3-0.5,0.5c-0.9,0.9-2.2,1.4-3.5,1.2c-1.3-0.1-1.5,0.5-1.6,1.6c-0.3,4-0.7,8-1.2,12c-0.1,0.8,0.2,2.2-1.1,2.1
			c-1.3-0.1-0.9-1.4-0.9-2.1c-0.5-6.7-0.9-13.3-1.3-20c-0.1-1.6-0.2-3.1-0.3-4.7C-61.8,486.8-61.9,486.7-62.2,486.6z"/>
	</g>
	<path style="fill:#0A0000;" d="M-62.2,486.6c-0.2,3.5-0.4,6.9-0.6,10.4c-0.1,0.9-0.2,1.8-0.3,2.7c0,0.4-0.2,0.7-0.6,0.8
		c-0.4,0.1-0.9-0.1-1-0.5c0,0,0,0,0,0c-0.2-1-1-1.8-2-2c-0.9-0.2-0.7-1.5-1.2-2.2c-0.2-0.1-0.4,0.1-0.4,0.3
		c-0.2,1.9-1.5,2.2-3.1,2.2c-3.2-0.1-6.3-0.1-9.5-0.1c-0.6,0-1.4,0.1-1.4-0.9s0.9-0.9,1.5-0.9c3.1,0,6.2-0.1,9.3,0
		c0.8,0,1.3-0.2,1.5-1c0.3-1.1,0.7-2.2,1.1-3.2c0.2-0.5,0.4-0.9,1-0.8c0.6,0.1,0.7,0.4,0.8,0.8c0.4,1,0.7,2,1,3
		c0.2,0.5,0.1,1.4,0.9,1.3c0.8-0.1,0.5-0.9,0.5-1.3c0.4-5.4,0.7-10.9,1-16.3c0.2-3.6,0.4-7.1,0.6-10.7c0-0.3,0.1-0.5,0.1-0.8
		c0.1-0.6,0.3-1,0.9-1s0.8,0.5,0.9,1c0.2,2.6,0.4,5.2,0.5,7.8l1.5,24c0.5,0,0.4-0.3,0.4-0.6c0.2-2,0.3-2.1,2.2-2.1
		c1.4,0.1,2.7-0.3,3.8-1.2c1.5-1.4,3.9-1.4,5.4,0c1.2,1.1,2.5,1,3.9,1.1c1.9,0.1,2.8-0.6,3.1-2.3c0.2-0.7,0.5-1.4,0.9-2
		c0.5-0.9,1.3-0.9,1.7,0c0.5,1.1,0.8,2.2,1.2,3.3c0.1,0.3,0.2,0.8,0.6,0.8c0.6,0,0.5-0.6,0.5-0.9c0.5-6.3,0.9-12.7,1.3-19
		c0.2-2.6,0.4-5.2,0.5-7.8c0-0.7,0.1-1.3,1-1.3s0.9,0.7,0.9,1.3c0.3,4.5,0.6,9,0.8,13.6c0.3,5.3,0.8,10.7,0.9,16
		c0,0.1,0.1,0.2,0.1,0.3s0.3,0,0.3-0.1c0.6-2.1,0.6-2.1,2.8-1.9c1.4,0.2,2.9-0.2,4-1.1c1.7-1.4,3.6-1.3,5.4,0.2
		c0.7,0.7,1.7,1,2.7,0.9c2.2-0.1,4.4-0.1,6.6-0.1c0.5,0,1-0.1,1.4-0.4c0.6-0.5,1.6-0.4,2.1,0.2c0.5,0.5,0.5,1.3,0.1,1.9
		c-0.3,0.7-1.1,1-1.8,0.6c-0.1,0-0.2-0.1-0.2-0.1c-0.6-0.3-1.3-0.5-2-0.4c-2.4,0-4.8,0-7.1,0.1c-1,0.1-1.9-0.3-2.6-1
		c-1.4-1.4-2.6-1.5-3.9-0.1c-1,1-2.4,1.4-3.8,1.1c-1.4-0.2-1.8,0.3-1.9,1.6c-0.3,4.2-0.7,8.3-1.1,12.5c0,0.2,0,0.5-0.1,0.7
		c-0.1,0.5-0.2,1.1-1,1.1s-0.8-0.6-0.9-1.1c-0.1-0.3,0-0.5-0.1-0.8c-0.5-8.8-1.1-17.5-1.6-26.4c0-0.3-0.2-0.6-0.4-0.8
		c-0.1,1.9-0.3,3.8-0.4,5.7l-0.6,8.4c0,0.6,0,1.3-0.8,1.4s-1.1-0.6-1.2-1.2c-0.1-0.8-0.7-1.4-1.5-1.5c-1.1-0.3-0.8-1.6-1.4-2.3
		c-0.2,0-0.3,0.1-0.4,0.3c-0.4,2.1-1.8,2.6-3.7,2.4c-0.7-0.1-1.4-0.1-2.1,0c-1.2,0.2-2.5-0.3-3.3-1.2c-0.8-1.1-2.4-1.3-3.4-0.5
		c-0.2,0.1-0.3,0.3-0.5,0.5c-0.9,0.9-2.2,1.4-3.5,1.2c-1.3-0.1-1.5,0.5-1.6,1.6c-0.3,4-0.7,8-1.2,12c-0.1,0.8,0.2,2.2-1.1,2.1
		c-1.3-0.1-0.9-1.4-0.9-2.1c-0.5-6.7-0.9-13.3-1.3-20c-0.1-1.6-0.2-3.1-0.3-4.7C-61.8,486.8-61.9,486.7-62.2,486.6z"/>
</g>
<g id="eda_status">
	<g id="eda_status">
		<path style="fill:none;stroke:#7986FC;stroke-width:0.5;stroke-miterlimit:10;" d="M139.3,507.5c-1,1-2.6,1.5-4,1.1
			c-1.5-0.3-3-0.9-4.4-1.6c-4.1-1.9-8.1-1.7-11.9,1.3c-1.2,1-2.5,1.8-3.9,2.5c-0.7,0.4-1.6,0.4-2.3,0c-1.4-0.7-2.7-1.6-3.9-2.7
			c-2.6-1.7-5.7-2.2-8.7-1.6c0-0.9,0-1.9,0.1-2.8c0.7-2.7,1.6-3.5,4.5-3.5h35.1c1.6-0.1,2.9-1.5,2.8-3.1c-0.1-1.5-1.3-2.7-2.8-2.8
			h-18c-0.3-1.3-0.5-2.5-0.8-3.9c-1.8-7.2-4.5-14.1-8.1-20.6c-1.8-3.3-3.9-6.4-6.3-9.3c-0.3-0.5-0.9-0.7-1.3-0.4
			c-0.5,0.3-0.5,0.8-0.3,1.5c0.8,1.5,1.7,3.1,2.4,4.5c2.7,5.3,4.9,10.9,6.3,16.7c0.4,1.7,0.6,3.5,0.7,5.3c0,1.8-0.4,3.6-0.9,5.3
			c-0.1,0.3-0.1,0.5-0.3,0.8H105c-5.6,0-9.1,2.7-10.3,8.3v0.3c-0.9,6.4,1.5,12.8,1.6,13.2c0.5,1.3,1.2,2.5,1.9,3.7l1.2,2.4
			c2.8,6,1.5,14.3-2.9,18.4c-2.5,2.2-5.6,3.5-8.9,3.6h-0.1c-0.5,0-0.9,0-1.3,0.1h-2.4c-0.7-0.1-1.2-0.1-1.9-0.3
			c-0.7-0.1-1.3-0.1-1.9-0.3c-5.8-1.2-10.2-6.1-10.7-12c-0.6-3.8,0.1-7.6,2-10.9l0.4-0.8c1.2-2.2,2.2-4.5,2.9-6.9
			c0.1-0.3,1.9-6.8,0-12.5v-0.1c-1.3-3.8-4.9-6.2-8.9-6.1H51.5c-0.3-1.6-0.5-4-0.9-5.5c-1.8-7.2-4.5-14.1-8.1-20.5
			c-1.8-3.3-3.9-6.4-6.3-9.3c-0.3-0.5-0.9-0.7-1.3-0.4c-0.5,0.3-0.5,0.8-0.3,1.5c0.8,1.5,1.7,3.1,2.4,4.5c2.8,5.3,4.9,10.9,6.3,16.7
			c0.4,1.7,0.7,3.5,0.7,5.3c0,1.8-0.4,3.6-0.9,5.3c-0.3,0.8-0.5,1.6-0.7,2.4H28.1c-1.6,0.1-2.9,1.5-2.8,3.1c0.1,1.5,1.3,2.7,2.8,2.8
			h37.5c1.5-0.1,2.9,0.8,3.3,2.3c0.5,1.9,0.6,3.9,0.4,5.9c-1.8-0.3-3.6-0.9-5.3-1.6c-4-1.7-7.7-1.5-11.2,1.3
			c-1.2,0.9-2.4,1.7-3.7,2.4c-1,0.7-2.2,0.7-3.2,0c-1.1-0.7-2-1.3-2.9-2c-1.7-1.5-4-2.3-6.3-2.1c-3.1,0.3-6,1.9-8,4.4
			c-0.9,1.1-0.9,2.1-0.1,2.9s2,0.5,2.9-0.4c0.9-1,2-1.8,3.2-2.4c1.7-0.9,3.9-0.8,5.5,0.4c1.4,1.1,2.9,2.1,4.4,2.9
			c1.9,1.1,4.3,1,6.1-0.1c1.4-0.7,2.7-1.6,4-2.5c2.5-2.3,5.3-2.4,8.4-0.9c1.8,0.7,3.7,1.3,5.6,1.6c-0.6,1.8-1.3,3.5-2.3,5.1
			l-0.4,0.8c-2.3,4.4-3.2,9.5-2.5,14.4c0.9,8.4,7,15.2,15.2,17.1c0.8,0.2,1.7,0.3,2.5,0.4c0.5,0,1.1,0.1,1.6,0.3h3.7
			c0.3,0,0.6,0,0.9-0.1h0.7c4.6-0.2,9-2.1,12.4-5.2c6.4-5.9,8.3-16.7,4.3-25.2c-0.4-0.9-0.8-1.8-1.3-2.7c-0.5-1.2-1.2-2.3-1.6-3.2
			c0,0-0.4-1.2-0.8-2.9c2-1.2,4.5-1,6.3,0.5c1.1,0.9,2.4,1.7,3.6,2.4c2,1.3,4.6,1.4,6.7,0.1c1.7-0.9,3.3-2,4.8-3.2
			c1.5-1.2,3.4-1.6,5.2-1.1c0.9,0.3,1.8,0.6,2.7,0.9c2.3,1.2,4.8,1.8,7.3,1.7c1.8-0.1,3.5-1,4.7-2.4c0.6-0.8,0.6-1.9-0.1-2.7
			C141.1,506.8,140.1,506.7,139.3,507.5z"/>
		<path style="fill:none;stroke:#7986FC;stroke-width:0.5;stroke-miterlimit:10;" d="M64.8,459.6c5.2,10.7,10,21.6,12.5,33.4
			c0.9,3.5,1.3,7.1,1.2,10.7c-0.2,3.6-0.8,7.2-1.9,10.7c-0.9,3.6-2.4,7.1-2.1,10.9v1.9c0.3,3.1,0.9,5.9,3.3,8
			c4.3,3.9,11.6,2.5,14.5-2.7c1.6-3.1,2.3-6.6,1.9-10c-0.3-4.9-1.2-9.7-2.4-14.4c-3.5-14.4-8.9-28.2-16.1-41.1
			c-3.6-6.6-7.9-12.9-12.7-18.7c-0.9-1.1-1.9-1.3-2.8-0.7c-0.9,0.6-1.2,1.9-0.5,2.8c0,0.1,0.1,0.1,0.1,0.2
			C61.7,453.5,63.4,456.5,64.8,459.6z"/>
		<path style="fill:none;stroke:#7986FC;stroke-width:0.5;stroke-miterlimit:10;" d="M130.3,523.5L130.3,523.5
			c-3.7-0.1-6.7,2.8-6.8,6.5c0,0.1,0,0.1,0,0.2c-0.1,3.7,2.8,6.8,6.6,6.9c0,0,0.1,0,0.1,0l0,0c3.8,0.1,6.9-2.9,6.9-6.7
			c0-0.1,0-0.1,0-0.2c0-1.8-0.7-3.5-2-4.8C133.8,524.1,132.1,523.4,130.3,523.5z M132.7,532.7c-0.7,0.6-1.6,1-2.5,0.9
			c-1.8,0-3.2-1.5-3.2-3.3c0-0.1,0-0.1,0-0.2c0-1.8,1.5-3.3,3.3-3.3c0,0,0,0,0.1,0l0,0c0.9,0,1.7,0.3,2.4,0.9
			c0.6,0.6,0.9,1.4,0.9,2.3C133.7,531,133.4,531.9,132.7,532.7L132.7,532.7z"/>
		<path style="fill:none;stroke:#7986FC;stroke-width:0.5;stroke-miterlimit:10;" d="M114.5,526.4c2.1,0,3.9-1.7,3.9-3.9
			c0-2.2-1.8-4-4-4s-4,1.8-4,4C110.6,524.7,112.3,526.3,114.5,526.4L114.5,526.4z M113.5,522.4c0-0.2,0.1-0.5,0.3-0.7
			c0.2-0.2,0.4-0.3,0.7-0.3l0,0c0.3,0,0.4,0.1,0.7,0.3c0.2,0.2,0.3,0.4,0.3,0.7c0,0.5-0.4,0.9-0.9,0.9c0,0,0,0,0,0l0,0
			C114,523.4,113.5,523,113.5,522.4C113.5,522.4,113.5,522.4,113.5,522.4L113.5,522.4z"/>
		<path style="fill:none;stroke:#7986FC;stroke-width:0.5;stroke-miterlimit:10;" d="M115,534.2L115,534.2c-1.9,0-3.8,0.8-5.2,2.1
			c-2.8,2.8-2.8,7.3-0.1,10.1c1.4,1.4,3.2,2.1,5.1,2.1l0,0c1.9,0,3.8-0.8,5.2-2.1c1.4-1.3,2.1-3.2,2-5.1
			C122,537.4,118.9,534.3,115,534.2z M117.3,543.6c-0.6,0.7-1.5,1.1-2.4,1.1l0,0c-1.8,0-3.2-1.5-3.2-3.2c0-0.9,0.4-1.7,0.9-2.4
			c0.6-0.6,1.5-1,2.4-0.9l0,0c1.8,0.1,3.2,1.5,3.2,3.3C118.2,542.3,117.8,543.1,117.3,543.6L117.3,543.6z"/>
		<path style="fill:none;stroke:#7986FC;stroke-width:0.5;stroke-miterlimit:10;" d="M37.6,528L37.6,528c-1.1,0-2.2,0.4-3.1,1.2
			c-0.8,0.8-1.2,1.8-1.2,2.9c0,2.3,1.9,4.2,4.2,4.1c0,0,0,0,0,0l0,0c2.2,0,4.1-1.8,4.1-4c0,0,0-0.1,0-0.1c0-1.1-0.4-2.2-1.2-2.9
			C39.8,528.4,38.7,528,37.6,528z M37.6,534.3L37.6,534.3c-1.1,0-2.1-0.9-2.1-2c0-0.5,0.2-1.1,0.5-1.5c0.4-0.4,1-0.7,1.6-0.7l0,0
			c0.5,0,1,0.2,1.5,0.5c0.4,0.4,0.6,0.9,0.5,1.5C39.6,533.3,38.8,534.2,37.6,534.3L37.6,534.3z"/>
		<path style="fill:none;stroke:#7986FC;stroke-width:0.5;stroke-miterlimit:10;" d="M53.8,518.2c-3.5,0-6.4,2.8-6.4,6.3
			c0,3.5,2.7,6.5,6.3,6.7h0.1c3.5-0.1,6.2-2.8,6.4-6.3c0.1-1.7-0.6-3.3-1.7-4.5C57.2,519,55.5,518.2,53.8,518.2z M53.8,527.2
			c-1.5,0-2.7-1.3-2.7-2.7c0,0,0,0,0-0.1c0.1-1.4,1.2-2.6,2.7-2.7l0,0c0.8,0,1.5,0.4,2,0.9c0.5,0.5,0.8,1.2,0.8,1.9
			C56.5,526,55.2,527.2,53.8,527.2z"/>
		<path style="fill:none;stroke:#7986FC;stroke-width:0.5;stroke-miterlimit:10;" d="M53.4,534.3L53.4,534.3c-2.8,0-5,2.2-5.1,4.9
			c0,0,0,0,0,0l0,0c0,2.7,2.2,4.9,4.9,4.9c0,0,0,0,0,0h0.1c2.7,0,4.9-2.2,4.9-4.9c0,0,0,0,0,0c0-1.3-0.5-2.5-1.3-3.5
			C55.9,534.9,54.7,534.4,53.4,534.3z M53.4,541.6L53.4,541.6c-1.3,0-2.3-1-2.3-2.3c0-1.3,1-2.3,2.3-2.3l0,0c0.6,0,1.2,0.3,1.6,0.7
			c0.4,0.4,0.7,1,0.7,1.6C55.6,540.6,54.6,541.6,53.4,541.6L53.4,541.6z"/>
	</g>
</g>
<text transform="matrix(1 0 0 1 74.22 323.12)" style="font-family:'Roboto Condensed'; font-size:24px;">EMG</text>
<text transform="matrix(1 0 0 1 -66.23 435.35)" style="font-family:'Roboto Condensed'; font-size:24px;">ECG</text>
<text transform="matrix(1 0 0 1 56.35 435.35)" style="font-family:'Roboto Condensed'; font-size:24px;">EDA</text>
<g>
	
		<image style="overflow:visible;enable-background:new    ;" width="1295" height="3637" xlink:href="./resources/A770CFD5.png"  transform="matrix(5.510911e-018 -9.000000e-002 9.000000e-002 5.510911e-018 -60.04 413.83)">
	</image>
	<g id="fcu_muscle">
		<path style="fill:none;stroke:#72BF46;stroke-miterlimit:10;" d="M-48,404.2c31.8,7.7,59.3,4.2,80.7-0.5s111.4-11.6,133.8-14.4"/>
		<path style="fill:none;stroke:#72BF46;stroke-miterlimit:10;" d="M-47.9,404.1c29.3,7.1,59.4,3.1,80.6-1.8
			c20.3-3.8,113.2-11.2,134.3-14"/>
		<path style="fill:none;stroke:#72BF46;stroke-miterlimit:10;" d="M-47.8,404.1c26.9,6.4,59.6,2,80.5-3c19-3,114.8-10.8,134.6-13.5
			"/>
		<path style="fill:none;stroke:#72BF46;stroke-miterlimit:10;" d="M-47.5,404c24.5,5.7,59.7,0.9,80.3-4.2
			c17.7-2.1,116.6-10.5,135.1-13"/>
		<path style="fill:none;stroke:#72BF46;stroke-miterlimit:10;" d="M-47.4,404c22,5.1,60-0.2,80.2-5.5c16.4-1.3,118.2-10,135.5-12.6
			"/>
		<path style="fill:none;stroke:#72BF46;stroke-miterlimit:10;" d="M-47.3,403.9c19.6,4.4,60.2-1.3,80.1-6.6
			c15.3-0.4,119.9-9.7,136-12.1"/>
		<path style="fill:none;stroke:#72BF46;stroke-miterlimit:10;" d="M-47.1,403.9c17.1,3.8,60.3-2.3,80-7.9
			c14,0.5,121.6-9.3,136.5-11.7"/>
	</g>
	<g id="palmaris_longus">
		<g id="palmaris_longus">
			<path style="fill:none;stroke:#CEB22C;stroke-miterlimit:10;" d="M-46,401.1c19.1,3.7,66.3-3.4,93.1-11.4
				c32.3-6.9,100.1-21.1,109.9-21.3s15.4-1.8,28,4"/>
			<path style="fill:none;stroke:#CEB22C;stroke-miterlimit:10;" d="M-45.8,401c17.2,2.9,55.8-2.4,82.7-9.4
				c3.6-0.8,7.1-1.7,10.2-2.6c9.4-1.9,21.7-4.4,34.7-7.1c23.4-4.8,49.8-10.1,64.9-12.7c3.3-0.7,6.7-1.1,10.1-1.3
				c9.8-0.2,15.8-1.6,28,3.5"/>
			<path style="fill:none;stroke:#CEB22C;stroke-miterlimit:10;" d="M-45.7,400.9c17.7,2.6,56-3,82.4-10.1c3.6-0.8,7.1-1.5,10.3-2.3
				c9.6-1.8,21.7-4.2,34.7-6.8c22.9-4.7,49.3-10,64.7-12.7c3.3-0.6,6.7-1.1,10.1-1.4c9.9-0.4,16.4-1.6,28,3.1"/>
			<path style="fill:none;stroke:#CEB22C;stroke-miterlimit:10;" d="M-45.5,400.9c18,2.3,56.2-3.5,82.1-11c3.6-0.7,7.1-1.4,10.3-2.2
				c9.7-1.6,21.6-4,34.7-6.5c22.4-4.5,48.7-9.8,64.6-12.7c3.3-0.7,6.6-1.1,10-1.4c10-0.5,16.9-1.5,28,2.8"/>
			<path style="fill:none;stroke:#CEB22C;stroke-miterlimit:10;" d="M-45.3,400.7c18.5,2,56.5-4.1,81.9-11.6c3.6-0.6,7.1-1.3,10.3-2
				c9.9-1.5,21.5-3.7,34.7-6.3c21.9-4.4,48.1-9.7,64.5-12.7c3.3-0.7,6.6-1.1,10-1.4c10.1-0.6,17.5-1.5,27.9,2.5"/>
			<path style="fill:none;stroke:#CEB22C;stroke-miterlimit:10;" d="M-45.2,400.7c18.9,1.6,56.6-4.5,81.6-12.5
				c3.6-0.6,7.1-1.2,10.3-1.7c10-1.4,21.5-3.5,34.6-6.1c21.3-4.2,47.6-9.4,64.4-12.7c3.3-0.7,6.6-1.2,10-1.4
				c10.3-0.7,18-1.4,27.9,2.1"/>
			<path style="fill:none;stroke:#CEB22C;stroke-miterlimit:10;" d="M-45,400.6c19.3,1.3,56.8-5.1,81.4-13.2c3.6-0.5,7.1-1,10.4-1.6
				c10.1-1.3,21.5-3.3,34.6-5.8c20.8-4.1,47-9.3,64.3-12.7c4.1-0.8,7.6-1.3,10-1.5c10.4-0.7,18.5-1.3,27.9,1.8"/>
			<path style="fill:none;stroke:#CEB22C;stroke-miterlimit:10;" d="M-44.8,400.6c19.8,0.9,57-5.7,81-14c3.6-0.5,7.1-0.9,10.4-1.4
				c10.3-1.2,21.5-3,34.6-5.6c20.3-4,46.5-9.2,64.2-12.7c3.3-0.7,6.6-1.2,10-1.5c10.5-0.8,19.1-1.3,28,1.3"/>
			<path style="fill:none;stroke:#CEB22C;stroke-miterlimit:10;" d="M-44.7,400.5c20.1,0.6,57.3-6.2,80.8-14.7
				c3.6-0.4,7-0.7,10.4-1.2c10.4-1,21.4-2.9,34.6-5.4c19.8-3.7,45.9-9,64-12.7c3.3-0.7,6.6-1.2,9.9-1.5c10.5-0.9,19.6-1.2,28,0.9"/>
			<path style="fill:none;stroke:#CEB22C;stroke-miterlimit:10;" d="M-44.5,400.4c20.6,0.2,57.5-6.8,80.6-15.5c3.6-0.2,7-0.6,10.4-1
				c10.5-0.9,21.4-2.7,34.6-5c19.2-3.6,45.3-8.9,63.9-12.7c3.7-0.8,7.1-1.3,9.9-1.6c10.6-0.9,20.1-1.2,28,0.6"/>
			<path style="fill:none;stroke:#CEB22C;stroke-miterlimit:10;" d="M-44.5,400.4c21-0.1,57.7-7.3,80.2-16.2c3.6-0.2,7-0.5,10.4-0.8
				c11.6-1,23.1-2.6,34.5-4.8c18.8-3.5,44.8-8.6,63.8-12.7c3.3-0.7,6.6-1.3,9.9-1.6c10.7-1.1,20.7-1.1,28,0.2"/>
			<path style="fill:none;stroke:#CEB22C;stroke-miterlimit:10;" d="M-44.2,400.3c21.4-0.5,58-7.8,80-16.9c3.6-0.1,7-0.4,10.4-0.6
				c11.6-0.9,23.1-2.4,34.5-4.5c18.2-3.3,44.3-8.5,63.7-12.7c3.3-0.8,6.6-1.3,9.9-1.6c9.3-1,18.7-1.1,28-0.1"/>
			<path style="fill:none;stroke:#CEB22C;stroke-miterlimit:10;" d="M-44,400.3c21.8-0.8,58.1-8.4,79.8-17.7c3.6-0.1,7-0.2,10.4-0.5
				c11.6-0.7,23.1-2.2,34.5-4.3c17.7-3.1,43.7-8.3,63.6-12.7c3.3-0.8,6.6-1.3,9.9-1.6c9.3-0.9,18.6-1.1,27.9-0.5"/>
			<path style="fill:none;stroke:#CEB22C;stroke-miterlimit:10;" d="M-43.9,400.2c22.2-1.2,58.3-8.9,79.5-18.4
				c15.3,0,27.7-1.3,44.8-4.3s43.1-8.1,63.5-12.7c13.5-3.3,30.4-2.4,37.8-2.6"/>
		</g>
	</g>
	<g id="fcr_muscle">
		<g id="fcr_muscle">
			<path style="fill:none;stroke:#B596C6;stroke-miterlimit:10;" d="M-42.5,399.5c36.1-2.3,54.3-9.3,80.6-19s110-22,132.9-25.7"/>
			<path style="fill:none;stroke:#B596C6;stroke-miterlimit:10;" d="M170.8,354.5c-15,2.6-53.7,8.2-85.7,14.2
				c-19.3,3.6-37.1,7.3-47.3,10.8c-7.6,2.8-14.9,5.6-22.4,8.1c-16.3,5.4-32.9,9.4-57.9,11.6"/>
			<path style="fill:none;stroke:#B596C6;stroke-miterlimit:10;" d="M170.8,354.4c-15.7,2.7-54.6,8.4-85.7,14.1
				c-19,3.5-37,6.8-47.4,10.2c-7.2,2.7-14.7,5.7-22.3,8.2c-16.1,5.3-32.8,9.4-57.6,12.4"/>
			<path style="fill:none;stroke:#B596C6;stroke-miterlimit:10;" d="M170.7,354.2c-16.4,2.9-55.7,8.6-85.8,14
				c-18.6,3.4-36.8,6.3-47.5,9.8c-6.8,2.4-14.4,5.7-22.2,8.3c-15.7,5.2-32.7,9.4-57.4,13.1"/>
			<path style="fill:none;stroke:#B596C6;stroke-miterlimit:10;" d="M170.6,354.1c-17.1,3-56.7,8.9-85.8,13.9
				c-18.4,3.1-36.6,5.8-47.5,9.2c-6.4,2.3-14.2,5.7-22.2,8.4c-15.5,5.1-32.6,9.5-57.2,13.9"/>
			<path style="fill:none;stroke:#B596C6;stroke-miterlimit:10;" d="M170.3,353.8c-17.8,3.3-57.6,9-85.8,13.7
				c-18.1,3-36.4,5.4-47.6,8.6c-5.9,2.2-14.1,5.7-22.2,8.4c-15.3,5-32.5,9.5-56.9,14.7"/>
			<path style="fill:none;stroke:#B596C6;stroke-miterlimit:10;" d="M170.3,353.7c-18.6,3.4-58.7,9.2-85.8,13.5
				c-17.7,2.9-36.2,4.9-47.7,8.1c-5.6,2.1-13.9,5.7-22.1,8.5c-14.9,5-32.5,9.6-56.6,15.4"/>
			<path style="fill:none;stroke:#B596C6;stroke-miterlimit:10;" d="M170.3,353.5c-19.3,3.6-59.6,9.3-85.9,13.4
				c-17.5,2.7-36,4.4-47.9,7.6c-5.1,1.9-13.6,5.7-22.1,8.6c-14.7,4.9-32.4,9.6-56.3,16.1"/>
			<path style="fill:none;stroke:#B596C6;stroke-miterlimit:10;" d="M170.2,353.4c-20,3.7-60.7,9.6-85.9,13.3
				c-17.1,2.6-35.8,4-47.9,7c-4.8,1.8-13.4,5.7-22.1,8.6C0,387-17.9,391.9-41.8,399"/>
			<path style="fill:none;stroke:#B596C6;stroke-miterlimit:10;" d="M170.1,353.1c-20.7,4-61.7,9.7-85.9,13.2
				c-16.8,2.4-35.6,3.5-48,6.5c-4.4,1.6-13.2,5.7-22,8.7c-14.1,4.7-32.1,9.7-55.9,17.6"/>
			<path style="fill:none;stroke:#B596C6;stroke-miterlimit:10;" d="M170,353c-21.4,4.1-62.6,9.9-85.9,13c-16.5,2.2-35.4,3-48.1,5.9
				c-4,1.4-12.9,5.7-22,8.7c-13.9,4.7-32,9.7-55.7,18.3"/>
			<path style="fill:none;stroke:#B596C6;stroke-miterlimit:10;" d="M169.8,352.8c-22.1,4.3-63.7,10-85.9,12.9
				c-16.2,2.1-35.2,2.6-48.2,5.4c-3.6,1.3-12.7,5.7-22,8.9c-13.5,4.5-32,9.7-55.3,19"/>
			<path style="fill:none;stroke:#B596C6;stroke-miterlimit:10;" d="M169.8,352.6c-22.8,4.4-64.7,10.1-86,12.7
				c-15.8,2-34.9,2.1-48.2,4.9c-3.1,1.2-12.5,5.7-22,9c-13.2,4.4-31.8,9.7-55.1,19.7"/>
			<path style="fill:none;stroke:#B596C6;stroke-miterlimit:10;" d="M169.8,352.4c-23.5,4.7-65.7,10.4-86,12.6
				c-15.6,1.8-34.8,1.6-48.4,4.3c-2.8,1-12.1,5.8-21.9,9.1c-13,4.3-31.8,9.8-54.8,20.5"/>
			<path style="fill:none;stroke:#B596C6;stroke-miterlimit:10;" d="M169.6,352.3c-24.2,4.8-66.7,10.5-86,12.5
				c-15.3,1.6-34.6,1.2-48.4,3.7c-2.4,0.9-12,5.8-21.9,9.1c-12.8,4.3-31.7,9.9-54.6,21.2"/>
			<path style="fill:none;stroke:#B596C6;stroke-miterlimit:10;" d="M169.5,352.1c-24.9,5-67.8,10.6-86,12.3
				c-15,1.4-34.4,0.7-48.6,3.3c-2,0.7-11.8,5.8-21.9,9.2c-12.5,4.2-31.6,9.8-54.4,21.9"/>
			<path style="fill:none;stroke:#B596C6;stroke-miterlimit:10;" d="M169.4,352c-25.6,5.1-68.7,10.7-86.2,12.2
				c-14.7,1.3-34.2,0.2-48.7,2.7c-1.6,0.6-11.5,5.8-21.8,9.3c-12.2,4.1-31.4,9.9-54.1,22.7"/>
			<path style="fill:none;stroke:#B596C6;stroke-miterlimit:10;" d="M169.2,351.7c-26.3,5.4-69.8,10.8-86.2,12.1
				c-14.3,1-34-0.2-48.7,2.1c-1.2,0.5-11.3,5.8-21.8,9.3c-11.9,4-31.4,9.9-53.8,23.4"/>
			<path style="fill:none;stroke:#B596C6;stroke-miterlimit:10;" d="M169.2,351.6c-27,5.5-70.8,11-86.2,11.9
				c-14.1,0.8-33.8-0.7-48.8,1.6c-7,3.6-14.3,6.8-21.8,9.4c-11.7,4-31.3,9.9-53.6,24.1"/>
			<path style="fill:none;stroke:#B596C6;stroke-miterlimit:10;" d="M169.2,351.4c-27.7,5.7-71.7,11.1-86.2,11.8
				c-13.7,0.7-33.6-1.2-48.9,1c-7,3.7-14.2,6.9-21.7,9.6c-11.4,3.8-31.2,10-53.3,24.8"/>
			<path style="fill:none;stroke:#B596C6;stroke-miterlimit:10;" d="M169.1,351.3c-28.4,5.8-72.8,11.2-86.3,11.7s-33.3-1.6-48.9,0.5
				c-7,3.7-14.2,6.9-21.7,9.5c-11.1,3.7-31.1,10-53.1,25.6"/>
		</g>
	</g>
	<g id="Biceps_copy">
		<g>
			<path style="fill:none;stroke:#4BB6E8;stroke-miterlimit:10;" d="M-101.8,383.5c11.1,0.1,21-0.5,31-5.5s29.6-9.5,45.3-9.2"/>
			<path style="fill:none;stroke:#4BB6E8;stroke-miterlimit:10;" d="M-101.9,382.1c11.2,0.1,21.1-0.1,31.3-4.9
				c10.2-4.8,29.4-9,45.6-8.6"/>
			<path style="fill:none;stroke:#4BB6E8;stroke-miterlimit:10;" d="M-54.2,371.6c9.8-2.2,19.8-3.3,29.8-3.3"/>
			<path style="fill:none;stroke:#4BB6E8;stroke-miterlimit:10;" d="M-78.7,379.2c3-0.6,5.9-1.5,8.6-2.8c5.2-2.1,10.5-3.7,16-4.9"/>
			<path style="fill:none;stroke:#4BB6E8;stroke-miterlimit:10;" d="M-101.9,380.7c8.2,0.1,15.7,0.1,23.1-1.5"/>
			<path style="fill:none;stroke:#4BB6E8;stroke-miterlimit:10;" d="M-102,379.3c11.5,0.2,21.5,0.5,32-3.6c10.5-4.1,28.9-7.8,46-7.6
				"/>
			<path style="fill:none;stroke:#4BB6E8;stroke-miterlimit:10;" d="M-102,377.9c11.7,0.2,21.8,0.8,32.4-3s28.7-7.2,46.2-7"/>
			<path style="fill:none;stroke:#4BB6E8;stroke-miterlimit:10;" d="M-102,376.6c11.8,0.3,22,1.2,32.7-2.5
				c10.7-3.6,28.4-6.6,46.5-6.4"/>
			<path style="fill:none;stroke:#4BB6E8;stroke-miterlimit:10;" d="M-102,375.2c11.9,0.4,22.2,1.4,33.1-1.8s28.2-6.1,46.6-5.9"/>
			<path style="fill:none;stroke:#4BB6E8;stroke-miterlimit:10;" d="M-102.3,373.8c12,0.3,22.4,1.8,33.4-1.2s27.9-5.5,46.8-5.4"/>
			<path style="fill:none;stroke:#4BB6E8;stroke-miterlimit:10;" d="M-102.3,372.5c12.2,0.4,22.6,2.1,33.7-0.6
				c15.4-3.4,31.2-5,47-4.8"/>
			<path style="fill:none;stroke:#4BB6E8;stroke-miterlimit:10;" d="M-102.4,371.2c12.4,0.5,22.8,2.3,34,0s27.5-4.3,47.3-4.3"/>
			<path style="fill:none;stroke:#4BB6E8;stroke-miterlimit:10;" d="M-102.4,369.8c12.5,0.5,23.1,2.7,34.3,0.7
				c11.3-2,27.3-3.7,47.5-3.8"/>
			<path style="fill:none;stroke:#4BB6E8;stroke-miterlimit:10;" d="M-102.5,368.4c12.6,0.5,23.3,2.9,34.7,1.3
				c15.8-2.2,31.7-3.2,47.6-3.1"/>
			<path style="fill:none;stroke:#4BB6E8;stroke-miterlimit:10;" d="M-102.5,367c12.7,0.6,23.4,3.3,35.1,1.9
				c15.9-1.8,31.9-2.7,47.8-2.7"/>
			<path style="fill:none;stroke:#4BB6E8;stroke-miterlimit:10;" d="M-102.6,365.6c12.9,0.6,23.6,3.6,35.4,2.6
				c11.8-1.1,26.5-2,48.1-2.1"/>
			<path style="fill:none;stroke:#4BB6E8;stroke-miterlimit:10;" d="M-102.6,364.3c13,0.6,23.9,3.8,35.8,3.1
				c11.9-0.7,26.3-1.4,48.3-1.5"/>
			<path style="fill:none;stroke:#4BB6E8;stroke-miterlimit:10;" d="M-102.6,362.9c13.2,0.7,24.1,4.2,36.1,3.7s26.1-0.8,48.6-1"/>
			<path style="fill:none;stroke:#4BB6E8;stroke-miterlimit:10;" d="M-102.6,361.5c13.3,0.7,24.3,4.5,36.5,4.3
				c12.1-0.2,25.7-0.2,48.7-0.5"/>
			<path style="fill:none;stroke:#4BB6E8;stroke-miterlimit:10;" d="M-102.8,360.1c13.4,0.7,24.5,4.8,36.8,5s25.5,0.4,48.9,0.1"/>
			<path style="fill:none;stroke:#4BB6E8;stroke-miterlimit:10;" d="M-102.8,358.8c13.6,0.8,24.7,5.1,37.1,5.6s25.4,0.9,49.3,0.6"/>
			<path style="fill:none;stroke:#4BB6E8;stroke-miterlimit:10;" d="M-102.9,357.4c13.7,0.8,24.9,5.5,37.4,6.2s25,1.5,49.4,1.2"/>
			<path style="fill:none;stroke:#4BB6E8;stroke-miterlimit:10;" d="M-102.9,356c13.9,0.8,25.1,5.7,37.7,6.8
				c16.5,1.5,33,2.1,49.6,1.8"/>
			<path style="fill:none;stroke:#4BB6E8;stroke-miterlimit:10;" d="M-103.1,354.6c14,0.9,25.4,6.1,38.1,7.4
				c12.7,1.4,24.6,2.7,49.8,2.2"/>
			<path style="fill:none;stroke:#4BB6E8;stroke-miterlimit:10;" d="M-103.1,353.4c14.1,0.9,25.6,6.4,38.4,8
				c12.8,1.6,24.3,3.3,50.1,2.8"/>
			<path style="fill:none;stroke:#4BB6E8;stroke-miterlimit:10;" d="M-103.2,352c14.3,0.9,25.7,6.7,38.8,8.7s24.1,3.8,50.2,3.4"/>
			<path style="fill:none;stroke:#4BB6E8;stroke-miterlimit:10;" d="M-103.2,350.6c14.4,1,26,7,39.1,9.2s23.9,4.4,50.4,3.9"/>
			<path style="fill:none;stroke:#4BB6E8;stroke-miterlimit:10;" d="M-103.2,349.2c14.6,1,26.2,7.3,39.5,9.9
				c13.3,2.6,23.6,5,50.7,4.4"/>
			<path style="fill:none;stroke:#4BB6E8;stroke-miterlimit:10;" d="M-83.7,352.1c6.8,2.2,13.3,4.7,20.3,6.2
				c13.4,2.9,23.4,5.6,50.9,5"/>
			<path style="fill:none;stroke:#4BB6E8;stroke-miterlimit:10;" d="M-103.4,347.8c6.7,0.6,13.3,2,19.6,4.3"/>
			<path style="fill:none;stroke:#4BB6E8;stroke-miterlimit:10;" d="M-103.4,346.5c14.9,1,26.7,7.9,40.2,11.1
				c13.5,3.1,23.2,6.2,51.1,5.6"/>
			<path style="fill:none;stroke:#4BB6E8;stroke-miterlimit:10;" d="M-103.5,345.1c15,1.2,26.8,8.1,40.5,11.8
				c13.7,3.6,22.9,6.6,51.2,6.1"/>
			<path style="fill:none;stroke:#4BB6E8;stroke-miterlimit:10;" d="M-103.5,343.7c15.1,1.2,27,8.5,40.9,12.3
				c13.9,3.8,22.6,7.2,51.5,6.6"/>
			<path style="fill:none;stroke:#4BB6E8;stroke-miterlimit:10;" d="M-103.7,342.3c15.3,1.2,27.3,8.9,41.1,12.9
				c13.9,4.1,22.5,7.8,51.7,7.2"/>
			<path style="fill:none;stroke:#4BB6E8;stroke-miterlimit:10;" d="M-103.7,341c15.4,1.3,27.5,9.1,41.5,13.5
				c14,4.4,22.2,8.4,51.9,7.7"/>
			<path style="fill:none;stroke:#4BB6E8;stroke-miterlimit:10;" d="M-103.8,339.6c15.8,1.3,27.8,9.4,41.9,14.2s22,9,52.2,8.3"/>
		</g>
	</g>
	<g id="Pronator_teres_copy">
		<g>
			<path style="fill:none;stroke:#EF4848;stroke-miterlimit:10;" d="M-63.2,386.2c2.4-0.5,6.6-3,11.9-5.4c5.2-2.4,39-18.8,57.6-25"
				/>
			<path style="fill:none;stroke:#EF4848;stroke-miterlimit:10;" d="M-62.1,386.8c2.3-0.5,6.6-3.1,12-5.5c1.5-0.7,5-2.3,9.4-4.4
				c9.6-4.4,24.2-10.9,36.6-16.2c5-2.2,9.3-3.8,12.9-5.1"/>
			<path style="fill:none;stroke:#EF4848;stroke-miterlimit:10;" d="M-60.8,387.5c2.2-0.5,6.8-3.1,12.2-5.7c1.8-0.8,5.2-2.6,9.6-4.5
				c9.8-4.5,24.9-11.1,37.4-16.5c4.2-2.1,8.5-3.9,13-5.4"/>
			<path style="fill:none;stroke:#EF4848;stroke-miterlimit:10;" d="M-59.6,388.1c2-0.5,6.9-3.3,12.5-5.9c1.9-0.9,5.5-2.7,9.8-4.7
				c10-4.6,25.6-11.1,38.1-16.8c4.2-2.2,8.6-4.1,13.2-5.7"/>
			<path style="fill:none;stroke:#EF4848;stroke-miterlimit:10;" d="M-58.5,388.6c1.9-0.4,6.9-3.4,12.6-6.2c2.1-1,5.7-2.9,9.9-4.8
				c10.4-4.8,26.4-11.2,38.8-17c4.3-2.4,8.8-4.3,13.4-5.9"/>
			<path style="fill:none;stroke:#EF4848;stroke-miterlimit:10;" d="M-57.3,389.3c1.7-0.4,7-3.5,12.8-6.4c2.3-1.2,5.9-3,10.1-4.9
				c10.6-4.9,27.1-11.2,39.6-17.4c4.3-2.5,8.8-4.6,13.5-6.3"/>
			<path style="fill:none;stroke:#EF4848;stroke-miterlimit:10;" d="M-56,389.9c1.6-0.3,7-3.6,12.9-6.6c2.5-1.3,6.3-3.3,10.3-5.1
				c10.8-5,27.8-11.3,40.4-17.5c6.9-3.8,11.2-5.7,13.7-6.5"/>
			<path style="fill:none;stroke:#EF4848;stroke-miterlimit:10;" d="M-54.9,390.5c1.5-0.3,7.1-3.6,13.2-6.9
				c2.7-1.4,6.5-3.4,10.5-5.2c11.2-5.1,28.5-11.3,41.1-17.8c7.2-4.2,11.5-6.1,13.9-6.8"/>
			<path style="fill:none;stroke:#EF4848;stroke-miterlimit:10;" d="M-53.7,391.2c1.4-0.3,7.1-3.7,13.3-7.1
				c2.8-1.5,6.8-3.6,10.6-5.4c11.4-5.2,29.3-11.4,41.9-18c7.6-4.5,11.9-6.4,14-7.1"/>
			<path style="fill:none;stroke:#EF4848;stroke-miterlimit:10;" d="M-52.5,391.8c1.3-0.2,7.1-3.9,13.5-7.3c3-1.6,7-3.7,10.8-5.5
				c11.6-5.4,30-11.4,42.6-18.4c7.9-4.9,12.2-6.8,14.2-7.3"/>
			<path style="fill:none;stroke:#EF4848;stroke-miterlimit:10;" d="M-51.3,392.4c1.2-0.2,7.2-4,13.7-7.6c3.2-1.8,7.2-4,11-5.6
				c12-5.5,30.7-11.5,43.4-18.6c8.3-5.2,12.6-7.1,14.3-7.7"/>
			<path style="fill:none;stroke:#EF4848;stroke-miterlimit:10;" d="M-50.1,393.1c1-0.2,7.2-4.1,13.8-7.8c3.4-1.9,7.6-4.1,11.2-5.7
				c12.1-5.6,31.3-11.5,44.1-18.9c8.6-5.5,12.9-7.5,14.6-7.9"/>
			<path style="fill:none;stroke:#EF4848;stroke-miterlimit:10;" d="M-48.9,393.6c0.9-0.2,7.3-4.2,14.1-8c3.5-2,7.8-4.3,11.3-5.8
				c12.3-5.6,32.1-11.5,45-19.1c9-5.8,13.3-7.8,14.7-8.3"/>
			<path style="fill:none;stroke:#EF4848;stroke-miterlimit:10;" d="M-47.8,394.2c0.8-0.1,7.3-4.3,14.2-8.1c3.7-2.1,8-4.4,11.5-5.9
				c12.8-5.8,33-11.6,45.6-19.4c9.4-6.2,13.6-8.1,14.9-8.5"/>
			<path style="fill:none;stroke:#EF4848;stroke-miterlimit:10;" d="M-46.5,394.9c0.6-0.1,7.4-4.4,14.4-8.4
				c3.8-2.2,7.7-4.3,11.7-6.1c13-5.9,33.7-11.8,46.5-19.7c9.8-6.5,14-8.5,15-8.9"/>
			<path style="fill:none;stroke:#EF4848;stroke-miterlimit:10;" d="M-45.3,395.5c0.5-0.1,7.5-4.5,14.7-8.6
				c3.8-2.3,7.8-4.3,11.9-6.2c13.3-5.9,34.5-11.8,47.2-19.9c10.1-6.9,14.4-8.9,15.1-9.1"/>
			<path style="fill:none;stroke:#EF4848;stroke-miterlimit:10;" d="M-44.2,396.1c0.3-0.1,7.6-4.6,14.8-8.9c3.9-2.4,7.9-4.5,12-6.3
				c13.6-6.2,35.2-11.9,48-20.3c10.5-7.2,14.8-9.2,15.4-9.4"/>
			<path style="fill:none;stroke:#EF4848;stroke-miterlimit:10;" d="M-42.9,396.8c0.2,0,7.6-4.8,15-9.1c3.9-2.4,8-4.5,12.2-6.4
				c13.9-6.2,35.9-11.9,48.7-20.5c10.8-7.5,15.1-9.6,15.5-9.7"/>
			<path style="fill:none;stroke:#EF4848;stroke-miterlimit:10;" d="M-41.7,397.4c0.1,0,7.6-4.9,15.1-9.3c4-2.4,8.1-4.7,12.3-6.6
				c14.1-6.3,36.6-12,49.5-20.7c11.2-7.8,15.5-9.9,15.7-10"/>
			<path style="fill:none;stroke:#EF4848;stroke-miterlimit:10;" d="M-40.5,398c0,0,20.2-13,27.8-16.3c14.4-6.3,37.4-11.9,50.3-21
				c11.5-8.2,15.8-10.3,15.8-10.3"/>
		</g>
		<g>
			<path style="fill:none;stroke:#E2F4FD;stroke-miterlimit:10;" d="M-105.5,388.3c17.8-0.4,31.8,0.5,42.3-1.9"/>
			<path style="fill:none;stroke:#E2F4FD;stroke-miterlimit:10;" d="M-105.5,388.4c8.8-0.2,19.3,0,26.8,0.2
				c3.8,0.3,7.6,0.2,11.4-0.1c2-0.2,4-0.6,5.9-1.2"/>
			<path style="fill:none;stroke:#E2F4FD;stroke-miterlimit:10;" d="M-105.5,388.4c8.2-0.1,20.6,0,28,0.6c4.4,0.4,8,0.9,11.8,0.6
				c2-0.2,4.1-0.7,6-1.4"/>
			<path style="fill:none;stroke:#E2F4FD;stroke-miterlimit:10;" d="M-105.5,388.5c7.5-0.1,21.8,0.1,29.1,0.9
				c4.7,0.6,8.3,1.5,12.1,1.2c2.1-0.2,4.3-0.8,6.3-1.5"/>
			<path style="fill:none;stroke:#E2F4FD;stroke-miterlimit:10;" d="M-105.7,388.6c6.6-0.1,23,0.2,30.4,1.4c5,0.8,8.4,2.1,12.5,1.9
				c2.3-0.2,4.5-0.8,6.5-1.7"/>
			<path style="fill:none;stroke:#E2F4FD;stroke-miterlimit:10;" d="M-105.7,388.6c5.9-0.1,24.2,0.2,31.5,1.8
				c5.2,1,8.6,2.7,12.8,2.4c2.3-0.3,4.6-1,6.8-2"/>
			<path style="fill:none;stroke:#E2F4FD;stroke-miterlimit:10;" d="M-105.7,388.8c5.2-0.1,25.5,0.5,32.7,2.2
				c5.5,1.3,8.8,3.4,13.3,3c2.5-0.3,4.8-1,7-2.2"/>
			<path style="fill:none;stroke:#E2F4FD;stroke-miterlimit:10;" d="M-105.9,388.9c4.4-0.1,26.7,0.6,33.9,2.6
				c5.7,1.6,9.1,4,13.6,3.7c2.5-0.4,5-1.1,7.2-2.3"/>
			<path style="fill:none;stroke:#E2F4FD;stroke-miterlimit:10;" d="M-105.9,388.9c3.7-0.1,28,0.7,35.1,2.9c5.9,1.9,9.3,4.5,14,4.3
				c2.6-0.3,5.2-1.2,7.5-2.6"/>
			<path style="fill:none;stroke:#E2F4FD;stroke-miterlimit:10;" d="M-105.9,389c2.9-0.1,29.1,0.8,36.2,3.4c6.2,2.2,9.4,5.1,14.3,5
				c2-0.1,4.7-1.2,7.6-2.8"/>
			<path style="fill:none;stroke:#E2F4FD;stroke-miterlimit:10;" d="M-105.9,389.1c2.2,0,30.3,1,37.4,3.7c6.4,2.5,9.7,5.7,14.8,5.6
				c2,0,4.8-1.3,7.8-2.9"/>
			<path style="fill:none;stroke:#E2F4FD;stroke-miterlimit:10;" d="M-106,389.1c1.5,0,31.6,1.2,38.6,4.2c6.6,2.8,9.9,6.3,15.1,6.3
				c2.1,0,4.8-1.3,8-3.2"/>
			<path style="fill:none;stroke:#E2F4FD;stroke-miterlimit:10;" d="M-106,389.2c0.7,0,32.7,1.4,39.8,4.5c6.9,3.1,10.2,6.9,15.5,6.9
				c2.1,0,4.9-1.4,8.3-3.4"/>
			<path style="fill:none;stroke:#E2F4FD;stroke-miterlimit:10;" d="M-106,389.3c0,0,33.9,1.5,41,5s10.3,7.5,15.8,7.5
				c2.1,0,5-1.4,8.5-3.5"/>
		</g>
	</g>
	<g id="Brachiordialis_copy">
		<g id="brachioradialis_1">
			<path style="fill:none;stroke:#00A4A7;stroke-miterlimit:10;" d="M-86.7,343.8c13.7,1,21,2.7,36.1,7.4c19.1,5.5,39.2,7,58.9,4.4
				c22.4-2.6,47.7-6.2,67.3-6.3c10.5-0.4,23.9-1.8,32-2.1s43.8-1.6,56.5-1.2"/>
			<path style="fill:none;stroke:#00A4A7;stroke-miterlimit:10;" d="M-87.1,343.6c4.7,0.3,8.6,0.7,12.5,1.3c7.1,1,13.7,2.7,23.8,5.5
				c12.5,3.1,25.3,4.7,38.2,4.8c6.9,0.1,13.8-0.2,20.7-1c8.4-0.8,17.1-1.8,26-2.7c14.4-1.5,29-2.7,41.4-2.6c8.1-0.2,17.9-1,25.9-1.5
				l6.3-0.4c8.9-0.4,43.9-1.5,56.6-1.2"/>
			<path style="fill:none;stroke:#00A4A7;stroke-miterlimit:10;" d="M-87.6,343.5c4.7,0.4,8.6,0.6,12.5,1c7.9,1.2,15.8,2.8,23.5,5
				c11.1,2.7,24.1,3.8,38.3,4c6.9,0.2,13.8,0,20.7-0.7c8.4-0.7,17.1-1.5,26-2.2c14.3-1.2,28.9-2.2,41.5-2c8.1-0.1,17.9-0.8,26-1.4
				c2.3-0.1,4.4-0.2,6.3-0.4c9.6-0.3,43.9-1.4,56.8-1"/>
			<path style="fill:none;stroke:#00A4A7;stroke-miterlimit:10;" d="M-88,343.3c4.7,0.3,8.7,0.5,12.5,0.9c7.9,1.1,15.8,2.6,23.6,4.5
				c11,2.3,24.1,3,38.3,3.3c6.8,0,13.7-0.1,20.8-0.8c8.4-0.6,17.1-1.3,26.1-1.7c14.2-0.9,28.8-1.6,41.6-1.4c8.1,0,17.9-0.7,26.1-1.2
				l6.3-0.4c10.4-0.2,44-1.4,56.9-0.9"/>
			<path style="fill:none;stroke:#00A4A7;stroke-miterlimit:10;" d="M-88.5,343.2c4.7,0.4,8.7,0.4,12.5,0.8c6.6,0.8,13.9,2,23.5,4.1
				c10.7,2.1,24.1,2.2,38.4,2.4c6.9,0,13.7-0.1,21-0.7c8.4-0.5,17.1-0.9,26.1-1.4c14.1-0.7,28.6-1.2,41.6-0.8c8.3,0,17.9-0.6,26.1-1
				c2.2-0.1,4.4-0.2,6.3-0.2c11.1-0.2,44.1-1.3,57.1-0.8"/>
			<path style="fill:none;stroke:#00A4A7;stroke-miterlimit:10;" d="M-89,343c4.7,0.4,8.7,0.2,12.6,0.7c6.5,0.7,13.9,1.7,23.5,3.6
				c10.6,1.9,24.1,1.4,38.4,1.6c6.9,0,13.8-0.1,21-0.5c8.4-0.4,17.1-0.7,26.2-0.9c14-0.5,28.4-0.7,41.7-0.2
				c8.3,0.1,17.9-0.5,26.2-0.8c2.2-0.1,4.4-0.2,6.3-0.2c11.8-0.2,44.3-1.2,57.3-0.8"/>
			<path style="fill:none;stroke:#00A4A7;stroke-miterlimit:10;" d="M-89.4,342.9c4.7,0.3,8.7,0.1,12.6,0.6c6.3,0.6,14,1.5,23.5,3.1
				c10.5,1.6,24.1,0.7,38.4,0.8c7,0,13.9-0.1,21-0.3c8.4-0.2,17.1-0.5,26.2-0.5c13.9-0.2,28.3-0.1,41.8,0.5
				c8.3,0.1,17.9-0.4,26.2-0.7c2.2-0.1,4.4-0.2,6.3-0.2c12.5-0.2,44.4-1,57.4-0.7"/>
			<path style="fill:none;stroke:#00A4A7;stroke-miterlimit:10;" d="M-89.9,342.8c4.7,0.4,8.7,0,12.6,0.4c6.2,0.6,14,1.3,23.4,2.7
				c10.4,1.4,24.1-0.1,38.5,0.1c7,0,14,0,21.1-0.2c8.5-0.1,17.1-0.1,26.2,0c13.7,0,28.2,0.3,41.8,1c8.3,0.2,17.9-0.1,26.3-0.6
				c2.2-0.1,4.4-0.2,6.4-0.2c13.2-0.2,44.5-1,57.5-0.6"/>
			<path style="fill:none;stroke:#00A4A7;stroke-miterlimit:10;" d="M-90.4,342.6c4.7,0.3,8.7-0.1,12.6,0.2c6.1,0.5,14,1,23.4,2.2
				c10.2,1,24.1-0.9,38.5-0.7c7.1,0,14,0,21.1-0.1c8.5,0,17.1,0.1,26.3,0.3c13.5,0.2,28.1,0.8,41.9,1.6c8.3,0.2,17.9,0,26.4-0.4
				c2.2-0.1,4.4-0.1,6.4-0.2c13.9-0.2,44.6-0.9,57.8-0.5"/>
			<path style="fill:none;stroke:#00A4A7;stroke-miterlimit:10;" d="M-90.8,342.4c4.7,0.2,8.7-0.1,12.6,0.1c5.8,0.4,14,0.9,23.4,1.8
				c10,0.8,24-1.8,38.5-1.5H4.9c8.5,0.1,17.1,0.3,26.3,0.8c13.4,0.5,27.9,1.3,41.9,2.2c8.4,0.3,17.8,0.1,26.4-0.2
				c2.2-0.1,4.4-0.1,6.4-0.2c14.7-0.1,44.7-0.8,57.9-0.4"/>
			<path style="fill:none;stroke:#00A4A7;stroke-miterlimit:10;" d="M-91.3,342.3c4.7,0.2,8.7-0.2,12.7,0c5.7,0.4,14.1,0.7,23.3,1.2
				c9.9,0.6,24-2.6,38.7-2.3c7.2,0,14.2,0.1,21.2,0.1c8.5,0.2,17.1,0.7,26.4,1.3c13.3,0.8,27.8,1.9,42,2.8c8.4,0.5,17.8,0.2,26.6,0
				c2.2-0.1,4.4-0.1,6.4-0.1c15.4-0.1,44.8-0.8,58-0.4"/>
			<path style="fill:none;stroke:#00A4A7;stroke-miterlimit:10;" d="M-92,342.2c4.7,0.2,8.7-0.4,12.7-0.2c5.6,0.2,14.1,0.5,23.3,0.7
				c9.8,0.4,24-3.3,38.7-3.1c7.3,0,14.3,0.2,21.3,0.3c8.5,0.4,17.1,0.9,26.4,1.8c13.2,1,27.6,2.3,42.1,3.5
				c8.4,0.5,17.8,0.5,26.6,0.1c2.2-0.1,4.4-0.1,6.4-0.1c16.1-0.1,44.8-0.7,58.2-0.2"/>
			<path style="fill:none;stroke:#00A4A7;stroke-miterlimit:10;" d="M-92.3,342.1c4.7,0.2,8.7-0.5,12.7-0.4
				c5.5,0.2,14.1,0.2,23.2,0.2c9.7,0.1,24-4.1,38.8-3.8c7.3-0.1,14.3,0.1,21.3,0.5c8.5,0.5,17.1,1.2,26.5,2.1
				c13.1,1.3,27.5,2.8,42.2,4.1c8.4,0.6,17.8,0.6,26.7,0.4c2.2,0,4.4-0.1,6.4-0.1c16.8-0.1,44.9-0.6,58.3-0.1"/>
			<path style="fill:none;stroke:#00A4A7;stroke-miterlimit:10;" d="M-92.8,341.8c4.7,0.2,8.7-0.6,12.7-0.5c5.2,0.1,14.1,0,23.2-0.2
				c9.5-0.2,24-4.9,38.8-4.7c7.3-0.1,14.3,0.1,21.4,0.6c8.5,0.6,17.1,1.5,26.6,2.6c12.9,1.5,27.4,3.4,42.3,4.7
				c8.4,0.6,17.8,0.7,26.8,0.5c2.2,0,4.4-0.1,6.5-0.1c17.5-0.1,45.1-0.6,58.6,0"/>
			<path style="fill:none;stroke:#00A4A7;stroke-miterlimit:10;" d="M-93.3,341.7c4.7,0.2,8.7-0.7,12.8-0.6c5.1,0,14.2-0.2,23.2-0.7
				c9.4-0.5,24-5.7,38.9-5.5c7.2-0.1,14.2,0.1,21.2,0.7c8.5,0.7,17.1,1.8,26.6,3c12.8,1.8,27.3,3.8,42.3,5.2
				c8.9,0.7,17.8,0.9,26.8,0.6c2.2,0,4.4-0.1,6.5-0.1c18.2,0,45.2-0.5,58.7,0"/>
			<path style="fill:none;stroke:#00A4A7;stroke-miterlimit:10;" d="M-93.8,341.6c4.7,0.2,8.8-0.8,12.8-0.8c5,0,14.2-0.5,23.1-1.2
				c9.3-0.7,24-6.5,38.9-6.3c7.4-0.1,14.4,0.2,21.5,0.8c8.5,0.8,17.1,2.1,26.7,3.5c12.7,2,27.1,4.3,42.4,5.8
				c8.5,0.7,17.8,0.9,26.9,0.8h6.5c19,0,45.3-0.4,58.8,0.1"/>
			<path style="fill:none;stroke:#00A4A7;stroke-miterlimit:10;" d="M-94.3,341.5c4.7,0.2,8.9-0.8,12.8-0.9
				c4.8-0.1,14.2-0.7,23.1-1.6c9.1-0.9,24-7.2,39-7c7.2-0.1,14.4,0.2,21.5,0.9c8.5,0.9,17.1,2.3,26.7,3.8c12.5,2.2,27,4.9,42.4,6.5
				c8.9,0.8,17.9,1.1,26.9,0.9h6.5c19.7,0,45.4-0.4,59,0.2"/>
			<path style="fill:none;stroke:#00A4A7;stroke-miterlimit:10;" d="M-94.7,341.2c4.8,0.2,8.8-0.9,12.8-1.1
				c4.7-0.1,14.2-0.9,22.9-2.1c9-1.2,24-8,39-7.8c7.2-0.2,14.4,0.1,21.5,1c8.6,1.1,17.1,2.6,26.8,4.3c12.3,2.5,26.9,5.4,42.5,7.1
				c9,0.9,18,1.3,27,1.2h6.5c20.4,0,45.5-0.2,59.2,0.3"/>
			<path style="fill:none;stroke:#00A4A7;stroke-miterlimit:10;" d="M-95.2,341.1c4.8,0.2,8.8-1,12.8-1.2c4.5-0.2,14.3-1.2,22.9-2.6
				c8.8-1.4,24-8.9,39-8.6c7.2-0.2,14.5,0.2,21.7,1.2c8.6,1,17.1,2.9,26.8,4.8c14.1,3.3,28.3,5.9,42.6,7.7c9,1,18.1,1.4,27.1,1.3
				h6.5c21.1,0.1,45.6-0.1,59.3,0.3"/>
			<path style="fill:none;stroke:#00A4A7;stroke-miterlimit:10;" d="M-95.6,341c4.8,0.2,8.9-1.2,12.9-1.4c7.7-0.6,15.4-1.6,22.9-3.1
				c8.7-1.8,24-9.7,39.1-9.4c7.3-0.2,14.6,0.3,21.8,1.4c8.6,1.2,17.1,3.1,26.8,5.2c14,3.6,28.3,6.4,42.6,8.3
				c9,1.1,18.1,1.5,27.1,1.4h6.5c21.8,0.1,45.6-0.1,59.5,0.5"/>
			<path style="fill:none;stroke:#00A4A7;stroke-miterlimit:10;" d="M-54.4,333.9c8.8-3.1,21.1-8.5,33.3-8.4
				c7.3-0.1,14.6,0.4,21.8,1.5c8.6,1.3,17.1,3.4,26.9,5.6c14,4,28.3,7,42.7,9c9,1.1,18.1,1.6,27.2,1.6h6.6c22.5,0.1,45.8,0,59.6,0.6
				"/>
			<path style="fill:none;stroke:#00A4A7;stroke-miterlimit:10;" d="M-96.1,340.9c4.8,0.2,8.9-1.2,12.9-1.5
				c7.7-0.7,15.3-1.9,22.8-3.6c2-0.5,3.9-1.1,5.8-1.9"/>
			<path style="fill:none;stroke:#00A4A7;stroke-miterlimit:10;" d="M-96.7,340.6c4.8,0.2,8.9-1.3,12.9-1.6
				c7.7-0.8,15.3-2.2,22.8-4.1c8.5-2.2,24.1-11.2,39.2-10.9c17.5-0.5,31.1,3.4,48.8,7.7c18,5.2,42,11.4,70.1,11.3
				c25.5,0.2,51.2,0.1,66.4,0.7"/>
		</g>
		<g id="brachioradialis_2">
			<path style="fill:none;stroke:#00A4A7;stroke-miterlimit:10;" d="M11.5,327.4c20.4,6.3,41.3,10.9,62.4,13.9
				c14.8,2.2,37.7,1.5,37.7,1.5"/>
			<path style="fill:none;stroke:#00A4A7;stroke-miterlimit:10;" d="M11.5,327.4c25.7,7.2,46.5,11.2,60.7,13.1
				c14.3,2.2,36.7,2.1,40.3,2.3"/>
			<path style="fill:none;stroke:#00A4A7;stroke-miterlimit:10;" d="M11.5,327.3c24,6.2,45.1,10.4,58.9,12.4s35.5,2.7,42.7,3.1"/>
			<path style="fill:none;stroke:#00A4A7;stroke-miterlimit:10;" d="M11.5,327.3c22.1,5.1,43.7,9.7,57.1,11.5
				c13.6,2.1,34.5,3.1,45.3,3.9"/>
			<path style="fill:none;stroke:#00A4A7;stroke-miterlimit:10;" d="M11.6,327.2c20.4,4.1,42.2,9,55.3,10.8
				c13.2,1.8,33.4,3.7,47.9,4.8"/>
			<path style="fill:none;stroke:#00A4A7;stroke-miterlimit:10;" d="M11.9,327.2c18.6,3.1,40.8,8.3,53.6,10.1
				c12.8,1.9,32.3,4.3,50.3,5.6"/>
			<path style="fill:none;stroke:#00A4A7;stroke-miterlimit:10;" d="M11.9,327.2c16.8,2.1,39.4,7.4,51.8,9.3
				c12.5,1.9,31.2,4.9,52.9,6.4"/>
			<path style="fill:none;stroke:#00A4A7;stroke-miterlimit:10;" d="M11.9,327c15,1,38,6.8,50,8.6c12,1.9,30,5.4,55.4,7.2"/>
		</g>
	</g>
	<g id="pronator_quadratus">
		<g id="pronator_quadratus_1">
			<path style="fill:#84FFFF;stroke:#84FFFF;stroke-miterlimit:10;" d="M133.1,364.8c2-0.2,3.1-0.1,5.4,0.3c2.9,0.4,5.8,0.1,8.5-0.9
				c3.1-1.1,6.5-2.4,9.3-3c1.5-0.4,3.3-1,4.5-1.3c1.1-0.3,6.1-1.5,8-1.8"/>
			<path style="fill:#84FFFF;stroke:#84FFFF;stroke-miterlimit:10;" d="M133,364.7c0.7-0.1,1.2-0.1,1.8-0.1c1,0,2,0.1,3.6,0.3
				c1.9,0.2,3.7,0.1,5.6-0.3c1-0.2,2-0.4,2.9-0.8c1.2-0.4,2.4-0.8,3.6-1.2c2-0.7,4-1.3,5.8-1.6c1.1-0.3,2.5-0.7,3.6-1l0.9-0.2
				c1.2-0.3,6.2-1.5,8-1.8"/>
			<path style="fill:#84FFFF;stroke:#84FFFF;stroke-miterlimit:10;" d="M132.9,364.7c0.7-0.1,1.2-0.1,1.8-0.2c1.2,0,2.3,0,3.5,0.2
				c1.7,0.1,3.5,0,5.6-0.4c1-0.2,2-0.4,2.9-0.7c1.2-0.4,2.4-0.8,3.6-1.1c2-0.6,4-1.2,5.8-1.5c1.1-0.3,2.5-0.7,3.6-1
				c0.3-0.1,0.6-0.2,0.9-0.2c1.3-0.3,6.2-1.5,8-1.8"/>
			<path style="fill:#84FFFF;stroke:#84FFFF;stroke-miterlimit:10;" d="M132.9,364.7c0.7-0.1,1.3-0.2,1.8-0.2c1.2,0,2.3,0,3.5,0.1
				c1.6,0.1,3.5-0.2,5.5-0.5c1-0.2,1.9-0.4,2.9-0.7c1.2-0.3,2.4-0.7,3.6-1.1c2-0.6,4-1.1,5.8-1.4c1.2-0.2,2.5-0.6,3.7-1l0.9-0.2
				c1.5-0.3,6.2-1.5,8-1.8"/>
			<path style="fill:#84FFFF;stroke:#84FFFF;stroke-miterlimit:10;" d="M132.8,364.7c0.7-0.1,1.2-0.2,1.8-0.2c1,0,2-0.1,3.5,0
				c1.6,0.1,3.5-0.3,5.5-0.7c1-0.2,1.9-0.4,2.9-0.7c1.2-0.3,2.4-0.7,3.6-1c2-0.5,4-1,5.9-1.3c1.2-0.2,2.5-0.6,3.7-0.9
				c0.3-0.1,0.6-0.2,0.9-0.2c1.6-0.4,6.2-1.5,8.1-1.8"/>
			<path style="fill:#84FFFF;stroke:#84FFFF;stroke-miterlimit:10;" d="M132.7,364.7c0.7-0.1,1.2-0.2,1.8-0.2c0.9-0.1,2-0.1,3.5,0
				c1.6,0,3.5-0.5,5.5-0.8c1-0.2,2-0.4,3-0.7c1.2-0.3,2.4-0.6,3.7-0.9c2-0.5,4-0.9,5.9-1.2c1.2-0.2,2.5-0.6,3.7-0.9
				c0.3-0.1,0.6-0.2,0.9-0.2c1.7-0.4,6.2-1.5,8.1-1.8"/>
			<path style="fill:#84FFFF;stroke:#84FFFF;stroke-miterlimit:10;" d="M132.7,364.7c0.7-0.1,1.2-0.2,1.8-0.3c0.9-0.1,2-0.1,3.4-0.1
				c1.5,0,3.4-0.6,5.5-1c1-0.2,2-0.4,3-0.7c1.2-0.3,2.4-0.6,3.7-0.8c2-0.4,4-0.8,5.9-1.1c1.2-0.2,2.5-0.6,3.7-0.9
				c0.3-0.1,0.6-0.2,0.9-0.2c1.8-0.4,6.2-1.5,8.1-1.8"/>
			<path style="fill:#84FFFF;stroke:#84FFFF;stroke-miterlimit:10;" d="M132.6,364.7c0.7-0.1,1.2-0.3,1.8-0.3c0.9-0.1,2-0.2,3.4-0.2
				c1.5-0.1,3.4-0.7,5.5-1.1c1-0.2,2-0.4,3-0.6c1.2-0.3,2.4-0.5,3.7-0.8c1.9-0.4,4-0.8,6-1c1.2-0.2,2.5-0.5,3.7-0.9
				c0.3-0.1,0.6-0.2,0.9-0.2c1.9-0.4,6.3-1.5,8.1-1.8"/>
			<path style="fill:#84FFFF;stroke:#84FFFF;stroke-miterlimit:10;" d="M132.5,364.7c0.7-0.1,1.2-0.3,1.8-0.3c0.9-0.1,2-0.2,3.4-0.3
				c1.5-0.1,3.4-0.9,5.4-1.2c1-0.2,2-0.4,3-0.6c1.2-0.2,2.4-0.5,3.7-0.7c1.9-0.3,4-0.7,6-0.9c1.2-0.2,2.5-0.5,3.7-0.8
				c0.3-0.1,0.6-0.1,0.9-0.2c2-0.4,6.3-1.4,8.2-1.7"/>
			<path style="fill:#84FFFF;stroke:#84FFFF;stroke-miterlimit:10;" d="M132.4,364.6c0.7-0.1,1.2-0.3,1.8-0.3c0.8-0.1,2-0.2,3.4-0.4
				c1.4-0.1,3.3-1,5.4-1.4l3-0.6c1.2-0.2,2.4-0.4,3.8-0.6c1.9-0.3,4-0.6,6-0.8c1.2-0.2,2.5-0.5,3.7-0.8c0.3-0.1,0.6-0.1,0.9-0.2
				c2.1-0.4,6.3-1.4,8.2-1.7"/>
			<path style="fill:#84FFFF;stroke:#84FFFF;stroke-miterlimit:10;" d="M132.4,364.6c0.7-0.1,1.2-0.3,1.8-0.4c0.8-0.1,2-0.3,3.3-0.5
				c1.4-0.2,3.3-1.1,5.4-1.5c1-0.2,2-0.4,3-0.6c1.2-0.2,2.4-0.4,3.8-0.5c1.9-0.2,4-0.5,6-0.7c1.2-0.2,2.5-0.5,3.8-0.8
				c0.3-0.1,0.6-0.1,0.9-0.2c2.2-0.5,6.3-1.4,8.2-1.7"/>
			<path style="fill:#84FFFF;stroke:#84FFFF;stroke-miterlimit:10;" d="M132.3,364.6c0.7-0.1,1.2-0.3,1.8-0.4c0.8-0.1,2-0.3,3.3-0.5
				c1.4-0.2,3.3-1.3,5.4-1.7c1-0.2,2-0.4,3-0.6c1.2-0.2,2.5-0.3,3.8-0.5c1.9-0.2,4-0.4,6.1-0.6c1.2-0.2,2.5-0.4,3.8-0.7
				c0.3-0.1,0.6-0.1,0.9-0.2c2.3-0.5,6.3-1.4,8.2-1.7"/>
			<path style="fill:#84FFFF;stroke:#84FFFF;stroke-miterlimit:10;" d="M132.2,364.6c0.7-0.1,1.2-0.3,1.8-0.4c0.8-0.1,2-0.4,3.3-0.6
				c1.4-0.3,3.3-1.4,5.4-1.8c1-0.2,2-0.4,3-0.5c1.2-0.2,2.5-0.3,3.8-0.4c1.9-0.2,4-0.3,6.1-0.5c1.2-0.1,2.5-0.4,3.8-0.7
				c0.3-0.1,0.6-0.1,0.9-0.2c2.4-0.5,6.3-1.4,8.3-1.7"/>
			<path style="fill:#84FFFF;stroke:#84FFFF;stroke-miterlimit:10;" d="M132.1,364.6c0.7-0.1,1.2-0.4,1.8-0.4c0.7-0.1,2-0.4,3.3-0.7
				c1.3-0.3,3.2-1.5,5.3-1.9c1-0.2,2-0.4,3.1-0.5c1.2-0.1,2.5-0.2,3.8-0.3c1.9-0.1,4-0.2,6.1-0.4c1.2-0.1,2.5-0.4,3.8-0.7
				c0.3-0.1,0.6-0.1,0.9-0.2c2.5-0.5,6.4-1.4,8.3-1.7"/>
			<path style="fill:#84FFFF;stroke:#84FFFF;stroke-miterlimit:10;" d="M132.1,364.6c0.7-0.1,1.2-0.4,1.8-0.5c0.7-0.1,2-0.4,3.3-0.8
				s3.2-1.7,5.3-2.1c1-0.2,2-0.4,3-0.5c1.2-0.1,2.5-0.2,3.9-0.2c1.9-0.1,4-0.1,6.2-0.3c1.3-0.1,2.6-0.4,3.8-0.7
				c0.3-0.1,0.6-0.1,0.9-0.2c2.6-0.5,6.4-1.4,8.3-1.7"/>
			<path style="fill:#84FFFF;stroke:#84FFFF;stroke-miterlimit:10;" d="M132,364.6c0.7-0.1,1.2-0.4,1.8-0.5c0.7-0.1,2-0.5,3.2-0.9
				c1.3-0.4,3.2-1.8,5.3-2.2c1.1-0.2,2.1-0.4,3.1-0.5c1.2-0.1,2.5-0.1,3.9-0.2c1.9,0,4,0,6.2-0.2c1.2-0.1,2.6-0.4,3.8-0.6l0.9-0.2
				c2.7-0.5,6.4-1.4,8.3-1.7"/>
			<path style="fill:#84FFFF;stroke:#84FFFF;stroke-miterlimit:10;" d="M131.9,364.6c0.7-0.1,1.2-0.4,1.8-0.5c0.7-0.2,2-0.5,3.2-0.9
				c1.3-0.4,3.1-1.9,5.3-2.3c1-0.2,2-0.4,3.1-0.5c1.2-0.1,2.5-0.1,3.9-0.1c1.8,0,4,0.1,6.2-0.1c1.3-0.1,2.6-0.3,3.8-0.6l0.9-0.2
				c2.8-0.6,6.4-1.4,8.4-1.7"/>
			<path style="fill:#84FFFF;stroke:#84FFFF;stroke-miterlimit:10;" d="M131.9,364.5c0.7-0.1,1.2-0.4,1.8-0.6c0.7-0.2,2-0.6,3.2-1
				c1.2-0.5,3.1-2.1,5.2-2.5c1-0.2,2-0.4,3.1-0.4c1.3-0.1,2.5,0,3.9,0c1.8,0.1,4,0.2,6.3,0c1.3-0.1,2.6-0.3,3.9-0.6l0.9-0.2
				c2.9-0.6,6.4-1.3,8.4-1.6"/>
			<path style="fill:#84FFFF;stroke:#84FFFF;stroke-miterlimit:10;" d="M131.8,364.5c0.7-0.1,1.2-0.4,1.8-0.6s2-0.6,3.2-1.1
				s3.1-2.2,5.2-2.6c1-0.2,2.1-0.4,3.1-0.4c1.3-0.1,2.5,0,4,0.1c2.1,0.2,4.2,0.2,6.3,0.1c1.3-0.1,2.6-0.3,3.9-0.6l0.9-0.2
				c3-0.6,6.5-1.3,8.4-1.6"/>
			<path style="fill:#84FFFF;stroke:#84FFFF;stroke-miterlimit:10;" d="M131.7,364.5c0.7-0.1,1.2-0.5,1.8-0.6
				c1.1-0.3,2.1-0.7,3.1-1.2c1.2-0.6,3.1-2.4,5.2-2.8c1-0.2,2.1-0.4,3.1-0.4c1.3,0,2.5,0.1,4,0.1c2.1,0.2,4.2,0.3,6.3,0.2
				c1.3-0.1,2.6-0.3,3.9-0.5l0.9-0.2c3.1-0.6,6.5-1.3,8.4-1.6"/>
			<path style="fill:#84FFFF;stroke:#84FFFF;stroke-miterlimit:10;" d="M137.3,362.1c1.1-0.8,2.7-2.1,4.4-2.4c1-0.2,2.1-0.3,3.1-0.4
				c1.3,0,2.5,0.1,4,0.2c2.1,0.3,4.3,0.4,6.4,0.3c1.3-0.1,2.6-0.2,3.9-0.5l0.9-0.2c3.2-0.6,6.5-1.3,8.5-1.6"/>
			<path style="fill:#84FFFF;stroke:#84FFFF;stroke-miterlimit:10;" d="M131.7,364.5c0.7-0.1,1.2-0.5,1.8-0.6
				c1.1-0.3,2.1-0.8,3.1-1.3c0.3-0.1,0.5-0.3,0.8-0.5"/>
			<path style="fill:#84FFFF;stroke:#84FFFF;stroke-miterlimit:10;" d="M131.6,364.5c0.7-0.1,1.2-0.5,1.8-0.7
				c1.1-0.4,2.1-0.8,3.1-1.4c1.1-0.6,3-2.6,5.2-3c2.5-0.6,4.5-0.3,7.2-0.1c2.7,0.4,6.3,0.8,10.3-0.1c3.6-0.7,7.3-1.5,9.4-1.8"/>
		</g>
		<g id="pronator_quadratus_2">
			<path style="fill:#84FFFF;stroke:#84FFFF;stroke-miterlimit:10;" d="M146.4,359.1c3.1,0.5,6.2,0.7,9.3,0.6c2.2,0,5.4-0.8,5.4-0.8
				"/>
			<path style="fill:#84FFFF;stroke:#84FFFF;stroke-miterlimit:10;" d="M146.4,359.1c3.9,0.5,7,0.6,9,0.5c2.1,0,5.3-0.7,5.8-0.8"/>
			<path style="fill:#84FFFF;stroke:#84FFFF;stroke-miterlimit:10;" d="M146.4,359.1c3.6,0.4,6.7,0.5,8.8,0.5c2-0.1,5.1-0.6,6.2-0.7
				"/>
			<path style="fill:#84FFFF;stroke:#84FFFF;stroke-miterlimit:10;" d="M146.4,359.1c3.3,0.3,6.5,0.4,8.5,0.4s5-0.4,6.6-0.6"/>
			<path style="fill:#84FFFF;stroke:#84FFFF;stroke-miterlimit:10;" d="M146.4,359c3,0.1,6.3,0.4,8.2,0.3c1.9-0.1,4.9-0.3,6.9-0.5"
				/>
			<path style="fill:#84FFFF;stroke:#84FFFF;stroke-miterlimit:10;" d="M146.5,359c2.7,0,6.1,0.3,7.9,0.2c1.9,0,4.7-0.2,7.3-0.5"/>
			<path style="fill:#84FFFF;stroke:#84FFFF;stroke-miterlimit:10;" d="M146.5,359c2.4-0.1,5.8,0.2,7.7,0.1c1.9-0.1,4.6,0,7.7-0.4"
				/>
			<path style="fill:#84FFFF;stroke:#84FFFF;stroke-miterlimit:10;" d="M146.4,359c2.2-0.2,5.6,0.1,7.4,0.1s4.4,0.1,8.1-0.3"/>
		</g>
	</g>
</g>
<text transform="matrix(1 0 0 1 160.92 435.35)" style="font-family:'Roboto Condensed'; font-size:24px;">Quality</text>
<g>

	<g>
		<rect id="eda_quality_bar" x="159.7" y="495.3" style="fill:#2D3033;" width="70" height="15"/>
		<text id="eda_quality_percentage" transform="matrix(1 0 0 1 230.8838 507.7479)" style="font-family:'Roboto Condensed'; font-size:18px;">100%</text>
		<text transform="matrix(1 0 0 1 159.6652 493.164)" style="font-family:'Roboto Condensed'; font-size:18px;">EDA</text>
	</g>

	<g>
		<rect id="emg_quality_bar" x="159.7" y="458.2" style="fill:#FF4447;" width="70" height="15"/>
		<text id="emg_quality_percentage" transform="matrix(1 0 0 1 230.8838 470.79)" style="font-family:'Roboto Condensed'; font-size:18px;">100%</text>
		<text transform="matrix(1 0 0 1 159.6652 456.79)" style="font-family:'Roboto Condensed'; font-size:18px;">EMG</text>
	</g>

	<g>
	<rect id="ecg_quality_bar" x="159.7" y="534.1" style="fill:#257985;" width="70" height="15"/>
	<rect id="ecg_quality_bar_outline" x="159.7" y="534.1" width="70" height="15" style="fill:none;stroke:#257985;stroke-miterlimit:10;"/>
	<text id="ecg_quality_percentage" transform="matrix(1 0 0 1 230.8838 544.7053)" style="font-family:'Roboto Condensed'; font-size:18px;">100%</text>
	<text transform="matrix(1 0 0 1 159.6652 529.5387)" style="font-family:'Roboto Condensed'; font-size:18px;">ECG</text>
	</g>

	<rect id="emg_quality_bar_outline" x="160.1" y="458.2" style="fill:none;stroke:#FF4447;stroke-miterlimit:10;" width="70" height="15"/>
	<rect id="eda_quality_bar_outline" x="160.1" y="495.3" style="fill:none;stroke:#2D3033;stroke-miterlimit:10;" width="70" height="15"/>

	<text transform="matrix(1 0 0 1 -11.5767 618.152)" style="font-family:'Roboto Condensed'; font-size:24px;">AREA</text>

	<path d="M-70.1,582.5c-0.3-0.1-0.7-0.1-1,0c-0.2,0.1-0.3,0.2-0.4,0.3l-5.2,5.2c-0.5,0.5-0.5,1.3-0.1,1.8c0,0,0,0,0.1,0.1
		c0.5,0.5,1.3,0.5,1.8,0.1c0,0,0,0,0.1-0.1l3-2.9v30.2l-3-3c-0.5-0.5-1.3-0.5-1.8-0.1c0,0,0,0-0.1,0.1c-0.5,0.5-0.5,1.3-0.1,1.8
		c0,0,0,0,0.1,0.1l5.2,5.2c0.1,0.1,0.3,0.2,0.4,0.3c0.3,0.1,0.7,0.1,1,0c0.4-0.1,0.6-0.4,0.8-0.7c0-0.2,0-0.3,0-0.5v-36.5
		c0-0.2,0-0.3,0-0.5C-69.4,583-69.7,582.7-70.1,582.5z"/>
	<path d="M-19.8,632.8c-0.1-0.3-0.4-0.6-0.7-0.7c-0.2,0-0.3,0-0.5,0h-36.6c-0.2,0-0.3,0-0.5,0c-0.3,0.1-0.6,0.4-0.7,0.7
		c-0.1,0.3-0.1,0.7,0,1c0.1,0.2,0.2,0.3,0.3,0.4l5.2,5.2c0.5,0.5,1.3,0.5,1.8,0.1c0,0,0,0,0.1-0.1c0.5-0.5,0.5-1.3,0.1-1.8
		c0,0,0,0-0.1-0.1l-3-3h30.2l-3,3c-0.5,0.5-0.5,1.3-0.1,1.8c0,0,0,0,0.1,0.1c0.5,0.5,1.3,0.5,1.8,0.1c0,0,0,0,0.1-0.1l5.2-5.2   
		c0.1-0.1,0.2-0.3,0.3-0.4C-19.7,633.5-19.7,633.2-19.8,632.8z"/>
	<path d="M-22.8,582.5h-38.3c-1.7,0-3,1.3-3,3v38.3c0,1.7,1.3,3,3,3h38.3c1.7,0,3-1.3,3-3v-38.3C-19.8,583.9-21.1,582.5-22.8,582.5z
		 M-25.4,624.2h-33.1c-1.7,0-3-1.3-3-3v-33.1c0-1.7,1.3-3,3-3h33.1c1.7,0,3,1.3,3,3v33.1C-22.4,622.9-23.7,624.2-25.4,624.2z"/>
	<text id="area_text" transform="matrix(1 0 0 1 100.5633 621.604)" style="font-family:'Roboto Condensed'; font-size:46px;">0000</text>
	<text transform="matrix(1 0 0 1 40.1447 618.1517)" style="font-family:'Roboto Condensed'; font-size:24px;">(cm</text>
	<text transform="matrix(0.583 0 0 0.583 78.2892 610.1595)" style="font-family:'Roboto Condensed'; font-size:24px;">2</text>
	<text transform="matrix(1 0 0 1 85.1447 618.1517)" style="font-family:'Roboto Condensed'; font-size:24px;">):</text>

	<g>
	<!--<rect id="overall_quality_bar" x="159.7" y="568" style="fill:#7C4DFF;" width="70" height="15"/>
	<rect id="overall_quality_bar_outline" x="159.7" y="568" style="fill:none;stroke:#7C4DFF;stroke-miterlimit:10;" width="70" height="15"/>
	<text id="overall_quality_percentage" transform="matrix(1 0 0 1 230.8837 581.6628)" style="font-family:'Roboto Condensed'; font-size:18px;">100%</text>
	<text transform="matrix(1 0 0 1 159.6651 565.9128)" style="font-family:'Roboto Condensed'; font-size:18px;">Overall</text>-->
	</g>
</g>	
</svg>
