<?xml version="1.0" encoding="utf-8"?>
<!-- Generator: Adobe Illustrator 22.0.0, SVG Export Plug-In . SVG Version: 6.00 Build 0)  -->
<svg version="1.1" id="Layer_1" xmlns="http://www.w3.org/2000/svg" xmlns:xlink="http://www.w3.org/1999/xlink" x="0px" y="0px"
	 viewBox="0 0 374.2 283.5" style="enable-background:new 0 0 374.2 283.5;" xml:space="preserve">
<title>status_svg_v2</title>
<path style="fill:none;stroke:#7986FC;stroke-width:0.5;stroke-miterlimit:10;" d="M84,179.3h2.2c0.2,0.1,0.5,0,0.7,0
	c3.1,0,6.2,0.5,9.2,1.5c1.7,0.5,3.4,1.2,5,2c2.4,1.2,4.5,2.7,6.5,4.4c2.1,1.9,3.9,4.1,5.3,6.5c1.6,2.7,2.7,5.6,3.3,8.7
	c0.3,1.5,0.5,3,0.5,4.5v4.2c0,2-0.3,4-0.7,5.9c-0.7,3.1-1.7,6.2-3,9.1c-1.3,2.8-2.7,5.6-4.3,8.2c-1.8,2.8-3.7,5.6-5.7,8.2
	c-1.5,2-3.1,3.9-4.8,5.8c-1.3,1.5-2.6,3-4,4.4c-0.7,0.7-1.4,1.4-2.1,2.2c-1.2,1.3-2.5,2.6-3.7,3.8s-2.4,2.4-3.7,3.5
	s-2.6,2.3-3.8,3.5s-2.7,2.4-4.1,3.5c-2.5,2.1-5.1,4.2-7.6,6.3c-2.2,1.7-4.3,3.4-6.6,5.1c-0.6,0.4-1.2,0.9-1.8,1.3s-0.8,0.4-1.4,0
	c-1.8-1.4-3.6-2.8-5.4-4.3s-3.5-2.9-5.2-4.3c-1.5-1.3-3.1-2.6-4.6-3.9s-3-2.6-4.4-3.9l-3.2-2.9c-1.1-1.1-2.3-2.1-3.4-3.2
	s-2.3-2.3-3.5-3.4c-1.2-1.1-2.4-2.4-3.5-3.6c-1.7-1.7-3.2-3.4-4.8-5.2c-2.2-2.5-4.3-5-6.2-7.7c-2.2-3-4.2-6.1-6-9.3
	c-1.6-2.8-2.9-5.8-3.9-8.9c-0.7-2.2-1.2-4.4-1.6-6.6c-0.1-0.6-0.1-1.1-0.1-1.7c0-0.8,0-1.6,0-2.4v-2c0-3,0.4-5.9,1.4-8.7
	c0.5-1.8,1.2-3.5,2.1-5.1c1-2.1,2.4-4,3.9-5.7c1.9-2.2,4.1-4.1,6.6-5.5c2.3-1.3,4.8-2.4,7.4-3.1c1.6-0.5,3.2-0.8,4.9-0.9
	c1.3-0.1,2.6-0.1,4-0.1s2.7,0,4.1,0.1c1.6,0.2,3.1,0.5,4.6,0.9c1.7,0.5,3.4,1.1,5,1.9c2,1,3.8,2.3,5.5,3.8c2.6,2.3,4.8,5,6.5,8
	c0.2,0.3,0.3,0.5,0.4,0.8c0.2,0.3,0.3,0.3,0.5,0c0.6-1,1.1-2,1.8-3c1.5-2.3,3.3-4.3,5.4-6.1c1.9-1.7,4-3.1,6.2-4.2
	c2.3-1.1,4.8-1.8,7.3-2.2c0.9-0.1,1.8-0.2,2.7-0.2L84,179.3z"/>
<rect x="-1.5" y="2.5" style="fill:#3E4EC2;" width="374.8" height="28.3"/>
<text transform="matrix(1 0 0 1 156.2916 21.3323)" style="fill:#FEFEFE; font-family:'Roboto Condensed'; font-size:24px;">Status</text>
<path style="fill:#0A0000;" d="M41,218.7c-0.2,3.5-0.4,6.9-0.6,10.4c-0.1,0.9-0.2,1.8-0.3,2.7c0,0.4-0.2,0.7-0.6,0.8
	c-0.4,0.1-0.9-0.1-1-0.5c0,0,0,0,0,0c-0.2-1-1-1.8-2-2c-0.9-0.2-0.7-1.5-1.2-2.2c-0.2-0.1-0.4,0.1-0.4,0.3c-0.2,1.9-1.5,2.2-3.1,2.2
	c-3.2-0.1-6.3-0.1-9.5-0.1c-0.6,0-1.4,0.1-1.4-0.9s0.9-0.9,1.5-0.9c3.1,0,6.2-0.1,9.3,0c0.8,0,1.3-0.2,1.5-1
	c0.3-1.1,0.7-2.2,1.1-3.2c0.2-0.5,0.4-0.9,1-0.8s0.7,0.4,0.8,0.8c0.4,1,0.7,2,1,3c0.2,0.5,0.1,1.4,0.9,1.3s0.5-0.9,0.5-1.3
	c0.4-5.4,0.7-10.9,1-16.3c0.2-3.6,0.4-7.1,0.6-10.7c0-0.3,0.1-0.5,0.1-0.8c0.1-0.6,0.3-1,0.9-1s0.8,0.5,0.9,1
	c0.2,2.6,0.4,5.2,0.5,7.8l1.5,24.1c0.5,0,0.4-0.3,0.4-0.6c0.2-2,0.3-2.1,2.2-2.1c1.4,0.1,2.7-0.3,3.8-1.2c1.5-1.4,3.9-1.4,5.4,0
	c1.2,1.1,2.5,1,3.9,1.1c1.9,0.1,2.8-0.6,3.1-2.3c0.2-0.7,0.5-1.4,0.9-2c0.5-0.9,1.3-0.9,1.7,0c0.5,1.1,0.8,2.2,1.2,3.3
	c0.1,0.3,0.2,0.8,0.6,0.8c0.6,0,0.5-0.6,0.5-0.9c0.5-6.3,0.9-12.7,1.3-19c0.2-2.6,0.4-5.2,0.5-7.8c0-0.7,0.1-1.3,1-1.3
	s0.9,0.7,0.9,1.3c0.3,4.5,0.6,9,0.8,13.6c0.3,5.3,0.8,10.7,0.9,16c0,0.1,0.1,0.2,0.1,0.3s0.3,0,0.3-0.1c0.6-2.1,0.6-2.1,2.8-1.9
	c1.4,0.2,2.9-0.2,4-1.1c1.7-1.4,3.6-1.3,5.4,0.2c0.7,0.7,1.7,1,2.7,0.9c2.2-0.1,4.4-0.1,6.6-0.1c0.5,0,1-0.1,1.4-0.4
	c0.6-0.5,1.6-0.4,2.1,0.2c0.5,0.5,0.5,1.3,0.1,1.9c-0.3,0.7-1.1,1-1.8,0.6c-0.1,0-0.2-0.1-0.2-0.1c-0.6-0.3-1.3-0.5-2-0.4
	c-2.4,0-4.8,0-7.1,0.1c-1,0.1-1.9-0.3-2.6-1c-1.4-1.4-2.6-1.5-3.9-0.1c-1,1-2.4,1.4-3.8,1.1c-1.4-0.2-1.8,0.3-1.9,1.6
	c-0.3,4.2-0.7,8.3-1.1,12.5c0,0.2,0,0.5-0.1,0.7c-0.1,0.5-0.2,1.1-1,1.1s-0.8-0.6-0.9-1.1c-0.1-0.3,0-0.5-0.1-0.8
	c-0.5-8.8-1.1-17.5-1.6-26.4c0-0.3-0.1-0.6-0.4-0.8c-0.1,1.9-0.3,3.8-0.4,5.7l-0.6,8.4c0,0.6,0,1.3-0.8,1.4s-1.1-0.6-1.2-1.2
	c-0.1-0.8-0.7-1.4-1.5-1.5c-1.1-0.3-0.8-1.6-1.4-2.3c-0.2,0-0.3,0.1-0.4,0.3c-0.4,2.1-1.8,2.6-3.7,2.4c-0.7-0.1-1.4-0.1-2.1,0
	c-1.2,0.2-2.5-0.3-3.3-1.2c-0.8-1.1-2.3-1.3-3.4-0.5c-0.2,0.1-0.4,0.3-0.5,0.5c-0.9,0.9-2.2,1.4-3.5,1.2c-1.3-0.1-1.5,0.5-1.6,1.6
	c-0.3,4-0.7,8-1.2,12c-0.1,0.8,0.2,2.2-1.1,2.1s-0.9-1.4-0.9-2.1c-0.5-6.7-0.9-13.3-1.3-20c-0.1-1.6-0.2-3.1-0.3-4.7
	C41.4,218.9,41.3,218.8,41,218.7z"/>
<path style="fill:#0E210F;" d="M388.1,63.1L388.1,63.1c0.1,0.7,0.1,1.5,0.1,2.2h-0.1V63.1z"/>
<path style="fill:#235125;" d="M471.7,34L471.7,34c-0.2,0.1-0.5,0.1-0.7,0H471.7z"/>
<path style="fill:#245426;" d="M468.2,34.1L468.2,34.1c0.2-0.1,0.3-0.1,0.5-0.1C468.5,34.1,468.3,34.1,468.2,34.1z"/>
<g>
	<path style="fill:none;stroke:#7986FC;stroke-width:0.5;stroke-miterlimit:10;" d="M243.5,240.2c-1,1-2.5,1.4-3.9,1
		c-1.5-0.3-3-0.9-4.3-1.6c-4.1-1.8-8-1.7-11.7,1.3c-1.2,1-2.5,1.8-3.8,2.5c-0.7,0.4-1.5,0.4-2.2,0c-1.4-0.7-2.6-1.6-3.8-2.6
		c-2.5-1.6-5.6-2.2-8.5-1.6c0-0.9,0-1.8,0.1-2.8c0.6-2.6,1.6-3.4,4.5-3.4h34.5c1.6,0,2.9-1.3,2.9-2.9c0-1.6-1.3-2.9-2.9-2.9
		c0,0,0,0,0,0h-17.7c-0.3-1.3-0.5-2.5-0.8-3.8c-1.7-7.1-4.4-13.9-8-20.2c-1.8-3.2-3.8-6.3-6.2-9.2c-0.4-0.5-0.9-0.7-1.3-0.4
		s-0.5,0.8-0.3,1.4c0.8,1.4,1.7,3,2.4,4.5c2.7,5.2,4.8,10.7,6.2,16.4c0.4,1.7,0.6,3.5,0.6,5.3c0,1.8-0.3,3.6-0.9,5.3
		c-0.1,0.3-0.1,0.5-0.3,0.8h-8.3c-5.5,0-8.9,2.6-10.1,8.1v0.3c-0.9,6.3,1.4,12.6,1.6,13c0.5,1.3,1.1,2.5,1.8,3.7
		c0.4,0.8,0.8,1.6,1.2,2.4c2.8,5.9,1.4,14-2.9,18.1c-2.4,2.2-5.5,3.4-8.8,3.5h-0.1c-0.4,0-0.9,0-1.3,0.1h-2.4
		c-0.6-0.1-1.2-0.1-1.8-0.3s-1.3-0.1-1.8-0.3c-5.7-1.2-10-6-10.5-11.8c-0.5-3.7,0.2-7.5,2-10.8l0.4-0.8c1.2-2.2,2.2-4.5,2.9-6.8
		c0.1-0.3,1.8-6.7,0-12.3v-0.1c-1.3-3.7-4.9-6.1-8.8-6h-14c-0.3-1.6-0.5-3.9-0.9-5.4c-1.7-7.1-4.4-13.9-8-20.2
		c-1.8-3.2-3.8-6.3-6.2-9.2c-0.3-0.5-0.8-0.6-1.3-0.4c-0.5,0.3-0.5,0.8-0.3,1.4c0.8,1.4,1.7,3,2.4,4.5c2.7,5.2,4.8,10.7,6.2,16.4
		c0.4,1.7,0.6,3.5,0.7,5.3c0,1.8-0.4,3.6-0.9,5.3c-0.3,0.8-0.5,1.6-0.7,2.4h-13.9c-1.6,0-2.9,1.3-2.9,2.9c0,1.6,1.3,2.9,2.9,2.9H171
		c1.5-0.1,2.8,0.8,3.3,2.2c0.5,1.9,0.6,3.8,0.4,5.8c-1.8-0.3-3.6-0.9-5.3-1.6c-3.9-1.7-7.6-1.4-11,1.3c-1.2,0.9-2.4,1.7-3.7,2.4
		c-0.9,0.6-2.2,0.6-3.1,0c-1-0.7-2-1.3-2.9-2c-1.7-1.5-3.9-2.3-6.2-2.1c-3.1,0.3-5.9,1.9-7.9,4.3c-0.9,1-0.9,2.1-0.1,2.9
		s2,0.5,2.9-0.4c0.9-1,1.9-1.8,3.1-2.4c1.7-0.9,3.8-0.8,5.4,0.4c1.4,1.1,2.8,2,4.3,2.9c1.9,1.1,4.2,1,6-0.1c1.4-0.7,2.7-1.5,3.9-2.5
		c2.5-2.2,5.3-2.4,8.3-0.9c1.8,0.7,3.6,1.2,5.5,1.6c-0.6,1.7-1.3,3.4-2.2,5l-0.4,0.8c-2.3,4.4-3.1,9.3-2.5,14.2
		c1,9.2,8.3,16.4,17.5,17.2c0.5,0,1.1,0.1,1.6,0.3h3.7c0.3,0,0.6,0,0.9-0.1h0.7c4.5-0.2,8.9-2,12.2-5.1c6.3-5.8,8.1-16.4,4.2-24.8
		c-0.4-0.9-0.8-1.8-1.3-2.6c-0.5-1.2-1.2-2.2-1.6-3.1c0,0-0.4-1.2-0.8-2.9c1.9-1.2,4.5-1,6.2,0.5c1.1,0.9,2.3,1.7,3.6,2.4
		c2,1.3,4.5,1.3,6.6,0.1c1.7-0.9,3.3-2,4.7-3.1c1.4-1.2,3.3-1.6,5.1-1.1c0.9,0.2,1.8,0.6,2.6,0.9c2.2,1.2,4.7,1.7,7.2,1.7
		c1.8-0.1,3.5-1,4.6-2.4c0.6-0.8,0.6-1.9-0.1-2.6C245.3,239.6,244.3,239.5,243.5,240.2z"/>
	<path style="fill:none;stroke:#7986FC;stroke-width:0.5;stroke-miterlimit:10;" d="M170.2,193.1c5.1,10.5,9.9,21.3,12.3,32.8
		c0.9,3.4,1.3,7,1.2,10.5c-0.2,3.6-0.8,7.1-1.8,10.5c-0.9,3.6-2.4,7-2.1,10.8v1.8c0.3,3,0.9,5.8,3.3,7.9c4.2,3.8,11.4,2.5,14.3-2.6
		c1.6-3,2.2-6.5,1.8-9.9c-0.3-4.8-1.1-9.5-2.4-14.2c-3.4-14.1-8.8-27.7-15.9-40.4c-3.6-6.5-7.8-12.7-12.5-18.4
		c-0.9-1-1.8-1.3-2.8-0.7c-0.9,0.6-1.1,1.8-0.6,2.7c0,0.1,0.1,0.1,0.2,0.2C167.1,187,168.7,190,170.2,193.1z"/>
	<path style="fill:none;stroke:#7986FC;stroke-width:0.5;stroke-miterlimit:10;" d="M234.7,256L234.7,256c-3.6-0.1-6.6,2.8-6.7,6.4
		c0,0.1,0,0.1,0,0.2c-0.1,3.7,2.8,6.7,6.5,6.8c0,0,0.1,0,0.1,0l0,0c3.7,0.1,6.8-2.9,6.8-6.6c0-0.1,0-0.1,0-0.2c0-1.8-0.7-3.5-2-4.7
		C238.1,256.6,236.4,256,234.7,256z M237,265.1c-0.7,0.6-1.6,1-2.5,0.9c-1.8,0-3.2-1.4-3.2-3.2c0-0.1,0-0.2,0-0.2
		c0-1.8,1.4-3.3,3.2-3.3c0,0,0,0,0.1,0l0,0c0.9,0,1.7,0.3,2.4,0.9c0.6,0.6,0.9,1.4,0.9,2.2C238,263.4,237.6,264.3,237,265.1
		L237,265.1z"/>
	<path style="fill:none;stroke:#7986FC;stroke-width:0.5;stroke-miterlimit:10;" d="M219,258.9c2.1,0,3.8-1.7,3.8-3.8
		c0-1-0.4-2-1.2-2.8c-1.6-1.5-4-1.5-5.6,0.1c-0.7,0.7-1.1,1.7-1.1,2.7C215.2,257.2,216.9,258.8,219,258.9L219,258.9z M218.1,254.9
		c0-0.2,0.1-0.5,0.3-0.7c0.2-0.2,0.4-0.3,0.6-0.3l0,0c0.3,0,0.4,0.1,0.7,0.3c0.2,0.2,0.3,0.4,0.3,0.7c0,0.5-0.4,0.9-0.9,0.9
		c0,0,0,0-0.1,0l0,0C218.5,255.8,218.2,255.4,218.1,254.9L218.1,254.9z"/>
	<path style="fill:none;stroke:#7986FC;stroke-width:0.5;stroke-miterlimit:10;" d="M219.6,266.5L219.6,266.5
		c-1.9,0-3.7,0.8-5.1,2.1c-2.8,2.7-2.8,7.2-0.1,10c1.3,1.4,3.2,2.1,5.1,2.1l0,0c1.9,0,3.7-0.8,5.1-2.1c1.4-1.3,2.1-3.1,2-5
		C226.5,269.7,223.4,266.6,219.6,266.5z M221.8,275.9c-0.6,0.6-1.5,1-2.4,1l0,0c-1.7,0-3.1-1.4-3.1-3.1c0-0.9,0.3-1.7,0.9-2.4
		c0.6-0.6,1.5-1,2.4-0.9l0,0c1.8,0.1,3.1,1.5,3.1,3.3C222.7,274.5,222.4,275.3,221.8,275.9L221.8,275.9z"/>
	<path style="fill:none;stroke:#7986FC;stroke-width:0.5;stroke-miterlimit:10;" d="M143.4,260.5L143.4,260.5c-1.1,0-2.2,0.4-3,1.2
		c-0.8,0.8-1.2,1.8-1.3,2.9c0,2.3,1.9,4.1,4.2,4.1c0,0,0,0,0,0l0,0c2.2,0,4-1.7,4.1-3.9c0,0,0-0.1,0-0.1c0-1.1-0.4-2.1-1.2-2.9
		C145.5,260.9,144.5,260.5,143.4,260.5z M143.4,266.6L143.4,266.6c-1.1,0.1-2-0.8-2.1-1.9c0,0,0-0.1,0-0.1c0-0.5,0.2-1.1,0.5-1.5
		c0.4-0.4,1-0.7,1.6-0.6l0,0c0.5,0,1,0.2,1.4,0.5c0.4,0.4,0.6,0.9,0.5,1.5C145.4,265.6,144.6,266.6,143.4,266.6
		C143.4,266.6,143.4,266.6,143.4,266.6z"/>
	<path style="fill:none;stroke:#7986FC;stroke-width:0.5;stroke-miterlimit:10;" d="M159.3,250.7c-3.4,0-6.2,2.7-6.3,6.2
		c-0.1,3.5,2.7,6.4,6.2,6.6h0.1c3.4-0.1,6.2-2.8,6.3-6.2c0.1-1.7-0.6-3.3-1.7-4.5C162.7,251.6,161.1,250.8,159.3,250.7z
		 M159.3,259.7c-1.5,0-2.6-1.2-2.6-2.7c0,0,0,0,0,0c0.1-1.4,1.2-2.5,2.6-2.6l0,0c0.8,0,1.5,0.4,2,0.9c0.5,0.5,0.8,1.1,0.8,1.8
		C162,258.5,160.8,259.7,159.3,259.7z"/>
	<path style="fill:none;stroke:#7986FC;stroke-width:0.5;stroke-miterlimit:10;" d="M158.9,266.6L158.9,266.6c-2.7,0-4.9,2.1-5,4.9
		l0,0c0,2.7,2.2,4.9,4.8,4.9c0,0,0,0,0,0h0.1c2.7,0,4.8-2.1,4.9-4.8c0-1.3-0.5-2.5-1.3-3.4C161.4,267.3,160.2,266.8,158.9,266.6z
		 M158.9,273.9L158.9,273.9c-1.2-0.1-2.2-1.2-2.1-2.4c0.1-1.1,1-2,2.1-2.1l0,0c0.6,0,1.1,0.3,1.6,0.7c0.4,0.4,0.7,1,0.7,1.6
		C161.1,272.8,160.1,273.8,158.9,273.9z"/>
</g>
<text transform="matrix(1 0 0 1 181.9616 55.0323)" style="font-family:'Roboto Condensed'; font-size:24px;">EMG</text>
<text transform="matrix(1 0 0 1 33.6316 175.0923)" style="font-family:'Roboto Condensed'; font-size:24px;">ECG</text>
<text transform="matrix(1 0 0 1 175.3416 176.0923)" style="font-family:'Roboto Condensed'; font-size:24px;">E</text>
<text transform="matrix(1 0 0 1 187.2616 176.0923)" style="font-family:'Roboto Condensed'; font-size:24px;">D</text>
<text transform="matrix(1 0 0 1 200.7116 176.0923)" style="font-family:'Roboto Condensed'; font-size:24px;">A</text>
<g>
	
		<image style="overflow:visible;enable-background:new    ;" width="1295" height="3637" xlink:href="76F6D613.png"  transform="matrix(5.510911e-18 -9.000000e-02 9.000000e-02 5.510911e-18 44.5316 152.7023)">
	</image>
	<g>
		<path style="fill:none;stroke:#72BF46;stroke-miterlimit:10;" d="M56.4,143.2c31.4,7.6,58.5,4.1,79.7-0.5s110.1-11.5,132.1-14.2"
			/>
		<path style="fill:none;stroke:#72BF46;stroke-miterlimit:10;" d="M56.6,143.1c29,7,58.6,3.1,79.6-1.7c20-3.8,111.8-11,132.6-13.8"
			/>
		<path style="fill:none;stroke:#72BF46;stroke-miterlimit:10;" d="M56.7,143.1c26.6,6.3,58.9,2,79.4-3
			c18.8-3,113.4-10.7,132.9-13.3"/>
		<path style="fill:none;stroke:#72BF46;stroke-miterlimit:10;" d="M56.9,143c24.1,5.6,59,0.9,79.3-4.1
			c17.5-2.1,115.1-10.3,133.4-12.9"/>
		<path style="fill:none;stroke:#72BF46;stroke-miterlimit:10;" d="M57,143c21.7,5.1,59.2-0.2,79.2-5.4
			c16.2-1.3,116.7-9.9,133.9-12.4"/>
		<path style="fill:none;stroke:#72BF46;stroke-miterlimit:10;" d="M57.2,142.9c19.3,4.4,59.4-1.3,79.1-6.6
			c15.1-0.4,118.4-9.5,134.3-12"/>
		<path style="fill:none;stroke:#72BF46;stroke-miterlimit:10;" d="M57.4,142.9c16.9,3.8,59.6-2.3,79-7.8
			c13.8,0.5,120-9.2,134.8-11.5"/>
	</g>
	<g>
		<path style="fill:none;stroke:#CEB22C;stroke-miterlimit:10;" d="M58.4,140.1c18.9,3.7,65.4-3.3,92-11.3
			c31.9-6.8,98.9-20.8,108.4-21s15.2-1.7,27.6,3.9"/>
		<path style="fill:none;stroke:#CEB22C;stroke-miterlimit:10;" d="M58.6,140c17,2.9,55.1-2.4,81.6-9.3c3.6-0.8,7-1.7,10.1-2.5
			c9.3-1.8,21.4-4.4,34.3-7c23.1-4.7,49.2-10,64.1-12.5c3.3-0.7,6.6-1.1,10-1.3c9.7-0.2,15.6-1.6,27.6,3.4"/>
		<path style="fill:none;stroke:#CEB22C;stroke-miterlimit:10;" d="M58.7,139.9c17.5,2.5,55.3-3,81.4-10c3.6-0.8,7-1.5,10.1-2.3
			c9.4-1.7,21.4-4.1,34.3-6.7c22.7-4.6,48.6-9.9,63.9-12.5c3.3-0.6,6.6-1.1,10-1.4c9.8-0.3,16.2-1.6,27.6,3.1"/>
		<path style="fill:none;stroke:#CEB22C;stroke-miterlimit:10;" d="M58.9,139.9c17.8,2.3,55.5-3.4,81.1-10.8c3.6-0.7,7-1.4,10.1-2.2
			c9.5-1.6,21.4-3.9,34.3-6.4c22.1-4.5,48.1-9.7,63.8-12.5c3.3-0.7,6.6-1.1,9.9-1.4c9.9-0.5,16.7-1.5,27.6,2.8"/>
		<path style="fill:none;stroke:#CEB22C;stroke-miterlimit:10;" d="M59.1,139.8c18.3,1.9,55.8-4,80.8-11.5c3.6-0.6,7-1.3,10.1-1.9
			c9.8-1.5,21.3-3.7,34.3-6.2c21.6-4.4,47.5-9.6,63.7-12.5c3.3-0.7,6.6-1.1,9.9-1.4c10-0.6,17.3-1.5,27.6,2.4"/>
		<path style="fill:none;stroke:#CEB22C;stroke-miterlimit:10;" d="M59.2,139.8c18.6,1.6,55.9-4.5,80.6-12.3c3.6-0.6,7-1.2,10.1-1.7
			c9.9-1.4,21.3-3.4,34.2-6c21-4.1,47-9.3,63.6-12.5c3.3-0.7,6.6-1.1,9.9-1.4c10.1-0.7,17.8-1.4,27.6,2.1"/>
		<path style="fill:none;stroke:#CEB22C;stroke-miterlimit:10;" d="M59.4,139.7c19.1,1.3,56.1-5.1,80.4-13c3.6-0.5,7-1,10.2-1.6
			c10-1.3,21.3-3.2,34.2-5.8c20.6-4,46.5-9.2,63.5-12.5c3.3-0.7,6.6-1.2,9.9-1.5c10.2-0.7,18.3-1.3,27.6,1.7"/>
		<path style="fill:none;stroke:#CEB22C;stroke-miterlimit:10;" d="M59.5,139.7c19.5,0.9,56.4-5.6,80-13.8c3.6-0.5,7-0.9,10.2-1.4
			c10.1-1.2,21.3-3,34.2-5.5c20-3.9,45.9-9.1,63.4-12.5c3.3-0.7,6.6-1.2,9.9-1.5c10.4-0.8,18.9-1.3,27.6,1.3"/>
		<path style="fill:none;stroke:#CEB22C;stroke-miterlimit:10;" d="M59.7,139.5c19.9,0.6,56.6-6.1,79.8-14.5
			c3.6-0.3,6.9-0.7,10.2-1.2c10.2-1,21.2-2.9,34.1-5.3c19.6-3.7,45.3-8.8,63.3-12.5c3.2-0.7,6.5-1.2,9.8-1.5
			c10.4-0.9,19.3-1.2,27.6,0.9"/>
		<path style="fill:none;stroke:#CEB22C;stroke-miterlimit:10;" d="M59.9,139.4c20.4,0.2,56.8-6.7,79.6-15.3c3.6-0.2,6.9-0.6,10.2-1
			c10.4-0.9,21.2-2.7,34.2-4.9c19-3.6,44.7-8.7,63.1-12.5c3.7-0.8,7-1.3,9.8-1.6c10.5-0.9,19.9-1.2,27.6,0.6"/>
		<path style="fill:none;stroke:#CEB22C;stroke-miterlimit:10;" d="M59.9,139.4c20.7-0.1,57-7.2,79.2-16c3.6-0.2,6.9-0.5,10.2-0.8
			c11.4-1,22.8-2.6,34-4.7c18.5-3.4,44.3-8.5,63-12.5c3.2-0.7,6.5-1.3,9.8-1.6c10.6-1,20.5-1,27.6,0.2"/>
		<path style="fill:none;stroke:#CEB22C;stroke-miterlimit:10;" d="M60.2,139.3c21.2-0.5,57.3-7.7,79-16.7c3.6-0.1,6.9-0.3,10.2-0.6
			c11.4-0.8,22.8-2.3,34-4.5c17.9-3.2,43.7-8.4,62.9-12.5c3.2-0.7,6.5-1.3,9.8-1.6c9.2-1,18.4-1.1,27.6-0.1"/>
		<path style="fill:none;stroke:#CEB22C;stroke-miterlimit:10;" d="M60.3,139.3c21.5-0.8,57.4-8.3,78.8-17.5
			c3.6-0.1,6.9-0.2,10.2-0.5c11.4-0.7,22.8-2.1,34-4.3c17.5-3.1,43.1-8.2,62.8-12.5c3.2-0.8,6.5-1.3,9.8-1.6
			c9.2-0.9,18.4-1.1,27.6-0.5"/>
		<path style="fill:none;stroke:#CEB22C;stroke-miterlimit:10;" d="M60.5,139.2c22-1.1,57.6-8.7,78.5-18.2c15.1,0,27.4-1.3,44.3-4.3
			s42.6-8,62.7-12.5c13.3-3.2,30-2.4,37.4-2.5"/>
	</g>
	<g>
		<path style="fill:none;stroke:#B596C6;stroke-miterlimit:10;" d="M61.8,138.5c35.7-2.3,53.6-9.2,79.6-18.7S250.1,98,272.6,94.4"/>
		<path style="fill:none;stroke:#B596C6;stroke-miterlimit:10;" d="M272.5,94.1c-14.8,2.5-53,8-84.6,14
			c-19.1,3.6-36.7,7.2-46.7,10.7c-7.5,2.8-14.7,5.5-22.1,8c-16.1,5.3-32.5,9.3-57.2,11.5"/>
		<path style="fill:none;stroke:#B596C6;stroke-miterlimit:10;" d="M272.5,94c-15.5,2.7-53.9,8.3-84.6,13.9
			c-18.7,3.4-36.6,6.7-46.8,10.1c-7.1,2.6-14.5,5.6-22.1,8c-15.9,5.3-32.4,9.3-56.9,12.3"/>
		<path style="fill:none;stroke:#B596C6;stroke-miterlimit:10;" d="M272.4,93.8c-16.2,2.9-55,8.5-84.8,13.8
			c-18.4,3.3-36.3,6.2-46.9,9.7c-6.7,2.4-14.3,5.6-22,8.2c-15.5,5.2-32.3,9.3-56.7,13"/>
		<path style="fill:none;stroke:#B596C6;stroke-miterlimit:10;" d="M272.3,93.7c-16.9,3-56,8.7-84.8,13.7
			c-18.2,3.1-36.1,5.8-46.9,9.1c-6.3,2.3-14,5.6-22,8.3c-15.3,5.1-32.2,9.4-56.5,13.7"/>
		<path style="fill:none;stroke:#B596C6;stroke-miterlimit:10;" d="M272,93.4c-17.6,3.2-56.9,8.8-84.8,13.6c-17.8,3-36,5.3-47,8.5
			c-5.9,2.2-13.9,5.6-22,8.3c-15.1,4.9-32.1,9.4-56.2,14.5"/>
		<path style="fill:none;stroke:#B596C6;stroke-miterlimit:10;" d="M272,93.3c-18.4,3.3-58,9.1-84.8,13.3c-17.5,2.9-35.8,4.8-47.1,8
			c-5.5,2.1-13.7,5.6-21.8,8.4c-14.7,4.9-32.1,9.4-55.9,15.2"/>
		<path style="fill:none;stroke:#B596C6;stroke-miterlimit:10;" d="M272,93.1c-19.1,3.6-58.9,9.2-84.9,13.2
			c-17.3,2.6-35.5,4.4-47.3,7.5c-5.1,1.8-13.5,5.6-21.8,8.5c-14.5,4.8-32,9.4-55.7,15.9"/>
		<path style="fill:none;stroke:#B596C6;stroke-miterlimit:10;" d="M271.9,93c-19.8,3.7-59.9,9.4-84.9,13.1
			c-16.9,2.5-35.3,3.9-47.3,6.9c-4.7,1.7-13.2,5.6-21.8,8.5c-14.1,4.7-31.8,9.5-55.4,16.5"/>
		<path style="fill:none;stroke:#B596C6;stroke-miterlimit:10;" d="M271.8,92.7c-20.5,3.9-60.9,9.5-84.9,13
			c-16.6,2.4-35.2,3.4-47.4,6.4c-4.4,1.6-13,5.6-21.7,8.6c-13.9,4.6-31.7,9.5-55.2,17.4"/>
		<path style="fill:none;stroke:#B596C6;stroke-miterlimit:10;" d="M271.7,92.6c-21.2,4-61.9,9.8-84.9,12.9
			c-16.3,2.2-34.9,3-47.5,5.9c-3.9,1.4-12.8,5.6-21.7,8.6c-13.7,4.6-31.6,9.6-55,18"/>
		<path style="fill:none;stroke:#B596C6;stroke-miterlimit:10;" d="M271.5,92.4c-21.9,4.3-62.9,9.9-84.9,12.8
			c-16,2.1-34.7,2.5-47.6,5.3c-3.6,1.3-12.5,5.6-21.7,8.7c-13.3,4.5-31.6,9.5-54.6,18.7"/>
		<path style="fill:none;stroke:#B596C6;stroke-miterlimit:10;" d="M271.5,92.3c-22.5,4.4-63.9,10-85,12.5
			c-15.6,2-34.5,2.1-47.6,4.8c-3.1,1.2-12.3,5.6-21.7,8.9c-13,4.4-31.4,9.5-54.4,19.4"/>
		<path style="fill:none;stroke:#B596C6;stroke-miterlimit:10;" d="M271.5,92.1c-23.2,4.6-64.9,10.2-85,12.4
			c-15.4,1.7-34.4,1.6-47.8,4.3c-2.8,1-12,5.8-21.6,9c-12.9,4.3-31.4,9.7-54.2,20.2"/>
		<path style="fill:none;stroke:#B596C6;stroke-miterlimit:10;" d="M271.4,91.9c-23.9,4.7-65.9,10.3-85,12.3
			c-15.1,1.6-34.1,1.2-47.8,3.7c-2.4,0.9-11.8,5.8-21.6,9c-12.7,4.3-31.3,9.8-53.9,20.9"/>
		<path style="fill:none;stroke:#B596C6;stroke-miterlimit:10;" d="M271.2,91.7c-24.6,5-66.9,10.5-85,12.2
			c-14.8,1.4-33.9,0.7-48,3.2c-2,0.7-11.6,5.8-21.6,9.1c-12.3,4.1-31.2,9.7-53.7,21.6"/>
		<path style="fill:none;stroke:#B596C6;stroke-miterlimit:10;" d="M271.2,91.6c-25.3,5.1-67.8,10.6-85.1,12.1
			c-14.5,1.3-33.8,0.2-48.1,2.7c-1.6,0.6-11.4,5.8-21.5,9.2c-12.1,4-31.1,9.8-53.5,22.4"/>
		<path style="fill:none;stroke:#B596C6;stroke-miterlimit:10;" d="M270.9,91.4c-26,5.3-68.9,10.7-85.1,12
			c-14.1,1-33.6-0.2-48.1,2.1c-1.1,0.5-11.2,5.8-21.5,9.2c-11.7,3.9-31,9.8-53.1,23.1"/>
		<path style="fill:none;stroke:#B596C6;stroke-miterlimit:10;" d="M270.9,91.2c-26.7,5.4-69.9,10.8-85.1,11.7
			c-13.9,0.8-33.4-0.7-48.2,1.6c-7,3.6-14.1,6.7-21.5,9.3c-11.5,3.9-30.9,9.8-52.9,23.8"/>
		<path style="fill:none;stroke:#B596C6;stroke-miterlimit:10;" d="M270.9,91c-27.4,5.6-70.8,10.9-85.1,11.6
			c-13.6,0.7-33.2-1.2-48.3,1c-6.9,3.6-14,6.8-21.3,9.5c-11.3,3.8-30.8,9.9-52.7,24.5"/>
		<path style="fill:none;stroke:#B596C6;stroke-miterlimit:10;" d="M270.8,90.9c-28.1,5.8-71.9,11-85.2,11.5s-32.9-1.6-48.3,0.5
			c-6.9,3.7-14,6.8-21.4,9.4c-10.9,3.7-30.7,9.9-52.4,25.3"/>
	</g>
	<g id="Biceps_copy">
		<g>
			<path style="fill:none;stroke:#4BB6E8;stroke-miterlimit:10;" d="M3.3,122.8c10.9,0.1,20.7-0.5,30.6-5.4s29.2-9.4,44.7-9.1"/>
			<path style="fill:none;stroke:#4BB6E8;stroke-miterlimit:10;" d="M3.2,121.4c11,0.1,20.8-0.1,30.9-4.8s29-8.8,45-8.5"/>
			<path style="fill:none;stroke:#4BB6E8;stroke-miterlimit:10;" d="M50.3,111c9.7-2.2,19.5-3.3,29.4-3.2"/>
			<path style="fill:none;stroke:#4BB6E8;stroke-miterlimit:10;" d="M26.1,118.5c2.9-0.6,5.8-1.5,8.5-2.8c5.1-2.1,10.4-3.7,15.8-4.8
				"/>
			<path style="fill:none;stroke:#4BB6E8;stroke-miterlimit:10;" d="M3.2,120c8.1,0.1,15.5,0.1,22.8-1.5"/>
			<path style="fill:none;stroke:#4BB6E8;stroke-miterlimit:10;" d="M3.1,118.6c11.4,0.2,21.3,0.5,31.6-3.6s28.5-7.7,45.5-7.5"/>
			<path style="fill:none;stroke:#4BB6E8;stroke-miterlimit:10;" d="M3.1,117.2c11.5,0.2,21.5,0.8,32-3s28.3-7.1,45.6-6.9"/>
			<path style="fill:none;stroke:#4BB6E8;stroke-miterlimit:10;" d="M3.1,116c11.6,0.3,21.7,1.2,32.3-2.4s28.1-6.6,45.9-6.3"/>
			<path style="fill:none;stroke:#4BB6E8;stroke-miterlimit:10;" d="M3.1,114.6c11.7,0.3,22,1.4,32.7-1.7s27.8-6,46-5.9"/>
			<path style="fill:none;stroke:#4BB6E8;stroke-miterlimit:10;" d="M2.9,113.2c11.8,0.3,22.1,1.7,33-1.2s27.6-5.4,46.2-5.3"/>
			<path style="fill:none;stroke:#4BB6E8;stroke-miterlimit:10;" d="M2.9,111.8c12.1,0.3,22.3,2.1,33.2-0.6
				c15.3-3.3,30.8-4.9,46.5-4.7"/>
			<path style="fill:none;stroke:#4BB6E8;stroke-miterlimit:10;" d="M2.7,110.5c12.2,0.5,22.5,2.3,33.6,0s27.1-4.3,46.7-4.3"/>
			<path style="fill:none;stroke:#4BB6E8;stroke-miterlimit:10;" d="M2.7,109.2c12.3,0.5,22.8,2.7,33.9,0.7s26.9-3.7,46.9-3.8"/>
			<path style="fill:none;stroke:#4BB6E8;stroke-miterlimit:10;" d="M2.6,107.8c12.4,0.5,23,2.9,34.3,1.3c15.6-2.2,31.3-3.2,47-3.1"
				/>
			<path style="fill:none;stroke:#4BB6E8;stroke-miterlimit:10;" d="M2.6,106.4c12.5,0.6,23.1,3.2,34.6,1.8
				c15.7-1.8,31.5-2.7,47.3-2.6"/>
			<path style="fill:none;stroke:#4BB6E8;stroke-miterlimit:10;" d="M2.5,105c12.8,0.6,23.4,3.6,35,2.5s26.2-2,47.5-2.1"/>
			<path style="fill:none;stroke:#4BB6E8;stroke-miterlimit:10;" d="M2.5,103.8c12.9,0.6,23.6,3.8,35.3,3.1s26-1.4,47.7-1.5"/>
			<path style="fill:none;stroke:#4BB6E8;stroke-miterlimit:10;" d="M2.5,102.4c13,0.7,23.8,4.1,35.7,3.7s25.8-0.8,48-1"/>
			<path style="fill:none;stroke:#4BB6E8;stroke-miterlimit:10;" d="M2.5,101c13.1,0.7,24,4.5,36,4.3s25.4-0.2,48.1-0.5"/>
			<path style="fill:none;stroke:#4BB6E8;stroke-miterlimit:10;" d="M2.3,99.6c13.2,0.7,24.1,4.7,36.3,4.9s25.2,0.3,48.3,0.1"/>
			<path style="fill:none;stroke:#4BB6E8;stroke-miterlimit:10;" d="M2.3,98.4c13.5,0.8,24.4,5.1,36.7,5.5s25.1,0.9,48.6,0.6"/>
			<path style="fill:none;stroke:#4BB6E8;stroke-miterlimit:10;" d="M2.2,97c13.6,0.8,24.6,5.4,36.9,6.1s24.7,1.5,48.8,1.2"/>
			<path style="fill:none;stroke:#4BB6E8;stroke-miterlimit:10;" d="M2.2,95.6c13.7,0.8,24.8,5.6,37.3,6.7c16.3,1.5,32.6,2.1,49,1.7
				"/>
			<path style="fill:none;stroke:#4BB6E8;stroke-miterlimit:10;" d="M2,94.2c13.8,0.9,25.1,6,37.6,7.4s24.3,2.7,49.2,2.2"/>
			<path style="fill:none;stroke:#4BB6E8;stroke-miterlimit:10;" d="M2,93c13.9,0.9,25.3,6.3,38,7.9s24,3.2,49.5,2.8"/>
			<path style="fill:none;stroke:#4BB6E8;stroke-miterlimit:10;" d="M1.9,91.6c14.1,0.9,25.4,6.6,38.3,8.5s23.8,3.8,49.6,3.3"/>
			<path style="fill:none;stroke:#4BB6E8;stroke-miterlimit:10;" d="M1.9,90.2c14.3,1,25.6,6.9,38.6,9.1s23.6,4.4,49.8,3.8"/>
			<path style="fill:none;stroke:#4BB6E8;stroke-miterlimit:10;" d="M1.9,88.8c14.4,1,25.9,7.2,39,9.8s23.3,5,50,4.4"/>
			<path style="fill:none;stroke:#4BB6E8;stroke-miterlimit:10;" d="M21.2,91.7c6.7,2.2,13.1,4.6,20,6.1c13.2,2.9,23.1,5.5,50.3,4.9
				"/>
			<path style="fill:none;stroke:#4BB6E8;stroke-miterlimit:10;" d="M1.7,87.5c6.6,0.6,13.1,2,19.3,4.3"/>
			<path style="fill:none;stroke:#4BB6E8;stroke-miterlimit:10;" d="M1.7,86.2c14.7,1,26.3,7.8,39.7,10.9s22.9,6.1,50.5,5.5"/>
			<path style="fill:none;stroke:#4BB6E8;stroke-miterlimit:10;" d="M1.6,84.8c14.8,1.2,26.5,8,40,11.6s22.6,6.6,50.6,6"/>
			<path style="fill:none;stroke:#4BB6E8;stroke-miterlimit:10;" d="M1.6,83.4c15,1.2,26.7,8.4,40.4,12.2s22.3,7.1,50.8,6.6"/>
			<path style="fill:none;stroke:#4BB6E8;stroke-miterlimit:10;" d="M1.5,82c15.1,1.2,26.9,8.7,40.6,12.8s22.2,7.7,51.1,7.1"/>
			<path style="fill:none;stroke:#4BB6E8;stroke-miterlimit:10;" d="M1.5,80.8c15.2,1.3,27.1,9,40.9,13.3s22,8.3,51.3,7.6"/>
			<path style="fill:none;stroke:#4BB6E8;stroke-miterlimit:10;" d="M1.4,79.4c15.5,1.3,27.4,9.3,41.4,14s21.7,8.8,51.5,8.2"/>
		</g>
	</g>
	<g id="Pronator_teres_copy">
		<g>
			<path style="fill:none;stroke:#EF4848;stroke-miterlimit:10;" d="M41.4,125.4c2.4-0.5,6.6-3,11.7-5.3s38.5-18.5,56.9-24.7"/>
			<path style="fill:none;stroke:#EF4848;stroke-miterlimit:10;" d="M42.5,126c2.3-0.5,6.6-3.1,11.8-5.4c1.5-0.7,4.9-2.3,9.3-4.4
				c9.4-4.4,23.9-10.8,36.1-16c4.9-2.2,9.2-3.8,12.8-5.1"/>
			<path style="fill:none;stroke:#EF4848;stroke-miterlimit:10;" d="M43.8,126.7c2.2-0.5,6.7-3.1,12.1-5.6c1.7-0.8,5.2-2.5,9.4-4.5
				c9.7-4.5,24.6-10.9,36.9-16.3c4.2-2.1,8.5-3.8,12.9-5.3"/>
			<path style="fill:none;stroke:#EF4848;stroke-miterlimit:10;" d="M44.9,127.2c2-0.5,6.8-3.2,12.3-5.9c1.8-0.9,5.4-2.6,9.7-4.6
				c9.9-4.6,25.3-10.9,37.6-16.6c4.2-2.2,8.5-4.1,13-5.6"/>
			<path style="fill:none;stroke:#EF4848;stroke-miterlimit:10;" d="M46.1,127.8c1.8-0.3,6.8-3.3,12.4-6.1c2.1-1,5.6-2.9,9.8-4.7
				c10.2-4.7,26.1-11,38.3-16.8c4.2-2.3,8.7-4.3,13.2-5.9"/>
			<path style="fill:none;stroke:#EF4848;stroke-miterlimit:10;" d="M47.2,128.5c1.7-0.3,6.9-3.4,12.6-6.3c2.3-1.2,5.9-3,10-4.8
				c10.5-4.8,26.8-11,39.1-17.1c4.3-2.4,8.7-4.5,13.3-6.2"/>
			<path style="fill:none;stroke:#EF4848;stroke-miterlimit:10;" d="M48.5,129.1c1.6-0.3,6.9-3.6,12.8-6.6c2.4-1.3,6.2-3.2,10.1-5.1
				c10.7-4.9,27.5-11.2,39.9-17.4c6.8-3.8,11-5.6,13.6-6.4"/>
			<path style="fill:none;stroke:#EF4848;stroke-miterlimit:10;" d="M49.7,129.7c1.5-0.3,7-3.6,13-6.8c2.6-1.4,6.4-3.3,10.4-5.2
				c11-5.1,28.2-11.2,40.6-17.6c7.1-4.1,11.4-6,13.7-6.7"/>
			<path style="fill:none;stroke:#EF4848;stroke-miterlimit:10;" d="M50.8,130.3c1.4-0.3,7-3.7,13.1-7c2.8-1.5,6.7-3.6,10.5-5.3
				c11.3-5.2,29-11.3,41.4-17.8c7.5-4.5,11.7-6.3,13.8-7"/>
			<path style="fill:none;stroke:#EF4848;stroke-miterlimit:10;" d="M52,130.9c1.3-0.2,7-3.8,13.3-7.2c3-1.6,6.9-3.7,10.7-5.4
				c11.5-5.3,29.7-11.3,42.1-18.2c7.8-4.8,12.1-6.7,14-7.3"/>
			<path style="fill:none;stroke:#EF4848;stroke-miterlimit:10;" d="M53.2,131.5c1.2-0.2,7.1-3.9,13.6-7.5c3.1-1.7,7.1-3.9,10.8-5.5
				c11.8-5.4,30.4-11.4,42.9-18.4c8.2-5.2,12.4-7,14.1-7.6"/>
			<path style="fill:none;stroke:#EF4848;stroke-miterlimit:10;" d="M54.4,132.2c1-0.2,7.1-4,13.7-7.7c3.3-1.8,7.5-4,11-5.6
				c12-5.5,30.9-11.4,43.6-18.6c8.5-5.4,12.8-7.4,14.4-7.8"/>
			<path style="fill:none;stroke:#EF4848;stroke-miterlimit:10;" d="M55.5,132.8c0.9-0.2,7.2-4.1,13.9-7.9c3.4-2,7.7-4.3,11.2-5.8
				c12.2-5.5,31.7-11.4,44.4-18.9c8.9-5.8,13.1-7.7,14.5-8.2"/>
			<path style="fill:none;stroke:#EF4848;stroke-miterlimit:10;" d="M56.7,133.3c0.8-0.1,7.2-4.3,14-8c3.7-2.1,7.9-4.4,11.4-5.9
				c12.7-5.8,32.5-11.5,45.1-19.2c9.3-6.1,13.5-8.1,14.7-8.4"/>
			<path style="fill:none;stroke:#EF4848;stroke-miterlimit:10;" d="M57.9,134c0.6-0.1,7.4-4.4,14.3-8.3c3.7-2.2,7.6-4.2,11.5-6
				c12.9-5.9,33.2-11.6,45.9-19.4c9.7-6.4,13.8-8.4,14.8-8.7"/>
			<path style="fill:none;stroke:#EF4848;stroke-miterlimit:10;" d="M59.1,134.6c0.5-0.1,7.4-4.5,14.5-8.5c3.8-2.3,7.7-4.3,11.7-6.1
				c13.1-5.9,34-11.6,46.6-19.7c10-6.8,14.3-8.7,15-9"/>
			<path style="fill:none;stroke:#EF4848;stroke-miterlimit:10;" d="M60.2,135.2c0.3-0.1,7.5-4.6,14.6-8.7c3.8-2.3,7.8-4.4,11.8-6.2
				c13.4-6.1,34.7-11.7,47.4-20c10.4-7.1,14.6-9.1,15.2-9.3"/>
			<path style="fill:none;stroke:#EF4848;stroke-miterlimit:10;" d="M61.5,135.9c0.2,0,7.5-4.7,14.8-9c3.9-2.3,7.9-4.5,12.1-6.3
				c13.7-6.1,35.4-11.7,48.1-20.2c10.7-7.4,14.9-9.4,15.3-9.6"/>
			<path style="fill:none;stroke:#EF4848;stroke-miterlimit:10;" d="M62.6,136.4c0.1,0,7.5-4.8,15-9.2c3.9-2.4,8-4.6,12.2-6.6
				c13.9-6.2,36.1-11.8,48.9-20.5c11-7.7,15.3-9.8,15.5-9.9"/>
			<path style="fill:none;stroke:#EF4848;stroke-miterlimit:10;" d="M63.8,137c0,0,19.9-12.9,27.5-16.1
				c14.3-6.2,36.9-11.7,49.7-20.7c11.4-8.1,15.6-10.1,15.6-10.1"/>
		</g>
		<g>
			<path style="fill:none;stroke:#E2F4FD;stroke-miterlimit:10;" d="M-0.4,127.5c17.6-0.3,31.4,0.5,41.7-1.8"/>
			<path style="fill:none;stroke:#E2F4FD;stroke-miterlimit:10;" d="M-0.4,127.6c8.7-0.2,19.1,0,26.5,0.2c3.8,0.3,7.5,0.2,11.3-0.1
				c2-0.2,3.9-0.6,5.8-1.2"/>
			<path style="fill:none;stroke:#E2F4FD;stroke-miterlimit:10;" d="M-0.4,127.6c8-0.1,20.4,0,27.6,0.6c4.4,0.3,7.9,0.9,11.6,0.6
				c2-0.2,4.1-0.7,6-1.4"/>
			<path style="fill:none;stroke:#E2F4FD;stroke-miterlimit:10;" d="M-0.4,127.7c7.4-0.1,21.5,0.1,28.8,0.9c4.6,0.6,8.2,1.5,12,1.2
				c2.1-0.3,4.2-0.8,6.2-1.5"/>
			<path style="fill:none;stroke:#E2F4FD;stroke-miterlimit:10;" d="M-0.6,127.8c6.6-0.1,22.8,0.2,30,1.4c4.9,0.8,8.3,2.1,12.3,1.8
				c2.2-0.2,4.4-0.8,6.5-1.7"/>
			<path style="fill:none;stroke:#E2F4FD;stroke-miterlimit:10;" d="M-0.6,127.8c5.9-0.1,23.9,0.2,31.2,1.7c5.2,1,8.5,2.6,12.6,2.4
				c2.3-0.3,4.6-0.9,6.7-1.9"/>
			<path style="fill:none;stroke:#E2F4FD;stroke-miterlimit:10;" d="M-0.6,127.9c5.2-0.1,25.2,0.5,32.3,2.2c5.4,1.3,8.7,3.3,13.1,3
				c2.4-0.3,4.8-1,6.9-2.2"/>
			<path style="fill:none;stroke:#E2F4FD;stroke-miterlimit:10;" d="M-0.7,128c4.4-0.1,26.3,0.6,33.5,2.5c5.6,1.6,9,3.9,13.5,3.7
				c2.5-0.3,4.9-1.1,7.1-2.3"/>
			<path style="fill:none;stroke:#E2F4FD;stroke-miterlimit:10;" d="M-0.7,128c3.7-0.1,27.6,0.7,34.6,2.9c5.9,1.8,9.2,4.5,13.8,4.3
				c2.6-0.3,5.1-1.2,7.4-2.5"/>
			<path style="fill:none;stroke:#E2F4FD;stroke-miterlimit:10;" d="M-0.7,128.2c2.9-0.1,28.8,0.8,35.8,3.3c6.1,2.2,9.3,5,14.1,4.9
				c2.7-0.4,5.2-1.3,7.5-2.8"/>
			<path style="fill:none;stroke:#E2F4FD;stroke-miterlimit:10;" d="M-0.7,128.3c2.2,0,29.9,1,36.9,3.7c6.3,2.4,9.5,5.6,14.6,5.5
				c2,0,4.7-1.3,7.7-2.9"/>
			<path style="fill:none;stroke:#E2F4FD;stroke-miterlimit:10;" d="M-0.8,128.3c1.5,0,31.2,1.1,38.1,4.1c6.6,2.8,9.8,6.2,15,6.2
				c2.1,0,4.7-1.3,7.9-3.1"/>
			<path style="fill:none;stroke:#E2F4FD;stroke-miterlimit:10;" d="M-0.8,128.4c0.7,0,32.3,1.4,39.3,4.5c6.8,3.1,10,6.8,15.3,6.8
				c2.1,0,4.8-1.4,8.2-3.3"/>
			<path style="fill:none;stroke:#E2F4FD;stroke-miterlimit:10;" d="M-0.8,128.5c0,0,33.5,1.5,40.5,4.9s10.1,7.4,15.6,7.4
				c2.1,0,4.9-1.4,8.4-3.4"/>
		</g>
	</g>
	<g id="Brachiordialis_copy">
		<g>
			<path style="fill:none;stroke:#00A4A7;stroke-miterlimit:10;" d="M18.3,83.5c13.6,1,20.7,2.6,35.7,7.4
				c18.9,5.4,38.7,6.9,58.2,4.4c22.1-2.5,47.2-6.1,66.5-6.2c10.3-0.3,23.6-1.7,31.6-2.1s43.2-1.6,55.8-1.2"/>
			<path style="fill:none;stroke:#00A4A7;stroke-miterlimit:10;" d="M17.8,83.3c4.6,0.3,8.5,0.7,12.3,1.3c7,1,13.6,2.7,23.5,5.4
				c12.3,3,25,4.6,37.7,4.7c6.8,0.1,13.7-0.2,20.5-1c8.3-0.8,16.9-1.7,25.6-2.7c14.3-1.5,28.6-2.7,40.9-2.5c8-0.2,17.7-1,25.5-1.5
				c2.3-0.1,4.4-0.2,6.2-0.3c8.7-0.3,43.3-1.5,55.9-1.2"/>
			<path style="fill:none;stroke:#00A4A7;stroke-miterlimit:10;" d="M17.3,83.2c4.6,0.3,8.5,0.6,12.3,1c7.8,1.2,15.6,2.8,23.2,5
				c10.9,2.7,23.8,3.8,37.8,3.9c6.8,0.2,13.7,0,20.5-0.7c8.3-0.7,16.9-1.5,25.6-2.2c14.1-1.2,28.5-2.2,40.9-2
				c8-0.1,17.7-0.8,25.6-1.4c2.3-0.1,4.4-0.2,6.2-0.3c9.4-0.3,43.3-1.4,56.1-1"/>
			<path style="fill:none;stroke:#00A4A7;stroke-miterlimit:10;" d="M16.9,83.1c4.6,0.3,8.6,0.5,12.3,0.9c7.9,1.1,15.6,2.6,23.4,4.5
				c10.8,2.3,23.8,3,37.8,3.2c6.7,0,13.6-0.1,20.6-0.8c8.3-0.6,16.9-1.3,25.8-1.7c14-0.9,28.4-1.6,41.1-1.4c8,0,17.7-0.7,25.8-1.2
				l6.2-0.3c10.2-0.2,43.5-1.4,56.2-0.9"/>
			<path style="fill:none;stroke:#00A4A7;stroke-miterlimit:10;" d="M16.4,83c4.6,0.3,8.6,0.3,12.3,0.8c6.6,0.8,13.7,2,23.2,4
				c10.6,2.1,23.8,2.2,38,2.4c6.8,0,13.6-0.1,20.7-0.7c8.3-0.5,16.9-0.9,25.8-1.4c13.9-0.7,28.3-1.2,41-0.8c8.2,0,17.7-0.6,25.8-1
				c2.2-0.1,4.4-0.2,6.2-0.2c10.9-0.2,43.6-1.3,56.4-0.8"/>
			<path style="fill:none;stroke:#00A4A7;stroke-miterlimit:10;" d="M16,82.7c4.6,0.3,8.6,0.2,12.4,0.7c6.4,0.7,13.7,1.7,23.2,3.6
				c10.5,1.8,23.8,1.4,37.9,1.6c6.8,0,13.7-0.1,20.7-0.5c8.3-0.3,16.9-0.7,25.9-0.9c13.8-0.5,28.1-0.7,41.2-0.2
				c8.2,0.1,17.7-0.5,25.9-0.8c2.2-0.1,4.4-0.2,6.2-0.2c11.6-0.2,43.7-1.2,56.6-0.8"/>
			<path style="fill:none;stroke:#00A4A7;stroke-miterlimit:10;" d="M15.5,82.6c4.6,0.3,8.6,0.1,12.4,0.6c6.2,0.6,13.8,1.5,23.2,3.1
				C61.5,87.9,75,87,89.1,87.1c6.9,0,13.7-0.1,20.7-0.3c8.3-0.2,16.9-0.5,25.9-0.5c13.7-0.2,27.9-0.1,41.3,0.5
				c8.2,0.1,17.7-0.3,25.9-0.7c2.2-0.1,4.4-0.2,6.2-0.2c12.3-0.2,43.8-1,56.7-0.7"/>
			<path style="fill:none;stroke:#00A4A7;stroke-miterlimit:10;" d="M15,82.5c4.6,0.3,8.6,0,12.4,0.3c6.1,0.6,13.8,1.3,23.1,2.6
				c10.2,1.4,23.8-0.1,38.1,0.1c6.9,0,13.8,0,20.8-0.2c8.4-0.1,16.9-0.1,25.9,0c13.6,0,27.8,0.3,41.3,1c8.2,0.2,17.7-0.1,26-0.6
				c2.2-0.1,4.4-0.2,6.3-0.2c13-0.2,43.9-1,56.8-0.6"/>
			<path style="fill:none;stroke:#00A4A7;stroke-miterlimit:10;" d="M14.6,82.4c4.6,0.3,8.6-0.1,12.4,0.2c6,0.5,13.8,1,23.1,2.2
				c10.1,1,23.8-0.9,38.1-0.7c7,0,13.8,0,20.8-0.1c8.4,0,16.9,0.1,26,0.3c13.3,0.2,27.7,0.8,41.4,1.6c8.2,0.2,17.7,0,26.1-0.3
				c2.2-0.1,4.4-0.1,6.3-0.2c13.7-0.2,44-0.9,57-0.5"/>
			<path style="fill:none;stroke:#00A4A7;stroke-miterlimit:10;" d="M14.2,82.2c4.6,0.2,8.6-0.1,12.4,0.1c5.7,0.3,13.8,0.9,23.1,1.7
				c9.9,0.8,23.7-1.7,38.1-1.5h20.9c8.4,0.1,16.9,0.3,26,0.8c13.2,0.5,27.6,1.3,41.4,2.2c8.3,0.3,17.6,0.1,26.1-0.2
				c2.2-0.1,4.4-0.1,6.3-0.2c14.5-0.1,44.2-0.8,57.2-0.3"/>
			<path style="fill:none;stroke:#00A4A7;stroke-miterlimit:10;" d="M13.7,82c4.6,0.2,8.6-0.2,12.5,0c5.6,0.3,13.9,0.7,23,1.2
				c9.8,0.6,23.7-2.5,38.2-2.3c7.1,0,14,0.1,20.9,0.1c8.4,0.2,16.9,0.7,26.1,1.3c13.1,0.8,27.5,1.8,41.5,2.8
				c8.3,0.5,17.6,0.2,26.2,0c2.2-0.1,4.4-0.1,6.3-0.1c15.2-0.1,44.3-0.8,57.3-0.3"/>
			<path style="fill:none;stroke:#00A4A7;stroke-miterlimit:10;" d="M13,81.9c4.6,0.2,8.6-0.3,12.5-0.2c5.5,0.2,13.9,0.5,23,0.7
				c9.7,0.3,23.7-3.2,38.2-3.1c7.2,0,14.1,0.2,21,0.3c8.4,0.3,16.9,0.9,26.1,1.7c13,1,27.3,2.3,41.6,3.4c8.3,0.5,17.6,0.5,26.2,0.1
				c2.2-0.1,4.4-0.1,6.3-0.1c15.9-0.1,44.3-0.7,57.5-0.2"/>
			<path style="fill:none;stroke:#00A4A7;stroke-miterlimit:10;" d="M12.6,81.8c4.6,0.2,8.6-0.5,12.5-0.3c5.4,0.2,13.9,0.2,22.9,0.2
				c9.5,0.1,23.7-4,38.3-3.8c7.3-0.1,14.2,0.1,21,0.5c8.4,0.5,16.9,1.2,26.2,2.1c12.9,1.3,27.1,2.8,41.6,4
				c8.3,0.6,17.6,0.6,26.3,0.3c2.2,0,4.4-0.1,6.3-0.1c16.6-0.1,44.4-0.6,57.6-0.1"/>
			<path style="fill:none;stroke:#00A4A7;stroke-miterlimit:10;" d="M12.2,81.6c4.6,0.2,8.6-0.6,12.5-0.5c5.2,0.1,13.9,0,22.9-0.2
				c9.4-0.2,23.7-4.8,38.3-4.6c7.3-0.1,14.2,0.1,21.2,0.6c8.4,0.6,16.9,1.5,26.2,2.5c12.8,1.5,27,3.3,41.7,4.6
				c8.3,0.6,17.6,0.7,26.4,0.5c2.2,0,4.4-0.1,6.4-0.1c17.3-0.1,44.5-0.6,57.8,0"/>
			<path style="fill:none;stroke:#00A4A7;stroke-miterlimit:10;" d="M11.7,81.5c4.6,0.2,8.6-0.7,12.7-0.6c5.1,0,14-0.2,22.9-0.7
				c9.3-0.5,23.7-5.6,38.4-5.4c7.1-0.1,14,0.1,20.9,0.7c8.4,0.7,16.9,1.7,26.2,3c12.6,1.7,26.9,3.8,41.7,5.2
				c8.8,0.7,17.6,0.9,26.4,0.6c2.2,0,4.4-0.1,6.4-0.1c17.9,0,44.6-0.5,58,0"/>
			<path style="fill:none;stroke:#00A4A7;stroke-miterlimit:10;" d="M11.2,81.4c4.6,0.2,8.7-0.8,12.6-0.8c5,0,14-0.5,22.8-1.2
				c9.2-0.7,23.7-6.4,38.4-6.2c7.4-0.1,14.3,0.2,21.3,0.8c8.4,0.8,16.9,2.1,26.3,3.4c12.5,2,26.8,4.3,41.9,5.8
				c8.4,0.7,17.6,0.9,26.6,0.8h6.4c18.8,0,44.7-0.3,58.1,0.1"/>
			<path style="fill:none;stroke:#00A4A7;stroke-miterlimit:10;" d="M10.7,81.2c4.6,0.2,8.7-0.8,12.6-0.9c4.7-0.1,14-0.7,22.8-1.6
				c9-0.9,23.7-7.1,38.5-6.9c7.1-0.1,14.2,0.2,21.3,0.9c8.4,0.9,16.9,2.3,26.3,3.8c12.3,2.2,26.7,4.8,41.9,6.4
				c8.8,0.8,17.7,1.1,26.6,0.9h6.4c19.4,0,44.8-0.3,58.3,0.2"/>
			<path style="fill:none;stroke:#00A4A7;stroke-miterlimit:10;" d="M10.3,81c4.7,0.2,8.7-0.9,12.6-1c4.6-0.1,14-0.9,22.7-2.1
				c8.8-1.2,23.7-7.9,38.5-7.7c7.1-0.2,14.2,0.1,21.3,1c8.5,1,16.9,2.5,26.4,4.3c12.2,2.4,26.6,5.3,42,7c8.9,0.9,17.8,1.3,26.7,1.2
				h6.4c20.1,0,45-0.2,58.4,0.3"/>
			<path style="fill:none;stroke:#00A4A7;stroke-miterlimit:10;" d="M9.9,80.9c4.7,0.2,8.7-1,12.7-1.2c4.5-0.2,14.1-1.2,22.7-2.5
				c8.7-1.4,23.7-8.7,38.5-8.5c7.1-0.2,14.3,0.2,21.4,1.2c8.5,1,16.9,2.9,26.4,4.7c13.9,3.3,27.9,5.8,42.1,7.6
				c8.9,1,17.8,1.4,26.8,1.3h6.4c20.8,0.1,45.1-0.1,58.5,0.3"/>
			<path style="fill:none;stroke:#00A4A7;stroke-miterlimit:10;" d="M9.4,80.8c4.8,0.2,8.8-1.2,12.8-1.4c7.6-0.6,15.2-1.6,22.6-3.1
				c8.6-1.7,23.7-9.6,38.6-9.3c7.2-0.2,14.4,0.3,21.5,1.4c8.5,1.2,16.9,3.1,26.5,5.2c13.8,3.6,27.9,6.3,42.1,8.2
				c8.9,1.1,17.8,1.5,26.8,1.4h6.4c21.5,0.1,45.1-0.1,58.8,0.5"/>
			<path style="fill:none;stroke:#00A4A7;stroke-miterlimit:10;" d="M50.1,73.8c8.7-3.1,20.8-8.4,32.9-8.3
				c7.2-0.1,14.4,0.4,21.5,1.5c8.5,1.3,16.9,3.3,26.6,5.5c13.8,3.9,28,6.9,42.2,8.8c8.9,1.1,17.9,1.6,26.9,1.6h6.6
				c22.2,0.1,45.2,0,58.9,0.6"/>
			<path style="fill:none;stroke:#00A4A7;stroke-miterlimit:10;" d="M8.9,80.7c4.7,0.2,8.7-1.2,12.8-1.5c7.6-0.7,15.1-1.9,22.5-3.6
				c2-0.5,3.9-1.1,5.8-1.8"/>
			<path style="fill:none;stroke:#00A4A7;stroke-miterlimit:10;" d="M8.4,80.4c4.7,0.2,8.7-1.3,12.8-1.6c7.6-0.8,15.1-2.1,22.5-4
				c8.4-2.2,23.8-11,38.8-10.8c17.3-0.5,30.8,3.3,48.2,7.6c17.8,5.2,41.6,11.3,69.2,11.1c25.2,0.2,50.6,0.1,65.5,0.7"/>
		</g>
		<g>
			<path style="fill:none;stroke:#00A4A7;stroke-miterlimit:10;" d="M115.2,67.3c20.1,6.2,40.8,10.8,61.6,13.7
				c14.6,2.2,37.3,1.5,37.3,1.5"/>
			<path style="fill:none;stroke:#00A4A7;stroke-miterlimit:10;" d="M115.2,67.3c25.4,7.1,45.9,11,59.9,12.9
				c14.1,2.2,36.2,2.1,39.8,2.3"/>
			<path style="fill:none;stroke:#00A4A7;stroke-miterlimit:10;" d="M115.2,67.2c19.2,5.1,38.6,9.1,58.2,12.2
				c13.8,2.1,35.1,2.6,42.2,3.1"/>
			<path style="fill:none;stroke:#00A4A7;stroke-miterlimit:10;" d="M115.2,67.2c21.8,5.1,43.1,9.5,56.3,11.4
				c13.4,2.1,34,3.1,44.7,3.9"/>
			<path style="fill:none;stroke:#00A4A7;stroke-miterlimit:10;" d="M115.3,67.1c20.1,4,41.6,8.8,54.6,10.7s33,3.7,47.3,4.7"/>
			<path style="fill:none;stroke:#00A4A7;stroke-miterlimit:10;" d="M115.5,67.1c18.4,3.1,40.2,8.2,52.9,10s31.9,4.3,49.7,5.5"/>
			<path style="fill:none;stroke:#00A4A7;stroke-miterlimit:10;" d="M115.5,67.1c16.6,2.1,38.9,7.4,51.2,9.2s30.8,4.8,52.2,6.3"/>
			<path style="fill:none;stroke:#00A4A7;stroke-miterlimit:10;" d="M115.5,67c14.8,1,37.5,6.7,49.3,8.5s29.7,5.3,54.7,7.1"/>
		</g>
	</g>
</g>
</svg>
