<?xml version="1.0" encoding="utf-8"?>
<!-- Generator: Adobe Illustrator 22.0.0, SVG Export Plug-In . SVG Version: 6.00 Build 0)  -->
<svg version="1.1" id="Layer_1" xmlns="http://www.w3.org/2000/svg" xmlns:xlink="http://www.w3.org/1999/xlink" x="0px" y="0px"
	 viewBox="0 0 283.5 283.5" style="enable-background:new 0 0 283.5 283.5;" xml:space="preserve">
<style type="text/css">
	.st0{fill:none;stroke:#7986FC;stroke-width:0.5;stroke-miterlimit:10;}
	.st1{fill:#3E4EC2;}
	.st2{fill:#FEFEFE;}
	.st3{font-family:'Roboto Condensed'}
	.st4{font-size:14px;}
	.st5{fill:#FA0404;}
	.st6{fill:#0A0000;}
	.st7{fill:#0E210F;}
	.st8{fill:#235125;}
	.st9{fill:#245426;}
	.st10{fill:none;stroke:#7986FC;stroke-width:0.25;stroke-miterlimit:10;}
</style>
<path id="ecg_heart" style="fill:none;stroke:#7986FC;stroke-width:0.5;stroke-miterlimit:10;" d="M247.1,61.4c0.7,0,1.5,0,2.2,0c0.2,0.1,0.5,0,0.7,0c3.2,0,6.2,0.6,9.2,1.5
	c1.7,0.5,3.4,1.2,5,2c2.3,1.2,4.5,2.6,6.5,4.4c2.1,1.9,3.9,4.1,5.3,6.5c1.6,2.7,2.7,5.6,3.3,8.7c0.3,1.5,0.5,2.9,0.5,4.5
	c0,1.4,0,2.8,0,4.2c0,2-0.3,4-0.7,5.9c-0.7,3.1-1.7,6.1-3,9.1c-1.3,2.8-2.7,5.5-4.3,8.2c-1.8,2.8-3.7,5.6-5.7,8.2
	c-1.5,2-3.1,3.9-4.8,5.8c-1.3,1.5-2.6,3-4,4.4c-0.7,0.7-1.4,1.4-2.1,2.2c-1.2,1.3-2.5,2.6-3.7,3.8c-1.2,1.2-2.4,2.4-3.7,3.5
	c-1.3,1.2-2.6,2.3-3.8,3.5c-1.3,1.2-2.7,2.4-4.1,3.5c-2.5,2.1-5.1,4.2-7.6,6.3c-2.2,1.7-4.3,3.4-6.6,5.1c-0.6,0.4-1.2,0.9-1.8,1.3
	c-0.5,0.4-0.8,0.4-1.4,0c-1.8-1.4-3.6-2.8-5.4-4.3c-1.7-1.4-3.5-2.9-5.2-4.3c-1.5-1.3-3.1-2.6-4.6-3.9c-1.5-1.3-3-2.6-4.4-3.9
	c-1.1-1-2.1-1.9-3.2-2.9c-1.1-1.1-2.3-2.1-3.4-3.2c-1.2-1.1-2.3-2.3-3.5-3.4c-1.2-1.1-2.4-2.4-3.5-3.6c-1.7-1.7-3.2-3.4-4.8-5.2
	c-2.2-2.5-4.3-5-6.2-7.7c-2.2-3-4.2-6.1-6-9.3c-1.6-2.9-2.9-5.8-3.9-8.9c-0.7-2.2-1.2-4.3-1.6-6.6c-0.1-0.6-0.1-1.1-0.1-1.7
	c0-0.8-0.1-1.6,0-2.4c0-0.7,0-1.3,0-2c-0.1-3,0.5-5.8,1.4-8.7c0.5-1.8,1.2-3.5,2.1-5.1c1.1-2.1,2.3-4,3.9-5.7
	c1.9-2.2,4.1-4.1,6.6-5.5c2.3-1.3,4.8-2.4,7.4-3.1c1.6-0.4,3.2-0.8,4.9-0.9c1.3-0.1,2.6-0.1,4-0.1c1.4,0,2.7,0,4.1,0.1
	c1.5,0.2,3.1,0.5,4.6,0.9c1.7,0.5,3.4,1.1,5,1.9c2,1,3.8,2.3,5.5,3.8c2.6,2.3,4.7,5,6.5,8c0.2,0.3,0.3,0.6,0.4,0.8
	c0.2,0.3,0.3,0.3,0.5,0c0.6-1,1.1-2,1.8-3c1.5-2.3,3.4-4.3,5.4-6.1c1.9-1.7,3.9-3.1,6.2-4.2c2.3-1.1,4.7-1.8,7.2-2.2
	c0.9-0.1,1.8-0.2,2.7-0.2C246.7,61.5,246.9,61.5,247.1,61.4z"/>
<rect x="0" y="0.2" class="st1" width="283.5" height="21.3"/>
<text transform="matrix(1 0 0 1 114.123 14.9408)" class="st2 st3 st4">Status</text>
<path class="st5" d="M204.1,99.2c0.3,0.1,0.5,0.2,0.5,0.5c0.1,1.6,0.2,3.1,0.3,4.7c0.4,6.7,0.8,13.3,1.3,20c0.1,0.8-0.3,2.1,0.9,2.1
	c1.3,0,1-1.3,1.1-2.1c0.4-4,0.8-8,1.2-12c0.1-1.1,0.4-1.7,1.6-1.6c1.3,0.1,2.4-0.2,3.5-1.2c1.3-1.3,2.6-1.3,3.9,0c1,1,2,1.3,3.3,1.2
	c0.7-0.1,1.4-0.1,2.1,0c1.9,0.2,3.3-0.3,3.7-2.4c0-0.2,0.2-0.3,0.4-0.3c0.6,0.7,0.3,2.1,1.4,2.3c0.9,0.2,1.3,0.7,1.5,1.5
	c0.1,0.6,0.4,1.3,1.2,1.2c0.8-0.1,0.7-0.8,0.8-1.4c0.2-2.8,0.4-5.6,0.6-8.4c0.1-1.9,0.3-3.8,0.4-5.7c0.3,0.3,0.3,0.5,0.4,0.8
	c0.5,8.8,1.1,17.5,1.6,26.3c0,0.3,0,0.6,0.1,0.8c0.1,0.5,0.2,1,0.9,1.1c0.8,0,0.9-0.6,1-1.1c0-0.2,0-0.5,0.1-0.7
	c0.4-4.1,0.8-8.3,1.1-12.5c0.1-1.4,0.6-1.9,1.9-1.6c1.4,0.3,2.6,0.1,3.8-1.1c1.4-1.4,2.5-1.3,3.9,0.1c0.8,0.7,1.5,1,2.6,1
	c2.4-0.1,4.8,0,7.1-0.1c0.7,0,1.3,0,2,0.4c0.8,0.4,1.5,0.2,2-0.5c0.4-0.6,0.4-1.3-0.1-1.9c-0.6-0.7-1.4-0.8-2.1-0.2
	c-0.4,0.3-0.9,0.4-1.4,0.4c-2.2,0-4.4,0-6.6,0.1c-1.1,0-1.9-0.2-2.7-0.9c-1.8-1.5-3.7-1.6-5.4-0.2c-1.3,1.1-2.5,1.2-4,1.1
	c-2.2-0.2-2.2-0.2-2.8,1.9c0,0-0.2,0-0.3,0.1c0-0.1-0.1-0.2-0.1-0.3c0-5.4-0.6-10.7-0.9-16c-0.2-4.5-0.6-9-0.8-13.6
	c0-0.6-0.1-1.3-0.9-1.3c-0.9,0-1,0.6-1,1.3c-0.2,2.6-0.4,5.2-0.5,7.8c-0.4,6.3-0.9,12.7-1.3,19c0,0.4,0.2,0.9-0.5,0.9
	c-0.5,0-0.5-0.4-0.6-0.8c-0.4-1.1-0.7-2.3-1.2-3.3c-0.4-1-1.2-1-1.7,0c-0.3,0.6-0.7,1.3-0.9,2c-0.4,1.7-1.3,2.4-3.1,2.3
	c-1.4-0.1-2.7,0-3.9-1.1c-1.6-1.4-3.7-1.4-5.4,0c-1.2,1-2.4,1.2-3.8,1.2c-2,0-2,0.1-2.2,2.1c0,0.2,0.1,0.6-0.4,0.6
	c-0.5-8-1-16-1.5-24c-0.2-2.6-0.4-5.2-0.5-7.8c0-0.6-0.3-1-0.9-1c-0.6,0-0.9,0.4-0.9,1c0,0.3-0.1,0.5-0.1,0.8
	c-0.2,3.6-0.4,7.1-0.6,10.7c-0.3,5.4-0.6,10.9-1,16.3c0,0.5,0.3,1.2-0.5,1.3c-0.9,0.1-0.8-0.8-0.9-1.3c-0.4-1-0.7-2-1-3
	c-0.1-0.4-0.3-0.8-0.8-0.8c-0.5,0-0.8,0.4-1,0.8c-0.4,1.1-0.8,2.1-1.1,3.2c-0.2,0.8-0.7,1-1.5,1c-3.1,0-6.2,0-9.3,0
	c-0.6,0-1.5-0.2-1.5,0.9c0,0.9,0.8,0.8,1.4,0.9c3.2,0,6.3,0,9.5,0.1c1.6,0,2.9-0.3,3.1-2.2c0-0.2,0.1-0.3,0.4-0.3
	c0.5,0.7,0.3,2,1.2,2.2c1.2,0.2,1.7,0.9,2,2c0.1,0.5,0.5,0.6,1,0.5c0.4-0.1,0.6-0.4,0.6-0.8c0.1-0.9,0.2-1.8,0.3-2.7
	C203.7,106.1,203.9,102.6,204.1,99.2z"/>
<path class="st6" d="M204.1,99.2c-0.2,3.5-0.4,6.9-0.6,10.4c-0.1,0.9-0.1,1.8-0.3,2.7c0,0.4-0.2,0.7-0.6,0.8c-0.5,0.1-0.9-0.1-1-0.5
	c-0.3-1.1-0.8-1.7-2-2c-0.9-0.2-0.7-1.5-1.2-2.2c-0.2-0.1-0.4,0.1-0.4,0.3c-0.2,1.9-1.5,2.2-3.1,2.2c-3.2-0.1-6.3-0.1-9.5-0.1
	c-0.6,0-1.4,0.1-1.4-0.9c0-1.1,0.9-0.9,1.5-0.9c3.1,0,6.2-0.1,9.3,0c0.8,0,1.3-0.2,1.5-1c0.3-1.1,0.7-2.2,1.1-3.2
	c0.2-0.5,0.4-0.9,1-0.8c0.5,0,0.7,0.4,0.8,0.8c0.4,1,0.7,2,1,3c0.2,0.5,0.1,1.4,0.9,1.3c0.8-0.1,0.5-0.9,0.5-1.3
	c0.4-5.4,0.7-10.9,1-16.3c0.2-3.6,0.4-7.1,0.6-10.7c0-0.3,0.1-0.5,0.1-0.8c0.1-0.6,0.3-1,0.9-1c0.6,0,0.8,0.5,0.9,1
	c0.2,2.6,0.4,5.2,0.5,7.8c0.5,8,1,16,1.5,24c0.5,0,0.4-0.3,0.4-0.6c0.2-2,0.3-2.1,2.2-2.1c1.4,0,2.6-0.2,3.8-1.2
	c1.7-1.4,3.8-1.4,5.4,0c1.2,1.1,2.5,1,3.9,1.1c1.9,0.1,2.8-0.6,3.1-2.3c0.2-0.7,0.5-1.4,0.9-2c0.5-0.9,1.3-0.9,1.7,0
	c0.5,1.1,0.8,2.2,1.2,3.3c0.1,0.3,0.2,0.8,0.6,0.8c0.6,0,0.5-0.6,0.5-0.9c0.5-6.3,0.9-12.7,1.3-19c0.2-2.6,0.4-5.2,0.5-7.8
	c0-0.7,0.1-1.3,1-1.3c0.8,0,0.9,0.7,0.9,1.3c0.3,4.5,0.6,9,0.8,13.6c0.3,5.3,0.8,10.7,0.9,16c0,0.1,0.1,0.2,0.1,0.3
	c0.1,0,0.3,0,0.3-0.1c0.6-2.1,0.6-2.1,2.8-1.9c1.5,0.1,2.8,0,4-1.1c1.7-1.4,3.6-1.3,5.4,0.2c0.8,0.7,1.7,1,2.7,0.9
	c2.2-0.1,4.4-0.1,6.6-0.1c0.5,0,1-0.1,1.4-0.4c0.7-0.5,1.5-0.4,2.1,0.2c0.5,0.6,0.5,1.3,0.1,1.9c-0.5,0.8-1.3,1-2,0.5
	c-0.7-0.4-1.3-0.4-2-0.4c-2.4,0-4.8,0-7.1,0.1c-1,0-1.8-0.2-2.6-1c-1.4-1.4-2.6-1.5-3.9-0.1c-1.1,1.1-2.4,1.3-3.8,1.1
	c-1.4-0.2-1.8,0.3-1.9,1.6c-0.3,4.2-0.7,8.3-1.1,12.5c0,0.2,0,0.5-0.1,0.7c-0.1,0.5-0.2,1.1-1,1.1c-0.7,0-0.8-0.6-0.9-1.1
	c-0.1-0.3,0-0.5-0.1-0.8c-0.5-8.8-1.1-17.5-1.6-26.3c0-0.3-0.1-0.5-0.4-0.8c-0.1,1.9-0.3,3.8-0.4,5.7c-0.2,2.8-0.4,5.6-0.6,8.4
	c0,0.6,0,1.3-0.8,1.4c-0.9,0.1-1.1-0.6-1.2-1.2c-0.2-0.8-0.5-1.3-1.5-1.5c-1.1-0.3-0.8-1.6-1.4-2.3c-0.2,0-0.3,0.1-0.4,0.3
	c-0.4,2.1-1.8,2.6-3.7,2.4c-0.7-0.1-1.4-0.1-2.1,0c-1.3,0.1-2.3-0.2-3.3-1.2c-1.3-1.3-2.6-1.3-3.9,0c-1,1-2.2,1.3-3.5,1.2
	c-1.3-0.1-1.5,0.5-1.6,1.6c-0.3,4-0.7,8-1.2,12c-0.1,0.8,0.2,2.2-1.1,2.1c-1.2,0-0.9-1.4-0.9-2.1c-0.5-6.7-0.9-13.3-1.3-20
	c-0.1-1.6-0.2-3.1-0.3-4.7C204.5,99.4,204.4,99.3,204.1,99.2z"/>
<path class="st7" d="M325.3,58.2C325.3,58.2,325.4,58.2,325.3,58.2c0.1,0.7,0.1,1.5,0.1,2.2c0,0,0,0-0.1,0
	C325.3,59.7,325.3,58.9,325.3,58.2z"/>
<path class="st8" d="M408.9,29.2C408.9,29.2,408.9,29.2,408.9,29.2c-0.2,0.1-0.5,0.1-0.7,0C408.4,29.2,408.6,29.2,408.9,29.2z"/>
<path class="st9" d="M405.4,29.2C405.4,29.2,405.4,29.2,405.4,29.2c0.2-0.1,0.4-0.1,0.5-0.1C405.8,29.3,405.6,29.3,405.4,29.2z"/>
<rect x="12.5" y="62.7" class="st10" width="11.2" height="209.5"/>
<rect x="37.1" y="62.7" class="st10" width="11.2" height="209.5"/>
<rect x="62" y="62.7" class="st10" width="11.2" height="209.5"/>
<rect x="85.6" y="62.7" class="st10" width="11.2" height="209.5"/>
<g>
	<path class="st0" d="M263.4,247.2c-0.9,0.9-1.9,1-3,0.8c-1.2-0.2-2.2-0.7-3.3-1.2c-3.1-1.4-6.1-1.3-8.9,1c-0.9,0.8-1.9,1.3-2.9,1.9
		c-0.6,0.3-1.1,0.3-1.7,0c-1.1-0.5-2-1.3-2.9-2c-1.6-1.2-4.4-1.7-6.5-1.2c0-0.7,0-1.4,0.1-2.1c0.5-2,1.2-2.6,3.4-2.6H264
		c1.2,0,2.2-1,2.2-2.2c0-1.2-1-2.2-2.2-2.2h-13.5c-0.2-1-0.4-1.9-0.6-2.9c-1.3-5.4-3.4-10.5-6.1-15.4c-1.4-2.5-2.9-4.8-4.7-7
		c-0.3-0.4-0.7-0.5-1-0.3c-0.4,0.2-0.4,0.6-0.2,1.1c0.6,1.1,1.3,2.3,1.8,3.4c2,4,3.7,8.1,4.7,12.5c0.3,1.3,0.5,2.6,0.5,4
		c0,1.4-0.3,2.7-0.7,4c-0.1,0.2-0.1,0.4-0.2,0.6h-6.3c-4.2,0-6.8,2-7.7,6.2c0,0.1,0,0.1,0,0.2c-0.7,4.8,1.1,9.6,1.2,9.9
		c0.4,1,0.9,1.9,1.4,2.8c0.3,0.6,0.6,1.2,0.9,1.8c2.1,4.5,1.1,10.7-2.2,13.8c-1.7,1.6-3.9,2.5-6.7,2.7h-0.1c-0.2,0-0.6,0-1,0.1h-1.8
		c-0.5-0.1-0.9-0.1-1.4-0.2c-0.5-0.1-1-0.1-1.4-0.2c-4.5-1-7.5-4.4-8-9c-0.4-3,0.1-5.7,1.5-8.2l0.3-0.6c0.8-1.6,1.7-3.2,2.2-5.2
		c0.1-0.2,1.4-5.1,0-9.4V242c-1.1-2.9-3.6-4.6-6.7-4.6h-3.4c-2.4,0-4.8,0-7.2,0c-0.2-1.2-0.4-3-0.7-4.1c-1.3-5.4-3.4-10.5-6.1-15.4
		c-1.4-2.5-2.9-4.8-4.7-7c-0.3-0.4-0.7-0.5-1-0.3c-0.4,0.2-0.4,0.6-0.2,1.1c0.6,1.1,1.3,2.3,1.8,3.4c2,4,3.7,8.1,4.7,12.5
		c0.3,1.3,0.5,2.6,0.5,4c0,1.4-0.3,2.7-0.7,4c-0.2,0.6-0.4,1.2-0.5,1.8c-3.6,0-7.2,0-10.6,0c-1.2,0-2.2,1-2.2,2.2
		c0,1.2,1,2.2,2.2,2.2l0,0c7.8,0,16.7,0,24.7,0h3.4c1.2,0,2.1,0.6,2.5,1.7c0.4,1.5,0.4,3.1,0.3,4.4c-1.3-0.3-3.1-0.7-4-1.2
		c-3-1.3-5.8-1.1-8.4,1c-0.9,0.7-1.8,1.2-2.8,1.8c-0.8,0.5-1.6,0.5-2.4,0s-1.5-1-2.2-1.5c-1.4-1.1-2.9-1.8-4.7-1.6
		c-2.5,0.2-4.4,1.5-6,3.3c-0.7,0.8-0.7,1.6-0.1,2.2c0.6,0.6,1.5,0.4,2.2-0.3c0.7-0.8,1.5-1.4,2.4-1.8c1.4-0.6,2.8-0.7,4.1,0.3
		c1.1,0.8,2.1,1.6,3.3,2.2c1.6,0.8,3.1,0.8,4.6-0.1c1-0.6,2.1-1.1,3-1.9c1.9-1.7,4-1.8,6.3-0.7c1,0.5,2.8,0.9,4.2,1.2
		c-0.4,1.3-1,2.6-1.7,3.8l-0.3,0.6c-1.7,3.3-2.4,6.9-1.9,10.8c0.8,6.4,5.1,11.3,11.4,12.8c0.7,0.2,1.3,0.2,1.9,0.3
		c0.4,0,0.8,0.1,1.2,0.2c0.1,0,0.3,0,0.4,0h2.4c0.2,0,0.5,0,0.7-0.1l0,0c0.2,0,0.3,0,0.5,0c3.8-0.3,6.8-1.6,9.3-3.9
		c4.8-4.4,6.2-12.5,3.2-18.9c-0.3-0.7-0.6-1.3-1-2c-0.4-0.9-0.9-1.7-1.2-2.4c0,0-0.3-0.9-0.6-2.2c1.7-0.9,3.1-0.8,4.7,0.4
		c0.9,0.6,1.7,1.3,2.7,1.8c1.7,1,3.3,1,5,0.1c1.3-0.7,2.5-1.5,3.6-2.4c1.2-0.9,2.5-1.2,3.9-0.8c0.7,0.2,1.3,0.4,2,0.7
		c1.7,0.8,3.5,1.4,5.5,1.3c1.4-0.1,2.6-0.7,3.5-1.8c0.5-0.6,0.4-1.5-0.1-2C264.8,246.7,264,246.6,263.4,247.2z"/>
	<path class="st0" d="M207.6,211.3c3.9,8,7.5,16.2,9.4,25c0.6,2.6,1,5.3,0.9,8c0,2.7-0.7,5.4-1.4,8c-0.7,2.7-1.8,5.3-1.6,8.2
		c0,0.5,0,0.9,0,1.4c0.2,2.3,0.7,4.4,2.5,6c3.2,2.9,8.7,1.9,10.9-2c1.3-2.3,1.6-4.9,1.4-7.5c-0.2-3.6-0.9-7.2-1.8-10.8
		c-2.6-10.8-6.7-21.1-12.1-30.8c-2.8-5-5.9-9.7-9.5-14c-0.7-0.8-1.4-1-2.1-0.5c-0.7,0.5-0.9,1.3-0.3,2.2
		C205.2,206.6,206.5,208.9,207.6,211.3z"/>
	<path class="st0" d="M256.7,259.2L256.7,259.2c-2.9,0-5.1,2.2-5.1,5c0,2.9,2.2,5.2,5,5.2l0,0c1.4,0,2.7-0.5,3.7-1.5
		s1.5-2.3,1.5-3.7s-0.5-2.6-1.5-3.6C259.4,259.7,258.1,259.2,256.7,259.2z M258.5,266.1c-0.5,0.5-1.2,0.7-1.9,0.7
		c-1.4,0-2.4-1.1-2.4-2.6c0-1.4,1.1-2.5,2.5-2.5l0,0c0.7,0,1.4,0.3,1.8,0.7c0.5,0.5,0.7,1.1,0.7,1.7
		C259.2,265,258.9,265.6,258.5,266.1z"/>
	<path class="st0" d="M244.8,261.4c1.6,0,2.9-1.3,2.9-2.9c0-0.8-0.3-1.5-0.9-2.1c-0.6-0.6-1.3-0.9-2.1-0.9s-1.5,0.3-2.1,0.9
		c-0.6,0.6-0.9,1.3-0.9,2.1C241.9,260,243.2,261.4,244.8,261.4L244.8,261.4z M244.1,258.4c0-0.2,0.1-0.4,0.2-0.5
		c0.1-0.1,0.3-0.2,0.5-0.2l0,0c0.2,0,0.3,0.1,0.5,0.2c0.1,0.1,0.2,0.3,0.2,0.5c0,0.4-0.3,0.7-0.7,0.7l0,0
		C244.4,259.1,244.1,258.8,244.1,258.4z"/>
	<path class="st0" d="M245.2,267.2L245.2,267.2c-1.5,0-2.8,0.6-3.9,1.6c-1,1-1.6,2.4-1.6,3.9c0,2.8,2.5,5.3,5.4,5.3l0,0
		c1.4,0,2.9-0.6,3.9-1.6s1.6-2.4,1.5-3.8C250.5,269.6,248,267.2,245.2,267.2z M246.9,274.3c-0.5,0.5-1.1,0.8-1.8,0.8l0,0
		c-1.3,0-2.4-1.1-2.4-2.4c0-0.7,0.3-1.3,0.7-1.8c0.5-0.5,1.1-0.7,1.8-0.7l0,0c1.3,0,2.4,1.2,2.4,2.5
		C247.6,273.2,247.4,273.8,246.9,274.3z"/>
	<path class="st0" d="M187.2,262.6L187.2,262.6c-0.9,0-1.7,0.3-2.3,0.9c-0.6,0.6-0.9,1.4-0.9,2.2c0,1.7,1.4,3.1,3.2,3.1l0,0
		c1.8,0,3.1-1.4,3.1-3.1c0-0.9-0.3-1.6-0.9-2.2C188.8,262.9,188,262.6,187.2,262.6z M187.2,267.3L187.2,267.3
		c-0.9,0-1.6-0.7-1.6-1.5c0-0.4,0.1-0.8,0.4-1.1c0.3-0.3,0.7-0.5,1.2-0.5l0,0c0.4,0,0.8,0.2,1.1,0.4c0.3,0.3,0.4,0.7,0.4,1.1
		C188.7,266.6,188,267.3,187.2,267.3z"/>
	<path class="st0" d="M199.3,255.2c-2.5-0.1-4.8,2.1-4.8,4.7c0,2.7,2.1,4.9,4.7,5h0.1c2.5,0,4.7-2.1,4.8-4.7c0-1.3-0.4-2.5-1.3-3.4
		C201.9,255.8,200.6,255.2,199.3,255.2z M199.3,262c-1.2,0-2-1-2-2.1c0-1,1-2,2-2l0,0c0.6,0,1.1,0.3,1.5,0.7
		c0.4,0.4,0.6,0.9,0.6,1.4C201.3,261.1,200.3,262.1,199.3,262z"/>
	<path class="st0" d="M199,267.3L199,267.3c-2.1,0-3.7,1.6-3.8,3.7l0,0c0,2,1.6,3.7,3.7,3.7c0,0,0,0,0.1,0c2,0,3.7-1.6,3.7-3.7
		c0-0.9-0.4-1.9-1-2.6C201,267.8,200,267.4,199,267.3z M199,272.8C199,272.8,198.9,272.8,199,272.8c-1,0-1.7-0.8-1.7-1.7
		c0-1,0.8-1.7,1.7-1.7l0,0c0.4,0,0.9,0.2,1.2,0.5c0.3,0.3,0.5,0.7,0.5,1.2C200.7,272,199.9,272.8,199,272.8z"/>
</g>
<text transform="matrix(1 0 0 1 33.5374 50.2195)" class="st3 st4">EMG</text>
<text transform="matrix(1 0 0 1 205.182 50.2195)" class="st3 st4">ECG</text>
<text transform="matrix(1 0 0 1 208.182 191.2195)" class="st3 st4">EDA</text>
</svg>
