<?xml version="1.0" encoding="utf-8"?>
<!-- Generator: Adobe Illustrator 19.0.0, SVG Export Plug-In . SVG Version: 6.00 Build 0)  -->
<svg version="1.1" id="drawing" xmlns="http://www.w3.org/2000/svg" xmlns:xlink="http://www.w3.org/1999/xlink" x="0px" y="0px"
	 viewBox="-184 293.8 226.8 255.1" style="enable-background:new -184 293.8 226.8 255.1;" xml:space="preserve">
<desc>Created with Snap</desc>
<path style="fill:#3E4EB8;stroke:#000000;stroke-miterlimit:10;" d="M35.2,548.9h-211.5c-4.2,0-7.7-5-7.7-11V304.8
	c0-6.1,3.5-11,7.7-11H35.1c4.2,0,7.7,5,7.7,11v233.1C42.8,543.9,39.4,548.9,35.2,548.9z"/>
<g id="ecg_heart_status">
	<g>
		<path style="fill:none;stroke:#FF4081;stroke-miterlimit:10;" d="M-5.6,482.7h1.3c0.1,0.1,0.3,0,0.4,0c1.9,0,3.7,0.3,5.6,0.9
			c2.6,0.8,5,2.1,7,3.9c1.3,1.1,2.4,2.5,3.2,3.9c1,1.6,1.6,3.4,2,5.3c0.2,0.9,0.3,1.8,0.3,2.8v2.5c0,1.2-0.2,2.4-0.4,3.6
			c-0.4,1.9-1.1,3.7-1.8,5.5c-0.8,1.7-1.6,3.4-2.6,5c-1.1,1.7-2.3,3.4-3.4,5c-0.9,1.2-1.9,2.4-2.9,3.5c-0.8,0.9-1.5,1.8-2.4,2.7
			c-0.4,0.4-0.8,0.8-1.3,1.3c-0.7,0.8-1.5,1.5-2.3,2.3c-0.7,0.7-1.5,1.5-2.3,2.1c-0.8,0.7-1.5,1.4-2.3,2.1c-0.7,0.7-1.6,1.5-2.5,2.1
			c-1.5,1.3-3.1,2.5-4.6,3.8c-1.3,1.1-2.6,2-4,3.1c-0.3,0.2-0.7,0.6-1.1,0.8c-0.3,0.2-0.5,0.2-0.8,0c-1.1-0.8-2.2-1.7-3.3-2.6
			c-1.1-0.9-2.1-1.8-3.2-2.6c-0.9-0.8-1.9-1.5-2.8-2.4c-0.9-0.8-1.8-1.5-2.7-2.4l-2-1.8c-0.7-0.7-1.4-1.3-2-2s-1.4-1.4-2.1-2
			c-0.7-0.7-1.5-1.5-2.1-2.2c-1.1-1.1-2-2-2.9-3.2c-1.3-1.5-2.6-3-3.7-4.6c-1.3-1.8-2.5-3.7-3.7-5.6c-1-1.7-1.8-3.5-2.4-5.4
			c-0.4-1.3-0.7-2.7-1-4c-0.2-0.3-0.2-0.7-0.2-1c0-0.5,0-1,0-1.5v-1.2c0-1.8,0.2-3.6,0.8-5.3c0.3-1.1,0.7-2.1,1.3-3.1
			c0.6-1.3,1.4-2.4,2.4-3.4c1.1-1.3,2.5-2.5,4-3.3c1.4-0.8,2.9-1.5,4.5-1.9c1-0.3,2-0.5,3-0.6c0.8-0.1,1.5-0.1,2.4-0.1
			s1.6,0,2.5,0.1c1,0.1,1.9,0.3,2.8,0.6c1.1,0.3,2,0.7,3,1.1c1.2,0.6,2.4,1.4,3.3,2.3c1.5,1.4,2.9,3,3.9,4.9
			c0.1,0.2,0.2,0.3,0.2,0.5s0.2,0.2,0.3,0c0.3-0.6,0.7-1.2,1.1-1.8c0.9-1.4,2-2.6,3.3-3.7c1.1-1.1,2.4-1.9,3.7-2.5
			c1.4-0.7,2.8-1.1,4.4-1.3c0.6-0.1,1.1-0.1,1.6-0.1L-5.6,482.7z"/>
		<path style="fill:none;stroke:#FF4081;stroke-miterlimit:10;" d="M-29.6,506.5c-0.1,2.1-0.2,4.2-0.3,6.3c-0.1,0.6-0.1,1.1-0.2,1.6
			c0,0.2-0.1,0.4-0.3,0.5c-0.2,0.1-0.6-0.1-0.6-0.3l0,0c-0.1-0.6-0.6-1.1-1.2-1.2c-0.6-0.1-0.4-0.9-0.7-1.3
			c-0.1-0.1-0.2,0.1-0.2,0.2c-0.1,1.1-0.9,1.3-1.9,1.3c-2-0.1-3.8-0.1-5.8-0.1c-0.3,0-0.8,0.1-0.8-0.6c0-0.7,0.6-0.6,0.9-0.6
			c1.9,0,3.7-0.1,5.6,0c0.5,0,0.8-0.1,0.9-0.6c0.2-0.7,0.4-1.3,0.7-2c0.1-0.3,0.2-0.6,0.6-0.5c0.3,0.1,0.4,0.2,0.5,0.5
			c0.2,0.6,0.4,1.2,0.6,1.8c0.1,0.3,0.1,0.8,0.6,0.8s0.3-0.6,0.3-0.8c0.2-3.3,0.4-6.6,0.6-9.8c0.1-2.2,0.2-4.3,0.3-6.5
			c0-0.2,0.1-0.3,0.1-0.5c0.1-0.3,0.2-0.6,0.6-0.6c0.3,0,0.5,0.3,0.6,0.6c0.1,1.5,0.2,3.2,0.3,4.7l0.9,14.6c0.3,0,0.2-0.2,0.2-0.3
			c0.1-1.2,0.2-1.3,1.3-1.3c0.8,0.1,1.6-0.2,2.3-0.7c0.9-0.8,2.4-0.8,3.3,0c0.7,0.7,1.5,0.6,2.4,0.7c1.1,0.1,1.7-0.3,1.9-1.4
			c0.1-0.4,0.3-0.8,0.6-1.2c0.3-0.6,0.8-0.6,1.1,0c0.3,0.7,0.5,1.3,0.7,2c0.1,0.2,0.1,0.5,0.3,0.5c0.3,0,0.3-0.3,0.3-0.6
			c0.3-3.8,0.6-7.7,0.8-11.6c0.1-1.5,0.2-3.2,0.3-4.7c0-0.4,0.1-0.8,0.6-0.8c0.6,0,0.6,0.4,0.6,0.8c0.2,2.8,0.3,5.5,0.5,8.2
			c0.2,3.2,0.5,6.5,0.6,9.7c0,0.1,0.1,0.1,0.1,0.2s0.2,0,0.2-0.1c0.3-1.3,0.3-1.3,1.7-1.1c0.8,0.1,1.8-0.1,2.4-0.7
			c1.1-0.8,2.2-0.8,3.3,0.1c0.4,0.4,1.1,0.6,1.6,0.6c1.3-0.1,2.7-0.1,4-0.1c0.3,0,0.6-0.1,0.8-0.2c0.3-0.3,1-0.2,1.3,0.1
			s0.3,0.8,0.1,1.1c-0.2,0.4-0.7,0.6-1.1,0.3c-0.1,0-0.1-0.1-0.1-0.1c-0.3-0.2-0.8-0.3-1.2-0.2c-1.5,0-2.9,0-4.3,0.1
			c-0.6,0.1-1.1-0.2-1.5-0.6c-0.8-0.8-1.5-0.9-2.4-0.1c-0.6,0.6-1.5,0.8-2.3,0.7s-1.1,0.2-1.1,1c-0.2,2.5-0.4,5-0.7,7.6
			c0,0.1,0,0.3-0.1,0.4c-0.1,0.3-0.1,0.7-0.6,0.7s-0.5-0.3-0.6-0.7c-0.1-0.2,0-0.3-0.1-0.5c-0.3-5.4-0.7-10.6-1-16
			c0-0.2-0.1-0.3-0.2-0.5c-0.1,1.1-0.2,2.3-0.2,3.4l-0.3,5.1c0,0.3,0,0.8-0.5,0.8c-0.5,0.1-0.7-0.3-0.7-0.7
			c-0.1-0.5-0.4-0.8-0.9-0.9c-0.7-0.2-0.5-1-0.8-1.4c-0.1,0-0.2,0.1-0.2,0.2c-0.2,1.3-1.1,1.5-2.3,1.5c-0.4-0.1-0.8-0.1-1.3,0
			c-0.7,0.1-1.5-0.2-2-0.7c-0.5-0.7-1.5-0.8-2-0.3c-0.1,0.1-0.2,0.2-0.3,0.3c-0.6,0.6-1.3,0.8-2.1,0.7c-0.8-0.1-0.9,0.3-1,1
			c-0.2,2.4-0.4,4.9-0.7,7.2c-0.1,0.5,0.1,1.3-0.7,1.3c-0.8-0.1-0.6-0.8-0.6-1.3c-0.3-4.1-0.6-8.1-0.8-12.1
			C-29.5,508.3-29.5,507.4-29.6,506.5C-29.4,506.7-29.5,506.6-29.6,506.5z"/>
	</g>
	<path style="fill:none;stroke:#FF4081;stroke-miterlimit:10;" d="M-29.6,506.5c-0.1,2.1-0.2,4.2-0.3,6.3c-0.1,0.6-0.1,1.1-0.2,1.6
		c0,0.2-0.1,0.4-0.3,0.5c-0.2,0.1-0.6-0.1-0.6-0.3l0,0c-0.1-0.6-0.6-1.1-1.2-1.2c-0.6-0.1-0.4-0.9-0.7-1.3c-0.1-0.1-0.2,0.1-0.2,0.2
		c-0.1,1.1-0.9,1.3-1.9,1.3c-2-0.1-3.8-0.1-5.8-0.1c-0.3,0-0.8,0.1-0.8-0.6c0-0.7,0.6-0.6,0.9-0.6c1.9,0,3.7-0.1,5.6,0
		c0.5,0,0.8-0.1,0.9-0.6c0.2-0.7,0.4-1.3,0.7-2c0.1-0.3,0.2-0.6,0.6-0.5c0.3,0.1,0.4,0.2,0.5,0.5c0.2,0.6,0.4,1.2,0.6,1.8
		c0.1,0.3,0.1,0.8,0.6,0.8s0.3-0.6,0.3-0.8c0.2-3.3,0.4-6.6,0.6-9.8c0.1-2.2,0.2-4.3,0.3-6.5c0-0.2,0.1-0.3,0.1-0.5
		c0.1-0.3,0.2-0.6,0.6-0.6c0.3,0,0.5,0.3,0.6,0.6c0.1,1.5,0.2,3.2,0.3,4.7l0.9,14.6c0.3,0,0.2-0.2,0.2-0.3c0.1-1.2,0.2-1.3,1.3-1.3
		c0.8,0.1,1.6-0.2,2.3-0.7c0.9-0.8,2.4-0.8,3.3,0c0.7,0.7,1.5,0.6,2.4,0.7c1.1,0.1,1.7-0.3,1.9-1.4c0.1-0.4,0.3-0.8,0.6-1.2
		c0.3-0.6,0.8-0.6,1.1,0c0.3,0.7,0.5,1.3,0.7,2c0.1,0.2,0.1,0.5,0.3,0.5c0.3,0,0.3-0.3,0.3-0.6c0.3-3.8,0.6-7.7,0.8-11.6
		c0.1-1.5,0.2-3.2,0.3-4.7c0-0.4,0.1-0.8,0.6-0.8c0.6,0,0.6,0.4,0.6,0.8c0.2,2.8,0.3,5.5,0.5,8.2c0.2,3.2,0.5,6.5,0.6,9.7
		c0,0.1,0.1,0.1,0.1,0.2s0.2,0,0.2-0.1c0.3-1.3,0.3-1.3,1.7-1.1c0.8,0.1,1.8-0.1,2.4-0.7c1.1-0.8,2.2-0.8,3.3,0.1
		c0.4,0.4,1.1,0.6,1.6,0.6c1.3-0.1,2.7-0.1,4-0.1c0.3,0,0.6-0.1,0.8-0.2c0.3-0.3,1-0.2,1.3,0.1s0.3,0.8,0.1,1.1
		c-0.2,0.4-0.7,0.6-1.1,0.3c-0.1,0-0.1-0.1-0.1-0.1c-0.3-0.2-0.8-0.3-1.2-0.2c-1.5,0-2.9,0-4.3,0.1c-0.6,0.1-1.1-0.2-1.5-0.6
		c-0.8-0.8-1.5-0.9-2.4-0.1c-0.6,0.6-1.5,0.8-2.3,0.7s-1.1,0.2-1.1,1c-0.2,2.5-0.4,5-0.7,7.6c0,0.1,0,0.3-0.1,0.4
		c-0.1,0.3-0.1,0.7-0.6,0.7s-0.5-0.3-0.6-0.7c-0.1-0.2,0-0.3-0.1-0.5c-0.3-5.4-0.7-10.6-1-16c0-0.2-0.1-0.3-0.2-0.5
		c-0.1,1.1-0.2,2.3-0.2,3.4l-0.3,5.1c0,0.3,0,0.8-0.5,0.8c-0.5,0.1-0.7-0.3-0.7-0.7c-0.1-0.5-0.4-0.8-0.9-0.9
		c-0.7-0.2-0.5-1-0.8-1.4c-0.1,0-0.2,0.1-0.2,0.2c-0.2,1.3-1.1,1.5-2.3,1.5c-0.4-0.1-0.8-0.1-1.3,0c-0.7,0.1-1.5-0.2-2-0.7
		c-0.5-0.7-1.5-0.8-2-0.3c-0.1,0.1-0.2,0.2-0.3,0.3c-0.6,0.6-1.3,0.8-2.1,0.7c-0.8-0.1-0.9,0.3-1,1c-0.2,2.4-0.4,4.9-0.7,7.2
		c-0.1,0.5,0.1,1.3-0.7,1.3c-0.8-0.1-0.6-0.8-0.6-1.3c-0.3-4.1-0.6-8.1-0.8-12.1C-29.5,508.3-29.5,507.4-29.6,506.5
		C-29.4,506.7-29.5,506.6-29.6,506.5z"/>
</g>
<g id="eda_status_1_">
	<g id="eda_status">
		<path style="fill:none;stroke:#FF4081;stroke-miterlimit:10;" d="M-100.7,519.2c-0.6,0.6-1.6,0.9-2.4,0.7c-0.9-0.2-1.8-0.6-2.7-1
			c-2.5-1.2-4.9-1-7.2,0.8c-0.8,0.6-1.5,1.1-2.3,1.5c-0.4,0.3-1,0.3-1.4,0c-0.8-0.4-1.7-1-2.3-1.7c-1.6-1-3.4-1.3-5.2-1
			c0-0.6,0-1.2,0.1-1.7c0.4-1.7,1-2.1,2.8-2.1h21.2c1-0.1,1.7-0.9,1.7-1.9c-0.1-0.9-0.8-1.7-1.7-1.7h-11c-0.2-0.8-0.3-1.5-0.5-2.3
			c-1.1-4.3-2.8-8.6-4.9-12.5c-1.1-2-2.3-3.9-3.8-5.7c-0.2-0.3-0.6-0.4-0.8-0.3c-0.3,0.2-0.3,0.5-0.2,0.9c0.5,0.9,1,1.9,1.4,2.8
			c1.7,3.2,3,6.6,3.8,10.1c0.3,1,0.3,2.1,0.4,3.2c0,1.1-0.3,2.2-0.6,3.2c-0.1,0.2-0.1,0.3-0.2,0.5h-5c-3.4,0-5.5,1.7-6.2,5v0.2
			c-0.6,3.9,0.9,7.7,1,8c0.3,0.8,0.8,1.5,1.2,2.2l0.8,1.4c1.7,3.7,0.9,8.7-1.7,11.2c-1.5,1.3-3.4,2.1-5.4,2.2h-0.1
			c-0.3,0-0.6,0-0.8,0.1h-1.4c-0.4-0.1-0.8-0.1-1.2-0.2c-0.4-0.1-0.8-0.1-1.2-0.2c-3.5-0.8-6.2-3.7-6.5-7.2
			c-0.3-2.3,0.1-4.6,1.2-6.6l0.3-0.5c0.8-1.3,1.3-2.8,1.7-4.2c0.1-0.2,1.2-4.1,0-7.6v-0.1c-0.8-2.3-3-3.7-5.4-3.7h-8.6
			c-0.2-1-0.3-2.4-0.6-3.3c-1.1-4.3-2.8-8.6-4.9-12.5c-1.1-2-2.3-3.9-3.8-5.7c-0.2-0.3-0.6-0.4-0.8-0.3c-0.3,0.2-0.3,0.5-0.2,0.9
			c0.5,0.9,1,1.9,1.4,2.8c1.7,3.2,3,6.6,3.8,10.1c0.3,1,0.4,2.1,0.4,3.2s-0.3,2.2-0.6,3.2c-0.2,0.5-0.3,1-0.4,1.4h-8.6
			c-1,0.1-1.7,0.9-1.7,1.9c0.1,0.9,0.8,1.7,1.7,1.7h22.7c0.9-0.1,1.7,0.5,2,1.4c0.3,1.2,0.3,2.3,0.3,3.6c-1.1-0.2-2.2-0.6-3.2-1
			c-2.4-1-4.7-0.9-6.8,0.8c-0.8,0.6-1.4,1-2.2,1.4c-0.6,0.4-1.3,0.4-1.9,0c-0.7-0.4-1.2-0.8-1.7-1.2c-1-0.9-2.4-1.4-3.8-1.2
			c-1.9,0.2-3.7,1.2-4.8,2.7c-0.6,0.7-0.6,1.2-0.1,1.7s1.2,0.3,1.7-0.3c0.6-0.6,1.2-1.1,1.9-1.4c1-0.6,2.3-0.5,3.3,0.3
			c0.8,0.7,1.7,1.2,2.7,1.7c1.2,0.7,2.6,0.6,3.7-0.1c0.8-0.4,1.7-1,2.4-1.5c1.5-1.4,3.2-1.4,5.1-0.6c1.1,0.4,2.2,0.8,3.4,1
			c-0.3,1.1-0.8,2.1-1.4,3.1l-0.3,0.5c-1.4,2.7-1.9,5.7-1.5,8.7c0.6,5.1,4.2,9.2,9.2,10.3c0.5,0.1,1,0.2,1.5,0.3
			c0.3,0,0.7,0.1,1,0.2h2.2c0.2,0,0.3,0,0.6-0.1h0.4c2.8-0.1,5.5-1.2,7.5-3.2c3.9-3.6,5-10.1,2.6-15.2c-0.3-0.6-0.5-1.1-0.8-1.7
			c-0.3-0.8-0.8-1.4-1-1.9c0,0-0.3-0.8-0.5-1.7c1.2-0.8,2.8-0.6,3.8,0.3c0.7,0.6,1.4,1,2.2,1.4c1.2,0.8,2.8,0.8,4.1,0.1
			c1-0.6,2-1.2,2.9-1.9c0.9-0.8,2.1-1,3.2-0.7c0.6,0.2,1.1,0.3,1.7,0.6c1.4,0.8,2.9,1.1,4.4,1c1.1-0.1,2.1-0.6,2.8-1.4
			c0.3-0.5,0.3-1.2-0.1-1.7C-99.6,518.7-100.2,518.6-100.7,519.2z"/>
		<path style="fill:none;stroke:#FF4081;stroke-miterlimit:10;" d="M-145.8,490.1c3.2,6.5,6.1,13.1,7.6,20.2
			c0.6,2.1,0.8,4.3,0.8,6.5c-0.1,2.2-0.5,4.3-1.2,6.5c-0.6,2.2-1.4,4.3-1.2,6.6v1.2c0.2,1.9,0.6,3.6,2,4.8c2.6,2.3,7,1.5,8.8-1.7
			c1-1.9,1.4-4,1.2-6.1c-0.2-3-0.8-5.9-1.4-8.7c-2.1-8.7-5.4-17.1-9.7-24.9c-2.2-4-4.8-7.8-7.7-11.3c-0.6-0.7-1.2-0.8-1.7-0.4
			c-0.6,0.3-0.8,1.2-0.3,1.7c0,0.1,0.1,0.1,0.1,0.1C-147.7,486.4-146.6,488.3-145.8,490.1z"/>
		<path style="fill:none;stroke:#FF4081;stroke-miterlimit:10;" d="M-106.1,528.9L-106.1,528.9c-2.2-0.1-4.1,1.7-4.1,3.9
			c0,0.1,0,0.1,0,0.1c-0.1,2.2,1.7,4.1,4,4.2h0.1l0,0c2.3,0.1,4.2-1.7,4.2-4.1c0-0.1,0-0.1,0-0.1c0-1.1-0.4-2.1-1.2-2.9
			C-104,529.2-105,528.9-106.1,528.9z M-104.7,534.4c-0.4,0.3-1,0.6-1.5,0.6c-1.1,0-1.9-0.9-1.9-2c0-0.1,0-0.1,0-0.1
			c0-1.1,0.9-2,2-2c0,0,0,0,0.1,0l0,0c0.6,0,1,0.2,1.4,0.6c0.3,0.3,0.6,0.8,0.6,1.4C-104.1,533.4-104.3,534-104.7,534.4
			L-104.7,534.4z"/>
		<path style="fill:none;stroke:#FF4081;stroke-miterlimit:10;" d="M-115.7,530.6c1.2,0,2.3-1,2.3-2.3s-1.1-2.4-2.4-2.4
			c-1.3,0-2.4,1.1-2.4,2.4C-118.1,529.6-117,530.6-115.7,530.6L-115.7,530.6z M-116.3,528.2c0-0.1,0.1-0.3,0.2-0.4
			c0.1-0.1,0.3-0.2,0.4-0.2l0,0c0.2,0,0.3,0.1,0.4,0.2c0.1,0.1,0.2,0.3,0.2,0.4c0,0.3-0.3,0.6-0.6,0.6l0,0l0,0
			C-116,528.8-116.3,528.6-116.3,528.2L-116.3,528.2L-116.3,528.2z"/>
		<path style="fill:none;stroke:#FF4081;stroke-miterlimit:10;" d="M-115.4,535.3L-115.4,535.3c-1.2,0-2.3,0.5-3.2,1.2
			c-1.7,1.7-1.7,4.4-0.1,6.1c0.8,0.8,1.9,1.2,3.1,1.2l0,0c1.2,0,2.3-0.5,3.2-1.2c0.8-0.8,1.2-1.9,1.2-3.1
			C-111.2,537.3-113,535.4-115.4,535.3z M-114,541c-0.3,0.4-0.9,0.7-1.4,0.7l0,0c-1.1,0-1.9-0.9-1.9-1.9c0-0.6,0.3-1,0.6-1.4
			c0.3-0.3,0.9-0.6,1.4-0.6l0,0c1.1,0.1,1.9,0.9,1.9,2C-113.4,540.2-113.7,540.7-114,541L-114,541z"/>
		<path style="fill:none;stroke:#FF4081;stroke-miterlimit:10;" d="M-162.3,531.5L-162.3,531.5c-0.7,0-1.3,0.3-1.9,0.8
			c-0.5,0.5-0.8,1.1-0.8,1.7c0,1.4,1.2,2.6,2.6,2.5l0,0l0,0c1.3,0,2.5-1.1,2.5-2.4V534c0-0.7-0.3-1.3-0.8-1.7
			C-161,531.9-161.6,531.5-162.3,531.5z M-162.3,535.4L-162.3,535.4c-0.7,0-1.2-0.6-1.2-1.2c0-0.3,0.1-0.7,0.3-0.9
			c0.3-0.3,0.6-0.4,1-0.4l0,0c0.3,0,0.6,0.1,0.9,0.3c0.3,0.3,0.3,0.6,0.3,0.9C-161,534.8-161.5,535.4-162.3,535.4L-162.3,535.4z"/>
		<path style="fill:none;stroke:#FF4081;stroke-miterlimit:10;" d="M-152.5,525.6c-2.1,0-3.9,1.7-3.9,3.8s1.7,3.9,3.8,4.1h0.1
			c2.1-0.1,3.7-1.7,3.9-3.8c0.1-1-0.3-2-1-2.8C-150.4,526.1-151.5,525.6-152.5,525.6z M-152.5,531.1c-0.9,0-1.7-0.8-1.7-1.7
			c0,0,0,0,0-0.1c0.1-0.8,0.8-1.6,1.7-1.7l0,0c0.5,0,0.9,0.3,1.2,0.6c0.3,0.3,0.5,0.8,0.5,1.2C-150.8,530.4-151.6,531.1-152.5,531.1
			z"/>
		<path style="fill:none;stroke:#FF4081;stroke-miterlimit:10;" d="M-152.7,535.4L-152.7,535.4c-1.7,0-3,1.3-3.1,3l0,0l0,0
			c0,1.7,1.3,3,3,3l0,0h0.1c1.7,0,3-1.3,3-3l0,0c0-0.8-0.3-1.5-0.8-2.1C-151.2,535.7-151.9,535.5-152.7,535.4z M-152.7,539.8
			L-152.7,539.8c-0.8,0-1.4-0.6-1.4-1.4c0-0.8,0.6-1.4,1.4-1.4l0,0c0.3,0,0.8,0.2,1,0.4c0.3,0.3,0.4,0.6,0.4,1
			C-151.4,539.2-152,539.8-152.7,539.8L-152.7,539.8z"/>
	</g>
</g>
<text transform="matrix(1 0 0 1 -118.7566 310.4289)" style="fill:#FFFFFF; font-family:'Roboto Condensed'; font-size:15.526px;">Quality Prediction</text>
<text id="ecg_quality_percentage" transform="matrix(1 0 0 1 17.6029 332.8266)" style="fill:#FFFFFF; font-family:'Roboto Condensed'; font-size:9px;">100%</text>
<text transform="matrix(1 0 0 1 -28.243 323.3921)" style="fill:#FFFFFF; font-family:'Roboto Condensed'; font-size:9.0568px;">ECG</text>
<text id="emg_quality_percentage" transform="matrix(1 0 0 1 -129.0989 332.8264)" style="fill:#FFFFFF; font-family:'Roboto Condensed'; font-size:9px;">100%</text>
<text transform="matrix(1 0 0 1 -174.9459 323.3918)" style="fill:#FFFFFF; font-family:'Roboto Condensed'; font-size:9.0568px;">EMG</text>
<g>
	<rect id="emg_quality_bar" x="-175" y="324.5" style="fill:#FF4447;" width="45.4" height="9.8"/>
	<g>
		
			<rect id="emg_quality_bar_1_" x="-175" y="324.7" style="fill:none;stroke:#FF4447;stroke-miterlimit:10;" width="45.4" height="9.8"/>
	</g>
</g>
<g>
	<rect id="ecg_quality_bar" x="-28.3" y="324.5" style="fill:#257985;" width="45.4" height="9.9"/>
	
		<rect id="ecg_quality_bar_1_" x="-28.3" y="324.5" style="fill:none;stroke:#257985;stroke-miterlimit:10;" width="45.4" height="9.9"/>
</g>
<rect id="emg_quality_bar_2_" x="-101.6" y="324.5" width="45.4" height="9.9"/>
<text id="emg_quality_percentage_1_" transform="matrix(1 0 0 1 -55.7477 332.8264)" style="fill:#FFFFFF; font-family:'Roboto Condensed'; font-size:9px;">100%</text>
<text transform="matrix(1 0 0 1 -101.0731 323.3921)" style="fill:#FFFFFF; font-family:'Roboto Condensed'; font-size:9.0568px;">EDA</text>
<g>
	
		<image style="overflow:visible;enable-background:new    ;" width="1295" height="3637" xlink:href="./resources/F5764F4B.png"  transform="matrix(3.280660e-018 -5.357724e-002 5.357724e-002 3.280660e-018 -175.6109 411.4317)">
	</image>
	<g>
		<path style="fill:none;stroke:#72BF46;stroke-miterlimit:10;" d="M-168.4,405.8c19,4.6,35.3,2.5,48.1-0.3
			c12.7-2.8,66.3-6.9,79.6-8.6"/>
		<path style="fill:none;stroke:#72BF46;stroke-miterlimit:10;" d="M-168.4,405.6c17.5,4.2,35.4,1.9,48-1.1
			c12.1-2.3,67.4-6.7,80-8.3"/>
		<path style="fill:none;stroke:#72BF46;stroke-miterlimit:10;" d="M-168.3,405.6c16,3.8,35.5,1.2,47.9-1.8
			c11.3-1.8,68.3-6.4,80.2-8"/>
		<path style="fill:none;stroke:#72BF46;stroke-miterlimit:10;" d="M-168.2,405.6c14.6,3.4,35.5,0.5,47.8-2.5
			c10.5-1.2,69.4-6.3,80.4-7.8"/>
		<path style="fill:none;stroke:#72BF46;stroke-miterlimit:10;" d="M-168.1,405.6c13.1,3,35.7-0.1,47.7-3.3c9.8-0.8,70.4-6,80.7-7.5
			"/>
		<path style="fill:none;stroke:#72BF46;stroke-miterlimit:10;" d="M-168,405.5c11.6,2.6,35.8-0.8,47.7-3.9
			c9.1-0.2,71.4-5.8,80.9-7.2"/>
		<path style="fill:none;stroke:#72BF46;stroke-miterlimit:10;" d="M-167.9,405.5c10.2,2.3,35.9-1.4,47.6-4.7
			c8.3,0.3,72.4-5.6,81.3-7"/>
	</g>
	<g id="palmaris_longus">
		<g>
			<path style="fill:none;stroke:#CEB22C;stroke-miterlimit:10;" d="M-167.3,403.9c11.4,2.2,39.5-2,55.4-6.8
				c19.2-4.1,59.6-12.6,65.4-12.7c5.8-0.1,9.2-1.1,16.7,2.4"/>
			<path style="fill:none;stroke:#CEB22C;stroke-miterlimit:10;" d="M-167.1,403.8c10.2,1.7,33.2-1.4,49.2-5.6
				c2.1-0.5,4.2-1,6.1-1.6c5.6-1.1,12.9-2.6,20.6-4.2c13.9-2.8,29.6-6,38.6-7.6c1.9-0.4,4-0.6,6-0.8c5.8-0.1,9.4-1,16.7,2.1"/>
			<path style="fill:none;stroke:#CEB22C;stroke-miterlimit:10;" d="M-167.1,403.8c10.5,1.6,33.3-1.8,49-6c2.1-0.5,4.2-0.9,6.1-1.4
				c5.7-1.1,12.9-2.5,20.6-4.1c13.6-2.8,29.4-6,38.5-7.6c1.9-0.4,4-0.6,6-0.8c5.9-0.2,9.8-1,16.7,1.9"/>
			<path style="fill:none;stroke:#CEB22C;stroke-miterlimit:10;" d="M-166.9,403.8c10.7,1.4,33.4-2.1,48.8-6.5
				c2.1-0.4,4.2-0.8,6.1-1.3c5.8-1,12.9-2.4,20.6-3.9c13.3-2.7,29-5.8,38.4-7.6c1.9-0.4,3.9-0.6,6-0.8c6-0.3,10.1-0.9,16.7,1.7"/>
			<path style="fill:none;stroke:#CEB22C;stroke-miterlimit:10;" d="M-166.8,403.7c11,1.2,33.6-2.5,48.8-6.9
				c2.1-0.4,4.2-0.8,6.1-1.2c5.9-0.9,12.8-2.2,20.6-3.8c13.1-2.6,28.7-5.8,38.4-7.6c1.9-0.4,3.9-0.6,6-0.8c6-0.4,10.4-0.9,16.6,1.4"
				/>
			<path style="fill:none;stroke:#CEB22C;stroke-miterlimit:10;" d="M-166.8,403.7c11.3,1,33.7-2.7,48.6-7.4c2.1-0.4,4.2-0.7,6.1-1
				c6-0.8,12.8-2.1,20.6-3.6c12.7-2.5,28.3-5.6,38.4-7.6c1.9-0.4,3.9-0.7,6-0.8c6.1-0.4,10.7-0.8,16.6,1.2"/>
			<path style="fill:none;stroke:#CEB22C;stroke-miterlimit:10;" d="M-166.7,403.6c11.5,0.8,33.8-3,48.5-7.8c2.1-0.3,4.2-0.6,6.2-1
				c6-0.8,12.8-1.9,20.6-3.4c12.4-2.5,28-5.6,38.3-7.6c2.5-0.5,4.5-0.8,6-0.9c6.2-0.4,11-0.8,16.6,1.1"/>
			<path style="fill:none;stroke:#CEB22C;stroke-miterlimit:10;" d="M-166.5,403.6c11.8,0.5,34-3.4,48.2-8.3
				c2.1-0.3,4.2-0.5,6.2-0.8c6.1-0.7,12.8-1.8,20.6-3.4c12.1-2.4,27.7-5.5,38.2-7.6c1.9-0.4,3.9-0.7,6-0.9
				c6.3-0.5,11.4-0.8,16.7,0.8"/>
			<path style="fill:none;stroke:#CEB22C;stroke-miterlimit:10;" d="M-166.5,403.5c12,0.4,34.1-3.7,48.1-8.7
				c2.1-0.2,4.1-0.4,6.2-0.7c6.2-0.6,12.7-1.7,20.6-3.2c11.8-2.2,27.3-5.4,38.1-7.6c1.9-0.4,3.9-0.7,5.9-0.9
				c6.3-0.5,11.6-0.7,16.7,0.5"/>
			<path style="fill:none;stroke:#CEB22C;stroke-miterlimit:10;" d="M-166.4,403.4c12.3,0.1,34.2-4.1,48-9.3
				c2.1-0.1,4.1-0.4,6.2-0.6c6.3-0.5,12.7-1.6,20.6-3c11.5-2.1,27-5.2,38-7.6c2.2-0.5,4.2-0.8,5.9-1c6.3-0.5,12-0.7,16.7,0.4"/>
			<path style="fill:none;stroke:#CEB22C;stroke-miterlimit:10;" d="M-166.4,403.4c12.5-0.1,34.4-4.3,47.7-9.6
				c2.1-0.1,4.1-0.3,6.2-0.5c6.9-0.6,13.8-1.6,20.5-2.8c11.2-2.1,26.7-5.1,38-7.6c1.9-0.4,3.9-0.8,5.9-1c6.3-0.6,12.3-0.6,16.7,0.1"
				/>
			<path style="fill:none;stroke:#CEB22C;stroke-miterlimit:10;" d="M-166.2,403.4c12.7-0.3,34.5-4.7,47.6-10.1
				c2.1-0.1,4.1-0.2,6.2-0.4c6.9-0.5,13.8-1.4,20.5-2.7c10.8-1.9,26.4-5,37.9-7.6c1.9-0.5,3.9-0.8,5.9-1c5.6-0.6,11.1-0.6,16.7-0.1"
				/>
			<path style="fill:none;stroke:#CEB22C;stroke-miterlimit:10;" d="M-166,403.4c13-0.5,34.6-5,47.5-10.5c2.1-0.1,4.1-0.1,6.2-0.3
				c6.9-0.4,13.8-1.3,20.5-2.6c10.5-1.9,26-4.9,37.8-7.6c1.9-0.5,3.9-0.8,5.9-1c5.6-0.5,11.1-0.6,16.6-0.3"/>
			<path style="fill:none;stroke:#CEB22C;stroke-miterlimit:10;" d="M-166,403.3c13.2-0.7,34.7-5.2,47.4-10.9
				c9.1,0,16.5-0.8,26.7-2.6s25.7-4.9,37.8-7.6c8-1.9,18.1-1.4,22.5-1.6"/>
		</g>
	</g>
	<g id="Pronator_teres_copy">
		<g>
			<path style="fill:none;stroke:#EF4848;stroke-miterlimit:10;" d="M-156.8,390.3c1.2-0.2,3.3-1.5,5.9-2.7
				c2.6-1.2,19.4-9.4,28.5-12.3"/>
			<path style="fill:none;stroke:#EF4848;stroke-miterlimit:10;" d="M-156.3,390.7c1.1-0.2,3.3-1.6,5.9-2.8c0.8-0.3,2.5-1.1,4.7-2.2
				c4.7-2.2,12-5.4,18.2-8c2.5-1.1,4.6-1.8,6.4-2.5"/>
			<path style="fill:none;stroke:#EF4848;stroke-miterlimit:10;" d="M-155.7,391.2c1.1-0.2,3.4-1.6,6.1-2.8c0.9-0.4,2.6-1.3,4.8-2.2
				c4.9-2.2,12.3-5.5,18.5-8.1c2.1-1,4.2-1.9,6.4-2.6"/>
			<path style="fill:none;stroke:#EF4848;stroke-miterlimit:10;" d="M-155.2,391.6c1-0.2,3.4-1.6,6.2-2.9c0.9-0.4,2.8-1.4,4.9-2.3
				c5-2.3,12.7-5.4,18.9-8.3c2.1-1.1,4.3-2.1,6.5-2.8"/>
			<path style="fill:none;stroke:#EF4848;stroke-miterlimit:10;" d="M-154.7,392c0.9-0.1,3.4-1.7,6.3-3.1c1-0.5,2.8-1.5,4.9-2.4
				c5.2-2.4,13.1-5.5,19.2-8.3c2.2-1.2,4.4-2.2,6.6-2.9"/>
			<path style="fill:none;stroke:#EF4848;stroke-miterlimit:10;" d="M-154.2,392.4c0.8-0.1,3.5-1.8,6.4-3.2c1.1-0.6,2.9-1.5,5-2.5
				c5.3-2.4,13.4-5.4,19.6-8.5c2.2-1.3,4.4-2.3,6.7-3.1"/>
			<path style="fill:none;stroke:#EF4848;stroke-miterlimit:10;" d="M-153.6,392.9c0.8-0.1,3.5-1.8,6.5-3.4c1.2-0.7,3.2-1.7,5.2-2.6
				c5.3-2.5,13.7-5.5,20-8.6c3.4-2,5.6-2.9,6.8-3.3"/>
			<path style="fill:none;stroke:#EF4848;stroke-miterlimit:10;" d="M-153.1,393.2c0.7-0.1,3.5-1.8,6.6-3.5c1.4-0.7,3.3-1.7,5.3-2.6
				c5.6-2.5,14-5.4,20.4-8.8c3.6-2.2,5.8-3.1,6.9-3.4"/>
			<path style="fill:none;stroke:#EF4848;stroke-miterlimit:10;" d="M-152.6,393.7c0.7-0.1,3.5-1.9,6.6-3.6c1.4-0.8,3.4-1.8,5.3-2.8
				c5.7-2.6,14.5-5.5,20.8-8.8c3.8-2.4,6-3.3,7-3.6"/>
			<path style="fill:none;stroke:#EF4848;stroke-miterlimit:10;" d="M-152.1,394.1c0.6-0.1,3.5-1.9,6.8-3.7c1.5-0.8,3.5-1.9,5.4-2.8
				c5.8-2.7,14.8-5.4,21.1-9c4-2.5,6.1-3.5,7.1-3.7"/>
			<path style="fill:none;stroke:#EF4848;stroke-miterlimit:10;" d="M-151.5,394.6c0.6-0.1,3.6-2.1,6.9-3.9c1.6-1,3.6-2.1,5.5-2.9
				c5.9-2.8,15.1-5.5,21.5-9.1c4.2-2.7,6.3-3.6,7.2-3.9"/>
			<path style="fill:none;stroke:#EF4848;stroke-miterlimit:10;" d="M-151,395c0.5-0.1,3.6-2.1,6.9-4c1.7-0.9,3.8-2.1,5.6-2.9
				c6-2.8,15.4-5.5,21.8-9.3c4.4-2.9,6.5-3.9,7.3-4.1"/>
			<path style="fill:none;stroke:#EF4848;stroke-miterlimit:10;" d="M-150.5,395.4c0.4-0.1,3.7-2.2,7.1-4.1c1.7-1,3.9-2.2,5.6-2.9
				c6.1-2.8,15.8-5.4,22.3-9.4c4.6-3,6.7-4.1,7.4-4.3"/>
			<path style="fill:none;stroke:#EF4848;stroke-miterlimit:10;" d="M-149.9,395.8c0.4,0,3.7-2.3,7.2-4.2c1.9-1.1,4-2.2,5.8-3
				c6.4-2.8,16.2-5.4,22.6-9.5c4.7-3.3,6.9-4.2,7.5-4.4"/>
			<path style="fill:none;stroke:#EF4848;stroke-miterlimit:10;" d="M-149.4,396.3c0.3,0,3.7-2.3,7.3-4.3c1.9-1.1,3.9-2.2,5.9-3.1
				c6.5-2.9,16.5-5.5,23-9.6c5-3.4,7.1-4.4,7.6-4.6"/>
			<path style="fill:none;stroke:#EF4848;stroke-miterlimit:10;" d="M-148.8,396.6c0.3,0,3.8-2.3,7.4-4.4c1.9-1.2,3.9-2.2,6-3.1
				c6.6-2.9,16.9-5.5,23.3-9.7c5.1-3.6,7.3-4.6,7.6-4.7"/>
			<path style="fill:none;stroke:#EF4848;stroke-miterlimit:10;" d="M-148.4,397.1c0.2-0.1,3.8-2.4,7.5-4.6c2-1.2,4-2.3,6-3.2
				c6.7-3.1,17.3-5.5,23.8-9.9c5.4-3.8,7.5-4.8,7.8-4.9"/>
			<path style="fill:none;stroke:#EF4848;stroke-miterlimit:10;" d="M-147.8,397.5c0.1,0,3.9-2.5,7.6-4.8c2-1.2,4-2.3,6.1-3.3
				c6.9-3.1,17.6-5.5,24.1-10c5.5-3.9,7.7-5,7.9-5"/>
			<path style="fill:none;stroke:#EF4848;stroke-miterlimit:10;" d="M-147.2,398c0.1,0,3.9-2.6,7.6-4.9c2-1.2,4.1-2.4,6.2-3.4
				c7-3.1,17.9-5.5,24.5-10.1c5.7-4.1,7.9-5.2,7.9-5.2"/>
			<path style="fill:none;stroke:#EF4848;stroke-miterlimit:10;" d="M-146.7,398.3c0,0,10.3-6.8,14-8.4c7.2-3.1,18.3-5.4,24.9-10.2
				c5.9-4.3,8-5.4,8-5.4"/>
		</g>
		<g>
			<path style="fill:none;stroke:#E2F4FD;stroke-miterlimit:10;" d="M-176.8,389.7c8.4,0.6,15,1.7,20,0.8"/>
			<path style="fill:none;stroke:#E2F4FD;stroke-miterlimit:10;" d="M-176.8,389.8c4.2,0.3,9.1,0.9,12.6,1.3
				c1.8,0.4,3.6,0.5,5.4,0.4c0.9,0,1.9-0.2,2.8-0.5"/>
			<path style="fill:none;stroke:#E2F4FD;stroke-miterlimit:10;" d="M-176.8,389.8c3.8,0.3,9.7,0.9,13.2,1.6c2,0.4,3.7,0.9,5.5,0.9
				c0.9,0,2-0.2,2.9-0.6"/>
			<path style="fill:none;stroke:#E2F4FD;stroke-miterlimit:10;" d="M-176.8,389.9c3.5,0.3,10.3,1,13.7,1.8c2.2,0.6,3.8,1.3,5.6,1.2
				c1,0,2.1-0.3,3.1-0.6"/>
			<path style="fill:none;stroke:#E2F4FD;stroke-miterlimit:10;" d="M-176.9,389.9c3.1,0.2,10.9,1.1,14.3,2.2
				c2.3,0.7,3.8,1.6,5.8,1.6c1.1,0,2.1-0.3,3.2-0.7"/>
			<path style="fill:none;stroke:#E2F4FD;stroke-miterlimit:10;" d="M-176.9,389.9c2.8,0.2,11.4,1.2,14.8,2.5c2.4,0.8,3.9,2,5.9,2
				c1.1-0.1,2.2-0.4,3.3-0.9"/>
			<path style="fill:none;stroke:#E2F4FD;stroke-miterlimit:10;" d="M-176.9,390c2.5,0.2,12,1.4,15.3,2.7c2.5,1,4,2.4,6.1,2.4
				c1.2-0.1,2.3-0.4,3.4-1"/>
			<path style="fill:none;stroke:#E2F4FD;stroke-miterlimit:10;" d="M-177.1,390c2.1,0.1,12.6,1.6,15.8,3c2.6,1.2,4.1,2.8,6.2,2.8
				c1.2-0.1,2.4-0.4,3.5-1"/>
			<path style="fill:none;stroke:#E2F4FD;stroke-miterlimit:10;" d="M-177.1,390c1.7,0.1,13.2,1.6,16.3,3.3c2.7,1.4,4.2,3.1,6.4,3.2
				c1.2-0.1,2.5-0.5,3.7-1.2"/>
			<path style="fill:none;stroke:#E2F4FD;stroke-miterlimit:10;" d="M-177.1,390.1c1.4,0.1,13.7,1.7,16.9,3.6
				c2.8,1.6,4.2,3.4,6.5,3.6c0.9,0,2.3-0.5,3.7-1.3"/>
			<path style="fill:none;stroke:#E2F4FD;stroke-miterlimit:10;" d="M-177.1,390.2c1,0.1,14.2,1.9,17.4,3.8c2.9,1.7,4.2,3.8,6.7,4
				c0.9,0.1,2.3-0.6,3.9-1.4"/>
			<path style="fill:none;stroke:#E2F4FD;stroke-miterlimit:10;" d="M-177.1,390.2c0.7,0.1,14.8,2.1,17.9,4.2c3,2,4.3,4.2,6.8,4.4
				c1,0.1,2.3-0.6,4-1.5"/>
			<path style="fill:none;stroke:#E2F4FD;stroke-miterlimit:10;" d="M-177.1,390.2c0.3,0,15.3,2.3,18.5,4.5c3.1,2.2,4.4,4.5,6.9,4.7
				c1,0.1,2.4-0.6,4.1-1.6"/>
			<path style="fill:none;stroke:#E2F4FD;stroke-miterlimit:10;" d="M-177.1,390.3c0,0,15.9,2.4,19,4.8c3.1,2.4,4.5,4.8,7,5.1
				c1,0.1,2.4-0.6,4.2-1.7"/>
		</g>
	</g>
	<g id="fcr_muscle">
		<g>
			<path style="fill:none;stroke:#B596C6;stroke-miterlimit:10;" d="M-165.2,402.9c21.5-1.4,32.3-5.6,48-11.3
				c15.7-5.8,65.5-13.1,79.1-15.3"/>
			<path style="fill:none;stroke:#B596C6;stroke-miterlimit:10;" d="M-38.2,376.1c-8.9,1.6-32,4.9-51,8.5
				c-11.5,2.1-22.1,4.3-28.1,6.4c-4.5,1.7-8.9,3.4-13.3,4.9c-9.7,3.2-19.6,5.6-34.5,6.9"/>
			<path style="fill:none;stroke:#B596C6;stroke-miterlimit:10;" d="M-38.2,376.1c-9.3,1.6-32.5,5-51,8.4c-11.3,2.1-22,4.1-28.2,6.1
				c-4.3,1.6-8.8,3.3-13.3,4.8c-9.6,3.2-19.5,5.6-34.3,7.4"/>
			<path style="fill:none;stroke:#B596C6;stroke-miterlimit:10;" d="M-38.3,375.9c-9.8,1.7-33.2,5.1-51.1,8.3
				c-11.1,2-21.9,3.8-28.3,5.8c-4.1,1.4-8.6,3.4-13.2,4.9c-9.3,3.1-19.5,5.6-34.2,7.8"/>
			<path style="fill:none;stroke:#B596C6;stroke-miterlimit:10;" d="M-38.3,375.9c-10.2,1.8-33.8,5.2-51.1,8.3
				c-10.9,1.9-21.8,3.4-28.3,5.5c-3.8,1.4-8.5,3.4-13.2,5c-9.3,3-19.4,5.7-34,8.2"/>
			<path style="fill:none;stroke:#B596C6;stroke-miterlimit:10;" d="M-38.5,375.7c-10.6,1.9-34.3,5.4-51.1,8.2
				c-10.8,1.8-21.7,3.2-28.3,5.1c-3.5,1.3-8.4,3.4-13.2,5c-9.1,3-19.3,5.6-33.9,8.7"/>
			<path style="fill:none;stroke:#B596C6;stroke-miterlimit:10;" d="M-38.5,375.6c-11.1,2-34.9,5.5-51.1,8
				c-10.5,1.7-21.5,2.9-28.4,4.9c-3.4,1.2-8.3,3.4-13.1,5c-8.9,3-19.3,5.7-33.7,9.2"/>
			<path style="fill:none;stroke:#B596C6;stroke-miterlimit:10;" d="M-38.5,375.5c-11.5,2.1-35.5,5.6-51.1,8
				c-10.4,1.6-21.4,2.6-28.5,4.5c-3,1.1-8.1,3.4-13.1,5.1c-8.7,2.9-19.3,5.7-33.5,9.6"/>
			<path style="fill:none;stroke:#B596C6;stroke-miterlimit:10;" d="M-38.5,375.5c-11.9,2.2-36.2,5.7-51.1,7.9
				c-10.2,1.6-21.3,2.4-28.5,4.1c-2.8,1.1-8,3.4-13.1,5.1c-8.5,2.8-19.2,5.8-33.4,10"/>
			<path style="fill:none;stroke:#B596C6;stroke-miterlimit:10;" d="M-38.6,375.3c-12.3,2.4-36.7,5.8-51.1,7.8
				c-10,1.4-21.2,2.1-28.6,3.9c-2.6,1-7.8,3.4-13.1,5.2c-8.4,2.8-19.1,5.8-33.3,10.5"/>
			<path style="fill:none;stroke:#B596C6;stroke-miterlimit:10;" d="M-38.7,375.2c-12.7,2.5-37.3,5.9-51.1,7.8
				c-9.8,1.3-21.1,1.8-28.7,3.5c-2.4,0.8-7.7,3.4-13.1,5.2c-8.3,2.8-19,5.8-33.2,10.9"/>
			<path style="fill:none;stroke:#B596C6;stroke-miterlimit:10;" d="M-38.8,375.1c-13.1,2.6-37.9,6-51.1,7.7
				c-9.6,1.2-21,1.6-28.7,3.2c-2.1,0.8-7.6,3.4-13.1,5.3c-8,2.7-19,5.8-32.9,11.3"/>
			<path style="fill:none;stroke:#B596C6;stroke-miterlimit:10;" d="M-38.8,375c-13.6,2.6-38.5,6-51.2,7.6
				c-9.3,1.1-20.7,1.2-28.7,2.8c-1.9,0.7-7.4,3.4-13.1,5.4c-7.8,2.6-19,5.8-32.8,11.7"/>
			<path style="fill:none;stroke:#B596C6;stroke-miterlimit:10;" d="M-38.8,374.8c-14,2.8-39.1,6.2-51.2,7.5
				c-9.3,1.1-20.7,1-28.8,2.6c-1.7,0.6-7.2,3.4-13.1,5.4c-7.8,2.6-19,5.8-32.6,12.2"/>
			<path style="fill:none;stroke:#B596C6;stroke-miterlimit:10;" d="M-38.9,374.8c-14.4,2.8-39.7,6.3-51.2,7.4
				c-9.1,1-20.6,0.7-28.8,2.2c-1.4,0.5-7.1,3.4-13.1,5.4c-7.6,2.6-18.9,5.9-32.5,12.6"/>
			<path style="fill:none;stroke:#B596C6;stroke-miterlimit:10;" d="M-39,374.7c-14.8,3-40.4,6.3-51.2,7.3
				c-8.9,0.8-20.5,0.4-28.9,1.9c-1.2,0.4-7.1,3.4-13.1,5.5c-7.4,2.5-18.8,5.8-32.4,13.1"/>
			<path style="fill:none;stroke:#B596C6;stroke-miterlimit:10;" d="M-39,374.6c-15.3,3-40.9,6.3-51.3,7.2c-8.7,0.8-20.4,0.1-29,1.6
				c-1,0.4-6.9,3.4-13,5.6c-7.2,2.5-18.7,5.9-32.2,13.5"/>
			<path style="fill:none;stroke:#B596C6;stroke-miterlimit:10;" d="M-39.2,374.4c-15.7,3.2-41.5,6.4-51.3,7.2
				c-8.5,0.6-20.2-0.1-29,1.2c-0.7,0.3-6.7,3.4-13,5.6c-7.1,2.4-18.7,5.9-32,13.9"/>
			<path style="fill:none;stroke:#B596C6;stroke-miterlimit:10;" d="M-39.2,374.4c-16,3.3-42.2,6.5-51.3,7.1c-8.4,0.5-20.1-0.4-29,1
				c-4.1,2.1-8.5,4.1-13,5.6c-7,2.4-18.6,5.9-31.9,14.4"/>
			<path style="fill:none;stroke:#B596C6;stroke-miterlimit:10;" d="M-39.2,374.3c-16.5,3.4-42.7,6.6-51.3,7.1
				c-8.2,0.4-20-0.7-29.1,0.6c-4.1,2.2-8.5,4.1-12.9,5.7c-6.8,2.3-18.6,6-31.7,14.7"/>
			<path style="fill:none;stroke:#B596C6;stroke-miterlimit:10;" d="M-39.2,374.2c-16.9,3.4-43.3,6.7-51.4,7c-8,0.3-19.8-1-29.1,0.3
				c-4.1,2.2-8.5,4.1-12.9,5.7c-6.6,2.2-18.5,6-31.6,15.3"/>
		</g>
	</g>
	<g id="Brachiordialis_copy">
		<g id="brachioradialis_1">
			<path style="fill:none;stroke:#00A4A7;stroke-miterlimit:10;" d="M-171.2,369.7c7,0.6,10.8,1.6,18.6,4.4
				c9.8,3.3,20.2,4.1,30.3,2.6c11.5-1.6,24.6-3.7,34.6-3.8c5.4-0.2,12.3-1.1,16.4-1.2c4.1-0.1,22.5-1,29.1-0.7"/>
			<path style="fill:none;stroke:#00A4A7;stroke-miterlimit:10;" d="M-171.5,369.6c2.4,0.2,4.4,0.4,6.4,0.8c3.6,0.6,7,1.6,12.2,3.3
				c6.4,1.9,13,2.8,19.7,2.8c3.5,0.1,7.1-0.1,10.6-0.6c4.3-0.5,8.8-1.1,13.4-1.6c7.4-0.9,14.9-1.6,21.3-1.6
				c4.2-0.1,9.2-0.6,13.3-0.9l3.2-0.2c4.6-0.2,22.6-0.9,29.1-0.7"/>
			<path style="fill:none;stroke:#00A4A7;stroke-miterlimit:10;" d="M-171.7,369.6c2.4,0.2,4.4,0.4,6.4,0.6c4.1,0.7,8.1,1.7,12.1,3
				c5.7,1.6,12.4,2.3,19.7,2.4c3.5,0.1,7.1,0,10.6-0.4c4.3-0.4,8.8-0.9,13.4-1.3c7.4-0.7,14.9-1.3,21.4-1.2
				c4.2-0.1,9.2-0.5,13.4-0.8c1.2-0.1,2.2-0.1,3.2-0.2c4.9-0.2,22.6-0.8,29.3-0.6"/>
			<path style="fill:none;stroke:#00A4A7;stroke-miterlimit:10;" d="M-171.9,369.5c2.3,0.2,4.5,0.3,6.4,0.5
				c4.1,0.6,8.1,1.6,12.1,2.7c5.6,1.4,12.4,1.8,19.7,1.9c3.5,0,7-0.1,10.7-0.5c4.3-0.4,8.8-0.8,13.4-1c7.3-0.5,14.8-1,21.4-0.8
				c4.2,0,9.2-0.4,13.4-0.7l3.2-0.2c5.4-0.1,22.7-0.8,29.3-0.5"/>
			<path style="fill:none;stroke:#00A4A7;stroke-miterlimit:10;" d="M-172.2,369.4c2.4,0.2,4.5,0.2,6.4,0.5
				c3.4,0.5,7.2,1.2,12.1,2.5c5.5,1.2,12.4,1.3,19.7,1.4c3.5,0,7-0.1,10.8-0.4c4.3-0.3,8.8-0.5,13.4-0.8c7.3-0.4,14.7-0.7,21.4-0.5
				c4.3,0,9.2-0.4,13.4-0.6c1.1-0.1,2.2-0.1,3.2-0.1c5.7-0.1,22.7-0.8,29.4-0.5"/>
			<path style="fill:none;stroke:#00A4A7;stroke-miterlimit:10;" d="M-172.5,369.3c2.4,0.2,4.5,0.1,6.5,0.4c3.4,0.4,7.2,1,12.1,2.1
				c5.5,1.1,12.4,0.8,19.7,1c3.5,0,7.1-0.1,10.8-0.3c4.3-0.2,8.8-0.4,13.5-0.5c7.2-0.3,14.6-0.4,21.5-0.1c4.3,0.1,9.2-0.3,13.5-0.5
				c1.1-0.1,2.2-0.1,3.2-0.1c6.1-0.1,22.8-0.7,29.5-0.5"/>
			<path style="fill:none;stroke:#00A4A7;stroke-miterlimit:10;" d="M-172.6,369.2c2.4,0.2,4.5,0.1,6.5,0.4
				c3.2,0.4,7.2,0.9,12.1,1.9c5.4,1,12.4,0.4,19.7,0.5c3.6,0,7.2-0.1,10.8-0.2c4.3-0.1,8.8-0.3,13.5-0.3c7.2-0.1,14.5-0.1,21.5,0.3
				c4.3,0.1,9.2-0.2,13.5-0.4c1.1-0.1,2.2-0.1,3.2-0.1c6.4-0.1,22.9-0.6,29.5-0.4"/>
			<path style="fill:none;stroke:#00A4A7;stroke-miterlimit:10;" d="M-172.9,369.1c2.4,0.2,4.5,0,6.5,0.2c3.2,0.4,7.2,0.8,12,1.6
				c5.4,0.8,12.4-0.1,19.8,0.1c3.6,0,7.2,0,10.9-0.1c4.4-0.1,8.8-0.1,13.5,0c7,0,14.5,0.2,21.5,0.6c4.3,0.1,9.2-0.1,13.5-0.4
				c1.1-0.1,2.2-0.1,3.3-0.1c6.8-0.1,22.9-0.6,29.6-0.4"/>
			<path style="fill:none;stroke:#00A4A7;stroke-miterlimit:10;" d="M-173.1,369c2.4,0.2,4.5-0.1,6.5,0.1c3.1,0.3,7.2,0.6,12,1.3
				c5.3,0.6,12.4-0.5,19.8-0.4c3.6,0,7.2,0,10.9-0.1c4.4,0,8.8,0.1,13.5,0.2c6.9,0.1,14.5,0.5,21.6,1c4.3,0.1,9.2,0,13.6-0.2
				c1.1-0.1,2.2-0.1,3.3-0.1c7.2-0.1,22.9-0.5,29.8-0.3"/>
			<path style="fill:none;stroke:#00A4A7;stroke-miterlimit:10;" d="M-173.4,368.9c2.4,0.1,4.5-0.1,6.5,0.1c3,0.2,7.2,0.5,12,1.1
				c5.1,0.5,12.4-1.1,19.8-0.9h11c4.4,0.1,8.8,0.2,13.5,0.5c6.9,0.3,14.4,0.8,21.6,1.3c4.3,0.2,9.2,0.1,13.6-0.1
				c1.1-0.1,2.2-0.1,3.3-0.1c7.6-0.1,23-0.5,29.8-0.2"/>
			<path style="fill:none;stroke:#00A4A7;stroke-miterlimit:10;" d="M-173.6,368.8c2.4,0.1,4.5-0.1,6.5,0c2.9,0.2,7.3,0.4,12,0.7
				c5.1,0.4,12.4-1.6,19.9-1.4c3.7,0,7.3,0.1,10.9,0.1c4.4,0.1,8.8,0.4,13.6,0.8c6.8,0.5,14.3,1.1,21.6,1.7c4.3,0.3,9.2,0.1,13.7,0
				c1.1-0.1,2.2-0.1,3.3-0.1c7.9-0.1,23-0.5,29.9-0.2"/>
			<path style="fill:none;stroke:#00A4A7;stroke-miterlimit:10;" d="M-174,368.8c2.3,0.1,4.5-0.2,6.5-0.1c2.9,0.1,7.3,0.3,12,0.4
				c5,0.2,12.4-1.9,19.9-1.9c3.7,0,7.4,0.1,11,0.2c4.4,0.2,8.8,0.5,13.6,1.1c6.8,0.6,14.2,1.4,21.6,2.1c4.3,0.3,9.2,0.3,13.7,0.1
				c1.1-0.1,2.2-0.1,3.3-0.1c8.3-0.1,23-0.4,30-0.1"/>
			<path style="fill:none;stroke:#00A4A7;stroke-miterlimit:10;" d="M-174.2,368.8c2.4,0.1,4.5-0.3,6.5-0.2
				c2.9,0.1,7.3,0.1,11.9,0.1c5,0.1,12.4-2.5,20-2.3c3.7-0.1,7.4,0.1,11,0.3c4.4,0.3,8.8,0.7,13.6,1.2c6.8,0.8,14.2,1.7,21.7,2.5
				c4.3,0.4,9.2,0.4,13.8,0.2c1.1,0,2.2-0.1,3.3-0.1c8.7-0.1,23.1-0.4,30-0.1"/>
			<path style="fill:none;stroke:#00A4A7;stroke-miterlimit:10;" d="M-174.4,368.6c2.4,0.1,4.5-0.4,6.5-0.3c2.7,0.1,7.3,0,11.9-0.1
				c4.9-0.1,12.4-2.9,20-2.8c3.7-0.1,7.4,0.1,11,0.4c4.4,0.4,8.8,0.9,13.7,1.6c6.7,0.9,14.1,2,21.8,2.8c4.3,0.4,9.2,0.4,13.8,0.3
				c1.1,0,2.2-0.1,3.4-0.1c9-0.1,23.2-0.4,30.1,0"/>
			<path style="fill:none;stroke:#00A4A7;stroke-miterlimit:10;" d="M-174.6,368.5c2.4,0.1,4.5-0.4,6.6-0.4c2.6,0,7.3-0.1,11.9-0.4
				c4.9-0.3,12.4-3.4,20-3.3c3.7-0.1,7.3,0.1,10.9,0.4c4.4,0.4,8.8,1.1,13.7,1.8c6.6,1.1,14,2.3,21.8,3.1c4.6,0.4,9.2,0.5,13.8,0.4
				c1.1,0,2.2-0.1,3.4-0.1c9.3,0,23.3-0.3,30.2,0"/>
			<path style="fill:none;stroke:#00A4A7;stroke-miterlimit:10;" d="M-174.9,368.4c2.4,0.1,4.6-0.5,6.6-0.5c2.6,0,7.3-0.3,11.9-0.7
				c4.8-0.4,12.4-3.9,20-3.8c3.8-0.1,7.4,0.1,11.1,0.5c4.4,0.5,8.8,1.2,13.8,2.1c6.5,1.2,13.9,2.6,21.8,3.4
				c4.4,0.4,9.2,0.5,13.9,0.5h3.4c9.8,0,23.3-0.2,30.3,0.1"/>
			<path style="fill:none;stroke:#00A4A7;stroke-miterlimit:10;" d="M-175.2,368.4c2.4,0.1,4.6-0.5,6.6-0.5c2.5-0.1,7.3-0.4,11.9-1
				c4.7-0.5,12.4-4.3,20.1-4.1c3.7-0.1,7.4,0.1,11.1,0.5c4.4,0.5,8.8,1.4,13.8,2.3c6.4,1.3,13.9,2.9,21.8,3.9
				c4.6,0.5,9.2,0.6,13.9,0.5h3.3c10.1,0,23.4-0.2,30.4,0.1"/>
			<path style="fill:none;stroke:#00A4A7;stroke-miterlimit:10;" d="M-175.4,368.2c2.5,0.1,4.6-0.5,6.6-0.6
				c2.4-0.1,7.3-0.5,11.8-1.2c4.6-0.7,12.4-4.8,20.1-4.7c3.7-0.1,7.4,0.1,11.1,0.6c4.4,0.6,8.8,1.6,13.8,2.6
				c6.3,1.4,13.9,3.2,21.9,4.2c4.6,0.5,9.3,0.8,13.9,0.7h3.4c10.5,0,23.4-0.1,30.5,0.2"/>
			<path style="fill:none;stroke:#00A4A7;stroke-miterlimit:10;" d="M-175.6,368.1c2.5,0.1,4.6-0.6,6.6-0.7
				c2.3-0.1,7.4-0.7,11.8-1.6c4.5-0.8,12.4-5.2,20.1-5.1c3.7-0.1,7.4,0.1,11.2,0.7c4.4,0.6,8.8,1.7,13.8,2.8
				c7.3,1.9,14.5,3.5,21.9,4.6c4.6,0.6,9.3,0.8,13.9,0.8h3.4c10.9,0.1,23.5-0.1,30.5,0.2"/>
			<path style="fill:none;stroke:#00A4A7;stroke-miterlimit:10;" d="M-175.8,368.1c2.5,0.1,4.6-0.7,6.7-0.8c4-0.4,7.9-1,11.8-1.9
				c4.5-1.1,12.4-5.8,20.1-5.6c3.7-0.1,7.5,0.2,11.2,0.8c4.4,0.7,8.8,1.9,13.8,3.1c7.2,2.1,14.5,3.8,21.9,4.9
				c4.6,0.6,9.3,0.9,13.9,0.8h3.4c11.2,0.1,23.5-0.1,30.7,0.3"/>
			<path style="fill:none;stroke:#00A4A7;stroke-miterlimit:10;" d="M-154.6,363.8c4.5-1.9,10.9-5,17.1-5c3.7-0.1,7.5,0.3,11.2,0.9
				c4.4,0.8,8.8,2,13.9,3.4c7.2,2.4,14.5,4.1,22,5.4c4.6,0.6,9.3,1,14,1h3.4c11.6,0.1,23.5,0,30.7,0.4"/>
			<path style="fill:none;stroke:#00A4A7;stroke-miterlimit:10;" d="M-176.1,368c2.5,0.1,4.6-0.7,6.7-0.9c4-0.4,7.9-1.1,11.7-2.1
				c1-0.3,2-0.6,3-1.1"/>
			<path style="fill:none;stroke:#00A4A7;stroke-miterlimit:10;" d="M-176.4,367.9c2.5,0.1,4.6-0.8,6.7-1c4-0.5,7.9-1.3,11.7-2.5
				c4.4-1.3,12.4-6.7,20.2-6.5c9-0.3,16,2,25.1,4.6c9.3,3.1,21.6,6.8,36.1,6.7c13.1,0.1,26.3,0.1,34.2,0.4"/>
		</g>
		<g id="brachioradialis_2">
			<path style="fill:none;stroke:#00A4A7;stroke-miterlimit:10;" d="M-120.7,360c10.5,3.8,21.3,6.5,32.1,8.3
				c7.6,1.3,19.4,0.9,19.4,0.9"/>
			<path style="fill:none;stroke:#00A4A7;stroke-miterlimit:10;" d="M-120.7,360c13.2,4.3,23.9,6.7,31.3,7.8
				c7.4,1.3,18.9,1.2,20.8,1.4"/>
			<path style="fill:none;stroke:#00A4A7;stroke-miterlimit:10;" d="M-120.7,359.9c12.4,3.7,23.2,6.1,30.3,7.3
				c7.1,1.2,18.3,1.6,22,1.9"/>
			<path style="fill:none;stroke:#00A4A7;stroke-miterlimit:10;" d="M-120.7,359.9c11.4,3,22.5,5.8,29.4,6.9
				c7,1.2,17.7,1.9,23.3,2.3"/>
			<path style="fill:none;stroke:#00A4A7;stroke-miterlimit:10;" d="M-120.7,359.9c10.5,2.5,21.7,5.4,28.5,6.4
				c6.8,1.1,17.2,2.2,24.7,2.8"/>
			<path style="fill:none;stroke:#00A4A7;stroke-miterlimit:10;" d="M-120.5,359.9c9.6,1.9,21,4.9,27.6,6c6.6,1.1,16.6,2.6,25.9,3.4
				"/>
			<path style="fill:none;stroke:#00A4A7;stroke-miterlimit:10;" d="M-120.5,359.9c8.7,1.2,20.3,4.4,26.7,5.6
				c6.4,1.2,16.1,2.9,27.2,3.8"/>
			<path style="fill:none;stroke:#00A4A7;stroke-miterlimit:10;" d="M-120.5,359.8c7.7,0.6,19.6,4.1,25.7,5.1
				c6.2,1.1,15.4,3.2,28.5,4.3"/>
		</g>
	</g>
	<g id="pronator_quadratus">
		<g id="pronator_quadratus_1">
			<path style="fill:#84FFFF;stroke:#84FFFF;stroke-miterlimit:10;" d="M-60.6,382.3c1.2-0.1,1.9-0.1,3.2,0.2c1.7,0.3,3.4,0.1,5-0.5
				c1.9-0.6,3.9-1.4,5.6-1.8c0.9-0.3,1.9-0.6,2.7-0.8c0.6-0.2,3.6-0.9,4.8-1.1"/>
			<path style="fill:#84FFFF;stroke:#84FFFF;stroke-miterlimit:10;" d="M-60.7,382.2c0.4-0.1,0.7-0.1,1.1-0.1c0.6,0,1.2,0.1,2.1,0.2
				c1.1,0.1,2.2,0.1,3.4-0.2c0.6-0.1,1.2-0.3,1.7-0.5c0.7-0.3,1.4-0.5,2.1-0.7c1.2-0.4,2.4-0.8,3.4-1c0.6-0.2,1.5-0.4,2.1-0.6
				l0.5-0.1c0.7-0.2,3.7-0.9,4.8-1.1"/>
			<path style="fill:#84FFFF;stroke:#84FFFF;stroke-miterlimit:10;" d="M-60.8,382.2c0.4-0.1,0.7-0.1,1.1-0.1c0.7,0,1.4,0,2.1,0.1
				c1,0.1,2.1,0,3.4-0.3c0.6-0.1,1.2-0.3,1.7-0.4c0.7-0.3,1.4-0.5,2.1-0.6c1.2-0.4,2.4-0.7,3.4-0.9c0.6-0.2,1.5-0.4,2.1-0.6
				c0.2-0.1,0.4-0.1,0.5-0.1c0.8-0.2,3.7-0.9,4.8-1.1"/>
			<path style="fill:#84FFFF;stroke:#84FFFF;stroke-miterlimit:10;" d="M-60.8,382.2c0.4-0.1,0.8-0.1,1.1-0.1c0.7,0,1.4,0,2.1,0.1
				c1,0.1,2.1-0.1,3.3-0.3c0.6-0.1,1.1-0.3,1.7-0.4c0.7-0.2,1.4-0.4,2.1-0.6c1.2-0.4,2.4-0.6,3.4-0.8c0.7-0.1,1.5-0.4,2.2-0.6
				l0.5-0.1c0.9-0.2,3.7-0.9,4.8-1.1"/>
			<path style="fill:#84FFFF;stroke:#84FFFF;stroke-miterlimit:10;" d="M-60.8,382.2c0.4-0.1,0.7-0.1,1.1-0.1c0.6,0,1.2-0.1,2.1,0
				c1,0.1,2.1-0.2,3.3-0.4c0.6-0.1,1.1-0.3,1.7-0.4c0.7-0.2,1.4-0.4,2.1-0.6c1.2-0.3,2.4-0.6,3.5-0.8c0.7-0.1,1.5-0.4,2.2-0.5
				c0.2-0.1,0.4-0.1,0.5-0.1c1-0.3,3.7-0.9,4.9-1.1"/>
			<path style="fill:#84FFFF;stroke:#84FFFF;stroke-miterlimit:10;" d="M-60.8,382.2c0.4-0.1,0.7-0.1,1.1-0.1c0.5-0.1,1.2-0.1,2.1,0
				c1,0,2.1-0.3,3.3-0.5c0.6-0.1,1.2-0.3,1.8-0.4c0.7-0.2,1.4-0.4,2.2-0.5c1.2-0.3,2.4-0.5,3.5-0.7c0.7-0.1,1.5-0.4,2.2-0.5
				c0.2-0.1,0.4-0.1,0.5-0.1c1-0.3,3.7-0.9,4.9-1.1"/>
			<path style="fill:#84FFFF;stroke:#84FFFF;stroke-miterlimit:10;" d="M-60.8,382.2c0.4-0.1,0.7-0.1,1.1-0.2c0.5-0.1,1.2-0.1,2-0.1
				c0.9,0,2-0.4,3.3-0.6c0.6-0.1,1.2-0.3,1.8-0.4c0.7-0.2,1.4-0.4,2.2-0.5c1.2-0.3,2.4-0.5,3.5-0.6c0.7-0.1,1.5-0.4,2.2-0.5
				c0.2-0.1,0.4-0.1,0.5-0.1c1.1-0.3,3.7-0.9,4.9-1.1"/>
			<path style="fill:#84FFFF;stroke:#84FFFF;stroke-miterlimit:10;" d="M-60.9,382.2c0.4-0.1,0.7-0.2,1.1-0.2c0.5-0.1,1.2-0.1,2-0.1
				c0.9-0.1,2-0.4,3.3-0.6c0.6-0.1,1.2-0.3,1.8-0.4c0.7-0.2,1.4-0.3,2.2-0.5c1.1-0.3,2.4-0.5,3.6-0.6c0.7-0.1,1.5-0.3,2.2-0.5
				c0.2-0.1,0.4-0.1,0.5-0.1c1.1-0.3,3.8-0.9,4.9-1.1"/>
			<path style="fill:#84FFFF;stroke:#84FFFF;stroke-miterlimit:10;" d="M-61,382.2c0.4-0.1,0.7-0.2,1.1-0.2c0.5-0.1,1.2-0.1,2-0.2
				c0.9-0.1,2-0.5,3.2-0.7c0.6-0.1,1.2-0.3,1.8-0.4c0.7-0.1,1.4-0.3,2.2-0.4c1.1-0.2,2.4-0.4,3.6-0.5c0.7-0.1,1.5-0.3,2.2-0.5
				c0.2-0.1,0.4-0.1,0.5-0.1c1.2-0.3,3.8-0.8,4.9-1"/>
			<path style="fill:#84FFFF;stroke:#84FFFF;stroke-miterlimit:10;" d="M-61,382.1c0.4-0.1,0.7-0.2,1.1-0.2c0.5-0.1,1.2-0.1,2-0.3
				c0.8-0.1,1.9-0.6,3.2-0.8l1.8-0.4c0.7-0.1,1.4-0.3,2.3-0.4c1.1-0.2,2.4-0.4,3.6-0.5c0.7-0.1,1.5-0.3,2.2-0.5
				c0.2-0.1,0.4-0.1,0.5-0.1c1.2-0.3,3.8-0.8,4.9-1"/>
			<path style="fill:#84FFFF;stroke:#84FFFF;stroke-miterlimit:10;" d="M-61,382.1c0.4-0.1,0.7-0.2,1.1-0.3c0.5-0.1,1.2-0.2,1.9-0.3
				c0.8-0.1,1.9-0.6,3.2-0.9c0.6-0.1,1.2-0.3,1.8-0.4c0.7-0.1,1.4-0.3,2.3-0.3c1.1-0.1,2.4-0.3,3.6-0.4c0.7-0.1,1.5-0.3,2.3-0.5
				c0.2-0.1,0.4-0.1,0.5-0.1c1.3-0.3,3.8-0.8,4.9-1"/>
			<path style="fill:#84FFFF;stroke:#84FFFF;stroke-miterlimit:10;" d="M-61.1,382.1c0.4-0.1,0.7-0.2,1.1-0.3
				c0.5-0.1,1.2-0.2,1.9-0.3c0.8-0.1,1.9-0.8,3.2-1c0.6-0.1,1.2-0.3,1.8-0.4c0.7-0.1,1.5-0.2,2.3-0.3c1.1-0.1,2.4-0.3,3.6-0.4
				c0.7-0.1,1.5-0.3,2.3-0.4c0.2-0.1,0.4-0.1,0.5-0.1c1.4-0.3,3.8-0.8,4.9-1"/>
			<path style="fill:#84FFFF;stroke:#84FFFF;stroke-miterlimit:10;" d="M-61.2,382.1c0.4-0.1,0.7-0.2,1.1-0.3
				c0.5-0.1,1.2-0.3,1.9-0.4c0.8-0.2,1.9-0.8,3.2-1.1c0.6-0.1,1.2-0.3,1.8-0.3c0.7-0.1,1.5-0.2,2.3-0.3c1.1-0.1,2.4-0.2,3.6-0.3
				c0.7-0.1,1.5-0.3,2.3-0.4c0.2-0.1,0.4-0.1,0.5-0.1c1.4-0.3,3.8-0.8,4.9-1"/>
			<path style="fill:#84FFFF;stroke:#84FFFF;stroke-miterlimit:10;" d="M-61.2,382.1c0.4-0.1,0.7-0.3,1.1-0.3
				c0.4-0.1,1.2-0.3,1.9-0.4c0.8-0.2,1.9-0.9,3.2-1.1c0.6-0.1,1.2-0.3,1.9-0.3c0.7-0.1,1.5-0.1,2.3-0.2c1.1-0.1,2.4-0.1,3.6-0.3
				c0.7-0.1,1.5-0.3,2.3-0.4c0.2-0.1,0.4-0.1,0.5-0.1c1.5-0.3,3.8-0.8,4.9-1"/>
			<path style="fill:#84FFFF;stroke:#84FFFF;stroke-miterlimit:10;" d="M-61.2,382.1c0.4-0.1,0.7-0.3,1.1-0.3
				c0.4-0.1,1.2-0.3,1.9-0.5c0.8-0.3,1.9-1,3.2-1.2c0.6-0.1,1.2-0.3,1.8-0.3c0.7-0.1,1.5-0.1,2.3-0.1c1.1-0.1,2.4-0.1,3.7-0.2
				c0.8-0.1,1.6-0.3,2.3-0.4c0.2-0.1,0.4-0.1,0.5-0.1c1.6-0.3,3.8-0.8,4.9-1"/>
			<path style="fill:#84FFFF;stroke:#84FFFF;stroke-miterlimit:10;" d="M-61.3,382.1c0.4-0.1,0.7-0.3,1.1-0.3
				c0.4-0.1,1.2-0.3,1.9-0.5c0.8-0.3,1.9-1.1,3.2-1.3c0.6-0.1,1.2-0.3,1.9-0.3c0.7-0.1,1.5-0.1,2.3-0.1c1.1,0,2.4,0,3.7-0.1
				c0.7-0.1,1.6-0.3,2.3-0.4l0.5-0.1c1.6-0.3,3.8-0.8,4.9-1"/>
			<path style="fill:#84FFFF;stroke:#84FFFF;stroke-miterlimit:10;" d="M-61.4,382.1c0.4-0.1,0.7-0.3,1.1-0.3
				c0.4-0.1,1.2-0.3,1.9-0.5c0.8-0.3,1.9-1.1,3.2-1.4c0.6-0.1,1.2-0.3,1.9-0.3c0.7-0.1,1.5-0.1,2.3-0.1c1.1,0,2.4,0.1,3.7-0.1
				c0.8-0.1,1.6-0.2,2.3-0.4l0.5-0.1c1.7-0.4,3.8-0.8,5-1"/>
			<path style="fill:#84FFFF;stroke:#84FFFF;stroke-miterlimit:10;" d="M-61.4,382.1c0.4-0.1,0.7-0.3,1.1-0.4
				c0.4-0.1,1.2-0.4,1.9-0.6c0.7-0.3,1.9-1.2,3.1-1.5c0.6-0.1,1.2-0.3,1.9-0.3c0.8-0.1,1.5,0,2.3,0c1.1,0.1,2.4,0.1,3.8,0
				c0.8-0.1,1.6-0.2,2.3-0.4l0.5-0.1c1.7-0.4,3.8-0.8,5-1"/>
			<path style="fill:#84FFFF;stroke:#84FFFF;stroke-miterlimit:10;" d="M-61.4,382.1c0.4-0.1,0.7-0.3,1.1-0.4
				c0.4-0.1,1.2-0.4,1.9-0.6c0.7-0.3,1.9-1.3,3.1-1.6c0.6-0.1,1.2-0.3,1.9-0.3c0.8-0.1,1.5,0,2.4,0.1c1.2,0.1,2.5,0.1,3.8,0.1
				c0.8-0.1,1.6-0.2,2.3-0.4l0.5-0.1c1.8-0.4,3.9-0.8,5-1"/>
			<path style="fill:#84FFFF;stroke:#84FFFF;stroke-miterlimit:10;" d="M-61.5,382.1c0.4-0.1,0.7-0.3,1.1-0.4
				c0.6-0.2,1.2-0.4,1.9-0.7c0.7-0.4,1.9-1.4,3.1-1.7c0.6-0.1,1.2-0.3,1.9-0.3c0.8,0,1.5,0.1,2.4,0.1c1.2,0.1,2.5,0.2,3.8,0.1
				c0.8-0.1,1.6-0.2,2.3-0.3l0.5-0.1c1.9-0.4,3.9-0.8,5-1"/>
			<path style="fill:#84FFFF;stroke:#84FFFF;stroke-miterlimit:10;" d="M-58.1,380.7c0.6-0.5,1.6-1.2,2.6-1.4
				c0.6-0.1,1.2-0.2,1.9-0.3c0.8,0,1.5,0.1,2.4,0.1c1.2,0.2,2.6,0.3,3.8,0.2c0.8-0.1,1.6-0.1,2.3-0.3l0.5-0.1c1.9-0.4,3.9-0.8,5-1"
				/>
			<path style="fill:#84FFFF;stroke:#84FFFF;stroke-miterlimit:10;" d="M-61.5,382.1c0.4-0.1,0.7-0.3,1.1-0.4
				c0.6-0.2,1.2-0.5,1.9-0.8c0.2-0.1,0.3-0.2,0.5-0.3"/>
			<path style="fill:#84FFFF;stroke:#84FFFF;stroke-miterlimit:10;" d="M-61.6,382.1c0.4-0.1,0.7-0.3,1.1-0.4
				c0.6-0.3,1.2-0.5,1.9-0.8c0.6-0.4,1.8-1.6,3.1-1.8c1.5-0.4,2.7-0.2,4.3-0.1c1.6,0.3,3.8,0.5,6.1-0.1c2.1-0.4,4.3-0.9,5.6-1.1"/>
		</g>
		<g id="bracpronator_quadratus_2">
			<path style="fill:#84FFFF;stroke:#84FFFF;stroke-miterlimit:10;" d="M-52.7,378.8c1.9,0.3,3.7,0.4,5.6,0.4c1.3,0,3.2-0.5,3.2-0.5
				"/>
			<path style="fill:#84FFFF;stroke:#84FFFF;stroke-miterlimit:10;" d="M-52.7,378.8c2.3,0.3,4.1,0.4,5.4,0.3c1.2,0,3.2-0.4,3.4-0.5
				"/>
			<path style="fill:#84FFFF;stroke:#84FFFF;stroke-miterlimit:10;" d="M-52.7,378.8c2.1,0.3,4,0.3,5.2,0.3c1.2-0.1,3-0.4,3.7-0.4"
				/>
			<path style="fill:#84FFFF;stroke:#84FFFF;stroke-miterlimit:10;" d="M-52.7,378.8c1.9,0.2,3.9,0.3,5,0.3s3-0.3,3.9-0.4"/>
			<path style="fill:#84FFFF;stroke:#84FFFF;stroke-miterlimit:10;" d="M-52.7,378.8c1.8,0.1,3.8,0.3,4.9,0.2s2.9-0.2,4.1-0.3"/>
			<path style="fill:#84FFFF;stroke:#84FFFF;stroke-miterlimit:10;" d="M-52.6,378.8c1.6,0,3.6,0.2,4.7,0.1c1.1,0,2.8-0.1,4.3-0.3"
				/>
			<path style="fill:#84FFFF;stroke:#84FFFF;stroke-miterlimit:10;" d="M-52.6,378.8c1.4-0.1,3.4,0.1,4.6,0.1c1.1-0.1,2.7,0,4.6-0.3
				"/>
			<path style="fill:#84FFFF;stroke:#84FFFF;stroke-miterlimit:10;" d="M-52.7,378.8c1.3-0.1,3.4,0.1,4.4,0.1s2.6,0.1,4.9-0.2"/>
		</g>
	</g>
</g>
<text transform="matrix(1 0 0 1 -176.9786 419.2393)" style="fill:#FFFFFF; font-family:'Roboto Condensed'; font-size:10.0062px;">FCR</text>
<text transform="matrix(1 0 0 1 -101.6015 419.2386)" style="fill:#FFFFFF; font-family:'Roboto Condensed'; font-size:10.0062px;">BR</text>
<g>
	
		<rect id="emg_quality_bar_6_" x="-101.1" y="421.8" style="fill:#DD8452;stroke:#DD8452;stroke-miterlimit:10;" width="45.4" height="9.8"/>
	<g>
		
			<rect id="emg_quality_bar_5_" x="-101.1" y="421.9" style="fill:none;stroke:#DD8452;stroke-miterlimit:10;" width="45.4" height="9.8"/>
	</g>
</g>
<g>
	<g>
		<rect id="emg_quality_bar_4_" x="-177" y="421.8" style="fill:#4C72B0;" width="45.4" height="9.8"/>
		<g>
			<rect id="emg_quality_bar_3_" x="-177" y="421.9" style="fill:#4C72B0;" width="45.4" height="9.8"/>
		</g>
	</g>
	
		<text id="emg_quality_percentage_2_" transform="matrix(1 0 0 1 -130.9318 429.3762)" style="fill:#FFFFFF; font-family:'Roboto Condensed'; font-size:9px;">100%</text>
</g>
<text id="emg_quality_percentage_3_" transform="matrix(1 0 0 1 -55.6847 429.3762)" style="fill:#FFFFFF; font-family:'Roboto Condensed'; font-size:9px;">100%</text>
<text transform="matrix(1 0 0 1 -26.3231 419.2388)" style="fill:#FFFFFF; font-family:'RobotoCondensed-Regular'; font-size:10.0062px;">PL</text>
<g>
	<rect id="emg_quality_bar_8_" x="-26.6" y="421.8" style="fill:#55A868;" width="45.4" height="9.8"/>
	<g>
		
			<rect id="emg_quality_bar_7_" x="-26.6" y="421.9" style="fill:none;stroke:#55A868;stroke-miterlimit:10;" width="45.4" height="9.8"/>
	</g>
</g>
<text id="emg_quality_percentage_4_" transform="matrix(1 0 0 1 19.4348 429.3762)" style="fill:#FFFFFF; font-family:'Roboto Condensed'; font-size:9px;">100%</text>
<text transform="matrix(1 0 0 1 -176.979 445.7744)" style="fill:#FFFFFF; font-family:'RobotoCondensed-Regular'; font-size:10.0062px;">PQ</text>
<g>
	<g>
		<rect id="emg_quality_bar_10_" x="-177" y="449.4" style="fill:#C44E52;" width="45.4" height="9.8"/>
		<g>
			
				<rect id="emg_quality_bar_9_" x="-177" y="449.5" style="fill:none;stroke:#C44E52;stroke-miterlimit:10;" width="45.4" height="9.8"/>
		</g>
	</g>
	
		<text id="emg_quality_percentage_5_" transform="matrix(1 0 0 1 -130.9318 456.961)" style="fill:#FFFFFF; font-family:'Roboto Condensed'; font-size:9px;">100%</text>
</g>
<text transform="matrix(1 0 0 1 -101.6605 445.7743)" style="fill:#FFFFFF; font-family:'Roboto Condensed'; font-size:10.0062px;">FCU</text>
<g>
	<g>
		
			<rect id="emg_quality_bar_12_" x="-101.2" y="449.4" style="fill:#8172B3;stroke:#8172B3;stroke-miterlimit:10;" width="45.4" height="9.8"/>
		<g>
			
				<rect id="emg_quality_bar_11_" x="-101.2" y="449.5" style="fill:none;stroke:#8172B3;stroke-miterlimit:10;" width="45.4" height="9.8"/>
		</g>
	</g>
	
		<text id="emg_quality_percentage_6_" transform="matrix(1 0 0 1 -55.1258 456.9608)" style="fill:#FFFFFF; font-family:'Roboto Condensed'; font-size:9px;">100%</text>
</g>
<text transform="matrix(1 0 0 1 -143.7413 477.8923)" style="fill:#FFFFFF; font-family:'Roboto Condensed'; font-size:12px;">EDA</text>
<text transform="matrix(1 0 0 1 -29.9681 477.8917)" style="fill:#FFFFFF; font-family:'Roboto Condensed'; font-size:12px;">ECG</text>
<line style="fill:none;stroke:#FFFFFF;stroke-miterlimit:10;" x1="-183.9" y1="464" x2="42.8" y2="464"/>
<line style="fill:none;stroke:#FFFFFF;stroke-miterlimit:10;" x1="-183.9" y1="343" x2="42.8" y2="343"/>
</svg>
